<?xml version="1.0" encoding="UTF-8" standalone="no"?>
<!-- Created with Inkscape (http://www.inkscape.org/) -->

<svg
   width="42.618378mm"
   height="42.670467mm"
   viewBox="0 0 42.618378 42.670467"
   version="1.1"
   id="svg16775"
   inkscape:version="1.2.1 (9c6d41e410, 2022-07-14)"
   sodipodi:docname="Biochar.svg"
   inkscape:export-filename="Biochar.png"
   inkscape:export-xdpi="499"
   inkscape:export-ydpi="499"
   xmlns:inkscape="http://www.inkscape.org/namespaces/inkscape"
   xmlns:sodipodi="http://sodipodi.sourceforge.net/DTD/sodipodi-0.dtd"
   xmlns:xlink="http://www.w3.org/1999/xlink"
   xmlns="http://www.w3.org/2000/svg"
   xmlns:svg="http://www.w3.org/2000/svg">
  <sodipodi:namedview
     id="namedview16777"
     pagecolor="#ffffff"
     bordercolor="#666666"
     borderopacity="1.0"
     inkscape:showpageshadow="2"
     inkscape:pageopacity="0.0"
     inkscape:pagecheckerboard="0"
     inkscape:deskcolor="#d1d1d1"
     inkscape:document-units="mm"
     showgrid="false"
     inkscape:zoom="3.1251122"
     inkscape:cx="107.67613"
     inkscape:cy="116.79581"
     inkscape:window-width="1175"
     inkscape:window-height="697"
     inkscape:window-x="97"
     inkscape:window-y="-8"
     inkscape:window-maximized="1"
     inkscape:current-layer="layer4" />
  <defs
     id="defs16772">
    <clipPath
       clipPathUnits="userSpaceOnUse"
       id="clipPath1439-0">
      <path
         d="m 423.141,415.679 c 6.687,9.722 10.608,21.493 10.608,34.184 10e-4,33.36 -27.043,60.404 -60.403,60.404 -33.361,0 -60.404,-27.044 -60.405,-60.404 0,-12.691 3.922,-24.462 10.609,-34.184 z"
         id="path1437-3" />
    </clipPath>
    <clipPath
       clipPathUnits="userSpaceOnUse"
       id="clipPath1443-3">
      <path
         d="M -32768,32767 H 32767 V -32768 H -32768 Z"
         id="path1441-4" />
    </clipPath>
    <linearGradient
       x1="0"
       y1="0"
       x2="1"
       y2="0"
       gradientUnits="userSpaceOnUse"
       gradientTransform="matrix(0,263.31009,-263.31009,0,1190.6958,-779.70531)"
       spreadMethod="pad"
       id="linearGradient1449">
      <stop
         style="stop-opacity:1;stop-color:#ffffff"
         offset="0"
         id="stop1445" />
      <stop
         style="stop-opacity:0;stop-color:#ffffff"
         offset="1"
         id="stop1447" />
    </linearGradient>
    <linearGradient
       inkscape:collect="always"
       xlink:href="#linearGradient1467"
       id="linearGradient4598"
       gradientUnits="userSpaceOnUse"
       gradientTransform="matrix(0,-92.889946,-92.889946,0,659.27736,506.70306)"
       x1="0"
       y1="0"
       x2="1"
       y2="0"
       spreadMethod="pad" />
    <linearGradient
       x1="0"
       y1="0"
       x2="1"
       y2="0"
       gradientUnits="userSpaceOnUse"
       gradientTransform="matrix(0,-92.889946,-92.889946,0,373.34549,510.6391)"
       spreadMethod="pad"
       id="linearGradient1467">
      <stop
         style="stop-opacity:1;stop-color:#4081cb"
         offset="0"
         id="stop1463" />
      <stop
         style="stop-opacity:1;stop-color:#4081cb"
         offset="1"
         id="stop1465" />
    </linearGradient>
    <mask
       maskUnits="userSpaceOnUse"
       id="mask17388">
      <g
         id="g17402"
         style="stroke-width:0.352777"
         transform="matrix(2.8346458,0,0,-2.8346458,132.39365,667.77563)">
        <g
           id="g17400"
           style="stroke-width:0.352777">
          <g
             id="g17398"
             style="stroke-width:1"
             transform="matrix(0.35277777,0,0,-0.35277777,-46.705536,235.5764)">
            <g
               clip-path="url(#clipPath1443-3)"
               id="g17396"
               style="stroke-width:1">
              <g
                 id="g17394"
                 style="stroke-width:1">
                <g
                   id="g17392"
                   style="stroke-width:1">
                  <path
                     d="M -32768,32767 H 32767 V -32768 H -32768 Z"
                     style="fill:url(#linearGradient17404);stroke:none;stroke-width:1"
                     id="path17390" />
                </g>
              </g>
            </g>
          </g>
        </g>
      </g>
    </mask>
    <linearGradient
       inkscape:collect="always"
       xlink:href="#linearGradient1449"
       id="linearGradient17404"
       gradientUnits="userSpaceOnUse"
       gradientTransform="matrix(0,-92.889946,-92.889946,0,373.34548,510.63909)"
       x1="0"
       y1="0"
       x2="1"
       y2="0"
       spreadMethod="pad" />
    <clipPath
       clipPathUnits="userSpaceOnUse"
       id="clipPath17406">
      <g
         id="g17420"
         style="stroke-width:0.352777"
         transform="matrix(2.8346458,0,0,-2.8346458,132.39365,667.77563)">
        <g
           id="g17418"
           style="stroke-width:0.352777">
          <g
             id="g17416"
             style="stroke-width:0.352777">
            <g
               id="g17414"
               style="stroke-width:0.352777">
              <g
                 id="g17412"
                 style="stroke-width:0.352777">
                <g
                   id="g17410"
                   style="stroke-width:0.352777">
                  <path
                     d="M 63.693092,55.565546 H 106.31147 V 88.934089 H 63.693092 Z"
                     id="path17408"
                     style="stroke-width:0.352777" />
                </g>
              </g>
            </g>
          </g>
        </g>
      </g>
    </clipPath>
  </defs>
  <g
     inkscape:label="Ebene 1"
     inkscape:groupmode="layer"
     id="layer1"
     transform="translate(-63.693092,-55.56555)">
    <rect
       style="fill:#ffffff;stroke-width:0.176389;stroke-miterlimit:1"
       id="rect17422"
       width="42.585804"
       height="42.585804"
       x="63.693092"
       y="55.650211" />
    <path
       d="m 423.141,415.679 c 6.687,9.722 10.608,21.493 10.608,34.184 10e-4,33.36 -27.043,60.404 -60.403,60.404 -33.361,0 -60.404,-27.044 -60.405,-60.404 0,-12.691 3.922,-24.462 10.609,-34.184 z"
       style="opacity:0.320007;fill:url(#linearGradient4598);stroke:none"
       id="path1471-4"
       transform="matrix(0.35277777,0,0,-0.35277777,-46.705536,235.5764)"
       mask="url(#mask17388)"
       clip-path="url(#clipPath17406)" />
    <path
       d="m 67.009986,88.285366 c 3.78037,5.947824 10.42282,9.898234 17.99237,9.898234 7.56955,0 14.21236,-3.95041 17.992734,-9.898234 z"
       style="fill:#6a5e50;fill-opacity:1;fill-rule:nonzero;stroke:none;stroke-width:0.352778"
       id="path1489-2"
       inkscape:export-filename="C:\Users\lamw\ownCloud\Figures\NETs\fancy visuals\biochar.png"
       inkscape:export-xdpi="499"
       inkscape:export-ydpi="499" />
    <path
       d="m 90.398116,86.126356 -0.99095,-0.3362 c -0.33761,0.25894 -0.46144,0.52917 -0.36513,0.81174 l 0.49601,0.57045 0.74859,-0.24942 c 0.26988,-0.0896 0.36372,-0.2607 0.28222,-0.50024 -0.0275,-0.0843 -0.0797,-0.18626 -0.17074,-0.29633"
       style="fill:#393536;fill-opacity:1;fill-rule:nonzero;stroke:none;stroke-width:0.352778"
       id="path1523-6"
       inkscape:export-filename="C:\Users\lamw\ownCloud\Figures\NETs\fancy visuals\biochar.png"
       inkscape:export-xdpi="499"
       inkscape:export-ydpi="499" />
    <path
       d="m 96.148206,77.548356 -0.99095,-0.3362 c -0.33761,0.25894 -0.46144,0.52917 -0.36513,0.81174 l 0.49601,0.57045 0.74859,-0.24942 c 0.26988,-0.0896 0.36372,-0.2607 0.28222,-0.50024 -0.0275,-0.0843 -0.0797,-0.18626 -0.17074,-0.29633"
       style="fill:#393536;fill-opacity:1;fill-rule:nonzero;stroke:none;stroke-width:0.352778"
       id="path1527-7"
       inkscape:export-filename="C:\Users\lamw\ownCloud\Figures\NETs\fancy visuals\biochar.png"
       inkscape:export-xdpi="499"
       inkscape:export-ydpi="499" />
    <path
       d="m 98.225626,83.680436 c -0.21907,-0.10619 -0.44521,-0.12277 -0.68897,-0.0427 -0.12983,0.0427 -0.26318,0.12806 -0.41346,0.25753 l 0.0399,1.17299 1.13701,-0.14217 c 0.29739,-0.33902 0.40922,-0.61454 0.34043,-0.82656 -0.0579,-0.16828 -0.19438,-0.31009 -0.41487,-0.41909"
       style="fill:#393536;fill-opacity:1;fill-rule:nonzero;stroke:none;stroke-width:0.352778"
       id="path1531-5"
       inkscape:export-filename="C:\Users\lamw\ownCloud\Figures\NETs\fancy visuals\biochar.png"
       inkscape:export-xdpi="499"
       inkscape:export-ydpi="499" />
    <path
       d="m 91.459536,78.554306 0.007,0.0236 c -0.0427,0.0152 -0.248,-0.0332 -0.62018,-0.15029 -0.17921,-0.0621 -0.35948,-0.12947 -0.5401,-0.20002 -0.25647,0.0871 -0.41769,0.34325 -0.47943,0.76623 -0.0621,0.42439 -0.0208,0.8502 0.121,1.27882 0.0388,0.11571 0.127,0.2413 0.26882,0.38594 l 0.24271,0.22754 0.41875,-0.0222 c 0.47272,-0.20532 0.74154,-0.31821 0.81315,-0.34326 0.17075,-0.10336 0.28505,-0.31679 0.34431,-0.63782 0.0593,-0.32385 0.036,-0.63112 -0.0646,-0.92886 -0.11288,-0.34042 -0.28257,-0.47554 -0.51117,-0.39969"
       style="fill:#393536;fill-opacity:1;fill-rule:nonzero;stroke:none;stroke-width:0.352778"
       id="path1535-6"
       inkscape:export-filename="C:\Users\lamw\ownCloud\Figures\NETs\fancy visuals\biochar.png"
       inkscape:export-xdpi="499"
       inkscape:export-ydpi="499" />
    <path
       d="m 89.626496,82.046456 -0.24659,0.89288 c 0.18203,0.15981 0.44661,0.27129 0.79798,0.32385 l 0.83079,-0.27975 -0.42016,-1.25836 z"
       style="fill:#393536;fill-opacity:1;fill-rule:nonzero;stroke:none;stroke-width:0.352778"
       id="path1539-2"
       inkscape:export-filename="C:\Users\lamw\ownCloud\Figures\NETs\fancy visuals\biochar.png"
       inkscape:export-xdpi="499"
       inkscape:export-ydpi="499" />
    <path
       d="m 93.854536,80.439546 -0.248,0.89288 c 0.1845,0.15981 0.44626,0.27023 0.79904,0.32385 l 0.83114,-0.27693 -0.42192,-1.26083 z"
       style="fill:#393536;fill-opacity:1;fill-rule:nonzero;stroke:none;stroke-width:0.352778"
       id="path1543-6"
       inkscape:export-filename="C:\Users\lamw\ownCloud\Figures\NETs\fancy visuals\biochar.png"
       inkscape:export-xdpi="499"
       inkscape:export-ydpi="499" />
    <path
       d="m 94.464846,87.135276 -0.24659,0.89182 c 0.1845,0.16263 0.44661,0.26988 0.79798,0.32385 l 0.8322,-0.27693 -0.42157,-1.25977 z"
       style="fill:#393536;fill-opacity:1;fill-rule:nonzero;stroke:none;stroke-width:0.352778"
       id="path1547-9"
       inkscape:export-filename="C:\Users\lamw\ownCloud\Figures\NETs\fancy visuals\biochar.png"
       inkscape:export-xdpi="499"
       inkscape:export-ydpi="499" />
    <path
       d="m 94.230596,83.176396 c -0.48225,-0.53622 -1.07632,-0.68651 -1.78576,-0.44803 l -0.10478,0.0346 c -0.33619,0.29634 -0.61348,0.73026 -0.84631,1.28976 -0.22578,0.53622 -0.29069,0.95638 -0.19015,1.26224 0.008,0.0236 0.22896,0.22613 0.65617,0.61066 0.45473,0.37182 0.70802,0.62124 0.762,0.74683 l 1.34479,-0.45191 c 0.15593,-0.0512 0.30586,-0.12418 0.44944,-0.21661 0.14605,-0.0935 0.26705,-0.20249 0.36653,-0.32102 0.0977,-0.11713 0.17075,-0.23707 0.21626,-0.35666 0.0427,-0.11854 0.0497,-0.23319 0.0123,-0.34043 -0.28927,-0.87242 -0.5842,-1.47461 -0.88053,-1.8094"
       style="fill:#393536;fill-opacity:1;fill-rule:nonzero;stroke:none;stroke-width:0.352778"
       id="path1551-3"
       inkscape:export-filename="C:\Users\lamw\ownCloud\Figures\NETs\fancy visuals\biochar.png"
       inkscape:export-xdpi="499"
       inkscape:export-ydpi="499" />
    <path
       d="m 96.820646,89.322496 -0.24659,0.892884 c 0.18203,0.15981 0.44661,0.27129 0.79798,0.32385 l 0.83079,-0.27975 -0.42016,-1.258364 z"
       style="fill:#393536;fill-opacity:1;fill-rule:nonzero;stroke:none;stroke-width:0.352778"
       id="path1579-6"
       inkscape:export-filename="C:\Users\lamw\ownCloud\Figures\NETs\fancy visuals\biochar.png"
       inkscape:export-xdpi="499"
       inkscape:export-ydpi="499" />
    <path
       d="m 98.584536,86.500276 -0.24659,0.89288 c 0.18203,0.15981 0.44661,0.27129 0.79798,0.32385 l 0.83079,-0.27975 -0.42016,-1.25836 z"
       style="fill:#393536;fill-opacity:1;fill-rule:nonzero;stroke:none;stroke-width:0.352778"
       id="path1583-2"
       inkscape:export-filename="C:\Users\lamw\ownCloud\Figures\NETs\fancy visuals\biochar.png"
       inkscape:export-xdpi="499"
       inkscape:export-ydpi="499" />
    <path
       d="m 76.352652,83.663643 c -0.05252,0 -0.103811,-8.66e-4 -0.155106,-0.0035 -0.04183,-8.65e-4 -0.08366,-0.0043 -0.125185,-0.0087 v 8.66e-4 c 0.02596,0.0026 0.0513,0.0035 0.07725,0.0052 -0.02504,-8.66e-4 -0.0513,-0.0026 -0.07633,-0.0052 v 0.01064 4.517941 c 0,0.155105 0.125491,0.280291 0.280292,0.280291 0.155106,0 0.280291,-0.125186 0.280291,-0.280291 v -4.517941 -0.01064 c -0.02504,0.0026 -0.0513,0.0026 -0.07633,0.0052 0.02626,-8.66e-4 0.0513,-0.0026 0.07755,-0.0052 v -8.66e-4 c -0.04153,0.0026 -0.08336,0.0061 -0.125183,0.0087 -0.05374,0.0026 -0.106255,0.0035 -0.157245,0.0035"
       style="fill:#6a5e50;fill-opacity:1;fill-rule:nonzero;stroke:none;stroke-width:0.352778"
       id="path1387-6" />
    <path
       d="m 70.311427,83.663643 c -0.09404,0 -0.187167,-0.0043 -0.279986,-0.01065 v 0.01065 4.51794 c 0,0.155106 0.125184,0.280292 0.279986,0.280292 0.155106,0 0.280291,-0.125186 0.280291,-0.280292 v -4.51916 -0.01065 c -0.09282,0.0069 -0.185945,0.01194 -0.280291,0.01194"
       style="fill:#6a5e50;fill-opacity:1;fill-rule:nonzero;stroke:none;stroke-width:0.352778"
       id="path1391-7" />
    <path
       d="m 76.353873,76.012723 c -2.110123,0 -3.820267,1.710145 -3.820267,3.81996 0,2.015778 1.561143,3.665165 3.539976,3.808362 v -1.220092 l -1.835634,-1.056738 c -0.134955,-0.07755 -0.180143,-0.249151 -0.10259,-0.382887 0.07756,-0.134646 0.249148,-0.180136 0.382882,-0.102588 l 1.555342,0.895833 v -1.889372 c 0,-0.154803 0.125185,-0.280291 0.280291,-0.280291 0.154802,0 0.279986,0.125488 0.279986,0.280291 v 0.751416 l 0.678745,-0.392347 c 0.134955,-0.07755 0.305329,-0.03081 0.382882,0.102587 0.07755,0.134654 0.03114,0.305331 -0.10259,0.382888 l -0.959037,0.553252 v 2.358048 c 1.978833,-0.144417 3.539977,-1.792584 3.539977,-3.808362 0,-2.108595 -1.710144,-3.81996 -3.819963,-3.81996"
       style="fill:#80cc28;fill-opacity:1;fill-rule:nonzero;stroke:none;stroke-width:0.352778"
       id="path1395-5" />
    <path
       d="m 71.551975,80.740425 -0.959036,0.553564 v 2.347056 c 0.885147,-0.06439 1.684191,-0.430516 2.299733,-0.99476 -0.628671,-0.771565 -1.007889,-1.751975 -1.007889,-2.811153 0,-1.457334 0.704698,-2.750404 1.787698,-3.567157 -0.646381,-3.419676 -1.909524,-7.79564 -3.359833,-7.79564 -2.109818,0 -3.819963,9.250533 -3.819963,11.360348 0,2.015778 1.561144,3.665165 3.539671,3.809582 v -1.209403 l -1.835328,-1.056738 c -0.134955,-0.07755 -0.180144,-0.24915 -0.10259,-0.382887 0.07755,-0.134646 0.249147,-0.180145 0.382882,-0.102588 l 1.555036,0.895834 V 79.89711 c 0,-0.154803 0.125491,-0.280291 0.280292,-0.280291 0.155106,0 0.280291,0.125488 0.280291,0.280291 v 0.751416 l 0.678745,-0.392347 c 0.13465,-0.07755 0.305328,-0.03081 0.382881,0.102588 0.07756,0.133736 0.03084,0.302889 -0.10259,0.381658"
       style="fill:#27963c;fill-opacity:1;fill-rule:nonzero;stroke:none;stroke-width:0.352778"
       id="path1399-1" />
    <path
       d="m 85.083976,64.946836 -3.09563,-5.31107 c -3.32352,1.8154 -4.72369,6.58954 -5.34282,9.86684 l -1.58785,0.0134 3.56588,3.50485 3.5052,-3.56447 -1.4799,0.0127 c 0.60219,-1.86019 2.39571,-3.40818 4.43512,-4.52225"
       style="fill:#0d67a4;fill-opacity:1;fill-rule:nonzero;stroke:none;stroke-width:0.352778"
       id="path1411-0"
       inkscape:export-filename="C:\Users\lamw\ownCloud\Figures\NETs\fancy visuals\biochar.png"
       inkscape:export-xdpi="499"
       inkscape:export-ydpi="499" />
    <path
       d="m 88.568356,81.978766 -2.83104,-2.83246 v 1.27777 l -5.1689,-0.5648 v 4.23827 l 5.1689,-0.56515 v 1.27776 z"
       style="fill:#3871c1;fill-opacity:1;fill-rule:nonzero;stroke:none;stroke-width:0.352778"
       id="path1239-5"
       inkscape:export-filename="C:\Users\lamw\ownCloud\Figures\NETs\fancy visuals\biochar.png"
       inkscape:export-xdpi="499"
       inkscape:export-ydpi="499" />
    <path
       d="m 90.705566,95.6009 3.13761,-2.12549 h -1.41542 l 1.01683,-5.168894 h -5.47685 l 1.01682,5.168894 h -1.41542 z"
       style="fill:#3871c1;fill-opacity:1;fill-rule:nonzero;stroke:none;stroke-width:0.352778"
       id="path1259-3"
       inkscape:export-filename="C:\Users\lamw\ownCloud\Figures\NETs\fancy visuals\biochar.png"
       inkscape:export-xdpi="499"
       inkscape:export-ydpi="499" />
    <path
       style="fill:none;stroke:#ff9955;stroke-width:0.4;stroke-linecap:butt;stroke-linejoin:miter;stroke-miterlimit:4;stroke-dasharray:none;stroke-opacity:1"
       d="m 82.365756,79.384096 c 0,0 0.732,-0.8319 0.71335,-1.34352 -0.0173,-0.47449 -0.78045,-0.77299 -0.79566,-1.24755 -0.0162,-0.50469 0.54873,-1.07961 0.54873,-1.07961"
       id="path4882"
       sodipodi:nodetypes="cssc"
       inkscape:export-filename="C:\Users\lamw\ownCloud\Figures\NETs\fancy visuals\biochar.png"
       inkscape:export-xdpi="499"
       inkscape:export-ydpi="499" />
    <path
       style="fill:none;stroke:#ff9955;stroke-width:0.4;stroke-linecap:butt;stroke-linejoin:miter;stroke-miterlimit:4;stroke-dasharray:none;stroke-opacity:1"
       d="m 83.428796,79.384096 c 0,0 0.732,-0.8319 0.71335,-1.34352 -0.0173,-0.47449 -0.78044,-0.77299 -0.79566,-1.24755 -0.0162,-0.50469 0.54874,-1.07961 0.54874,-1.07961"
       id="path4882-7"
       sodipodi:nodetypes="cssc"
       inkscape:export-filename="C:\Users\lamw\ownCloud\Figures\NETs\fancy visuals\biochar.png"
       inkscape:export-xdpi="499"
       inkscape:export-ydpi="499" />
    <path
       style="fill:none;stroke:#ff9955;stroke-width:0.4;stroke-linecap:butt;stroke-linejoin:miter;stroke-miterlimit:4;stroke-dasharray:none;stroke-opacity:1"
       d="m 84.491846,79.384096 c 0,0 0.732,-0.8319 0.71335,-1.34352 -0.0173,-0.47449 -0.78044,-0.77299 -0.79566,-1.24755 -0.0162,-0.50469 0.54873,-1.07961 0.54873,-1.07961"
       id="path4882-4"
       sodipodi:nodetypes="cssc"
       inkscape:export-filename="C:\Users\lamw\ownCloud\Figures\NETs\fancy visuals\biochar.png"
       inkscape:export-xdpi="499"
       inkscape:export-ydpi="499" />
    <text
       transform="rotate(1.5097115)"
       style="font-variant:normal;font-weight:900;font-stretch:normal;font-size:1.54253px;font-family:'Caput Heavy';-inkscape-font-specification:CaputHeavy;writing-mode:lr-tb;fill:#ffffff;fill-opacity:1;fill-rule:nonzero;stroke:none;stroke-width:0.352778"
       id="text1419-7"
       x="84.121544"
       y="62.843189"><tspan
         x="84.121544"
         y="62.843189"
         id="tspan1417-2"
         style="stroke-width:0.352778">2</tspan></text>
    <text
       xml:space="preserve"
       style="font-size:4.23333px;line-height:1.25;font-family:Helvetica;-inkscape-font-specification:'Helvetica, Normal';fill:#ffffff;stroke-width:0.264583"
       x="79.297821"
       y="64.488815"
       id="text4923"><tspan
         sodipodi:role="line"
         id="tspan4921"
         x="79.297821"
         y="64.488815"
         style="font-style:normal;font-variant:normal;font-weight:bold;font-stretch:normal;font-size:2.11667px;font-family:Helvetica;-inkscape-font-specification:'Helvetica, Bold';font-variant-ligatures:normal;font-variant-caps:normal;font-variant-numeric:normal;font-variant-east-asian:normal;fill:#ffffff;stroke-width:0.264583">CO</tspan></text>
    <text
       transform="rotate(1.5097115)"
       style="font-variant:normal;font-weight:900;font-stretch:normal;font-size:1.54253px;font-family:'Caput Heavy';-inkscape-font-specification:CaputHeavy;writing-mode:lr-tb;fill:#ffffff;fill-opacity:1;fill-rule:nonzero;stroke:none;stroke-width:0.352778"
       id="text1419-7-3"
       x="87.188583"
       y="80.793472"><tspan
         x="87.188583"
         y="80.793472"
         id="tspan1417-2-8"
         style="stroke-width:0.352778">2</tspan></text>
    <text
       xml:space="preserve"
       style="font-size:4.23333px;line-height:1.25;font-family:Helvetica;-inkscape-font-specification:'Helvetica, Normal';fill:#ffffff;stroke-width:0.264583"
       x="81.890869"
       y="82.513672"
       id="text4923-3"><tspan
         sodipodi:role="line"
         id="tspan4921-6"
         x="81.890869"
         y="82.513672"
         style="font-style:normal;font-variant:normal;font-weight:bold;font-stretch:normal;font-size:2.11667px;font-family:Helvetica;-inkscape-font-specification:'Helvetica, Bold';font-variant-ligatures:normal;font-variant-caps:normal;font-variant-numeric:normal;font-variant-east-asian:normal;fill:#ffffff;stroke-width:0.264583">CO</tspan></text>
    <text
       transform="rotate(1.5097115)"
       style="font-variant:normal;font-weight:900;font-stretch:normal;font-size:1.54253px;font-family:'Caput Heavy';-inkscape-font-specification:CaputHeavy;writing-mode:lr-tb;fill:#ffffff;fill-opacity:1;fill-rule:nonzero;stroke:none;stroke-width:0.352778"
       id="text1419-7-6"
       x="94.103027"
       y="88.51059"><tspan
         x="94.103027"
         y="88.51059"
         id="tspan1417-2-1"
         style="stroke-width:0.352778">2</tspan></text>
    <text
       xml:space="preserve"
       style="font-size:4.23333px;line-height:1.25;font-family:Helvetica;-inkscape-font-specification:'Helvetica, Normal';fill:#ffffff;stroke-width:0.264583"
       x="88.599594"
       y="90.410286"
       id="text4923-5"><tspan
         sodipodi:role="line"
         id="tspan4921-7"
         x="88.599594"
         y="90.410286"
         style="font-style:normal;font-variant:normal;font-weight:bold;font-stretch:normal;font-size:2.11667px;font-family:Helvetica;-inkscape-font-specification:'Helvetica, Bold';font-variant-ligatures:normal;font-variant-caps:normal;font-variant-numeric:normal;font-variant-east-asian:normal;fill:#ffffff;stroke-width:0.264583">CO</tspan></text>
  </g>
  <g
     inkscape:groupmode="layer"
     id="layer4"
     inkscape:label="mcc">
    <text
       xml:space="preserve"
       style="font-size:2.46944px;line-height:1.85;font-family:Arial;-inkscape-font-specification:'Arial, Normal';font-variant-ligatures:none;fill:#808080;stroke-width:0.264583"
       x="33.657654"
       y="41.437717"
       id="text366"><tspan
         sodipodi:role="line"
         id="tspan364"
         style="font-size:2.46944px;fill:#808080;stroke-width:0.264583"
         x="33.657654"
         y="41.437717">© MCC</tspan></text>
  </g>
</svg>
