<?xml version="1.0" encoding="UTF-8" standalone="no"?>
<!-- Created with Inkscape (http://www.inkscape.org/) -->

<svg
   width="42.618378mm"
   height="42.618057mm"
   viewBox="0 0 42.618378 42.618057"
   version="1.1"
   id="svg18229"
   inkscape:version="1.2.1 (9c6d41e410, 2022-07-14)"
   sodipodi:docname="Enhanced weathering.svg"
   inkscape:export-filename="Enhanced weathering.png"
   inkscape:export-xdpi="499"
   inkscape:export-ydpi="499"
   xmlns:inkscape="http://www.inkscape.org/namespaces/inkscape"
   xmlns:sodipodi="http://sodipodi.sourceforge.net/DTD/sodipodi-0.dtd"
   xmlns:xlink="http://www.w3.org/1999/xlink"
   xmlns="http://www.w3.org/2000/svg"
   xmlns:svg="http://www.w3.org/2000/svg">
  <sodipodi:namedview
     id="namedview18231"
     pagecolor="#ffffff"
     bordercolor="#666666"
     borderopacity="1.0"
     inkscape:showpageshadow="2"
     inkscape:pageopacity="0.0"
     inkscape:pagecheckerboard="0"
     inkscape:deskcolor="#d1d1d1"
     inkscape:document-units="mm"
     showgrid="false"
     inkscape:zoom="4.4195761"
     inkscape:cx="116.64015"
     inkscape:cy="142.54761"
     inkscape:window-width="1175"
     inkscape:window-height="697"
     inkscape:window-x="97"
     inkscape:window-y="-8"
     inkscape:window-maximized="1"
     inkscape:current-layer="layer7" />
  <defs
     id="defs18226">
    <clipPath
       clipPathUnits="userSpaceOnUse"
       id="clipPath1439">
      <path
         d="m 423.141,415.679 c 6.687,9.722 10.608,21.493 10.608,34.184 10e-4,33.36 -27.043,60.404 -60.403,60.404 -33.361,0 -60.404,-27.044 -60.405,-60.404 0,-12.691 3.922,-24.462 10.609,-34.184 z"
         id="path1437" />
    </clipPath>
    <clipPath
       clipPathUnits="userSpaceOnUse"
       id="clipPath1443">
      <path
         d="M -32768,32767 H 32767 V -32768 H -32768 Z"
         id="path1441" />
    </clipPath>
    <linearGradient
       x1="0"
       y1="0"
       x2="1"
       y2="0"
       gradientUnits="userSpaceOnUse"
       gradientTransform="matrix(0,-92.889946,-92.889946,0,373.34549,510.6391)"
       spreadMethod="pad"
       id="linearGradient1449">
      <stop
         style="stop-opacity:1;stop-color:#ffffff"
         offset="0"
         id="stop1445" />
      <stop
         style="stop-opacity:0;stop-color:#ffffff"
         offset="1"
         id="stop1447" />
    </linearGradient>
    <linearGradient
       inkscape:collect="always"
       xlink:href="#linearGradient1467"
       id="linearGradient4690"
       gradientUnits="userSpaceOnUse"
       gradientTransform="matrix(0,-92.889946,-92.889946,0,373.34548,357.90483)"
       x1="0"
       y1="0"
       x2="1"
       y2="0"
       spreadMethod="pad" />
    <linearGradient
       x1="0"
       y1="0"
       x2="1"
       y2="0"
       gradientUnits="userSpaceOnUse"
       gradientTransform="matrix(0,-92.889946,-92.889946,0,373.34549,510.6391)"
       spreadMethod="pad"
       id="linearGradient1467">
      <stop
         style="stop-opacity:1;stop-color:#4081cb"
         offset="0"
         id="stop1463" />
      <stop
         style="stop-opacity:1;stop-color:#4081cb"
         offset="1"
         id="stop1465" />
    </linearGradient>
    <mask
       maskUnits="userSpaceOnUse"
       id="mask18706">
      <g
         id="g18720"
         style="stroke-width:1">
        <g
           id="g18718"
           style="stroke-width:1">
          <g
             id="g18716"
             style="stroke-width:1">
            <g
               clip-path="url(#clipPath1443)"
               id="g18714"
               style="stroke-width:1">
              <g
                 id="g18712"
                 style="stroke-width:1">
                <g
                   id="g18710"
                   style="stroke-width:1">
                  <path
                     d="M -32768,32767 H 32767 V -32768 H -32768 Z"
                     style="fill:url(#linearGradient18722);stroke:none;stroke-width:1"
                     id="path18708" />
                </g>
              </g>
            </g>
          </g>
        </g>
      </g>
    </mask>
    <linearGradient
       inkscape:collect="always"
       xlink:href="#linearGradient1449"
       id="linearGradient18722"
       gradientUnits="userSpaceOnUse"
       gradientTransform="matrix(0,-92.889946,-92.889946,0,373.34548,510.63909)"
       x1="0"
       y1="0"
       x2="1"
       y2="0"
       spreadMethod="pad" />
    <clipPath
       clipPathUnits="userSpaceOnUse"
       id="clipPath18724">
      <g
         id="g18738"
         style="stroke-width:1">
        <g
           id="g18736"
           style="stroke-width:1">
          <g
             id="g18734"
             style="stroke-width:1">
            <g
               id="g18732"
               style="stroke-width:1">
              <g
                 id="g18730"
                 style="stroke-width:1">
                <g
                   id="g18728"
                   style="stroke-width:1">
                  <path
                     d="M 312.941,510.267 H 433.749 V 415.679 H 312.941 Z"
                     id="path18726"
                     style="stroke-width:1" />
                </g>
              </g>
            </g>
          </g>
        </g>
      </g>
    </clipPath>
  </defs>
  <rect
     style="fill:#ffffff;stroke-width:0.176389;stroke-miterlimit:1"
     id="rect18532"
     width="42.50502"
     height="42.50502"
     x="6.6762814e-06"
     y="0.059866771" />
  <path
     d="m 423.141,415.679 c 6.687,9.722 10.608,21.493 10.608,34.184 10e-4,33.36 -27.043,60.404 -60.403,60.404 -33.361,0 -60.404,-27.044 -60.405,-60.404 0,-12.691 3.922,-24.462 10.609,-34.184 z"
     style="opacity:0.320007;fill:url(#linearGradient4690);stroke:none"
     id="path1471"
     mask="url(#mask18706)"
     clip-path="url(#clipPath18724)"
     transform="matrix(0.35277777,0,0,-0.35277777,-110.39863,180.01085)" />
  <path
     d="m 3.3168899,32.719819 c 3.78037,5.947829 10.4228201,9.898239 17.9923701,9.898239 7.56955,0 14.212358,-3.95041 17.992728,-9.898239 z"
     style="fill:#6a5e50;fill-opacity:1;fill-rule:nonzero;stroke:none;stroke-width:0.352778"
     id="path1489"
     inkscape:export-filename="C:\Users\lamw\ownCloud\Figures\NETs\fancy visuals\EW.png"
     inkscape:export-xdpi="499"
     inkscape:export-ydpi="499" />
  <path
     d="m 27.47822,31.881229 1.05163,1.22096 -19.4165401,0.006 0.23672,-1.50072 2.1332501,-1.18498 -0.33056,-2.51107 2.82752,-0.248 0.1464,-1.30634 3.28648,-0.28257 0.19014,-2.34809 0.56515,-0.75107 1.31445,0.28117 0.1517,1.2513 2.10291,-0.13088 0.13229,2.36608 2.36467,0.9204 0.13229,1.83974 c 0.20391,0.28257 1.23472,-0.16934 1.41393,0.0938 0.18168,0.26458 -0.16404,-0.25929 0,0 -0.23036,1.09008 1.38219,1.276 1.38219,1.276 z"
     style="fill:#6a5e50;fill-opacity:1;fill-rule:nonzero;stroke:none;stroke-width:0.352778"
     id="path1519"
     inkscape:export-filename="C:\Users\lamw\ownCloud\Figures\NETs\fancy visuals\EW.png"
     inkscape:export-xdpi="499"
     inkscape:export-ydpi="499" />
  <path
     d="m 24.90964,23.993469 -0.99095,-0.3362 c -0.33761,0.25894 -0.46144,0.52917 -0.36513,0.81174 l 0.49601,0.57045 0.74859,-0.24942 c 0.26988,-0.0896 0.36372,-0.2607 0.28222,-0.50024 -0.0275,-0.0843 -0.0797,-0.18626 -0.17074,-0.29633"
     style="fill:#393536;fill-opacity:1;fill-rule:nonzero;stroke:none;stroke-width:0.352778"
     id="path1523"
     inkscape:export-filename="C:\Users\lamw\ownCloud\Figures\NETs\fancy visuals\EW.png"
     inkscape:export-xdpi="499"
     inkscape:export-ydpi="499" />
  <path
     d="m 25.08458,23.636459 -0.99095,-0.3362 c -0.33761,0.25894 -0.46144,0.52917 -0.36513,0.81174 l 0.49601,0.57045 0.74859,-0.24942 c 0.26988,-0.0896 0.36372,-0.2607 0.28222,-0.50024 -0.0275,-0.0843 -0.0797,-0.18626 -0.17074,-0.29633"
     style="fill:#393536;fill-opacity:1;fill-rule:nonzero;stroke:none;stroke-width:0.352778"
     id="path1527"
     inkscape:export-filename="C:\Users\lamw\ownCloud\Figures\NETs\fancy visuals\EW.png"
     inkscape:export-xdpi="499"
     inkscape:export-ydpi="499" />
  <path
     d="m 24.27993,21.358569 c -0.21907,-0.10619 -0.44521,-0.12277 -0.68897,-0.0427 -0.12983,0.0427 -0.26318,0.12806 -0.41346,0.25753 l 0.0399,1.17299 1.13701,-0.14217 c 0.29739,-0.33902 0.40922,-0.61454 0.34043,-0.82656 -0.0579,-0.16828 -0.19438,-0.31009 -0.41487,-0.41909"
     style="fill:#393536;fill-opacity:1;fill-rule:nonzero;stroke:none;stroke-width:0.352778"
     id="path1531"
     inkscape:export-filename="C:\Users\lamw\ownCloud\Figures\NETs\fancy visuals\EW.png"
     inkscape:export-xdpi="499"
     inkscape:export-ydpi="499" />
  <path
     d="m 27.76644,22.988759 0.007,0.0236 c -0.0427,0.0152 -0.248,-0.0332 -0.62018,-0.15029 -0.17921,-0.0621 -0.35948,-0.12947 -0.5401,-0.20002 -0.25647,0.0871 -0.41769,0.34325 -0.47943,0.76623 -0.0621,0.42439 -0.0208,0.8502 0.121,1.27882 0.0388,0.11571 0.127,0.2413 0.26882,0.38594 l 0.24271,0.22754 0.41875,-0.0222 c 0.47272,-0.20532 0.74154,-0.31821 0.81315,-0.34326 0.17075,-0.10336 0.28505,-0.31679 0.34431,-0.63782 0.0593,-0.32385 0.036,-0.63112 -0.0646,-0.92886 -0.11288,-0.34042 -0.28257,-0.47554 -0.51117,-0.39969"
     style="fill:#393536;fill-opacity:1;fill-rule:nonzero;stroke:none;stroke-width:0.352778"
     id="path1535"
     inkscape:export-filename="C:\Users\lamw\ownCloud\Figures\NETs\fancy visuals\EW.png"
     inkscape:export-xdpi="499"
     inkscape:export-ydpi="499" />
  <path
     d="m 25.9334,26.480909 -0.24659,0.89288 c 0.18203,0.15981 0.44661,0.27129 0.79798,0.32385 l 0.83079,-0.27975 -0.42016,-1.25836 z"
     style="fill:#393536;fill-opacity:1;fill-rule:nonzero;stroke:none;stroke-width:0.352778"
     id="path1539"
     inkscape:export-filename="C:\Users\lamw\ownCloud\Figures\NETs\fancy visuals\EW.png"
     inkscape:export-xdpi="499"
     inkscape:export-ydpi="499" />
  <path
     d="m 30.16144,24.873999 -0.248,0.89288 c 0.1845,0.15981 0.44626,0.27023 0.79904,0.32385 l 0.83114,-0.27693 -0.42192,-1.26083 z"
     style="fill:#393536;fill-opacity:1;fill-rule:nonzero;stroke:none;stroke-width:0.352778"
     id="path1543"
     inkscape:export-filename="C:\Users\lamw\ownCloud\Figures\NETs\fancy visuals\EW.png"
     inkscape:export-xdpi="499"
     inkscape:export-ydpi="499" />
  <path
     d="m 30.77175,31.569729 -0.24659,0.89182 c 0.1845,0.16263 0.44661,0.26988 0.79798,0.32385 l 0.8322,-0.27693 -0.42157,-1.25977 z"
     style="fill:#393536;fill-opacity:1;fill-rule:nonzero;stroke:none;stroke-width:0.352778"
     id="path1547"
     inkscape:export-filename="C:\Users\lamw\ownCloud\Figures\NETs\fancy visuals\EW.png"
     inkscape:export-xdpi="499"
     inkscape:export-ydpi="499" />
  <path
     d="m 30.5375,27.610849 c -0.48225,-0.53622 -1.07632,-0.68651 -1.78576,-0.44803 l -0.10478,0.0346 c -0.33619,0.29634 -0.61348,0.73026 -0.84631,1.28976 -0.22578,0.53622 -0.29069,0.95638 -0.19015,1.26224 0.008,0.0236 0.22896,0.22613 0.65617,0.61066 0.45473,0.37182 0.70802,0.62124 0.762,0.74683 l 1.34479,-0.45191 c 0.15593,-0.0512 0.30586,-0.12418 0.44944,-0.21661 0.14605,-0.0935 0.26705,-0.20249 0.36653,-0.32102 0.0977,-0.11713 0.17075,-0.23707 0.21626,-0.35666 0.0427,-0.11854 0.0497,-0.23319 0.0123,-0.34043 -0.28927,-0.87242 -0.5842,-1.47461 -0.88053,-1.8094"
     style="fill:#393536;fill-opacity:1;fill-rule:nonzero;stroke:none;stroke-width:0.352778"
     id="path1551"
     inkscape:export-filename="C:\Users\lamw\ownCloud\Figures\NETs\fancy visuals\EW.png"
     inkscape:export-xdpi="499"
     inkscape:export-ydpi="499" />
  <path
     d="m 14.83889,17.319619 -2.06551,1.32574 -2.48885,-4.11903 0.43004,-1.96357 -0.8696001,-1.35466 0.3788801,-0.24271 -0.5097601,-0.79375 -4.01708,2.57422 0.50976,0.79516 0.37783,-0.2427 0.86677,1.35325 1.94275,0.4258 2.4959001,4.1328 -2.0739801,1.32997 c 0,0 2.0214201,3.33198 3.3362201,3.69041 1.31586,0.35807 2.73403,0.24941 2.73403,0.24941 0,0 0.68897,-1.24319 0.9151,-2.58657 0.22296,-1.34232 -1.9625,-4.57376 -1.9625,-4.57376 m -5.2267601,-2.88572 -1.74201,-0.38171 -0.71649,-1.1176 2.12337,-1.35996 0.71543,1.11902 z"
     style="fill:#a7a5a6;fill-opacity:1;fill-rule:nonzero;stroke:none;stroke-width:0.352778"
     id="path1555"
     inkscape:export-filename="C:\Users\lamw\ownCloud\Figures\NETs\fancy visuals\EW.png"
     inkscape:export-xdpi="499"
     inkscape:export-ydpi="499" />
  <path
     d="M 34.51663,13.506449 31.42101,8.1953794 c -3.32352,1.8153996 -4.7237,6.5895396 -5.34282,9.8668396 l -1.58786,0.0134 3.56588,3.50484 3.5052,-3.56446 -1.4799,0.0127 c 0.60219,-1.8602 2.39571,-3.40819 4.43512,-4.52226"
     style="fill:#3871c1;fill-opacity:1;fill-rule:nonzero;stroke:none;stroke-width:0.352778"
     id="path1559"
     inkscape:export-filename="C:\Users\lamw\ownCloud\Figures\NETs\fancy visuals\EW.png"
     inkscape:export-xdpi="499"
     inkscape:export-ydpi="499" />
  <path
     d="m 28.40285,37.064239 -0.24659,0.89288 c 0.18203,0.15981 0.44661,0.27129 0.79798,0.32385 l 0.83079,-0.27975 -0.42016,-1.25836 z"
     style="fill:#393536;fill-opacity:1;fill-rule:nonzero;stroke:none;stroke-width:0.352778"
     id="path1579"
     inkscape:export-filename="C:\Users\lamw\ownCloud\Figures\NETs\fancy visuals\EW.png"
     inkscape:export-xdpi="499"
     inkscape:export-ydpi="499" />
  <path
     d="m 30.16674,34.242019 -0.24659,0.89288 c 0.18203,0.15981 0.44661,0.27129 0.79798,0.32385 l 0.83079,-0.27975 -0.42016,-1.25836 z"
     style="fill:#393536;fill-opacity:1;fill-rule:nonzero;stroke:none;stroke-width:0.352778"
     id="path1583"
     inkscape:export-filename="C:\Users\lamw\ownCloud\Figures\NETs\fancy visuals\EW.png"
     inkscape:export-xdpi="499"
     inkscape:export-ydpi="499" />
  <path
     d="m 25.57533,34.046229 -0.248,0.89288 c 0.1845,0.15981 0.44626,0.27023 0.79904,0.32385 l 0.83114,-0.27693 -0.42192,-1.26083 z"
     style="fill:#393536;fill-opacity:1;fill-rule:nonzero;stroke:none;stroke-width:0.352778"
     id="path1587"
     inkscape:export-filename="C:\Users\lamw\ownCloud\Figures\NETs\fancy visuals\EW.png"
     inkscape:export-xdpi="499"
     inkscape:export-ydpi="499" />
  <text
     transform="rotate(1.5097115)"
     style="font-variant:normal;font-weight:900;font-stretch:normal;font-size:1.54253px;font-family:'Caput Heavy';-inkscape-font-specification:CaputHeavy;writing-mode:lr-tb;fill:#ffffff;fill-opacity:1;fill-rule:nonzero;stroke:none;stroke-width:0.352778"
     id="text1419-7-4"
     x="32.208508"
     y="12.790159"><tspan
       x="32.208508"
       y="12.790159"
       id="tspan1417-2-2"
       style="stroke-width:0.352778">2</tspan></text>
  <text
     xml:space="preserve"
     style="font-size:4.23333px;line-height:1.25;font-family:Helvetica;-inkscape-font-specification:'Helvetica, Normal';fill:#ffffff;stroke-width:0.264583"
     x="28.721521"
     y="13.08544"
     id="text4923-4"><tspan
       sodipodi:role="line"
       id="tspan4921-8"
       x="28.721521"
       y="13.08544"
       style="font-style:normal;font-variant:normal;font-weight:bold;font-stretch:normal;font-size:2.11667px;font-family:Helvetica;-inkscape-font-specification:'Helvetica, Bold';font-variant-ligatures:normal;font-variant-caps:normal;font-variant-numeric:normal;font-variant-east-asian:normal;fill:#ffffff;stroke-width:0.264583">CO</tspan></text>
  <g
     inkscape:groupmode="layer"
     id="layer7"
     inkscape:label="mcc">
    <text
       xml:space="preserve"
       style="font-size:2.46944px;line-height:1.85;font-family:Arial;-inkscape-font-specification:'Arial, Normal';font-variant-ligatures:none;fill:#808080;stroke-width:0.264583"
       x="33.458595"
       y="41.533005"
       id="text366"><tspan
         sodipodi:role="line"
         id="tspan364"
         style="font-size:2.46944px;fill:#808080;stroke-width:0.264583"
         x="33.458595"
         y="41.533005">© MCC</tspan></text>
  </g>
</svg>
