<?xml version="1.0" encoding="UTF-8" standalone="no"?>
<!-- Created with Inkscape (http://www.inkscape.org/) -->

<svg
   width="42.618378mm"
   height="42.670471mm"
   viewBox="0 0 42.618378 42.670471"
   version="1.1"
   id="svg2569"
   xml:space="preserve"
   inkscape:version="1.2.1 (9c6d41e410, 2022-07-14)"
   sodipodi:docname="Harvested wood products.svg"
   inkscape:export-filename="Harvested wood products.png"
   inkscape:export-xdpi="499"
   inkscape:export-ydpi="499"
   xmlns:inkscape="http://www.inkscape.org/namespaces/inkscape"
   xmlns:sodipodi="http://sodipodi.sourceforge.net/DTD/sodipodi-0.dtd"
   xmlns:xlink="http://www.w3.org/1999/xlink"
   xmlns="http://www.w3.org/2000/svg"
   xmlns:svg="http://www.w3.org/2000/svg"><sodipodi:namedview
     id="namedview2571"
     pagecolor="#ffffff"
     bordercolor="#666666"
     borderopacity="1.0"
     inkscape:showpageshadow="2"
     inkscape:pageopacity="0.0"
     inkscape:pagecheckerboard="0"
     inkscape:deskcolor="#d1d1d1"
     inkscape:document-units="mm"
     showgrid="false"
     inkscape:zoom="3.1251122"
     inkscape:cx="94.556605"
     inkscape:cy="102.39632"
     inkscape:window-width="1175"
     inkscape:window-height="697"
     inkscape:window-x="97"
     inkscape:window-y="-8"
     inkscape:window-maximized="1"
     inkscape:current-layer="layer8" /><defs
     id="defs2566"><clipPath
       clipPathUnits="userSpaceOnUse"
       id="clipPath1091"><path
         d="M 312.941,659.267 H 433.749 V 564.679 H 312.941 Z"
         id="path1089" /></clipPath><clipPath
       clipPathUnits="userSpaceOnUse"
       id="clipPath1099"><path
         d="M -32768,32767 H 32767 V -32768 H -32768 Z"
         id="path1097" /></clipPath><linearGradient
       x1="0"
       y1="0"
       x2="1"
       y2="0"
       gradientUnits="userSpaceOnUse"
       gradientTransform="matrix(0,-92.889946,-92.889946,0,373.34549,659.63867)"
       spreadMethod="pad"
       id="linearGradient1105"><stop
         style="stop-opacity:1;stop-color:#ffffff"
         offset="0"
         id="stop1101" /><stop
         style="stop-opacity:0;stop-color:#ffffff"
         offset="1"
         id="stop1103" /></linearGradient><linearGradient
       x1="0"
       y1="0"
       x2="1"
       y2="0"
       gradientUnits="userSpaceOnUse"
       gradientTransform="matrix(0,-92.889946,-92.889946,0,644.40719,578.15637)"
       spreadMethod="pad"
       id="linearGradient1123"><stop
         style="stop-opacity:1;stop-color:#4081cb"
         offset="0"
         id="stop1119" /><stop
         style="stop-opacity:1;stop-color:#4081cb"
         offset="1"
         id="stop1121" /></linearGradient><clipPath
       clipPathUnits="userSpaceOnUse"
       id="clipPath3110"><g
         id="g3116"
         style="stroke-width:0.999999"><g
           id="g3114"
           style="stroke-width:0.999999"
           transform="translate(26.753705,-13.884839)"><path
             d="M -52.462663,3.3317732 H 157.53889 V 300.33185 H -52.462663 Z"
             id="path3112"
             style="stroke-width:0.999999" /></g></g></clipPath><clipPath
       clipPathUnits="userSpaceOnUse"
       id="clipPath3282"><g
         id="g3288"
         style="stroke-width:0.999999"><g
           id="g3286"
           style="stroke-width:0.999999"><path
             d="M -25.708957,-10.553067 H 184.29259 V 286.44701 H -25.708957 Z"
             id="path3284"
             style="stroke-width:0.999999" /></g></g></clipPath><clipPath
       clipPathUnits="userSpaceOnUse"
       id="clipPath3297"><g
         id="g3303"
         style="stroke-width:0.999999"><g
           id="g3301"
           style="stroke-width:0.999999"><path
             d="M -25.708957,-10.553067 H 184.29259 V 286.44701 H -25.708957 Z"
             id="path3299"
             style="stroke-width:0.999999" /></g></g></clipPath><clipPath
       clipPathUnits="userSpaceOnUse"
       id="clipPath3312"><g
         id="g3318"
         style="stroke-width:0.999999"><g
           id="g3316"
           style="stroke-width:0.999999"><path
             d="M -25.708957,-10.553067 H 184.29259 V 286.44701 H -25.708957 Z"
             id="path3314"
             style="stroke-width:0.999999" /></g></g></clipPath><clipPath
       clipPathUnits="userSpaceOnUse"
       id="clipPath3327"><g
         id="g3333"
         style="stroke-width:0.999999"><g
           id="g3331"
           style="stroke-width:0.999999"><path
             d="M -25.708957,-10.553067 H 184.29259 V 286.44701 H -25.708957 Z"
             id="path3329"
             style="stroke-width:0.999999" /></g></g></clipPath><clipPath
       clipPathUnits="userSpaceOnUse"
       id="clipPath3342"><g
         id="g3348"
         style="stroke-width:0.999999"><g
           id="g3346"
           style="stroke-width:0.999999"><path
             d="M -25.708957,-10.553067 H 184.29259 V 286.44701 H -25.708957 Z"
             id="path3344"
             style="stroke-width:0.999999" /></g></g></clipPath><clipPath
       clipPathUnits="userSpaceOnUse"
       id="clipPath3357"><g
         id="g3363"
         style="stroke-width:0.999999"><g
           id="g3361"
           style="stroke-width:0.999999"><path
             d="M -25.708957,-10.553067 H 184.29259 V 286.44701 H -25.708957 Z"
             id="path3359"
             style="stroke-width:0.999999" /></g></g></clipPath><clipPath
       clipPathUnits="userSpaceOnUse"
       id="clipPath3396"><g
         id="g3402"
         style="stroke-width:0.999999"><g
           id="g3400"
           style="stroke-width:0.999999"><path
             d="M -25.708957,-10.553067 H 184.29259 V 286.44701 H -25.708957 Z"
             id="path3398"
             style="stroke-width:0.999999" /></g></g></clipPath><clipPath
       clipPathUnits="userSpaceOnUse"
       id="clipPath3411"><g
         id="g3417"
         style="stroke-width:0.999999"><g
           id="g3415"
           style="stroke-width:0.999999"><path
             d="M -25.708957,-10.553067 H 184.29259 V 286.44701 H -25.708957 Z"
             id="path3413"
             style="stroke-width:0.999999" /></g></g></clipPath><clipPath
       clipPathUnits="userSpaceOnUse"
       id="clipPath3426"><g
         id="g3432"
         style="stroke-width:0.999999"><g
           id="g3430"
           style="stroke-width:0.999999"><path
             d="M -25.708957,-10.553067 H 184.29259 V 286.44701 H -25.708957 Z"
             id="path3428"
             style="stroke-width:0.999999" /></g></g></clipPath><clipPath
       clipPathUnits="userSpaceOnUse"
       id="clipPath3441"><g
         id="g3447"
         style="stroke-width:0.999999"><g
           id="g3445"
           style="stroke-width:0.999999"><path
             d="M -25.708957,-10.553067 H 184.29259 V 286.44701 H -25.708957 Z"
             id="path3443"
             style="stroke-width:0.999999" /></g></g></clipPath><clipPath
       clipPathUnits="userSpaceOnUse"
       id="clipPath3456"><g
         id="g3462"
         style="stroke-width:0.999999"><g
           id="g3460"
           style="stroke-width:0.999999"><path
             d="M -25.708957,-10.553067 H 184.29259 V 286.44701 H -25.708957 Z"
             id="path3458"
             style="stroke-width:0.999999" /></g></g></clipPath><clipPath
       clipPathUnits="userSpaceOnUse"
       id="clipPath3507"><g
         id="g3517"
         style="stroke-width:0.352777"
         transform="matrix(2.8346458,0,0,-2.8346458,72.875782,811.97579)"><g
           id="g3515"
           style="stroke-width:0.352777"><g
             id="g3513"
             style="stroke-width:0.352777"><g
               id="g3511"
               style="stroke-width:0.352777"><path
                 d="M -25.708957,-10.553067 H 184.29259 V 286.44701 H -25.708957 Z"
                 id="path3509"
                 style="stroke-width:0.352777" /></g></g></g></g></clipPath><mask
       maskUnits="userSpaceOnUse"
       id="mask12219"><g
         id="g12233"
         style="stroke-width:1"><g
           id="g12231"
           style="stroke-width:1"><g
             id="g12229"
             style="stroke-width:1"><g
               clip-path="url(#clipPath1099)"
               id="g12227"
               style="stroke-width:1"><g
                 id="g12225"
                 style="stroke-width:1"><g
                   id="g12223"
                   style="stroke-width:1"><path
                     d="M -32768,32767 H 32767 V -32768 H -32768 Z"
                     style="fill:url(#linearGradient12235);stroke:none;stroke-width:1"
                     id="path12221" /></g></g></g></g></g></g></mask><linearGradient
       inkscape:collect="always"
       xlink:href="#linearGradient1105"
       id="linearGradient12235"
       gradientUnits="userSpaceOnUse"
       gradientTransform="matrix(0,-92.889946,-92.889946,0,373.34548,659.63867)"
       x1="0"
       y1="0"
       x2="1"
       y2="0"
       spreadMethod="pad" /><clipPath
       clipPathUnits="userSpaceOnUse"
       id="clipPath12237"><g
         id="g12247"
         style="stroke-width:1"><g
           id="g12245"
           style="stroke-width:1"><g
             id="g12243"
             style="stroke-width:1"><g
               id="g12241"
               style="stroke-width:1"><path
                 d="m 423.141,564.679 c 6.687,9.722 10.608,21.492 10.608,34.183 10e-4,33.361 -27.043,60.405 -60.403,60.405 -33.361,0 -60.404,-27.044 -60.405,-60.404 0,-12.691 3.922,-24.462 10.609,-34.184 z"
                 id="path12239"
                 style="stroke-width:1" /></g></g></g></g></clipPath></defs><g
     inkscape:label="Ebene 1"
     inkscape:groupmode="layer"
     id="layer1"
     transform="translate(-84.689671,-53.872268)"><rect
       style="opacity:1;fill:#ffffff;fill-opacity:1;stroke-width:0.176389;stroke-miterlimit:1"
       id="rect12058"
       width="42.585804"
       height="42.585804"
       x="84.689674"
       y="53.956932"
       transform="translate(-1.06593e-6)" /><path
       d="m 423.141,564.679 c 6.687,9.722 10.608,21.492 10.608,34.183 10e-4,33.361 -27.043,60.405 -60.403,60.405 -33.361,0 -60.404,-27.044 -60.405,-60.404 0,-12.691 3.922,-24.462 10.609,-34.184 z"
       style="opacity:0.320007;fill:url(#linearGradient1123);stroke:none"
       id="path1127"
       mask="url(#mask12219)"
       clip-path="url(#clipPath12237)"
       transform="matrix(0.35277777,0,0,-0.35277777,-25.708958,286.44701)" /><path
       d="m 88.006558,86.592089 c 3.780367,5.947833 10.422819,9.898239 17.992372,9.898239 7.56955,0 14.21236,-3.950406 17.99272,-9.898239 z"
       style="fill:#6a5e50;fill-opacity:1;fill-rule:nonzero;stroke:none;stroke-width:0.352778"
       id="path1145"
       clip-path="url(#clipPath3312)" /><path
       d="m 105.68411,64.323027 c 0.2607,-0.172156 0.56339,-0.276578 0.87454,-0.301625 0.0526,-0.0049 0.10583,-0.0071 0.15769,-0.0071 0.019,0 0.0363,0 0.0526,7.06e-4 0.03,0.0014 0.0607,0.0025 0.0903,0.0046 l 0.002,-0.01411 c 0.14993,-1.322564 1.0668,-2.437342 2.33609,-2.839508 0.12277,-0.03951 0.24836,-0.07091 0.37395,-0.09596 0.21307,-0.04163 0.43215,-0.06279 0.64981,-0.06279 0.14817,0 0.29528,0.0095 0.44062,0.02893 -0.3496,-1.353256 -1.37865,-2.432756 -2.70228,-2.852209 -0.1464,-0.04621 -0.29527,-0.08467 -0.44873,-0.114653 -0.25188,-0.04939 -0.51259,-0.07549 -0.7807,-0.07549 -1.22378,0 -2.31986,0.541514 -3.06458,1.397353 0.80998,0.271286 1.14406,0.953911 1.14406,0.953911 -0.61207,-0.517878 -1.46897,-0.52705 -1.46897,-0.52705 h -0.008 c -1.7406,0.0014 -3.14995,1.410758 -3.14995,3.149247 0,1.738136 1.40935,3.147483 3.14748,3.147483 h 1.52012 c -0.008,-0.07303 -0.013,-0.146755 -0.013,-0.221544 0,-0.633942 0.31715,-1.22167 0.84737,-1.570214"
       style="fill:#ffffff;fill-opacity:1;fill-rule:nonzero;stroke:none;stroke-width:0.352778"
       id="path1187"
       clip-path="url(#clipPath3441)" /><path
       d="m 113.37474,62.767736 c -0.0709,-0.01729 -0.14217,-0.03246 -0.21625,-0.04339 -0.0706,-0.01023 -0.14147,-0.01799 -0.21414,-0.02187 -0.0487,-0.0032 -0.0991,-0.0046 -0.14852,-0.0046 h -0.006 c 0,0 -0.65194,0.0071 -1.11549,0.398992 0,0 0.25295,-0.517878 0.86643,-0.722136 -0.0282,-0.03281 -0.0589,-0.06597 -0.0885,-0.09737 -0.12277,-0.128764 -0.25612,-0.247297 -0.39935,-0.354189 -0.1217,-0.09031 -0.25047,-0.172156 -0.38488,-0.244475 -0.19332,-0.103364 -0.39899,-0.186619 -0.61418,-0.247297 -0.0533,-0.01482 -0.1076,-0.02822 -0.16193,-0.04092 -0.0533,-0.01164 -0.10654,-0.02258 -0.16086,-0.0314 -0.16581,-0.02752 -0.3362,-0.04233 -0.50977,-0.04233 -0.20214,0 -0.40005,0.0194 -0.5909,0.05644 -0.11536,0.02293 -0.22931,0.05115 -0.33937,0.08643 -1.13595,0.360892 -1.98579,1.363133 -2.12408,2.581275 0.0109,0.0064 0.0222,0.0127 0.0328,0.01905 0.0741,0.04233 0.14323,0.09172 0.20673,0.145344 0.0998,0.08396 0.18697,0.179212 0.26105,0.274109 0.0706,0.09102 0.12947,0.182033 0.17675,0.265641 0.10759,0.18662 0.15875,0.331259 0.15875,0.331259 -0.0607,-0.121003 -0.13759,-0.22225 -0.22084,-0.307975 -0.0945,-0.09666 -0.1965,-0.172156 -0.28999,-0.2286 -0.18873,-0.114653 -0.34466,-0.156281 -0.34466,-0.156281 -0.12347,-0.03528 -0.25329,-0.05503 -0.38664,-0.05891 -0.0148,-7.05e-4 -0.0293,-7.05e-4 -0.0441,-7.05e-4 -0.0448,0 -0.0885,0.0025 -0.13194,0.0053 -0.26846,0.02222 -0.51753,0.112537 -0.7306,0.252237 -0.42651,0.281163 -0.70838,0.764469 -0.70838,1.313391 0,0.0755 0.005,0.149578 0.0155,0.221545 0.008,0.05292 0.0173,0.103716 0.03,0.153811 0.0127,0.05292 0.0282,0.104069 0.0462,0.154164 0.21766,0.607483 0.79798,1.041752 1.4799,1.041752 h 6.08013 c 1.31656,0 2.38442,-1.067505 2.38442,-2.384072 -0.002,-1.117953 -0.77082,-2.05493 -1.80763,-2.314222"
       style="fill:#ffffff;fill-opacity:1;fill-rule:nonzero;stroke:none;stroke-width:0.352778"
       id="path1191"
       clip-path="url(#clipPath3342)" /><path
       d="m 95.163114,82.804561 c -0.03845,0 -0.07585,-0.0011 -0.113242,-0.0028 -0.03069,-7.06e-4 -0.06138,-0.0032 -0.09172,-0.006 v 0.0011 c 0.01905,0.0018 0.03775,0.0025 0.05644,0.0035 -0.01834,-0.0011 -0.0374,-0.0018 -0.05574,-0.0035 v 0.0078 3.302353 c 0,0.113241 0.09172,0.204964 0.204964,0.204964 0.113241,0 0.204963,-0.09172 0.204963,-0.204964 v -3.302353 -0.0078 c -0.01834,0.0018 -0.03775,0.0018 -0.05609,0.0035 0.0194,-0.0011 0.03775,-0.0018 0.0568,-0.0035 v -0.0011 c -0.03034,0.0018 -0.06103,0.0046 -0.09137,0.006 -0.03951,0.0018 -0.07761,0.0028 -0.115006,0.0028"
       style="fill:#6a5e50;fill-opacity:1;fill-rule:nonzero;stroke:none;stroke-width:0.352778"
       id="path1203"
       clip-path="url(#clipPath3411)" /><path
       d="m 90.802357,83.193216 c -0.06879,0 -0.136878,-0.0035 -0.204611,-0.0078 v 0.0078 3.302353 c 0,0.113241 0.09137,0.204964 0.204611,0.204964 0.113242,0 0.204964,-0.09172 0.204964,-0.204964 v -3.303411 -0.0078 c -0.06809,0.0053 -0.136172,0.0088 -0.204964,0.0088"
       style="fill:#6a5e50;fill-opacity:1;fill-rule:nonzero;stroke:none;stroke-width:0.352778"
       id="path1207"
       clip-path="url(#clipPath3456)" /><path
       d="m 95.218959,77.600912 c -1.542344,0 -2.792236,1.249892 -2.792236,2.792236 0,1.4732 1.140883,2.678994 2.587272,2.783417 v -0.891823 l -1.341614,-0.77223 c -0.09878,-0.0568 -0.131586,-0.182033 -0.07514,-0.279753 0.0568,-0.09843 0.182386,-0.131939 0.280105,-0.07514 l 1.13665,0.654756 v -1.380772 c 0,-0.113242 0.09172,-0.204964 0.204964,-0.204964 0.113242,0 0.204611,0.09172 0.204611,0.204964 v 0.548922 l 0.496006,-0.286456 c 0.09878,-0.0568 0.223308,-0.02258 0.280105,0.07479 0.05644,0.09843 0.02258,0.223309 -0.07514,0.279753 l -0.70097,0.404636 v 1.72332 c 1.446389,-0.105481 2.587625,-1.310217 2.587625,-2.783417 0,-1.541286 -1.250244,-2.792236 -2.792236,-2.792236"
       style="fill:#80cc28;fill-opacity:1;fill-rule:nonzero;stroke:none;stroke-width:0.352778"
       id="path1211"
       clip-path="url(#clipPath3327)" /><path
       d="m 91.709102,81.056547 -0.700969,0.404636 v 1.715558 c 0.646994,-0.04727 1.230841,-0.314677 1.680986,-0.727075 -0.45967,-0.564091 -0.7366,-1.280583 -0.7366,-2.05493 0,-1.065036 0.515055,-2.010128 1.306689,-2.607381 -0.472723,-2.49943 -1.395942,-5.698066 -2.456039,-5.698066 -1.541992,0 -2.792236,6.761691 -2.792236,8.303683 0,1.473553 1.141236,2.678994 2.587272,2.784475 v -0.883708 l -1.341261,-0.772584 c -0.09878,-0.0568 -0.131586,-0.182033 -0.07514,-0.279752 0.0568,-0.09843 0.182033,-0.131587 0.280106,-0.07514 l 1.136297,0.654755 v -1.380772 c 0,-0.113241 0.09172,-0.204964 0.204964,-0.204964 0.113594,0 0.204964,0.09172 0.204964,0.204964 v 0.549275 l 0.496005,-0.286808 c 0.09843,-0.0568 0.223308,-0.02258 0.280106,0.07479 0.05644,0.09772 0.02223,0.221544 -0.07514,0.279047"
       style="fill:#27963c;fill-opacity:1;fill-rule:nonzero;stroke:none;stroke-width:0.352778"
       id="path1215"
       clip-path="url(#clipPath3357)" /><path
       d="m 101.2123,67.799476 -2.622903,-4.500739 c -2.816577,1.538464 -4.002969,5.58412 -4.52755,8.361186 l -1.345494,0.01129 3.021542,2.969683 2.970388,-3.02013 -1.254125,0.01058 c 0.510117,-1.575858 2.030236,-2.887839 3.758142,-3.831872"
       style="fill:#3871c1;fill-opacity:1;fill-rule:nonzero;stroke:none;stroke-width:0.352778"
       id="path1219"
       clip-path="url(#clipPath3426)" /><path
       d="m 107.27316,82.012328 -2.83104,-2.832453 v 1.277761 l -5.168901,-0.564797 v 4.238272 l 5.168901,-0.56515 v 1.277761 z"
       style="fill:#3871c1;fill-opacity:1;fill-rule:nonzero;stroke:none;stroke-width:0.352778"
       id="path1239"
       clip-path="url(#clipPath3297)" /><text
       xml:space="preserve"
       style="font-size:3.52777px;line-height:1.25;font-family:Arial;-inkscape-font-specification:'Arial, Normal';font-variant-ligatures:none;fill:#ffffff;stroke-width:0.264583"
       x="95.881554"
       y="67.857895"
       id="text2369"><tspan
         sodipodi:role="line"
         id="tspan2367"
         style="font-style:normal;font-variant:normal;font-weight:bold;font-stretch:normal;font-size:2.11667px;font-family:Arial;-inkscape-font-specification:'Arial, Bold';font-variant-ligatures:none;font-variant-caps:normal;font-variant-numeric:normal;font-variant-east-asian:normal;fill:#ffffff;stroke-width:0.264583"
         x="95.881554"
         y="67.857895">CO</tspan></text><text
       transform="rotate(1.5094695)"
       style="font-variant:normal;font-weight:900;font-stretch:normal;font-size:1.30707px;font-family:'Caput Heavy';-inkscape-font-specification:CaputHeavy;writing-mode:lr-tb;fill:#ffffff;fill-opacity:1;fill-rule:nonzero;stroke:none;stroke-width:0.352778"
       id="text1227"
       x="100.77208"
       y="65.684677"><tspan
         x="100.77208"
         y="65.684677"
         id="tspan1225"
         style="stroke-width:0.352778">2</tspan></text><text
       xml:space="preserve"
       style="font-size:3.52777px;line-height:1.25;font-family:Arial;-inkscape-font-specification:'Arial, Normal';font-variant-ligatures:none;fill:#ffffff;stroke-width:0.264583"
       x="100.0379"
       y="82.550697"
       id="text2369-35"><tspan
         sodipodi:role="line"
         id="tspan2367-0"
         style="font-style:normal;font-variant:normal;font-weight:bold;font-stretch:normal;font-size:2.11667px;font-family:Arial;-inkscape-font-specification:'Arial, Bold';font-variant-ligatures:none;font-variant-caps:normal;font-variant-numeric:normal;font-variant-east-asian:normal;fill:#ffffff;stroke-width:0.264583"
         x="100.0379"
         y="82.550697">CO</tspan></text><text
       transform="rotate(1.5094695)"
       style="font-variant:normal;font-weight:900;font-stretch:normal;font-size:1.30707px;font-family:'Caput Heavy';-inkscape-font-specification:CaputHeavy;writing-mode:lr-tb;fill:#ffffff;fill-opacity:1;fill-rule:nonzero;stroke:none;stroke-width:0.352778"
       id="text1227-2"
       x="105.31403"
       y="80.262894"><tspan
         x="105.31403"
         y="80.262894"
         id="tspan1225-99"
         style="stroke-width:0.352778">2</tspan></text><g
       id="g4563"
       transform="matrix(0.04777774,0,0,0.04777774,108.70516,44.904108)"
       style="fill:#7c691e;fill-opacity:1;stroke:none;stroke-width:5.69042;stroke-miterlimit:4;stroke-dasharray:none"
       inkscape:export-filename="C:\Users\lamw\Google Drive\Work\Figures\APSIS figures\Resources\Small icons\house.png"
       inkscape:export-xdpi="300"
       inkscape:export-ydpi="300"><path
         inkscape:connector-curvature="0"
         id="path4557"
         d="m 15.323013,863.381 c -1.60091,-1.17638 -1.70102,-6.02939 -1.45898,-70.72582 l 0.25987,-69.46276 52,-46.23871 c 28.6,-25.43129 52.721727,-46.14805 53.603837,-46.03724 0.88211,0.11082 15.50711,12.53099 32.5,27.60039 16.99289,15.0694 40.4223,35.7694 52.06537,46 l 21.16921,18.60109 0.0808,69.71482 c 0.0791,68.25436 0.0397,69.73678 -1.87875,70.76353 -1.284,0.68717 -13.43635,0.95786 -35.25,0.78518 l -33.29047,-0.26353 -0.26496,-30.45148 c -0.25791,-29.64091 -0.32245,-30.51266 -2.42432,-32.75 l -2.15935,-2.29852 H 119.6239 88.972533 l -2.15935,2.29852 c -2.10187,2.23734 -2.1664,3.10909 -2.42431,32.75 l -0.26497,30.45148 -33.54102,0.26305 c -25.78467,0.20222 -33.93851,-0.029 -35.25987,-1 z"
         style="opacity:1;fill:#7c691e;fill-opacity:1;stroke:none;stroke-width:5.69042;stroke-miterlimit:4;stroke-dasharray:none;stroke-opacity:1" /><path
         inkscape:connector-curvature="0"
         id="path4559-17"
         d="m -24.362637,719.41737 c -3.64016,-4.12207 -6.70933,-7.74567 -6.82038,-8.05243 -0.11106,-0.30677 8.00299,-7.83443 18.03122,-16.72812 10.0282201,-8.89369 26.50628,-23.50896 36.61791,-32.47837 10.11163,-8.96942 27.77162,-24.60909 39.24443,-34.75482 11.47281,-10.14574 28.74863,-25.43366 38.390707,-33.97317 9.64208,-8.53951 17.96526,-15.52639 18.49595,-15.52639 0.53069,0 4.60319,3.2085 9.05001,7.13 8.69697,7.66957 27.33851,24.17048 68.76717,60.87057 14.38962,12.74723 36.75699,32.55716 49.70525,44.02208 12.94826,11.46492 23.4488,21.1042 23.33452,21.42064 -0.11427,0.31644 -3.18609,3.94794 -6.82624,8.07001 -5.7642,6.52732 -6.76733,7.37774 -7.77181,6.58872 -1.23345,-0.96887 -30.90053,-27.15843 -65.47472,-57.79987 -11.64632,-10.32158 -29.78361,-26.3815 -40.30508,-35.6887 -10.52148,-9.30721 -21.54578,-19.0918 -24.49845,-21.74354 -2.95268,-2.65173 -5.60437,-4.82134 -5.89266,-4.82134 -0.28828,0 -5.81348,4.69342 -12.27822,10.42983 -6.46474,5.7364 -17.508997,15.52099 -24.542807,21.74353 -7.0338,6.22254 -26.43859,23.40524 -43.12174,38.18377 -36.9676799,32.74728 -54.82145,48.49559 -56.34049,49.69632 -0.99647,0.78768 -2.0102,-0.0725 -7.76457,-6.58872 z"
         style="opacity:1;fill:#7c691e;fill-opacity:1;stroke:none;stroke-width:5.69042;stroke-miterlimit:4;stroke-dasharray:none;stroke-opacity:1" /><path
         inkscape:connector-curvature="0"
         id="path4561"
         d="m 13.213063,622.9633 v -26.20305 h 18.03123 18.03122 l -0.008,7.95496 c -0.0131,13.36239 1.36771,11.12253 -17.18126,27.8708 -8.97399,8.10281 -16.89169,15.14817 -17.59488,15.65636 -1.22692,0.88668 -1.27853,-0.13368 -1.27853,-25.27907 z"
         style="opacity:1;fill:#7c691e;fill-opacity:1;stroke:none;stroke-width:5.69042;stroke-miterlimit:4;stroke-dasharray:none;stroke-opacity:1" /></g></g><g
     inkscape:groupmode="layer"
     id="layer8"
     inkscape:label="mcc"><text
       xml:space="preserve"
       style="font-size:2.46944px;line-height:1.85;font-family:Arial;-inkscape-font-specification:'Arial, Normal';font-variant-ligatures:none;fill:#808080;stroke-width:0.264583"
       x="33.572987"
       y="41.60704"
       id="text366"><tspan
         sodipodi:role="line"
         id="tspan364"
         style="font-size:2.46944px;fill:#808080;stroke-width:0.264583"
         x="33.572987"
         y="41.60704">© MCC</tspan></text></g></svg>
