<?xml version="1.0" encoding="UTF-8" standalone="no"?>
<!-- Created with Inkscape (http://www.inkscape.org/) -->

<svg
   width="43.563175mm"
   height="44.091183mm"
   viewBox="0 0 43.563175 44.091183"
   version="1.1"
   id="svg18932"
   inkscape:version="1.2.1 (9c6d41e410, 2022-07-14)"
   sodipodi:docname="Ocean fertilisation.svg"
   inkscape:export-filename="Ocean fertilisation.png"
   inkscape:export-xdpi="499"
   inkscape:export-ydpi="499"
   xml:space="preserve"
   xmlns:inkscape="http://www.inkscape.org/namespaces/inkscape"
   xmlns:sodipodi="http://sodipodi.sourceforge.net/DTD/sodipodi-0.dtd"
   xmlns:xlink="http://www.w3.org/1999/xlink"
   xmlns="http://www.w3.org/2000/svg"
   xmlns:svg="http://www.w3.org/2000/svg"><sodipodi:namedview
     id="namedview18934"
     pagecolor="#ffffff"
     bordercolor="#666666"
     borderopacity="1.0"
     inkscape:showpageshadow="2"
     inkscape:pageopacity="0.0"
     inkscape:pagecheckerboard="0"
     inkscape:deskcolor="#d1d1d1"
     inkscape:document-units="mm"
     showgrid="false"
     inkscape:zoom="3.1251123"
     inkscape:cx="89.436786"
     inkscape:cy="103.0363"
     inkscape:window-width="1175"
     inkscape:window-height="697"
     inkscape:window-x="97"
     inkscape:window-y="-8"
     inkscape:window-maximized="1"
     inkscape:current-layer="layer10" /><defs
     id="defs18929"><linearGradient
       inkscape:collect="always"
       xlink:href="#linearGradient11418"
       id="linearGradient11420"
       x1="-77.841454"
       y1="33.274895"
       x2="-50.957573"
       y2="81.341263"
       gradientUnits="userSpaceOnUse"
       gradientTransform="translate(196.91944,-0.08282602)" /><linearGradient
       inkscape:collect="always"
       id="linearGradient11418"><stop
         style="stop-color:#3871c1;stop-opacity:1;"
         offset="0"
         id="stop11414" /><stop
         style="stop-color:#3871c1;stop-opacity:0;"
         offset="1"
         id="stop11416" /></linearGradient><clipPath
       clipPathUnits="userSpaceOnUse"
       id="clipPath11306"><g
         id="g11328"
         transform="matrix(0.35277777,0,0,-0.35277777,-109.39582,143.10476)"
         style="fill:url(#linearGradient11350);fill-opacity:1;stroke-width:0.999999"><g
           id="g11308"
           style="fill:url(#linearGradient11330);fill-opacity:1;stroke-width:0.999999" /><g
           id="g11326"
           style="fill:url(#linearGradient11348);fill-opacity:1;stroke-width:0.999999"><g
             clip-path="url(#clipPath1546-5-2-7-6)"
             opacity="0.320007"
             id="g11324"
             style="fill:url(#linearGradient11346);fill-opacity:1;stroke-width:0.264583"><g
               id="g11322"
               style="fill:url(#linearGradient11344);fill-opacity:1;stroke-width:0.999999"><g
                 clip-path="url(#clipPath1550-2-2-4-3)"
                 id="g11320"
                 style="fill:url(#linearGradient11342);fill-opacity:1;stroke-width:0.999999"><g
                   id="g11318"
                   style="fill:url(#linearGradient11340);fill-opacity:1;stroke-width:0.999999"><g
                     id="g11310"
                     style="fill:url(#linearGradient11332);fill-opacity:1;stroke-width:0.999999" /><g
                     mask="url(#mask1562-4-4-0-9)"
                     id="g11316"
                     style="fill:url(#linearGradient11338);fill-opacity:1;stroke-width:0.999999"><g
                       id="g11314"
                       style="fill:url(#linearGradient11336);fill-opacity:1;stroke-width:0.999999"><path
                         d="m 152.079,262.679 c 6.686,9.722 10.608,21.492 10.608,34.183 0,33.361 -27.043,60.405 -60.404,60.405 -33.36,0 -60.404,-27.044 -60.404,-60.404 0,-12.691 3.922,-24.462 10.609,-34.184 z"
                         style="fill:url(#linearGradient11334);fill-opacity:1;stroke:none;stroke-width:0.999999"
                         id="path11312" /></g></g></g></g></g></g></g></g></clipPath><clipPath
       clipPathUnits="userSpaceOnUse"
       id="clipPath849"><path
         d="M 0,841.89 H 595.28 V 0 H 0 Z"
         id="path847" /></clipPath><clipPath
       clipPathUnits="userSpaceOnUse"
       id="clipPath857"><path
         d="M 41.8793,357.267 H 162.687 V 262.679 H 41.8793 Z"
         id="path855" /></clipPath><clipPath
       clipPathUnits="userSpaceOnUse"
       id="clipPath861"><path
         d="m 152.079,262.679 c 6.686,9.722 10.608,21.492 10.608,34.183 0,33.361 -27.043,60.405 -60.404,60.405 -33.36,0 -60.404,-27.044 -60.404,-60.404 0,-12.691 3.922,-24.462 10.609,-34.184 z"
         id="path859" /></clipPath><mask
       maskUnits="userSpaceOnUse"
       x="0"
       y="0"
       width="1"
       height="1"
       id="mask873"><g
         id="g883"><g
           clip-path="url(#clipPath865)"
           id="g881"><g
             id="g879"><g
               id="g877"><path
                 d="M -32768,32767 H 32767 V -32768 H -32768 Z"
                 style="fill:url(#linearGradient871);stroke:none"
                 id="path875" /></g></g></g></g></mask><clipPath
       clipPathUnits="userSpaceOnUse"
       id="clipPath865"><path
         d="M -32768,32767 H 32767 V -32768 H -32768 Z"
         id="path863" /></clipPath><linearGradient
       x1="0"
       y1="0"
       x2="1"
       y2="0"
       gradientUnits="userSpaceOnUse"
       gradientTransform="matrix(0,-92.889946,-92.889946,0,102.28325,357.63867)"
       spreadMethod="pad"
       id="linearGradient871"><stop
         style="stop-opacity:1;stop-color:#ffffff"
         offset="0"
         id="stop867" /><stop
         style="stop-opacity:0;stop-color:#ffffff"
         offset="1"
         id="stop869" /></linearGradient><linearGradient
       x1="0"
       y1="0"
       x2="1"
       y2="0"
       gradientUnits="userSpaceOnUse"
       gradientTransform="matrix(0,-92.889946,-92.889946,0,289.05216,-196.32137)"
       spreadMethod="pad"
       id="linearGradient889"><stop
         style="stop-opacity:1;stop-color:#4081cb"
         offset="0"
         id="stop885" /><stop
         style="stop-opacity:1;stop-color:#4081cb"
         offset="1"
         id="stop887" /></linearGradient><clipPath
       clipPathUnits="userSpaceOnUse"
       id="clipPath1439"><path
         d="m 423.141,415.679 c 6.687,9.722 10.608,21.493 10.608,34.184 10e-4,33.36 -27.043,60.404 -60.403,60.404 -33.361,0 -60.404,-27.044 -60.405,-60.404 0,-12.691 3.922,-24.462 10.609,-34.184 z"
         id="path1437" /></clipPath><clipPath
       clipPathUnits="userSpaceOnUse"
       id="clipPath1443"><path
         d="M -32768,32767 H 32767 V -32768 H -32768 Z"
         id="path1441" /></clipPath><linearGradient
       x1="0"
       y1="0"
       x2="1"
       y2="0"
       gradientUnits="userSpaceOnUse"
       gradientTransform="matrix(0,-92.889946,-92.889946,0,373.34549,510.6391)"
       spreadMethod="pad"
       id="linearGradient1449"><stop
         style="stop-opacity:1;stop-color:#ffffff"
         offset="0"
         id="stop1445" /><stop
         style="stop-opacity:0;stop-color:#ffffff"
         offset="1"
         id="stop1447" /></linearGradient><linearGradient
       x1="0"
       y1="0"
       x2="1"
       y2="0"
       gradientUnits="userSpaceOnUse"
       gradientTransform="matrix(0,-92.889946,-92.889946,0,373.34549,510.6391)"
       spreadMethod="pad"
       id="linearGradient1467"><stop
         style="stop-opacity:1;stop-color:#4081cb"
         offset="0"
         id="stop1463" /><stop
         style="stop-opacity:1;stop-color:#4081cb"
         offset="1"
         id="stop1465" /></linearGradient><mask
       maskUnits="userSpaceOnUse"
       id="mask18706"><g
         id="g18720"
         style="stroke-width:1"><g
           id="g18718"
           style="stroke-width:1"><g
             id="g18716"
             style="stroke-width:1"><g
               clip-path="url(#clipPath1443)"
               id="g18714"
               style="stroke-width:1"><g
                 id="g18712"
                 style="stroke-width:1"><g
                   id="g18710"
                   style="stroke-width:1"><path
                     d="M -32768,32767 H 32767 V -32768 H -32768 Z"
                     style="fill:url(#linearGradient18722);stroke:none;stroke-width:1"
                     id="path18708" /></g></g></g></g></g></g></mask><linearGradient
       inkscape:collect="always"
       xlink:href="#linearGradient1449"
       id="linearGradient18722"
       gradientUnits="userSpaceOnUse"
       gradientTransform="matrix(0,-92.889946,-92.889946,0,373.34548,510.63909)"
       x1="0"
       y1="0"
       x2="1"
       y2="0"
       spreadMethod="pad" /><clipPath
       clipPathUnits="userSpaceOnUse"
       id="clipPath18724"><g
         id="g18738"
         style="stroke-width:1"><g
           id="g18736"
           style="stroke-width:1"><g
             id="g18734"
             style="stroke-width:1"><g
               id="g18732"
               style="stroke-width:1"><g
                 id="g18730"
                 style="stroke-width:1"><g
                   id="g18728"
                   style="stroke-width:1"><path
                     d="M 312.941,510.267 H 433.749 V 415.679 H 312.941 Z"
                     id="path18726"
                     style="stroke-width:1" /></g></g></g></g></g></g></clipPath></defs><g
     inkscape:label="Ebene 1"
     inkscape:groupmode="layer"
     id="layer1"
     transform="translate(-73.041678,-58.850506)"><rect
       style="fill:#ffffff;stroke-width:0.176389;stroke-miterlimit:1"
       id="rect19238"
       width="43.432438"
       height="44.025085"
       x="73.041679"
       y="58.850506"
       transform="translate(1.3125e-6)" /><path
       d="m 76.81428,93.043449 c 3.78037,5.947836 10.42282,9.898241 17.99237,9.898241 7.56955,0 14.21236,-3.950405 17.99273,-9.898241 z"
       style="fill:#6a5e50;fill-opacity:1;fill-rule:nonzero;stroke:none;stroke-width:0.352778"
       id="path1600-4-9"
       inkscape:export-filename="C:\Users\lamw\ownCloud\Figures\NETs\fancy visuals\OA.png"
       inkscape:export-xdpi="499"
       inkscape:export-ydpi="499" /><rect
       style="opacity:0.466334;fill:url(#linearGradient11420);fill-opacity:1;stroke:none;stroke-width:2.58845;stroke-miterlimit:10;stroke-dasharray:none;stroke-opacity:0.466667"
       id="rect11026"
       width="80.508926"
       height="44.601189"
       x="-116.40189"
       y="11.074602"
       clip-path="url(#clipPath11306)"
       transform="matrix(1.0221688,0,0,1.0221688,169.76117,41.487866)"
       inkscape:export-filename="C:\Users\lamw\ownCloud\Figures\NETs\fancy visuals\OA.png"
       inkscape:export-xdpi="499"
       inkscape:export-ydpi="499" /><path
       d="m 79.1944,79.93511 c 0.37324,0.814211 0.44485,1.900767 1.11936,2.441575 -0.73236,0.607836 -0.66004,1.674989 -1.11936,2.469797 1.05128,-0.173214 1.97802,-0.617714 2.70475,-1.4986 1.0668,0.627239 2.00131,1.123245 2.99014,1.283406 -0.0646,0.276577 -0.19226,0.541161 -0.35666,0.799041 0.52106,-0.165805 0.96062,-0.413808 1.30916,-0.756002 1.33703,-0.10407 3.3394,-0.896409 3.35245,-2.269773 v -0.0063 -0.0071 c -0.0113,-1.20262 -1.54905,-1.959681 -2.82893,-2.19957 -0.46002,-0.694972 -1.143,-1.162755 -2.01365,-1.440744 0.28751,0.45085 0.48119,0.918633 0.48542,1.421694 -0.96943,0.168628 -1.89054,0.658637 -2.93793,1.274939 -0.81809,-0.880886 -1.73391,-1.320094 -2.70475,-1.512358 m 9.00571,1.739547 c 0,0.194381 -0.15734,0.35172 -0.35172,0.35172 -0.19403,0 -0.35137,-0.157339 -0.35137,-0.35172 0,-0.19438 0.15734,-0.351719 0.35137,-0.351719 0.19473,0 0.35207,0.157339 0.35172,0.351719"
       style="fill:#358c9b;fill-opacity:1;fill-rule:evenodd;stroke:none;stroke-width:0.352778"
       id="path1608-1-2"
       inkscape:export-filename="C:\Users\lamw\ownCloud\Figures\NETs\fancy visuals\OA.png"
       inkscape:export-xdpi="499"
       inkscape:export-ydpi="499" /><path
       d="m 105.34447,67.245799 4.50074,2.622903 c -1.53847,2.816577 -5.58412,4.002969 -8.36119,4.52755 l -0.0113,1.345494 -2.96968,-3.021542 3.02013,-2.970388 -0.0106,1.254125 c 1.57586,-0.510117 2.88784,-2.029884 3.83187,-3.758142"
       style="fill:#3871c1;fill-opacity:1;fill-rule:nonzero;stroke:none;stroke-width:0.352778"
       id="path1636-3-3"
       inkscape:export-filename="C:\Users\lamw\ownCloud\Figures\NETs\fancy visuals\OA.png"
       inkscape:export-xdpi="499"
       inkscape:export-ydpi="499" /><path
       d="m 90.938851,78.538611 0.0018,0.0063 c 0.0032,0.01139 -0.06573,-0.0079 -0.16384,-0.03979 -0.04774,-0.01552 -0.09178,-0.05488 -0.142881,-0.05292 -0.07171,0.0028 -0.11043,0.09082 -0.126799,0.202577 -0.01644,0.112199 -0.0056,0.224883 0.03198,0.338264 0.01014,0.03056 0.03203,0.06538 0.07113,0.102029 0,0 0.03661,0.05008 0.06414,0.06012 0.03472,0.01266 0.03933,0.02498 0.110706,-0.0059 0.125102,-0.05419 0.197442,-0.08126 0.215065,-0.0906 0.04656,-0.02468 0.07544,-0.08381 0.09103,-0.168709 0.01574,-0.08572 0.0094,-0.166957 -0.01692,-0.245759 -0.03,-0.08991 -0.07472,-0.125738 -0.13526,-0.105628"
       style="fill:#27963c;fill-opacity:1;fill-rule:nonzero;stroke:none;stroke-width:0.352778"
       id="path1620-5-0-2"
       inkscape:export-filename="C:\Users\lamw\ownCloud\Figures\NETs\fancy visuals\OA.png"
       inkscape:export-xdpi="499"
       inkscape:export-ydpi="499"
       sodipodi:nodetypes="csssssssssssc" /><path
       style="fill:none;stroke:#27963c;stroke-width:0.198437;stroke-linecap:butt;stroke-linejoin:miter;stroke-miterlimit:4;stroke-dasharray:none;stroke-opacity:1"
       d="m 92.27853,79.049237 h 7.468343"
       id="path6058-5"
       inkscape:export-filename="C:\Users\lamw\ownCloud\Figures\NETs\fancy visuals\OA.png"
       inkscape:export-xdpi="499"
       inkscape:export-ydpi="499" /><path
       d="m 94.939007,73.768256 c -0.05358,0.05643 -0.117218,0.177674 -0.06243,0.224952 0.0465,0.04012 0.115984,0.109975 0.201198,0.08155 0,0 0.176453,-0.004 0.209307,-0.06982 0.04985,-0.09985 -0.0063,-0.267687 -0.106173,-0.317512 -0.07607,-0.03795 -0.183361,0.01918 -0.2419,0.08083 z"
       style="fill:#27963c;fill-opacity:1;fill-rule:nonzero;stroke:none;stroke-width:0.352778"
       id="path1628-1-8"
       inkscape:export-filename="C:\Users\lamw\ownCloud\Figures\NETs\fancy visuals\OA.png"
       inkscape:export-xdpi="499"
       inkscape:export-ydpi="499"
       sodipodi:nodetypes="ssssss" /><path
       d="m 95.848971,73.755976 c -0.05953,0.06277 -0.129519,0.197086 -0.06908,0.250144 0.051,0.04477 0.129229,0.122492 0.223557,0.09073 0,0 0.19627,-0.0051 0.23275,-0.07837 0.05521,-0.110908 -0.0069,-0.297194 -0.11771,-0.352534 -0.08474,-0.04231 -0.204334,0.02131 -0.269514,0.09004 z"
       style="fill:#27963c;fill-opacity:1;fill-rule:nonzero;stroke:none;stroke-width:0.352778"
       id="path1624-2-5-0"
       inkscape:export-filename="C:\Users\lamw\ownCloud\Figures\NETs\fancy visuals\OA.png"
       inkscape:export-xdpi="499"
       inkscape:export-ydpi="499"
       sodipodi:nodetypes="ssssss" /><path
       style="fill:none;stroke:#27963c;stroke-width:0.198437;stroke-linecap:butt;stroke-linejoin:miter;stroke-miterlimit:4;stroke-dasharray:none;stroke-opacity:1"
       d="m 88.80588,73.878299 h 5.05543"
       id="path6058-4-1"
       inkscape:export-filename="C:\Users\lamw\ownCloud\Figures\NETs\fancy visuals\OA.png"
       inkscape:export-xdpi="499"
       inkscape:export-ydpi="499" /><path
       d="m 99.795001,81.489008 c -0.0519,0.05468 -0.07901,0.189011 -0.05751,0.207974 0.02152,0.01896 0.145122,0.06923 0.186091,0.07552 0.04097,0.0063 0.155758,0.01213 0.194078,-0.06458 0.0383,-0.07668 -0.0168,-0.253122 -0.0983,-0.293779 -0.08147,-0.04065 -0.172457,0.02019 -0.224346,0.07487 z"
       style="fill:#27963c;fill-opacity:1;fill-rule:nonzero;stroke:none;stroke-width:0.352779"
       id="path1632-7-3"
       inkscape:export-filename="C:\Users\lamw\ownCloud\Figures\NETs\fancy visuals\OA.png"
       inkscape:export-xdpi="499"
       inkscape:export-ydpi="499"
       sodipodi:nodetypes="zzzzzz" /><path
       d="m 100.67626,78.901068 c -0.0519,0.05468 -0.079,0.189011 -0.0575,0.207974 0.0215,0.01896 0.14513,0.06923 0.18609,0.07552 0.041,0.0063 0.15576,0.01213 0.19408,-0.06458 0.0383,-0.07668 -0.0168,-0.253122 -0.0983,-0.293779 -0.0815,-0.04065 -0.17245,0.02019 -0.22434,0.07487 z"
       style="fill:#27963c;fill-opacity:1;fill-rule:nonzero;stroke:none;stroke-width:0.352779"
       id="path1632-7-3-1"
       inkscape:export-filename="C:\Users\lamw\ownCloud\Figures\NETs\fancy visuals\OA.png"
       inkscape:export-xdpi="499"
       inkscape:export-ydpi="499"
       sodipodi:nodetypes="zzzzzz" /><path
       d="m 100.88792,81.489008 c -0.0519,0.05468 -0.079,0.189011 -0.0575,0.207974 0.0215,0.01896 0.14512,0.06923 0.18609,0.07552 0.041,0.0063 0.15576,0.01213 0.19408,-0.06458 0.0383,-0.07668 -0.0168,-0.253122 -0.0983,-0.293779 -0.0815,-0.04065 -0.17246,0.02019 -0.22434,0.07487 z"
       style="fill:#27963c;fill-opacity:1;fill-rule:nonzero;stroke:none;stroke-width:0.352779"
       id="path1632-7-3-5"
       inkscape:export-filename="C:\Users\lamw\ownCloud\Figures\NETs\fancy visuals\OA.png"
       inkscape:export-xdpi="499"
       inkscape:export-ydpi="499"
       sodipodi:nodetypes="zzzzzz" /><path
       style="fill:none;stroke:#27963c;stroke-width:0.198437;stroke-linecap:butt;stroke-linejoin:miter;stroke-miterlimit:4;stroke-dasharray:none;stroke-opacity:1"
       d="m 91.5462,81.588389 h 7.55953"
       id="path6058-4-3-5"
       inkscape:export-filename="C:\Users\lamw\ownCloud\Figures\NETs\fancy visuals\OA.png"
       inkscape:export-xdpi="499"
       inkscape:export-ydpi="499" /><path
       style="fill:none;stroke:#27963c;stroke-width:0.198437;stroke-linecap:butt;stroke-linejoin:miter;stroke-miterlimit:4;stroke-dasharray:none;stroke-opacity:1"
       d="m 101.792,81.588389 h 2.12611"
       id="path6058-4-3-9-1-4"
       inkscape:export-filename="C:\Users\lamw\ownCloud\Figures\NETs\fancy visuals\OA.png"
       inkscape:export-xdpi="499"
       inkscape:export-ydpi="499" /><path
       style="fill:none;stroke:#27963c;stroke-width:0.198437;stroke-linecap:butt;stroke-linejoin:miter;stroke-miterlimit:4;stroke-dasharray:none;stroke-opacity:1"
       d="M 85.550481,76.510087 H 96.133935"
       id="path6058-4-3-9-4-7-7-2"
       inkscape:export-filename="C:\Users\lamw\ownCloud\Figures\NETs\fancy visuals\OA.png"
       inkscape:export-xdpi="499"
       inkscape:export-ydpi="499" /><path
       style="fill:none;stroke:#27963c;stroke-width:0.198437;stroke-linecap:butt;stroke-linejoin:miter;stroke-miterlimit:4;stroke-dasharray:none;stroke-opacity:1"
       d="m 97.974864,76.510087 h 4.106016"
       id="path6058-4-3-9-4-7-7-2-5"
       inkscape:export-filename="C:\Users\lamw\ownCloud\Figures\NETs\fancy visuals\OA.png"
       inkscape:export-xdpi="499"
       inkscape:export-ydpi="499" /><path
       style="fill:none;stroke:#27963c;stroke-width:0.198437;stroke-linecap:butt;stroke-linejoin:miter;stroke-miterlimit:4;stroke-dasharray:none;stroke-opacity:1"
       d="m 86.693772,68.89263 h 4.106016"
       id="path6058-4-3-9-4-7-7-2-5-4"
       inkscape:export-filename="C:\Users\lamw\ownCloud\Figures\NETs\fancy visuals\OA.png"
       inkscape:export-xdpi="499"
       inkscape:export-ydpi="499" /><path
       style="fill:none;stroke:#27963c;stroke-width:0.198437;stroke-linecap:butt;stroke-linejoin:miter;stroke-miterlimit:4;stroke-dasharray:none;stroke-opacity:1"
       d="m 91.30874,71.431782 h 7.55953"
       id="path6058-4-3-4-8"
       inkscape:export-filename="C:\Users\lamw\ownCloud\Figures\NETs\fancy visuals\OA.png"
       inkscape:export-xdpi="499"
       inkscape:export-ydpi="499" /><path
       d="m 93.516189,83.569551 c -0.06941,-0.06587 -0.217796,-0.143316 -0.276687,-0.0765 -0.05046,0.05724 -0.135294,0.142926 -0.100472,0.247573 0,0 0.0048,0.217652 0.08591,0.258189 0.122899,0.0614 0.329496,-0.0079 0.390843,-0.130791 0.04683,-0.09385 -0.02352,-0.226269 -0.0996,-0.298466 z"
       style="fill:#27963c;fill-opacity:1;fill-rule:nonzero;stroke:none;stroke-width:0.352777"
       id="path1632-7-8-2"
       inkscape:export-filename="C:\Users\lamw\ownCloud\Figures\NETs\fancy visuals\OA.png"
       inkscape:export-xdpi="499"
       inkscape:export-ydpi="499"
       sodipodi:nodetypes="ssssss" /><path
       d="m 103.50569,84.000396 -0.35889,-0.121859 c -0.14596,-0.04956 -0.20305,0.21252 -0.1322,0.294002 0,0 0.0916,0.182543 0.17965,0.206613 0.0919,0.02512 0.27109,-0.09023 0.27109,-0.09023 0.0977,-0.03251 0.13154,-0.09441 0.10219,-0.181268 -0.0102,-0.03033 -0.0288,-0.06732 -0.0618,-0.10726"
       style="fill:#27963c;fill-opacity:1;fill-rule:nonzero;stroke:none;stroke-width:0.352778"
       id="path1612-3-6-1"
       inkscape:export-filename="C:\Users\lamw\ownCloud\Figures\NETs\fancy visuals\OA.png"
       inkscape:export-xdpi="499"
       inkscape:export-ydpi="499"
       sodipodi:nodetypes="csssssc" /><path
       d="m 97.310821,76.382942 -0.35889,-0.121859 c -0.14596,-0.04956 -0.20305,0.21252 -0.1322,0.294002 0,0 0.0916,0.182543 0.17965,0.206613 0.0919,0.02512 0.27109,-0.09023 0.27109,-0.09023 0.0977,-0.03251 0.13154,-0.09441 0.10219,-0.181268 -0.0102,-0.03033 -0.0288,-0.06732 -0.0618,-0.10726"
       style="fill:#27963c;fill-opacity:1;fill-rule:nonzero;stroke:none;stroke-width:0.352778"
       id="path1612-3-6-1-1"
       inkscape:export-filename="C:\Users\lamw\ownCloud\Figures\NETs\fancy visuals\OA.png"
       inkscape:export-xdpi="499"
       inkscape:export-ydpi="499"
       sodipodi:nodetypes="csssssc" /><path
       d="m 90.28374,71.304637 -0.35889,-0.121859 c -0.14596,-0.04956 -0.20305,0.21252 -0.1322,0.294002 0,0 0.0916,0.182543 0.17965,0.206613 0.0919,0.02512 0.27109,-0.09023 0.27109,-0.09023 0.0977,-0.03251 0.13154,-0.09441 0.10219,-0.181268 -0.0102,-0.03033 -0.0288,-0.06732 -0.0618,-0.10726"
       style="fill:#27963c;fill-opacity:1;fill-rule:nonzero;stroke:none;stroke-width:0.352778"
       id="path1612-3-6-1-1-0"
       inkscape:export-filename="C:\Users\lamw\ownCloud\Figures\NETs\fancy visuals\OA.png"
       inkscape:export-xdpi="499"
       inkscape:export-ydpi="499"
       sodipodi:nodetypes="csssssc" /><path
       style="fill:none;stroke:#27963c;stroke-width:0.198437;stroke-linecap:butt;stroke-linejoin:miter;stroke-miterlimit:4;stroke-dasharray:none;stroke-opacity:1"
       d="m 95.03303,84.127541 h 7.02654"
       id="path6058-8-2"
       inkscape:export-filename="C:\Users\lamw\ownCloud\Figures\NETs\fancy visuals\OA.png"
       inkscape:export-xdpi="499"
       inkscape:export-ydpi="499" /><path
       d="m 96.590523,66.081696 0.0018,0.0063 c 0.0032,0.01141 -0.06573,-0.0079 -0.16384,-0.03979 -0.04774,-0.01552 -0.09178,-0.05488 -0.142881,-0.05292 -0.0717,0.0028 -0.11043,0.09082 -0.1268,0.202577 -0.01644,0.1122 -0.0056,0.224883 0.03198,0.338264 0.01014,0.03056 0.03366,0.06372 0.07113,0.102029 0.02899,0.02964 0.03661,0.05008 0.06414,0.06012 0.03472,0.01266 0.03933,0.02498 0.110706,-0.0059 0.125102,-0.05419 0.197442,-0.08126 0.215065,-0.0906 0.04656,-0.02468 0.07544,-0.08381 0.09103,-0.168708 0.01574,-0.08572 0.0094,-0.166958 -0.01692,-0.24576 -0.03,-0.08991 -0.07472,-0.125738 -0.135261,-0.105628"
       style="fill:#27963c;fill-opacity:1;fill-rule:nonzero;stroke:none;stroke-width:0.352778"
       id="path1620-5-2"
       inkscape:export-filename="C:\Users\lamw\ownCloud\Figures\NETs\fancy visuals\OA.png"
       inkscape:export-xdpi="499"
       inkscape:export-ydpi="499"
       sodipodi:nodetypes="csssssssssssc" /><path
       style="fill:none;stroke:#27963c;stroke-width:0.198437;stroke-linecap:butt;stroke-linejoin:miter;stroke-miterlimit:4;stroke-dasharray:none;stroke-opacity:1"
       d="M 89.839973,66.353478 H 94.8433"
       id="path6058-1-7"
       inkscape:export-filename="C:\Users\lamw\ownCloud\Figures\NETs\fancy visuals\OA.png"
       inkscape:export-xdpi="499"
       inkscape:export-ydpi="499" /><path
       d="m 91.801549,68.713504 c -0.05953,0.06277 -0.129519,0.197086 -0.06908,0.250144 0.051,0.04477 0.129229,0.122492 0.223557,0.09073 0,0 0.19627,-0.0051 0.23275,-0.07837 0.05521,-0.110908 -0.0069,-0.297194 -0.11771,-0.352534 -0.08474,-0.04231 -0.204334,0.02131 -0.269514,0.09004 z"
       style="fill:#27963c;fill-opacity:1;fill-rule:nonzero;stroke:none;stroke-width:0.352778"
       id="path1624-2-5"
       inkscape:export-filename="C:\Users\lamw\ownCloud\Figures\NETs\fancy visuals\OA.png"
       inkscape:export-xdpi="499"
       inkscape:export-ydpi="499"
       sodipodi:nodetypes="ssssss" /><path
       d="m 97.010051,68.755341 c -0.05953,0.06277 -0.129519,0.197086 -0.06908,0.250144 0.051,0.04477 0.129229,0.122492 0.223557,0.09073 0,0 0.19627,-0.0051 0.23275,-0.07837 0.05521,-0.110908 -0.0069,-0.297194 -0.11771,-0.352534 -0.08474,-0.04231 -0.204334,0.02131 -0.269514,0.09004 z"
       style="fill:#27963c;fill-opacity:1;fill-rule:nonzero;stroke:none;stroke-width:0.352778"
       id="path1624-2-5-4"
       inkscape:export-filename="C:\Users\lamw\ownCloud\Figures\NETs\fancy visuals\OA.png"
       inkscape:export-xdpi="499"
       inkscape:export-ydpi="499"
       sodipodi:nodetypes="ssssss" /><path
       d="m 98.162476,68.755341 c -0.05953,0.06277 -0.129519,0.197086 -0.06908,0.250144 0.051,0.04477 0.129229,0.122492 0.223557,0.09073 0,0 0.19627,-0.0051 0.23275,-0.07837 0.05521,-0.110908 -0.0069,-0.297194 -0.11771,-0.352534 -0.08474,-0.04231 -0.204334,0.02131 -0.269514,0.09004 z"
       style="fill:#27963c;fill-opacity:1;fill-rule:nonzero;stroke:none;stroke-width:0.352778"
       id="path1624-2-5-6"
       inkscape:export-filename="C:\Users\lamw\ownCloud\Figures\NETs\fancy visuals\OA.png"
       inkscape:export-xdpi="499"
       inkscape:export-ydpi="499"
       sodipodi:nodetypes="ssssss" /><path
       style="fill:none;stroke:#27963c;stroke-width:0.198437;stroke-linecap:butt;stroke-linejoin:miter;stroke-miterlimit:4;stroke-dasharray:none;stroke-opacity:1"
       d="m 92.995646,68.877664 h 3.26005"
       id="path6058-4-3-9-4-7-1-2"
       inkscape:export-filename="C:\Users\lamw\ownCloud\Figures\NETs\fancy visuals\OA.png"
       inkscape:export-xdpi="499"
       inkscape:export-ydpi="499" /><text
       transform="rotate(1.5097115)"
       style="font-variant:normal;font-weight:900;font-stretch:normal;font-size:1.54253px;font-family:'Caput Heavy';-inkscape-font-specification:CaputHeavy;writing-mode:lr-tb;fill:#ffffff;fill-opacity:1;fill-rule:nonzero;stroke:none;stroke-width:0.352778"
       id="text1419-7-7"
       x="108.65195"
       y="69.035072"><tspan
         x="108.65195"
         y="69.035072"
         id="tspan1417-2-80"
         style="stroke-width:0.352778">2</tspan></text><text
       xml:space="preserve"
       style="font-size:4.23333px;line-height:1.25;font-family:Helvetica;-inkscape-font-specification:'Helvetica, Normal';fill:#ffffff;stroke-width:0.264583"
       x="103.65658"
       y="71.324837"
       id="text4923-40"><tspan
         sodipodi:role="line"
         id="tspan4921-41"
         x="103.65658"
         y="71.324837"
         style="font-style:normal;font-variant:normal;font-weight:bold;font-stretch:normal;font-size:2.11667px;font-family:Helvetica;-inkscape-font-specification:'Helvetica, Bold';font-variant-ligatures:normal;font-variant-caps:normal;font-variant-numeric:normal;font-variant-east-asian:normal;fill:#ffffff;stroke-width:0.264583">CO</tspan></text></g><g
     inkscape:groupmode="layer"
     id="layer10"
     inkscape:label="mcc"><text
       xml:space="preserve"
       style="font-size:2.46944px;line-height:1.85;font-family:Arial;-inkscape-font-specification:'Arial, Normal';font-variant-ligatures:none;fill:#808080;stroke-width:0.264583"
       x="34.250298"
       y="42.876995"
       id="text366"><tspan
         sodipodi:role="line"
         id="tspan364"
         style="font-size:2.46944px;fill:#808080;stroke-width:0.264583"
         x="34.250298"
         y="42.876995">© MCC</tspan></text></g></svg>
