<?xml version="1.0" encoding="UTF-8" standalone="no"?>
<!-- Created with Inkscape (http://www.inkscape.org/) -->

<svg
   xmlns:dc="http://purl.org/dc/elements/1.1/"
   xmlns:cc="http://creativecommons.org/ns#"
   xmlns:rdf="http://www.w3.org/1999/02/22-rdf-syntax-ns#"
   xmlns:svg="http://www.w3.org/2000/svg"
   xmlns="http://www.w3.org/2000/svg"
   xmlns:sodipodi="http://sodipodi.sourceforge.net/DTD/sodipodi-0.dtd"
   xmlns:inkscape="http://www.inkscape.org/namespaces/inkscape"
   width="27.888382mm"
   height="13.42949mm"
   viewBox="0 0 98.817101 47.584807"
   id="svg4758"
   version="1.1"
   inkscape:version="0.91 r13725"
   sodipodi:docname="farming.svg">
  <defs
     id="defs4760" />
  <sodipodi:namedview
     id="base"
     pagecolor="#ffffff"
     bordercolor="#666666"
     borderopacity="1.0"
     inkscape:pageopacity="0.0"
     inkscape:pageshadow="2"
     inkscape:zoom="2.8"
     inkscape:cx="62.014792"
     inkscape:cy="33.21267"
     inkscape:document-units="px"
     inkscape:current-layer="layer1"
     showgrid="false"
     fit-margin-top="0"
     fit-margin-left="0"
     fit-margin-right="0"
     fit-margin-bottom="0"
     inkscape:window-width="1920"
     inkscape:window-height="1017"
     inkscape:window-x="-8"
     inkscape:window-y="-8"
     inkscape:window-maximized="1" />
  <metadata
     id="metadata4763">
    <rdf:RDF>
      <cc:Work
         rdf:about="">
        <dc:format>image/svg+xml</dc:format>
        <dc:type
           rdf:resource="http://purl.org/dc/dcmitype/StillImage" />
        <dc:title></dc:title>
      </cc:Work>
    </rdf:RDF>
  </metadata>
  <g
     inkscape:label="Layer 1"
     inkscape:groupmode="layer"
     id="layer1"
     transform="translate(-39.162877,-60.059096)">
    <g
       transform="translate(7.2221175,-486.6224)"
       id="g11343">
      <path
         transform="translate(-114.28571,2.3622041)"
         sodipodi:nodetypes="ccsscsc"
         inkscape:connector-curvature="0"
         id="path11312"
         d="m 166.23904,581.10253 -5.44299,0 0,2.4018 c 0,1.04704 0.99232,3.48966 0.99232,3.48966 2.88625,2.02157 9.64245,3.33142 9.64245,3.33142 0,0 -3.76177,-3.52172 -4.77309,-5.95643 -0.41265,-0.99349 -0.41869,-3.26645 -0.41869,-3.26645 z"
         style="display:inline;fill:#000000;fill-opacity:1;fill-rule:evenodd;stroke:none;stroke-width:0.69580942;stroke-linecap:butt;stroke-linejoin:miter;stroke-miterlimit:4;stroke-dasharray:none;stroke-opacity:1" />
      <path
         transform="translate(-114.28571,2.3622041)"
         sodipodi:nodetypes="ccsscsc"
         inkscape:connector-curvature="0"
         id="path11312-4"
         d="m 175.63239,581.10253 -5.44299,0 0,2.4018 c 0,1.04704 0.99233,3.48966 0.99233,3.48966 2.88624,2.02157 9.64245,3.33142 9.64245,3.33142 0,0 -3.76178,-3.52172 -4.77309,-5.95643 -0.41266,-0.99349 -0.4187,-3.26645 -0.4187,-3.26645 z"
         style="display:inline;fill:#000000;fill-opacity:1;fill-rule:evenodd;stroke:none;stroke-width:0.69580942;stroke-linecap:butt;stroke-linejoin:miter;stroke-miterlimit:4;stroke-dasharray:none;stroke-opacity:1" />
      <path
         transform="translate(-114.28571,2.3622041)"
         sodipodi:nodetypes="ccsscsc"
         inkscape:connector-curvature="0"
         id="path11312-6"
         d="m 185.16336,581.10253 -5.44299,0 0,2.4018 c 0,1.04704 0.99232,3.48966 0.99232,3.48966 2.88625,2.02157 9.64245,3.33142 9.64245,3.33142 0,0 -3.76178,-3.52172 -4.77309,-5.95643 -0.41265,-0.99349 -0.41869,-3.26645 -0.41869,-3.26645 z"
         style="display:inline;fill:#000000;fill-opacity:1;fill-rule:evenodd;stroke:none;stroke-width:0.69580942;stroke-linecap:butt;stroke-linejoin:miter;stroke-miterlimit:4;stroke-dasharray:none;stroke-opacity:1" />
      <circle
         transform="translate(-114.28571,2.3622041)"
         r="4.1616931"
         cy="585.90332"
         cx="151.45752"
         id="path11335"
         style="display:inline;opacity:1;fill:none;fill-opacity:1;stroke:#000000;stroke-width:2.85299993;stroke-miterlimit:4;stroke-dasharray:none;stroke-dashoffset:1.73999989;stroke-opacity:1" />
      <path
         inkscape:connector-curvature="0"
         id="path11308"
         d="m 90.301208,594.76671 c -1.64314,-0.32089 -3.84382,-1.53259 -5.13232,-2.82586 -3.24212,-3.2541 -4.02137,-7.90326 -2.02655,-12.09079 0.85999,-1.80531 3.08471,-3.9734 5.0156,-4.88794 1.49692,-0.70899 1.69485,-0.74298 4.32668,-0.74298 2.694382,0 2.798112,0.0191 4.496802,0.83041 2.29253,1.09485 3.92249,2.72396 5.00406,5.00143 1.50665,3.17259 1.25273,7.17227 -0.64062,10.09075 -2.40884,3.71309 -6.63987,5.48501 -11.043652,4.62498 z m 3.801752,-6.61499 c 1.03601,-0.4706 2.09954,-1.60488 2.31694,-2.47109 0.0786,-0.31313 0.0942,-1.07649 0.0346,-1.69635 -0.19719,-2.0522 -1.79743,-3.44472 -3.958572,-3.44472 -1.85627,0 -3.33736,1.16924 -3.83229,3.02538 -0.52285,1.96085 0.54393,4.0025 2.44198,4.67357 1.23102,0.43523 1.89011,0.41615 2.997342,-0.0868 z m 26.14232,6.54883 c -2.30142,-0.75472 -4.26821,-2.44815 -5.20301,-4.47986 -0.38887,-0.84516 -0.48931,-1.50881 -0.49123,-3.2458 -0.002,-1.88451 0.0809,-2.36112 0.60617,-3.48151 0.74647,-1.59218 2.08457,-2.96585 3.69294,-3.79111 1.72803,-0.88666 4.56251,-1.02644 6.44241,-0.3177 1.83214,0.69073 3.59998,2.35676 4.44685,4.19075 0.57413,1.24332 0.66678,1.71979 0.66107,3.39957 -0.006,1.6191 -0.11059,2.17775 -0.6137,3.26283 -0.76822,1.65683 -2.37647,3.27404 -3.99091,4.01316 -1.54996,0.7096 -4.12248,0.918 -5.55059,0.44967 z m 3.46547,-4.82489 c 2.14347,-0.8956 2.57594,-3.64669 0.83539,-5.31424 -0.9148,-0.87644 -2.74879,-1.05203 -3.83832,-0.36749 -2.14261,1.34619 -1.85006,4.62704 0.50597,5.67418 0.89322,0.397 1.56004,0.39902 2.49696,0.008 z m -19.51557,-2.03889 c 0.0888,-0.41083 0.21876,-1.13481 0.28883,-1.60884 0.12338,-0.83474 0.15719,-0.86203 1.07392,-0.86692 1.55441,-0.008 2.75371,-0.69658 3.34615,-1.92038 0.5277,-1.0901 0.51761,-1.38757 -0.13525,-3.98879 l -0.13079,-0.52112 4.07983,0 4.07983,0 -1.18547,1.18548 c -0.65201,0.652 -1.51593,1.85672 -1.91982,2.67715 -0.62946,1.27862 -0.74779,1.7987 -0.82836,3.64103 l -0.094,2.14934 -4.36815,0 -4.36814,0 0.16143,-0.74695 z m 0.35569,-4.72733 c 0,-2.8466 -2.7942,-7.24002 -5.68035,-8.93142 -4.33876,-2.54268 -9.669332,-2.29184 -13.539002,0.6371 l -1.42394,1.07777 -0.71035,-0.7329 c -1.46444,-1.51092 -0.66053,-2.87068 2.61029,-4.41514 2.32931,-1.09989 4.2503,-1.53031 6.79202,-1.52185 4.373622,0.0146 7.511392,1.34272 10.696202,4.52753 2.26741,2.26741 3.41764,4.21129 4.1189,6.9609 0.32584,1.2776 0.32854,1.50883 0.0245,2.09675 -0.3604,0.69693 -0.91232,0.94074 -2.14132,0.94591 -0.66679,0.003 -0.74696,-0.0664 -0.74696,-0.64465 z m 2.79204,-7.03482 c -1.34516,-2.53567 -4.33035,-5.36991 -7.15734,-6.79544 -3.22823,-1.62785 -7.481202,-2.228 -10.788172,-1.52237 -0.93952,0.20048 -1.73407,0.33865 -1.76566,0.30706 -0.0316,-0.0316 0.53776,-2.71902 1.26524,-5.97205 l 1.32269,-5.91459 -0.83322,0 -0.83322,0 0.14102,-1.28111 c 0.14924,-1.35591 0.36229,-1.61717 1.49204,-1.82963 0.37922,-0.0713 4.634762,-0.0987 9.456752,-0.0608 8.24509,0.0647 8.79605,0.0949 9.25079,0.50666 0.36312,0.32879 0.48354,0.71169 0.48354,1.5375 0,1.08258 -0.0121,1.10078 -0.77868,1.171 l -0.77868,0.0713 1.61168,5.63092 c 0.88643,3.097 1.62468,5.64629 1.64056,5.66508 0.0159,0.0188 3.14429,0.34545 6.95203,0.72591 4.76183,0.47578 7.14634,0.80714 7.63806,1.06143 1.21359,0.62756 1.50274,1.49206 1.60089,4.7862 l 0.0873,2.93038 -9.73393,0 -9.73393,0 -0.53976,-1.01744 z m -0.59818,-8.96987 c 0.31028,-0.31027 0.56414,-0.76611 0.56414,-1.01299 0,-0.88304 -2.47189,-9.01173 -2.8763,-9.45861 -0.38159,-0.42165 -0.71553,-0.45592 -4.44172,-0.45592 -5.33974,0 -5.0957,-0.20321 -5.08567,4.23452 0.005,2.31605 0.0936,3.34865 0.31091,3.63491 0.16697,0.21992 1.22379,0.66436 2.34848,0.98766 1.12469,0.32329 3.02742,1.04752 4.2283,1.60941 2.64945,1.23966 4.04345,1.36944 4.95186,0.46102 z"
         style="fill:#000000" />
      <rect
         ry="0"
         y="579.38794"
         x="40.542271"
         height="2.855535"
         width="39.599831"
         id="rect11310"
         style="opacity:1;fill:#000000;fill-opacity:1;stroke:none;stroke-width:0.22238423;stroke-miterlimit:4;stroke-dasharray:none;stroke-dashoffset:1.73999989;stroke-opacity:0.56862745" />
    </g>
    <path
       id="path12"
       d="m 82.473864,75.555366 c -0.02702,-0.135121 -0.02702,-0.283746 -0.0135,-0.418866 0,-0.09453 0,-0.175663 0,-0.256722 0,-0.08104 0,-0.175661 0,-0.256734 -0.01351,-0.162132 0,-0.324276 0.02702,-0.486419 0.08104,-0.432372 0.135119,-0.837733 0.162144,-1.256585 0.02702,-0.297264 0.04051,-0.594516 0.05402,-0.891781 l 0.02702,-0.459394 0.08104,-0.635046 0.08104,-0.810707 c 0.0135,-0.05402 0.0135,-0.108044 0.0135,-0.148627 0,-0.05402 0,-0.108044 -0.0135,-0.148637 l -0.08104,-0.783672 c 0.08104,0.364805 0.162144,0.729623 0.202686,1.094442 l 0.202674,1.324151 0.01351,0.175662 0.04051,0.378323 0.02702,0.283746 0,0.432372 -0.01351,0.378336 0.04051,0.648564 0.04051,0.810694 0.04051,0.608034 -0.01351,1.026887 -0.02702,0.364818 -0.02702,0.324275 -0.06753,0.40536 c 0,0.08104 0.0135,0.175649 0.0135,0.256723 0,0.108044 -0.0135,0.229697 -0.0135,0.351298 0,0.01351 0,0.02702 0,0.04051 0,0.08104 0.0135,0.162145 0.02702,0.229698 0.05402,0.148639 0.08104,0.297265 0.09453,0.459409 0.02702,0.162144 0.04052,0.324275 0.08104,0.48642 0.04051,0.162143 0.06752,0.324276 0.06752,0.499937 l 0.01351,0.337794 c 0,0.06752 0.04051,0.13512 0.09453,0.162131 0.08104,0.05402 0.189155,0.09453 0.297251,0.09453 0.01351,0 0.02702,0.0135 0.04051,0.0135 0.08104,0 0.148627,-0.02702 0.216192,-0.05402 0.135121,-0.04052 0.202674,-0.162145 0.202674,-0.297264 l 0,-0.675588 c 0,-0.297251 -0.02702,-0.594515 -0.08104,-0.891766 -0.04051,-0.243217 -0.04051,-0.499939 -0.0135,-0.756661 0.0135,-0.06752 0.02702,-0.148626 0.05402,-0.229697 0.0135,-0.08104 0.0135,-0.162144 0.0135,-0.256722 l 0,0 c 0,-0.06752 -0.0135,-0.135121 -0.05402,-0.175649 -0.08104,-0.108044 -0.135107,-0.202687 -0.175651,-0.32429 -0.06752,-0.148624 -0.121545,-0.297263 -0.162143,-0.459394 -0.04051,-0.121546 -0.06752,-0.256722 -0.05402,-0.391843 0.0135,-0.216192 0.0135,-0.432384 0.0135,-0.648563 l 0,-0.0135 c 0,-0.283746 0.02702,-0.567492 0.06753,-0.851237 0.04052,-0.243217 0.06752,-0.499939 0.06752,-0.75666 l 0,-1.702476 0.02702,-2.161882 -0.02702,-0.959333 c -0.0135,-0.162145 -0.0135,-0.324276 -0.02702,-0.48642 -0.0135,-0.526962 -0.108043,-1.026886 -0.283745,-1.51332 -0.175651,-0.472899 -0.418867,-0.891765 -0.756661,-1.270102 -0.310769,-0.337794 -0.648564,-0.64855 -1.026887,-0.918792 -0.243215,-0.175649 -0.499938,-0.324287 -0.770165,-0.432383 -0.391841,-0.162131 -0.810706,-0.310758 -1.229573,-0.418854 -0.283746,-0.08104 -0.567491,-0.121545 -0.864743,-0.135118 -0.202687,-0.0135 -0.459408,-0.0135 -0.702624,-0.02702 -0.162132,0 -0.229685,0 -0.283734,0 -0.40536,0 -0.797203,0.02702 -1.189044,0.09453 -0.189154,0.04051 -0.364804,0.06752 -0.553973,0.09453 -0.270239,0.04051 -0.526961,0.06752 -0.783684,0.09453 -0.635045,0.06752 -1.283608,0.121546 -1.932171,0.162131 -1.134984,0.05402 -2.378063,0.162145 -3.634661,0.283747 -0.526949,0.06753 -0.959333,0.108044 -1.391704,0.13512 -0.108044,0.01351 -0.297264,0.02702 -0.472913,0.04051 -0.202674,0.01351 -0.351301,0.01351 -0.499939,-0.0135 -0.121545,-0.01351 -0.243204,-0.02702 -0.378323,-0.04052 -0.459395,-0.06752 -0.905286,-0.09453 -1.351175,-0.09453 -1.189032,0 -2.391568,-0.08104 -3.5806,-0.256735 -1.310645,-0.189154 -2.594254,-0.297251 -3.904899,-0.297251 -0.05402,0 -0.09453,0 -0.121546,0 -0.337794,0 -0.675588,0 -0.999864,0.02702 -0.351312,0.02702 -0.729634,0.06752 -1.107957,0.108044 -0.337808,0.04052 -0.702613,0.06752 -1.080949,0.09453 -0.472913,0.04051 -0.905285,0.05402 -1.337656,0.04051 -0.31077,-0.01351 -0.621541,-0.04051 -0.945828,-0.06752 -0.3513,-0.02702 -0.702599,-0.09453 -1.053911,-0.189169 -0.418866,-0.108044 -0.837732,-0.243202 -1.243079,-0.418865 -0.162145,-0.05402 -0.31077,-0.135121 -0.459396,-0.21618 l -0.243216,-0.148625 0.108044,-0.256735 c 0.04051,-0.04051 0.05402,-0.09453 0.05402,-0.16213 0,-0.01351 0,-0.02702 0,-0.04052 -0.02702,-0.108043 -0.08104,-0.189154 -0.189168,-0.229697 -0.121545,-0.04051 -0.256721,-0.09453 -0.405347,-0.135108 -0.09453,-0.04051 -0.202674,-0.08104 -0.297264,-0.121546 -0.13512,-0.06753 -0.283747,-0.121545 -0.432371,-0.148625 -0.148627,-0.02702 -0.283747,-0.108043 -0.378324,-0.229698 L 47.78889,60.827402 c -0.02702,-0.02702 -0.05402,-0.04051 -0.08104,-0.05402 -0.0135,0 -0.02702,0 -0.04051,0 -0.04051,0 -0.06752,0.02702 -0.09453,0.06753 -0.0135,0.04051 -0.0135,0.08104 -0.0135,0.121546 0,0.04051 0,0.08104 0.0135,0.108044 l 0.06753,0.162145 0.135118,0.364818 0.162145,0.43237 -0.0135,0 c -0.229699,0.01351 -0.432371,0.06752 -0.621541,0.162145 -0.09453,0.05402 -0.243202,0.13512 -0.378323,0.216179 -0.189168,0.09453 -0.297264,0.189168 -0.39184,0.310782 -0.04052,0.04051 -0.08104,0.08104 -0.135121,0.108044 -0.06752,0.04051 -0.148626,0.05402 -0.229698,0.02702 -0.121547,-0.02702 -0.243204,-0.108044 -0.324275,-0.21618 l -0.5945,-0.770156 c -0.04051,-0.04051 -0.08104,-0.06752 -0.135121,-0.06752 -0.0135,-0.01351 -0.02702,-0.01351 -0.02702,-0.01351 -0.05402,0 -0.09453,0.02702 -0.121546,0.06752 -0.02702,0.05402 -0.04051,0.108044 -0.04051,0.162132 0,0.02702 0,0.06753 0.0135,0.108044 l 0.09453,0.216192 0.17565,0.432371 0.135119,0.270239 0.148627,0.202674 0.108044,0.162144 0.229698,0.391842 c 0.0135,0.02702 0.02702,0.05402 0.02702,0.08104 0,0.04051 -0.0135,0.06752 -0.04051,0.09453 -0.09453,0.121546 -0.202674,0.243203 -0.324289,0.364818 -0.09454,0.09453 -0.216178,0.16213 -0.337793,0.189167 -0.148627,0.04051 -0.270228,0.162132 -0.310771,0.310757 -0.04051,0.13512 -0.08104,0.283745 -0.09453,0.418866 -0.02702,0.229698 -0.135118,0.432372 -0.283745,0.594516 -0.121546,0.108044 -0.216191,0.229697 -0.297264,0.364818 -0.135107,0.202674 -0.270228,0.405347 -0.432371,0.594515 -0.121546,0.148626 -0.216192,0.324289 -0.297251,0.48642 -0.08104,0.202674 -0.189169,0.391842 -0.337793,0.540467 l -0.851237,0.918804 c -0.0135,0.06752 -0.02702,0.13512 -0.02702,0.202674 0,0.05402 0,0.09453 0.0135,0.135119 0.02702,0.189168 0.08104,0.378324 0.135119,0.553973 0.05402,0.14864 0.135121,0.270242 0.229699,0.391842 0.09453,0.108043 0.189167,0.216192 0.310769,0.310783 0.121547,0.09453 0.270241,0.175649 0.418865,0.229699 0.06753,0.01351 0.135121,0.02702 0.202674,0.02702 0.108044,0 0.216192,-0.02702 0.31077,-0.08104 0.09453,-0.05402 0.189169,-0.08104 0.297252,-0.108044 0.148637,-0.04052 0.31077,-0.04052 0.472913,-0.01351 0.229699,0.04051 0.432386,0.08104 0.621541,0.121545 -0.06752,-0.0135 0.04051,-0.0135 0.148625,-0.0135 0.108043,0 0.229711,-0.01351 0.351312,-0.02702 0.202673,-0.05402 0.405347,-0.09453 0.594516,-0.121545 0.108044,-0.02702 0.283745,-0.08104 0.445891,-0.148626 0.121545,-0.05402 0.25672,-0.05402 0.391841,-0.01351 0.148626,0.05402 0.29725,0.121546 0.445877,0.202674 0.337793,0.189168 0.702611,0.31077 1.080948,0.378336 0.135107,0.02702 0.270226,0.05402 0.391841,0.08104 0.17565,0.02702 0.391829,0.05402 0.594515,0.05402 0.148627,0.0135 0.297252,0.04051 0.445878,0.108043 0.27024,0.135121 0.513443,0.337795 0.689107,0.594517 0.229696,0.337794 0.43237,0.689105 0.60802,1.067429 0.135121,0.283745 0.297264,0.580997 0.459395,0.864743 0.121546,0.202674 0.229711,0.445889 0.324289,0.689106 0.135121,0.337794 0.270227,0.635045 0.418866,0.945815 0.09453,0.216192 0.189155,0.432384 0.270227,0.662082 0.02702,0.06752 0.06752,0.135108 0.108043,0.189155 0.378336,0.513457 0.89178,0.89178 1.486296,1.080948 l 0.364817,0.121546 -0.378336,0.337793 -0.770165,0.689093 -0.405348,0.391843 -0.324288,0.351313 c -0.09453,0.148624 -0.189156,0.310756 -0.310769,0.459394 -0.09453,0.148626 -0.175651,0.270228 -0.229698,0.405347 -0.05402,0.121546 -0.08104,0.243217 -0.08104,0.378323 0,0.05402 0.0135,0.108044 0.0135,0.162146 0.04051,0.202686 0.121686,0.391841 0.216192,0.56749 l 0.202675,0.337794 0.243215,0.324288 0.729637,0.689094 0.324274,0.324288 0.297264,0.310769 0.162131,0.202674 0.48642,0.608035 0.85125,0.905271 0.445877,0.418867 0.351312,0.270239 0.283746,0.189156 0.202673,0.09453 0.108044,0.0135 c 0.121545,0.31077 0.324276,0.594515 0.567493,0.810707 0.09453,0.09453 0.216191,0.162145 0.351298,0.189169 0.121687,0.02702 0.229711,0.05402 0.351312,0.08104 0.02702,0 0.05402,0 0.08104,0 0.05402,0 0.09453,0 0.148626,-0.01351 l 0.08104,-0.02702 -0.635059,-2.175388 c -0.02702,-0.08104 -0.08104,-0.148625 -0.175649,-0.162131 l -0.580988,-0.135054 c -0.05402,-0.02702 -0.08104,-0.08104 -0.06753,-0.121545 0.04052,-0.121547 0.08104,-0.243216 0.121545,-0.364831 0.0135,-0.02702 0.02702,-0.08104 0.02702,-0.121546 0,-0.121545 -0.06752,-0.229698 -0.17565,-0.283745 -0.09453,-0.05402 -0.202674,-0.09453 -0.31077,-0.135121 -0.148625,-0.02702 -0.283746,-0.108044 -0.405348,-0.189155 -0.162144,-0.121547 -0.324287,-0.243216 -0.486419,-0.378337 -0.216191,-0.175649 -0.40536,-0.405347 -0.54048,-0.648563 -0.121546,-0.229698 -0.243203,-0.459394 -0.378323,-0.675588 -0.121547,-0.216179 -0.175649,-0.405347 -0.202674,-0.608021 -0.02702,-0.216191 0.02702,-0.432371 0.162143,-0.621539 0.135108,-0.189167 0.324276,-0.351313 0.52695,-0.44589 0.256722,-0.121547 0.513443,-0.243204 0.770178,-0.364818 0.229697,-0.108044 0.459395,-0.216179 0.702598,-0.31077 0.229699,-0.08104 0.432385,-0.202673 0.635059,-0.337794 0.13512,-0.108043 0.270228,-0.189167 0.418866,-0.270226 0.29725,-0.189169 0.526948,-0.432385 0.702611,-0.743141 l 0.08104,-0.148639 0.337779,0.689106 0.135121,0.297251 0.108044,0.229698 0.216192,0.310769 0.270227,0.391842 0.405361,0.58101 0.337792,0.540467 0.364819,0.594516 0.175649,0.283746 0.513444,0.905286 0.202674,0.391841 0.256721,0.513443 0.13512,0.31077 0.09453,0.283746 c 0.06752,0.148626 0.108043,0.297251 0.135119,0.459396 0.01351,0.121545 0.04052,0.243215 0.06753,0.378322 0,0.05402 0.01351,0.108044 0.01351,0.162146 0,0.189167 -0.06753,0.364817 -0.202688,0.499937 l -0.432372,0.486421 -0.06752,0.108043 c -0.418866,0.108044 -0.729636,0.459396 -0.797203,0.89178 l -0.0135,0.09453 2.310508,0 c 0.189168,-0.202674 0.297264,-0.459396 0.297264,-0.729635 0,-0.162145 -0.04051,-0.324276 -0.108043,-0.472915 l -0.06753,-0.121546 c -0.0135,-0.05402 0.01351,-0.09453 0.05402,-0.09453 l 0,0 0.270239,0 c 0.175649,-0.02702 0.283745,-0.175662 0.283745,-0.337793 0,-0.02702 0,-0.04052 -0.0135,-0.06753 l -0.108044,-0.540481 -0.189168,-0.662069 -0.216178,-0.79719 -0.216193,-0.743153 -0.13512,-0.540467 -0.121547,-0.499939 -0.08104,-0.324276 -0.08104,-0.324273 -0.05402,-0.297265 -0.06753,-0.31077 -0.05402,-0.229699 -0.148626,-0.567491 C 62.773609,78.959943 62.678987,78.689703 62.611433,78.43298 62.503389,78.041138 62.354712,77.649298 62.165542,77.297997 L 62.043997,77.0683 63.097908,77.04128 c 0.08104,0 0.148639,0 0.229711,0 0.297251,0 0.621539,0 0.932295,-0.02702 0.499939,-0.02702 1.026901,0.0135 1.540344,0.13512 0.729637,0.148639 1.459259,0.229698 2.202414,0.243217 0.08104,0.0135 0.148625,0.0135 0.229697,0.0135 0.810708,0 1.607896,-0.08104 2.391568,-0.243216 0.553985,-0.108043 0.959345,-0.189167 1.364693,-0.270226 l 0.08104,-0.01351 c 0.297251,0.243217 0.621721,0.459408 0.972839,0.621541 l 0.04051,0.02702 -0.189155,1.067417 c 0.01351,0.216192 0.189155,0.391842 0.405347,0.391842 0.175649,0 0.337794,-0.09453 0.391843,-0.256721 l 0.337792,-0.891768 0.499926,0.108044 -0.121546,0.878274 c 0,0.02702 0,0.05402 0,0.08104 0,0.08104 0.0135,0.162131 0.05402,0.229698 0.06752,0.108043 0.162144,0.162131 0.283746,0.17565 0.02702,0 0.04051,0 0.05402,0 0.08104,0 0.162143,-0.0135 0.243217,-0.02702 0.108044,-0.02702 0.202673,-0.108044 0.216179,-0.229698 l 0.189167,-0.986343 0.459396,0.02702 c 0.02702,0.175651 0.04052,0.364819 0.04052,0.553986 0,0.02702 0,0.05402 0,0.08104 0,0.270241 -0.02702,0.526963 -0.05402,0.79719 -0.02702,0.229711 -0.08104,0.445889 -0.162144,0.648576 -0.189155,0.432372 -0.405346,0.878261 -0.648563,1.297115 l -0.162132,0.283746 -0.297264,0.526961 c -0.121546,0.283745 -0.297251,0.540468 -0.499937,0.770166 l -0.162132,0.189167 -0.189168,0.189155 -0.48642,0.40536 -0.378335,0.324276 -0.472902,0.391843 c -0.05402,0.04051 -0.108044,0.09453 -0.162144,0.135119 -0.310769,0.283746 -0.553986,0.635059 -0.716117,1.013382 l -0.04051,0.121546 c -0.202675,0.08104 -0.39183,0.189168 -0.553974,0.31077 -0.202673,0.17565 -0.364818,0.378336 -0.472915,0.621538 l -0.05402,0.121547 2.107834,0 0.189156,0 0.05402,-0.0135 0.662083,-1.229573 c 0.0135,-0.04051 0.05402,-0.06753 0.09453,-0.06753 0.02702,0 0.05402,0.01351 0.06753,0.02702 l 0.17565,0.148625 c 0.02702,0.02702 0.06752,0.05402 0.09453,0.05402 0.02702,0 0.04052,-0.0135 0.05402,-0.0135 0.06753,-0.04051 0.13512,-0.08104 0.189168,-0.135107 l 0.06753,-0.08104 0.25672,-0.297264 0.202674,-0.270226 0.729636,-1.229574 c 0.108044,-0.162144 0.202686,-0.297264 0.297264,-0.432371 0.09453,-0.135121 0.243203,-0.297264 0.418853,-0.432372 l 0.378337,-0.283759 1.432247,-1.067417 c 0.05402,-0.06752 0.108044,-0.148639 0.121545,-0.243214 l 0.405348,-1.756523 0.08104,-0.310771 0.189169,-0.459395 0.202674,-0.351313 0.162144,-0.162131 c 0.216178,0.418853 0.499925,0.810696 0.810695,1.148489 0.189167,0.202674 0.364817,0.378335 0.540481,0.553987 0.216178,0.229697 0.405346,0.472899 0.553973,0.756659 0.297263,0.567492 0.513442,1.202536 0.635057,1.837595 0.06752,0.351299 0.121546,0.702597 0.189155,1.05391 0.01351,0.13512 0.02702,0.297251 0.02702,0.459396 0,0.162144 -0.01351,0.324275 -0.04052,0.48642 -0.0135,0.108044 -0.05402,0.202686 -0.121546,0.283745 -0.06752,0.08104 -0.13512,0.17565 -0.189168,0.270241 -0.04051,0.06752 -0.05402,0.148624 -0.06752,0.243202 l -0.0135,0.256735 -0.256723,0.270227 -0.270239,0.243216 c -0.09453,0.135121 -0.148626,0.270229 -0.175649,0.418853 l -0.05402,0.310784 2.29699,0 0.216193,-0.364818 c 0.05402,-0.08104 0.06752,-0.175649 0.06752,-0.270242 0,-0.04051 0,-0.09453 -0.01351,-0.135118 -0.01351,-0.08104 -0.05402,-0.17565 -0.108044,-0.256723 -0.02702,-0.05402 -0.05402,-0.121546 -0.08104,-0.189154 -0.02702,-0.08104 -0.04051,-0.162145 -0.05402,-0.243217 0,-0.05402 0.01351,-0.108044 0.04051,-0.148626 0.04051,-0.05402 0.09453,-0.08104 0.148626,-0.09453 l 0.256721,-0.05402 c 0.04051,0 0.06753,-0.02702 0.09453,-0.05402 0.05402,-0.06752 0.08104,-0.148639 0.08104,-0.229711 0,-0.05402 -0.0135,-0.108044 -0.02702,-0.148626 -0.02702,-0.05402 -0.04051,-0.108043 -0.05402,-0.16213 -0.06752,-0.499939 -0.162144,-1.04042 -0.27024,-1.567368 l -0.08106,-0.445931 -0.148625,-1.107958 c -0.02702,-0.148625 -0.06753,-0.324289 -0.08104,-0.499938 -0.02702,-0.189155 -0.02702,-0.364818 0.01351,-0.540467 0.06753,-0.324276 0.121545,-0.662069 0.162143,-0.999864 0.04051,-0.31077 0.08104,-0.608033 0.121546,-0.905284 0.0135,-0.08104 0.0135,-0.162145 0.0135,-0.256735 0,-0.06753 0,-0.148626 0,-0.216179 -0.02702,-0.229698 -0.108044,-0.44589 -0.229697,-0.621539 -0.05402,-0.09454 -0.108044,-0.189169 -0.148626,-0.297253 L 82.70327,76.622356 c -0.01351,-0.05402 -0.04052,-0.09453 -0.05402,-0.13512 -0.09453,-0.31077 -0.162145,-0.62154 -0.175651,-0.932309 l 0,0 z"
       inkscape:connector-curvature="0" />
  </g>
</svg>
