<?xml version="1.0" encoding="UTF-8" standalone="no"?>
<!-- Created with Inkscape (http://www.inkscape.org/) -->

<svg
   xmlns:dc="http://purl.org/dc/elements/1.1/"
   xmlns:cc="http://creativecommons.org/ns#"
   xmlns:rdf="http://www.w3.org/1999/02/22-rdf-syntax-ns#"
   xmlns:svg="http://www.w3.org/2000/svg"
   xmlns="http://www.w3.org/2000/svg"
   xmlns:sodipodi="http://sodipodi.sourceforge.net/DTD/sodipodi-0.dtd"
   xmlns:inkscape="http://www.inkscape.org/namespaces/inkscape"
   width="27.888382mm"
   height="11.851067mm"
   viewBox="0 0 98.817101 41.991968"
   id="svg5177"
   version="1.1"
   inkscape:version="0.91 r13725"
   sodipodi:docname="Soil Carbon Sequestration.svg">
  <defs
     id="defs5179" />
  <sodipodi:namedview
     id="base"
     pagecolor="#ffffff"
     bordercolor="#666666"
     borderopacity="1.0"
     inkscape:pageopacity="0.0"
     inkscape:pageshadow="2"
     inkscape:zoom="0.35"
     inkscape:cx="-111.30573"
     inkscape:cy="-413.28973"
     inkscape:document-units="px"
     inkscape:current-layer="layer1"
     showgrid="false"
     fit-margin-top="0"
     fit-margin-left="0"
     fit-margin-right="0"
     fit-margin-bottom="0"
     inkscape:window-width="1920"
     inkscape:window-height="1017"
     inkscape:window-x="-8"
     inkscape:window-y="-8"
     inkscape:window-maximized="1" />
  <metadata
     id="metadata5182">
    <rdf:RDF>
      <cc:Work
         rdf:about="">
        <dc:format>image/svg+xml</dc:format>
        <dc:type
           rdf:resource="http://purl.org/dc/dcmitype/StillImage" />
        <dc:title></dc:title>
      </cc:Work>
    </rdf:RDF>
  </metadata>
  <g
     inkscape:label="Layer 1"
     inkscape:groupmode="layer"
     id="layer1"
     transform="translate(-50.591448,-77.080508)">
    <g
       transform="translate(19.007832,-475.90812)"
       id="g11343">
      <path
         transform="translate(-114.28571,2.3622041)"
         sodipodi:nodetypes="ccsscsc"
         inkscape:connector-curvature="0"
         id="path11312"
         d="m 166.23904,581.10253 -5.44299,0 0,2.4018 c 0,1.04704 0.99232,3.48966 0.99232,3.48966 2.88625,2.02157 9.64245,3.33142 9.64245,3.33142 0,0 -3.76177,-3.52172 -4.77309,-5.95643 -0.41265,-0.99349 -0.41869,-3.26645 -0.41869,-3.26645 z"
         style="display:inline;fill:#000000;fill-opacity:1;fill-rule:evenodd;stroke:none;stroke-width:0.69580942;stroke-linecap:butt;stroke-linejoin:miter;stroke-miterlimit:4;stroke-dasharray:none;stroke-opacity:1" />
      <path
         transform="translate(-114.28571,2.3622041)"
         sodipodi:nodetypes="ccsscsc"
         inkscape:connector-curvature="0"
         id="path11312-4"
         d="m 175.63239,581.10253 -5.44299,0 0,2.4018 c 0,1.04704 0.99233,3.48966 0.99233,3.48966 2.88624,2.02157 9.64245,3.33142 9.64245,3.33142 0,0 -3.76178,-3.52172 -4.77309,-5.95643 -0.41266,-0.99349 -0.4187,-3.26645 -0.4187,-3.26645 z"
         style="display:inline;fill:#000000;fill-opacity:1;fill-rule:evenodd;stroke:none;stroke-width:0.69580942;stroke-linecap:butt;stroke-linejoin:miter;stroke-miterlimit:4;stroke-dasharray:none;stroke-opacity:1" />
      <path
         transform="translate(-114.28571,2.3622041)"
         sodipodi:nodetypes="ccsscsc"
         inkscape:connector-curvature="0"
         id="path11312-6"
         d="m 185.16336,581.10253 -5.44299,0 0,2.4018 c 0,1.04704 0.99232,3.48966 0.99232,3.48966 2.88625,2.02157 9.64245,3.33142 9.64245,3.33142 0,0 -3.76178,-3.52172 -4.77309,-5.95643 -0.41265,-0.99349 -0.41869,-3.26645 -0.41869,-3.26645 z"
         style="display:inline;fill:#000000;fill-opacity:1;fill-rule:evenodd;stroke:none;stroke-width:0.69580942;stroke-linecap:butt;stroke-linejoin:miter;stroke-miterlimit:4;stroke-dasharray:none;stroke-opacity:1" />
      <circle
         transform="translate(-114.28571,2.3622041)"
         r="4.1616931"
         cy="585.90332"
         cx="151.45752"
         id="path11335"
         style="display:inline;opacity:1;fill:none;fill-opacity:1;stroke:#000000;stroke-width:2.85299993;stroke-miterlimit:4;stroke-dasharray:none;stroke-dashoffset:1.73999989;stroke-opacity:1" />
      <path
         inkscape:connector-curvature="0"
         id="path11308"
         d="m 90.301208,594.76671 c -1.64314,-0.32089 -3.84382,-1.53259 -5.13232,-2.82586 -3.24212,-3.2541 -4.02137,-7.90326 -2.02655,-12.09079 0.85999,-1.80531 3.08471,-3.9734 5.0156,-4.88794 1.49692,-0.70899 1.69485,-0.74298 4.32668,-0.74298 2.694382,0 2.798112,0.0191 4.496802,0.83041 2.29253,1.09485 3.92249,2.72396 5.00406,5.00143 1.50665,3.17259 1.25273,7.17227 -0.64062,10.09075 -2.40884,3.71309 -6.63987,5.48501 -11.043652,4.62498 z m 3.801752,-6.61499 c 1.03601,-0.4706 2.09954,-1.60488 2.31694,-2.47109 0.0786,-0.31313 0.0942,-1.07649 0.0346,-1.69635 -0.19719,-2.0522 -1.79743,-3.44472 -3.958572,-3.44472 -1.85627,0 -3.33736,1.16924 -3.83229,3.02538 -0.52285,1.96085 0.54393,4.0025 2.44198,4.67357 1.23102,0.43523 1.89011,0.41615 2.997342,-0.0868 z m 26.14232,6.54883 c -2.30142,-0.75472 -4.26821,-2.44815 -5.20301,-4.47986 -0.38887,-0.84516 -0.48931,-1.50881 -0.49123,-3.2458 -0.002,-1.88451 0.0809,-2.36112 0.60617,-3.48151 0.74647,-1.59218 2.08457,-2.96585 3.69294,-3.79111 1.72803,-0.88666 4.56251,-1.02644 6.44241,-0.3177 1.83214,0.69073 3.59998,2.35676 4.44685,4.19075 0.57413,1.24332 0.66678,1.71979 0.66107,3.39957 -0.006,1.6191 -0.11059,2.17775 -0.6137,3.26283 -0.76822,1.65683 -2.37647,3.27404 -3.99091,4.01316 -1.54996,0.7096 -4.12248,0.918 -5.55059,0.44967 z m 3.46547,-4.82489 c 2.14347,-0.8956 2.57594,-3.64669 0.83539,-5.31424 -0.9148,-0.87644 -2.74879,-1.05203 -3.83832,-0.36749 -2.14261,1.34619 -1.85006,4.62704 0.50597,5.67418 0.89322,0.397 1.56004,0.39902 2.49696,0.008 z m -19.51557,-2.03889 c 0.0888,-0.41083 0.21876,-1.13481 0.28883,-1.60884 0.12338,-0.83474 0.15719,-0.86203 1.07392,-0.86692 1.55441,-0.008 2.75371,-0.69658 3.34615,-1.92038 0.5277,-1.0901 0.51761,-1.38757 -0.13525,-3.98879 l -0.13079,-0.52112 4.07983,0 4.07983,0 -1.18547,1.18548 c -0.65201,0.652 -1.51593,1.85672 -1.91982,2.67715 -0.62946,1.27862 -0.74779,1.7987 -0.82836,3.64103 l -0.094,2.14934 -4.36815,0 -4.36814,0 0.16143,-0.74695 z m 0.35569,-4.72733 c 0,-2.8466 -2.7942,-7.24002 -5.68035,-8.93142 -4.33876,-2.54268 -9.669332,-2.29184 -13.539002,0.6371 l -1.42394,1.07777 -0.71035,-0.7329 c -1.46444,-1.51092 -0.66053,-2.87068 2.61029,-4.41514 2.32931,-1.09989 4.2503,-1.53031 6.79202,-1.52185 4.373622,0.0146 7.511392,1.34272 10.696202,4.52753 2.26741,2.26741 3.41764,4.21129 4.1189,6.9609 0.32584,1.2776 0.32854,1.50883 0.0245,2.09675 -0.3604,0.69693 -0.91232,0.94074 -2.14132,0.94591 -0.66679,0.003 -0.74696,-0.0664 -0.74696,-0.64465 z m 2.79204,-7.03482 c -1.34516,-2.53567 -4.33035,-5.36991 -7.15734,-6.79544 -3.22823,-1.62785 -7.481202,-2.228 -10.788172,-1.52237 -0.93952,0.20048 -1.73407,0.33865 -1.76566,0.30706 -0.0316,-0.0316 0.53776,-2.71902 1.26524,-5.97205 l 1.32269,-5.91459 -0.83322,0 -0.83322,0 0.14102,-1.28111 c 0.14924,-1.35591 0.36229,-1.61717 1.49204,-1.82963 0.37922,-0.0713 4.634762,-0.0987 9.456752,-0.0608 8.24509,0.0647 8.79605,0.0949 9.25079,0.50666 0.36312,0.32879 0.48354,0.71169 0.48354,1.5375 0,1.08258 -0.0121,1.10078 -0.77868,1.171 l -0.77868,0.0713 1.61168,5.63092 c 0.88643,3.097 1.62468,5.64629 1.64056,5.66508 0.0159,0.0188 3.14429,0.34545 6.95203,0.72591 4.76183,0.47578 7.14634,0.80714 7.63806,1.06143 1.21359,0.62756 1.50274,1.49206 1.60089,4.7862 l 0.0873,2.93038 -9.73393,0 -9.73393,0 -0.53976,-1.01744 z m -0.59818,-8.96987 c 0.31028,-0.31027 0.56414,-0.76611 0.56414,-1.01299 0,-0.88304 -2.47189,-9.01173 -2.8763,-9.45861 -0.38159,-0.42165 -0.71553,-0.45592 -4.44172,-0.45592 -5.33974,0 -5.0957,-0.20321 -5.08567,4.23452 0.005,2.31605 0.0936,3.34865 0.31091,3.63491 0.16697,0.21992 1.22379,0.66436 2.34848,0.98766 1.12469,0.32329 3.02742,1.04752 4.2283,1.60941 2.64945,1.23966 4.04345,1.36944 4.95186,0.46102 z"
         style="fill:#000000" />
      <rect
         ry="0"
         y="579.38794"
         x="40.542271"
         height="2.855535"
         width="39.599831"
         id="rect11310"
         style="opacity:1;fill:#000000;fill-opacity:1;stroke:none;stroke-width:0.22238423;stroke-miterlimit:4;stroke-dasharray:none;stroke-dashoffset:1.73999989;stroke-opacity:0.56862745" />
    </g>
  </g>
</svg>
