<?xml version="1.0" encoding="UTF-8" standalone="no"?>
<!-- Created with Inkscape (http://www.inkscape.org/) -->

<svg
   xmlns:dc="http://purl.org/dc/elements/1.1/"
   xmlns:cc="http://creativecommons.org/ns#"
   xmlns:rdf="http://www.w3.org/1999/02/22-rdf-syntax-ns#"
   xmlns:svg="http://www.w3.org/2000/svg"
   xmlns="http://www.w3.org/2000/svg"
   xmlns:sodipodi="http://sodipodi.sourceforge.net/DTD/sodipodi-0.dtd"
   xmlns:inkscape="http://www.inkscape.org/namespaces/inkscape"
   width="27.814775mm"
   height="18.061558mm"
   viewBox="0 0 98.556291 63.997645"
   id="svg6018"
   version="1.1"
   inkscape:version="0.91 r13725"
   sodipodi:docname="Afforestation Reforestation.svg">
  <defs
     id="defs6020" />
  <sodipodi:namedview
     id="base"
     pagecolor="#ffffff"
     bordercolor="#666666"
     borderopacity="1.0"
     inkscape:pageopacity="0.0"
     inkscape:pageshadow="2"
     inkscape:zoom="0.35"
     inkscape:cx="298.56386"
     inkscape:cy="-359.42974"
     inkscape:document-units="px"
     inkscape:current-layer="layer1"
     showgrid="false"
     fit-margin-top="0"
     fit-margin-left="0"
     fit-margin-right="0"
     fit-margin-bottom="0"
     inkscape:window-width="1920"
     inkscape:window-height="1017"
     inkscape:window-x="-8"
     inkscape:window-y="-8"
     inkscape:window-maximized="1" />
  <metadata
     id="metadata6023">
    <rdf:RDF>
      <cc:Work
         rdf:about="">
        <dc:format>image/svg+xml</dc:format>
        <dc:type
           rdf:resource="http://purl.org/dc/dcmitype/StillImage" />
        <dc:title></dc:title>
      </cc:Work>
    </rdf:RDF>
  </metadata>
  <g
     inkscape:label="Layer 1"
     inkscape:groupmode="layer"
     id="layer1"
     transform="translate(-76.436141,-108.93481)">
    <path
       style="fill:#000000"
       d="m 97.97326,172.87557 -0.10388,-11.74978 c -0.12112,-13.70578 0.4325,-11.82352 -4.59963,-15.65471 l -3.25349,-2.47704 -1.59559,0.23918 c -7.52675,1.12822 -13.17477,-2.16975 -11.76898,-6.87213 0.38747,-1.29609 2.53914,-3.78857 3.91622,-4.53653 0.6001,-0.32594 0.59269,-0.36162 -0.23443,-1.12817 -1.13068,-1.04787 -1.12869,-2.33863 0.005,-3.54566 0.47278,-0.50317 1.12321,-1.06088 1.4454,-1.23938 0.5187,-0.28737 0.54379,-0.4518 0.21905,-1.4358 -0.29387,-0.89039 -0.27895,-1.32141 0.075,-2.16856 0.53138,-1.27178 1.99702,-2.5651 3.45048,-3.04477 1.03762,-0.34245 1.06307,-0.3917 1.02384,-1.98052 -0.0312,-1.26367 0.1288,-1.86635 0.71293,-2.68537 1.0536,-1.47725 3.5589,-2.56876 5.92194,-2.58007 1.58681,-0.007 1.96677,-0.12577 2.5934,-0.80659 1.17976,-1.2818 3.61652,-2.27137 5.60173,-2.27484 1.91547,-0.004 4.13591,0.64913 5.18879,1.52472 1.00885,0.839 1.9757,2.57594 1.97703,3.55173 9.3e-4,0.72741 0.13336,0.86066 0.86077,0.86647 1.36526,0.0112 3.35866,1.07814 4.28691,2.29515 0.71761,0.94083 0.83666,1.36642 0.74518,2.66386 l -0.10888,1.54415 1.20088,0.19171 c 1.61153,0.25724 3.43981,1.22334 4.2398,2.24037 1.33696,1.69966 0.59013,4.1824 -1.59854,5.3142 l -0.94771,0.49009 0.89718,0.5456 c 1.08688,0.66096 2.73841,2.50049 3.4087,3.7967 1.45906,2.82149 0.52484,6.54475 -2.09431,8.34676 -2.56657,1.76585 -5.69998,2.31631 -9.07053,1.59346 l -1.65092,-0.35406 -1.53018,1.68254 c -0.84161,0.9254 -2.64311,3.01456 -4.00335,4.64257 l -2.47316,2.96001 0.0905,9.69967 0.0347,10.36949 c 0,0 -1.69624,-0.0245 -2.86235,-0.0245 z m 6.8512,-27.34038 c 1.4385,-1.37245 2.54868,-2.54781 2.46707,-2.61193 -0.0816,-0.0641 -0.6138,-0.4012 -1.1826,-0.74908 -0.95448,-0.58376 -1.15852,-0.60027 -2.64695,-0.21418 -0.887,0.23009 -1.94574,0.41834 -2.35275,0.41834 -0.73172,0 -0.73779,0.0271 -0.54141,2.42254 0.29561,3.60568 0.38509,3.9019 1.06822,3.5363 0.31512,-0.16866 1.74991,-1.42955 3.18842,-2.80199 z m -6.7555,-0.73431 c 0.43043,-2.49281 0.41884,-2.52735 -0.92854,-2.77028 -0.68769,-0.12393 -1.63858,-0.37482 -2.11308,-0.55746 -0.67616,-0.26024 -1.09992,-0.21893 -1.95948,0.19097 -0.60321,0.28765 -1.05626,0.64445 -1.00678,0.79289 0.14737,0.44209 4.72199,3.32988 5.29961,3.34543 0.36137,0.01 0.5893,-0.31261 0.70827,-1.00155 z"
       id="path11150"
       inkscape:connector-curvature="0"
       sodipodi:nodetypes="csscssssssssssssssscssscssscsssscssccccscssssssssssccs" />
    <path
       style="fill:#000000"
       d="m 143.0088,172.52256 c -0.0972,-0.27076 -0.22335,-1.78508 -0.28043,-3.36517 l -0.10382,-2.87288 -5.26696,-0.10655 c -2.89683,-0.0586 -5.26696,-0.21593 -5.26696,-0.34958 0,-0.13365 1.03424,-2.08304 2.2983,-4.332 1.26408,-2.24895 2.29832,-4.20322 2.29832,-4.34281 0,-0.13966 -0.6895,-0.2538 -1.53221,-0.2538 -0.84272,0 -1.53221,-0.0779 -1.53221,-0.17304 0,-0.0952 1.20662,-2.24614 2.68137,-4.77994 1.47474,-2.53381 2.68136,-4.6968 2.68136,-4.80665 0,-0.10978 -0.40222,-0.19972 -0.89379,-0.19972 -0.49158,0 -0.99319,-0.0993 -1.11469,-0.22089 -0.1215,-0.12146 0.71732,-1.84593 1.86403,-3.83206 2.79083,-4.83378 2.76936,-4.75724 1.33458,-4.75724 -0.65458,0 -1.19013,-0.18165 -1.19013,-0.4037 0,-0.67935 7.80992,-13.33934 8.11333,-13.15183 0.329,0.20335 7.45885,11.9973 7.817,12.93065 0.19003,0.49519 -0.008,0.62488 -0.95035,0.62488 -0.65456,0 -1.19013,0.15873 -1.19013,0.35272 0,0.194 0.94806,1.99479 2.10678,4.00174 1.15874,2.00697 2.10678,3.83053 2.10678,4.05237 0,0.22184 -0.43093,0.40336 -0.95762,0.40336 -0.52669,0 -0.95762,0.13381 -0.95762,0.29726 0,0.1635 1.12042,2.23141 2.48983,4.59539 1.3694,2.36397 2.48983,4.47106 2.48983,4.6824 0,0.21136 -0.6033,0.3843 -1.34068,0.3843 -0.82061,0 -1.33818,0.18573 -1.33424,0.4788 0.003,0.26336 1.0219,2.20163 2.263,4.30729 1.24112,2.10564 2.1761,3.95866 2.07774,4.1178 -0.0983,0.15914 -2.48899,0.28933 -5.3125,0.28933 l -5.13369,0 -0.11073,3.35172 -0.11059,3.35169 -3.93312,0.10916 c -2.93659,0.0815 -3.9779,-0.0155 -4.10979,-0.38306 z m -16.85827,-1.45885 c -0.13535,-0.42626 -0.19285,-1.5036 -0.12796,-2.39407 l 0.11812,-1.61903 -3.82419,-0.19153 c -2.53659,-0.12705 -3.7973,-0.33671 -3.7443,-0.62274 0.044,-0.23719 0.67945,-1.45421 1.41224,-2.70453 1.73687,-2.96353 1.78695,-3.28904 0.54563,-3.54636 l -1.02665,-0.21282 1.88851,-3.19329 c 1.03868,-1.7563 1.88852,-3.33877 1.88852,-3.51659 0,-0.17782 -0.33982,-0.37838 -0.75514,-0.4457 -0.68879,-0.11164 -0.60781,-0.37486 0.92151,-2.99528 1.67243,-2.86562 1.67434,-2.8732 0.75515,-2.9941 -0.50683,-0.0666 -0.92152,-0.20943 -0.92152,-0.31723 0,-0.3132 5.44755,-9.33659 5.7492,-9.52303 0.35135,-0.21713 6.1412,9.24338 5.8408,9.54379 -0.12443,0.12444 -0.55862,0.22615 -0.96497,0.22615 -0.67602,0 -0.63871,0.1774 0.43896,2.08691 l 1.17776,2.0869 -1.52425,2.64381 c -1.74104,3.01978 -1.88923,4.07403 -0.6624,4.71234 0.47403,0.24662 0.92311,0.50066 0.99797,0.56456 0.0749,0.0638 -0.75737,1.66425 -1.8494,3.55641 -1.68348,2.91698 -1.92063,3.56146 -1.55907,4.23706 0.23454,0.43823 0.59274,0.79679 0.79601,0.79679 0.20327,0 0.36958,1.03425 0.36958,2.29831 l 0,2.29832 -2.84708,0 c -2.52159,0 -2.87521,-0.0886 -3.09306,-0.77505 z m 35.32259,0.53486 c -0.14873,-0.14873 -0.27054,-1.08386 -0.27054,-2.07792 0,-1.50516 0.16011,-1.91227 0.95762,-2.43482 0.52669,-0.34511 0.95676,-0.92514 0.95569,-1.28896 -0.001,-0.36385 -0.84003,-2.12527 -1.86433,-3.91431 l -1.86236,-3.25277 1.09821,-0.66786 c 0.60401,-0.36734 1.09822,-0.94192 1.09822,-1.27688 0,-0.33494 -0.68949,-1.76959 -1.53221,-3.18809 -0.84271,-1.41849 -1.53221,-2.81248 -1.53221,-3.09773 0,-0.28526 0.43821,-1.26636 0.97377,-2.18026 l 0.97379,-1.66162 -0.97379,0 c -0.53556,0 -0.97377,-0.0997 -0.97377,-0.22146 0,-0.33535 5.43465,-9.35407 5.75666,-9.55309 0.3031,-0.18734 5.7349,8.67943 5.7349,9.36157 0,0.22713 -0.34476,0.41298 -0.76611,0.41298 -0.42136,0 -0.7661,0.072 -0.7661,0.15988 0,0.0879 0.77275,1.46692 1.7172,3.0644 1.52195,2.57428 1.63085,2.90454 0.95763,2.90454 -1.10639,0 -0.94877,0.62626 0.96416,3.83052 0.9433,1.58009 1.71703,3.00216 1.7194,3.16019 10e-4,0.158 -0.42661,0.28727 -0.9533,0.28727 -0.52671,0 -0.95764,0.18533 -0.95764,0.41184 0,0.22653 0.6895,1.57245 1.53221,2.99094 0.84272,1.4185 1.53221,2.78452 1.53221,3.03562 0,0.32276 -1.11704,0.45653 -3.81224,0.45653 l -3.81223,0 c -0.076,1.59605 0.054,3.05477 -0.022,4.65081 l -2.90409,0.24822 c -1.48396,0.0611 -2.81985,-0.0112 -2.96866,-0.1596 z"
       id="path11293"
       inkscape:connector-curvature="0"
       sodipodi:nodetypes="cccssssssssscsssccssssssssscscscccscccccscsscsscscsccsscsscsssscscccsscsccsssccsscsssssscsssssccccc" />
  </g>
</svg>
