<?xml version="1.0" encoding="UTF-8" standalone="no"?>
<!-- Created with Inkscape (http://www.inkscape.org/) -->

<svg
   xmlns:dc="http://purl.org/dc/elements/1.1/"
   xmlns:cc="http://creativecommons.org/ns#"
   xmlns:rdf="http://www.w3.org/1999/02/22-rdf-syntax-ns#"
   xmlns:svg="http://www.w3.org/2000/svg"
   xmlns="http://www.w3.org/2000/svg"
   xmlns:sodipodi="http://sodipodi.sourceforge.net/DTD/sodipodi-0.dtd"
   xmlns:inkscape="http://www.inkscape.org/namespaces/inkscape"
   width="106.3531mm"
   height="191.31619mm"
   viewBox="0 0 376.84171 677.89202"
   id="svg5118"
   version="1.1"
   inkscape:version="0.91 r13725"
   sodipodi:docname="table icons.svg"
   inkscape:export-filename="C:\Users\lamw\Documents\SpiderOak Hive\Work\Figures\APSIS figures\Share\Greg Nemet\text8856.png"
   inkscape:export-xdpi="399.98395"
   inkscape:export-ydpi="399.98395">
  <defs
     id="defs5120">
    <marker
       inkscape:stockid="Arrow2Mend"
       orient="auto"
       refY="0"
       refX="0"
       id="marker6301"
       style="overflow:visible"
       inkscape:isstock="true">
      <path
         id="path6303"
         style="fill:#696969;fill-opacity:1;fill-rule:evenodd;stroke:#696969;stroke-width:0.625;stroke-linejoin:round;stroke-opacity:1"
         d="M 8.7185878,4.0337352 -2.2072895,0.01601326 8.7185884,-4.0017078 c -1.7454984,2.3720609 -1.7354408,5.6174519 -6e-7,8.035443 z"
         transform="scale(-0.6,-0.6)"
         inkscape:connector-curvature="0" />
    </marker>
    <marker
       inkscape:stockid="Arrow1Send"
       orient="auto"
       refY="0"
       refX="0"
       id="Arrow1Send"
       style="overflow:visible"
       inkscape:isstock="true">
      <path
         id="path5964"
         d="M 0,0 5,-5 -12.5,0 5,5 0,0 Z"
         style="fill:#696969;fill-opacity:1;fill-rule:evenodd;stroke:#696969;stroke-width:1pt;stroke-opacity:1"
         transform="matrix(-0.2,0,0,-0.2,-1.2,0)"
         inkscape:connector-curvature="0" />
    </marker>
    <marker
       inkscape:stockid="Arrow2Lend"
       orient="auto"
       refY="0"
       refX="0"
       id="Arrow2Lend"
       style="overflow:visible"
       inkscape:isstock="true">
      <path
         id="path5970"
         style="fill:#696969;fill-opacity:1;fill-rule:evenodd;stroke:#696969;stroke-width:0.625;stroke-linejoin:round;stroke-opacity:1"
         d="M 8.7185878,4.0337352 -2.2072895,0.01601326 8.7185884,-4.0017078 c -1.7454984,2.3720609 -1.7354408,5.6174519 -6e-7,8.035443 z"
         transform="matrix(-1.1,0,0,-1.1,-1.1,0)"
         inkscape:connector-curvature="0" />
    </marker>
    <marker
       inkscape:stockid="Arrow2Mend"
       orient="auto"
       refY="0"
       refX="0"
       id="Arrow2Mend"
       style="overflow:visible"
       inkscape:isstock="true">
      <path
         id="path5976"
         style="fill:#696969;fill-opacity:1;fill-rule:evenodd;stroke:#696969;stroke-width:0.625;stroke-linejoin:round;stroke-opacity:1"
         d="M 8.7185878,4.0337352 -2.2072895,0.01601326 8.7185884,-4.0017078 c -1.7454984,2.3720609 -1.7354408,5.6174519 -6e-7,8.035443 z"
         transform="scale(-0.6,-0.6)"
         inkscape:connector-curvature="0" />
    </marker>
    <inkscape:path-effect
       effect="spiro"
       id="path-effect5943"
       is_visible="true" />
    <inkscape:path-effect
       effect="spiro"
       id="path-effect5943-4"
       is_visible="true" />
    <pattern
       y="0"
       x="0"
       height="6"
       width="6"
       patternUnits="userSpaceOnUse"
       id="EMFhbasepattern" />
  </defs>
  <sodipodi:namedview
     id="base"
     pagecolor="#ffffff"
     bordercolor="#666666"
     borderopacity="1.0"
     inkscape:pageopacity="0.0"
     inkscape:pageshadow="2"
     inkscape:zoom="0.7"
     inkscape:cx="169.77637"
     inkscape:cy="195.61387"
     inkscape:document-units="px"
     inkscape:current-layer="layer1"
     showgrid="false"
     inkscape:window-width="1920"
     inkscape:window-height="1027"
     inkscape:window-x="-8"
     inkscape:window-y="-8"
     inkscape:window-maximized="1"
     fit-margin-top="0"
     fit-margin-left="0"
     fit-margin-right="0"
     fit-margin-bottom="0" />
  <metadata
     id="metadata5123">
    <rdf:RDF>
      <cc:Work
         rdf:about="">
        <dc:format>image/svg+xml</dc:format>
        <dc:type
           rdf:resource="http://purl.org/dc/dcmitype/StillImage" />
        <dc:title></dc:title>
      </cc:Work>
    </rdf:RDF>
  </metadata>
  <g
     inkscape:label="Layer 1"
     inkscape:groupmode="layer"
     id="layer1"
     transform="translate(-185.90477,-50.374514)">
    <g
       id="g5920"
       transform="translate(-5.3920014,-3.5571127)"
       inkscape:export-xdpi="400.36053"
       inkscape:export-ydpi="400.36053">
      <path
         inkscape:connector-curvature="0"
         id="path8717-8-6-0"
         d="m 495.40722,228.72235 c -0.22649,-0.16167 -1.80246,1.84637 -3.50333,4.46593 -4.72441,7.27586 -4.61156,9.76511 0.62072,13.4925 1.2812,0.91269 2.54718,1.66224 2.80896,1.66224 0.67134,0 4.8183,-3.46185 5.94405,-4.96041 1.57645,-2.09854 1.16605,-3.79301 -2.25663,-9.25801 -1.75948,-2.80942 -3.38728,-5.24039 -3.61377,-5.40225 z m 14.70757,12.10375 -5.13396,3.46653 c -6.66953,4.49895 -7.91554,5.93766 -8.32695,9.64198 -0.17645,1.58888 -0.14043,3.70697 0.0787,4.70264 0.3203,1.45544 0.62001,1.80952 1.536,1.80952 2.79386,0 8.93743,-3.334 10.85183,-5.89144 0.59196,-0.79075 1.35908,-2.64498 1.7043,-4.11879 0.57791,-2.46353 0.50834,-3.94105 -0.38399,-8.09549 l -0.32612,-1.51495 z m -29.85702,0.45767 c -0.32799,0.22329 -0.7082,2.43172 -0.84691,4.90254 -0.2208,3.93062 -0.0998,4.77738 0.99946,6.78041 1.60311,2.92138 3.9752,4.86533 7.69045,6.31755 1.62085,0.63355 3.50529,1.15516 4.18714,1.15726 1.12389,0.002 1.2732,-0.26234 1.63067,-2.86157 0.44312,-3.22289 -0.32111,-6.47529 -1.9463,-8.27436 -0.57713,-0.63883 -3.31623,-2.79388 -6.08608,-4.79205 -3.48546,-2.51452 -5.21631,-3.51068 -5.62843,-3.22978 z m -0.42608,14.86542 c -0.56362,0 -1.67803,4.18034 -1.67803,6.29646 0,5.89044 3.29119,9.74488 10.58885,12.39835 4.29825,1.56287 5.06581,0.98747 5.12346,-3.85573 0.0558,-4.62201 -0.87236,-5.91599 -7.63784,-10.63622 -3.31416,-2.31209 -6.19147,-4.20286 -6.39644,-4.20286 z m 30.86173,0.40502 c -0.60908,-0.0508 -2.40586,0.9948 -6.34383,3.65584 -5.21731,3.5256 -6.21415,4.4031 -6.97507,6.14921 -0.92131,2.11349 -1.13424,5.31883 -0.52074,7.84824 0.44801,1.84747 1.53249,1.89939 5.70209,0.27355 5.71083,-2.22676 8.46005,-5.23131 9.68407,-10.58882 0.33761,-1.47772 -0.56247,-6.28082 -1.35714,-7.2486 -0.0415,-0.0506 -0.10239,-0.0824 -0.1892,-0.0894 z m -31.96112,14.76018 -0.66805,1.10465 c -0.36965,0.60767 -0.68614,2.86549 -0.69962,5.01298 -0.0245,3.62967 0.1028,4.08954 1.84112,6.53845 1.98989,2.80331 3.91273,4.08649 8.76351,5.85463 5.12184,1.86698 5.63078,1.52839 5.64424,-3.76105 0.008,-4.65471 -0.67697,-5.73467 -5.92829,-9.28954 -2.51068,-1.69961 -5.55292,-3.62532 -6.7594,-4.27658 l -2.19351,-1.18354 z m 32.6923,0.0629 c -0.28175,0 -3.47791,1.97632 -7.10132,4.39226 -6.40518,4.27071 -6.60694,4.45844 -7.28015,6.73308 -0.64115,2.16633 -0.42533,7.20682 0.34717,8.05868 0.48355,0.53323 1.442,0.40773 4.65005,-0.61019 4.08016,-1.29466 7.80372,-3.74585 9.4053,-6.18601 1.12678,-1.7165 1.34123,-2.69068 1.34661,-6.13867 0.006,-4.16881 -0.44465,-6.24915 -1.36766,-6.24915 z m 1.14672,15.43875 c -0.60603,-0.25532 -10.78115,5.51455 -13.08216,7.41693 -2.75679,2.27928 -3.5522,5.82522 -2.07253,9.25797 0.70096,1.62618 8.87968,0.11534 12.41411,-2.29345 2.37122,-1.61597 3.75144,-4.02284 4.22396,-7.36957 0.3254,-2.30325 -0.58992,-6.63548 -1.48338,-7.01188 z m -34.54388,0.0581 c -0.25449,-0.053 -0.43078,-0.0423 -0.5313,0.0269 -0.32359,0.22036 -0.72766,2.14079 -0.89947,4.26604 -0.4168,5.15472 0.62565,7.70858 4.11872,10.08911 1.61983,1.10388 3.48047,1.91322 5.27073,2.28819 1.52199,0.31886 3.70499,0.59148 4.84997,0.60494 2.43809,0.0318 2.76395,-0.44067 2.77741,-3.98724 0.0162,-3.98429 -1.81956,-5.82441 -11.05701,-11.10432 -2.29506,-1.31198 -3.76558,-2.02473 -4.52905,-2.18302 z m 17.1536,20.28868 c -1.19557,0 -2.21983,1.01902 -2.21983,2.21454 l 0,28.72081 c 0,1.19554 1.02426,2.21458 2.21983,2.21458 l 0.27353,0 c 1.19553,0 2.21452,-1.01904 2.21454,-2.21458 l 0,-28.72081 c 0,-1.19552 -1.01901,-2.21454 -2.21454,-2.21454 l -0.27353,0 z"
         style="opacity:1;fill:#696969;fill-opacity:1;stroke:none;stroke-width:0.24905673;stroke-miterlimit:4;stroke-dasharray:none;stroke-opacity:1" />
      <g
         transform="matrix(2.6932346,0,0,2.6932346,-741.68899,-190.23469)"
         id="g6725">
        <path
           style="opacity:1;fill:#696969;fill-opacity:1;stroke:none;stroke-width:0.24905673;stroke-miterlimit:4;stroke-dasharray:none;stroke-opacity:1"
           d="m 443.06417,151.84016 c -0.0841,-0.06 -0.66925,0.68556 -1.30078,1.65821 -1.75418,2.70153 -1.71228,3.62579 0.23047,5.00976 0.47571,0.33889 0.94577,0.61719 1.04297,0.61719 0.24927,0 1.78904,-1.28538 2.20703,-1.8418 0.58533,-0.77919 0.43295,-1.40834 -0.83789,-3.4375 -0.6533,-1.04314 -1.2577,-1.94576 -1.3418,-2.00586 z m 5.46094,4.49414 -1.90625,1.28711 c -2.4764,1.67047 -2.93904,2.20466 -3.0918,3.58008 -0.0655,0.58995 -0.0522,1.3764 0.0293,1.74609 0.11892,0.54041 0.23021,0.67188 0.57031,0.67188 1.03737,0 3.31848,-1.23792 4.0293,-2.1875 0.21979,-0.2936 0.50463,-0.98208 0.63281,-1.5293 0.21458,-0.91472 0.18875,-1.46332 -0.14258,-3.00586 l -0.12109,-0.5625 z m -11.08594,0.16992 c -0.12178,0.0829 -0.26295,0.9029 -0.31445,1.82032 -0.082,1.45945 -0.037,1.77385 0.37109,2.51757 0.59524,1.08471 1.476,1.8065 2.85547,2.34571 0.60183,0.23524 1.30152,0.42891 1.55469,0.42969 0.4173,10e-4 0.47274,-0.0974 0.60547,-1.0625 0.16453,-1.19666 -0.11922,-2.40428 -0.72266,-3.07227 -0.21429,-0.2372 -1.23133,-1.03737 -2.25976,-1.7793 -1.29416,-0.93364 -1.93683,-1.30351 -2.08985,-1.19922 z m -0.1582,5.51954 c -0.20927,0 -0.62305,1.55217 -0.62305,2.33789 0,2.18712 1.22202,3.61828 3.93164,4.60351 1.59595,0.5803 1.88095,0.36665 1.90235,-1.43164 0.0207,-1.71614 -0.32391,-2.19661 -2.83594,-3.94922 -1.23054,-0.85849 -2.2989,-1.56054 -2.375,-1.56054 z m 11.45898,0.15039 c -0.22615,-0.0188 -0.8933,0.36936 -2.35547,1.35742 -1.93719,1.30905 -2.30732,1.63487 -2.58984,2.2832 -0.34209,0.78474 -0.42115,1.97489 -0.19336,2.91406 0.16635,0.68597 0.56902,0.70525 2.11719,0.10157 2.12044,-0.8268 3.14123,-1.94239 3.5957,-3.93164 0.12536,-0.54867 -0.20883,-2.33207 -0.50391,-2.69141 -0.0154,-0.0187 -0.038,-0.0305 -0.0703,-0.0332 z m -11.86719,5.48046 -0.24804,0.41016 c -0.13726,0.22563 -0.25477,1.06396 -0.25977,1.86133 -0.009,1.3477 0.0382,1.51845 0.6836,2.42773 0.73886,1.04087 1.4528,1.51731 3.2539,2.17383 1.90175,0.6932 2.09071,0.56749 2.09571,-1.39648 0.004,-1.7283 -0.25136,-2.12929 -2.20118,-3.44922 -0.93221,-0.63106 -2.0618,-1.34608 -2.50976,-1.58789 l -0.81446,-0.43946 z m 12.13868,0.0234 c -0.10461,0 -1.29135,0.73381 -2.63672,1.63086 -2.37826,1.58572 -2.45317,1.65542 -2.70313,2.5 -0.23806,0.80435 -0.15793,2.67589 0.12891,2.99219 0.17954,0.19799 0.53541,0.15138 1.72656,-0.22656 1.51497,-0.48071 2.89753,-1.39084 3.49219,-2.29688 0.41838,-0.63733 0.498,-0.99905 0.5,-2.27929 0.003,-1.54788 -0.1651,-2.32032 -0.50781,-2.32032 z m 0.42578,5.73242 c -0.22502,-0.0948 -4.00306,2.04756 -4.85742,2.75391 -1.02359,0.8463 -1.31893,2.16291 -0.76954,3.4375 0.26028,0.6038 3.29704,0.0428 4.60938,-0.85156 0.88043,-0.60001 1.39291,-1.49368 1.56836,-2.73633 0.12082,-0.8552 -0.21904,-2.46375 -0.55078,-2.60352 z m -12.82617,0.0215 c -0.0945,-0.0196 -0.15995,-0.0157 -0.19727,0.01 -0.12015,0.0818 -0.27018,0.79488 -0.33398,1.58399 -0.15475,1.91395 0.23231,2.86219 1.52929,3.74609 0.60144,0.40987 1.2923,0.71038 1.95703,0.84961 0.56512,0.11839 1.37566,0.21961 1.80079,0.22461 0.90526,0.0118 1.02625,-0.16362 1.03125,-1.48047 0.005,-1.47936 -0.6756,-2.1626 -4.10547,-4.12304 -0.85216,-0.48713 -1.39816,-0.75178 -1.68164,-0.81055 z m 6.36914,7.5332 c -0.44391,0 -0.82422,0.37837 -0.82422,0.82227 l 0,10.66406 c 0,0.4439 0.38031,0.82227 0.82422,0.82227 l 0.10156,0 c 0.4439,0 0.82226,-0.37837 0.82227,-0.82227 l 0,-10.66406 c 0,-0.4439 -0.37837,-0.82227 -0.82227,-0.82227 l -0.10156,0 z"
           id="path8717-8-6"
           inkscape:connector-curvature="0" />
        <path
           style="opacity:1;fill:#696969;fill-opacity:1;stroke:none;stroke-width:0.24905673;stroke-miterlimit:4;stroke-dasharray:none;stroke-opacity:1"
           d="m 475.6053,151.84016 c -0.0841,-0.06 -0.66925,0.68556 -1.30078,1.65821 -1.75418,2.70153 -1.71228,3.62579 0.23047,5.00976 0.47571,0.33889 0.94577,0.61719 1.04297,0.61719 0.24927,0 1.78904,-1.28538 2.20703,-1.8418 0.58533,-0.77919 0.43295,-1.40834 -0.83789,-3.4375 -0.6533,-1.04314 -1.2577,-1.94576 -1.3418,-2.00586 z m 5.46094,4.49414 -1.90625,1.28711 c -2.4764,1.67047 -2.93904,2.20466 -3.0918,3.58008 -0.0655,0.58995 -0.0522,1.3764 0.0293,1.74609 0.11892,0.54041 0.23021,0.67188 0.57031,0.67188 1.03737,0 3.31848,-1.23792 4.0293,-2.1875 0.21979,-0.2936 0.50463,-0.98208 0.63281,-1.5293 0.21458,-0.91472 0.18875,-1.46332 -0.14258,-3.00586 l -0.12109,-0.5625 z m -11.08594,0.16992 c -0.12178,0.0829 -0.26295,0.9029 -0.31445,1.82032 -0.082,1.45945 -0.037,1.77385 0.37109,2.51757 0.59524,1.08471 1.476,1.8065 2.85547,2.34571 0.60183,0.23524 1.30152,0.42891 1.55469,0.42969 0.4173,10e-4 0.47274,-0.0974 0.60547,-1.0625 0.16453,-1.19666 -0.11922,-2.40428 -0.72266,-3.07227 -0.21429,-0.2372 -1.23133,-1.03737 -2.25976,-1.7793 -1.29416,-0.93364 -1.93683,-1.30351 -2.08985,-1.19922 z m -0.1582,5.51954 c -0.20927,0 -0.62305,1.55217 -0.62305,2.33789 0,2.18712 1.22202,3.61828 3.93164,4.60351 1.59595,0.5803 1.88095,0.36665 1.90235,-1.43164 0.0207,-1.71614 -0.32391,-2.19661 -2.83594,-3.94922 -1.23054,-0.85849 -2.2989,-1.56054 -2.375,-1.56054 z m 11.45898,0.15039 c -0.22615,-0.0188 -0.8933,0.36936 -2.35547,1.35742 -1.93719,1.30905 -2.30732,1.63487 -2.58984,2.2832 -0.34209,0.78474 -0.42115,1.97489 -0.19336,2.91406 0.16635,0.68597 0.56902,0.70525 2.11719,0.10157 2.12044,-0.8268 3.14123,-1.94239 3.5957,-3.93164 0.12536,-0.54867 -0.20883,-2.33207 -0.50391,-2.69141 -0.0154,-0.0187 -0.038,-0.0305 -0.0703,-0.0332 z m -11.86719,5.48046 -0.24804,0.41016 c -0.13726,0.22563 -0.25477,1.06396 -0.25977,1.86133 -0.009,1.3477 0.0382,1.51845 0.6836,2.42773 0.73886,1.04087 1.4528,1.51731 3.2539,2.17383 1.90175,0.6932 2.09071,0.56749 2.09571,-1.39648 0.004,-1.7283 -0.25136,-2.12929 -2.20118,-3.44922 -0.93221,-0.63106 -2.0618,-1.34608 -2.50976,-1.58789 l -0.81446,-0.43946 z m 12.13868,0.0234 c -0.10461,0 -1.29135,0.73381 -2.63672,1.63086 -2.37826,1.58572 -2.45317,1.65542 -2.70313,2.5 -0.23806,0.80435 -0.15793,2.67589 0.12891,2.99219 0.17954,0.19799 0.53541,0.15138 1.72656,-0.22656 1.51497,-0.48071 2.89753,-1.39084 3.49219,-2.29688 0.41838,-0.63733 0.498,-0.99905 0.5,-2.27929 0.003,-1.54788 -0.1651,-2.32032 -0.50781,-2.32032 z m 0.42578,5.73242 c -0.22502,-0.0948 -4.00306,2.04756 -4.85742,2.75391 -1.02359,0.8463 -1.31893,2.16291 -0.76954,3.4375 0.26028,0.6038 3.29704,0.0428 4.60938,-0.85156 0.88043,-0.60001 1.39291,-1.49368 1.56836,-2.73633 0.12082,-0.8552 -0.21904,-2.46375 -0.55078,-2.60352 z m -12.82617,0.0215 c -0.0945,-0.0196 -0.15995,-0.0157 -0.19727,0.01 -0.12015,0.0818 -0.27018,0.79488 -0.33398,1.58399 -0.15475,1.91395 0.23231,2.86219 1.52929,3.74609 0.60144,0.40987 1.2923,0.71038 1.95703,0.84961 0.56512,0.11839 1.37566,0.21961 1.80079,0.22461 0.90526,0.0118 1.02625,-0.16362 1.03125,-1.48047 0.005,-1.47936 -0.6756,-2.1626 -4.10547,-4.12304 -0.85216,-0.48713 -1.39816,-0.75178 -1.68164,-0.81055 z m 6.36914,7.5332 c -0.44391,0 -0.82422,0.37837 -0.82422,0.82227 l 0,10.66406 c 0,0.4439 0.38031,0.82227 0.82422,0.82227 l 0.10156,0 c 0.4439,0 0.82226,-0.37837 0.82227,-0.82227 l 0,-10.66406 c 0,-0.4439 -0.37837,-0.82227 -0.82227,-0.82227 l -0.10156,0 z"
           id="path8717-8-6-9"
           inkscape:connector-curvature="0" />
      </g>
    </g>
    <path
       style="display:inline;fill:#636363;fill-opacity:1;stroke:none;stroke-width:1;stroke-linecap:round;stroke-linejoin:round;stroke-miterlimit:10"
       d="m 271.61273,298.22905 c -2.3088,-6.91351 -3.3096,-14.20512 -4.1867,-21.40882 -0.3694,-5.24819 2.5525,-10.32408 1.6678,-15.47511 -1.6875,-5.64532 -1.0719,-12.00045 1.1506,-17.42492 3.669,-9.41188 13.2736,-14.4704 22.3101,-17.59135 11.9835,-3.73711 25.0172,-3.43997 36.9652,0.31235 2.5813,0.55493 10.438,2.88623 3.3288,3.09955 -5.5963,1.6625 -9.9707,5.80192 -13.4281,10.35526 -2.8725,3.80822 -5.3378,8.01822 -7.9061,12.10159 -2.0881,3.52379 -4.6402,7.0245 -7.2958,10.30787 -4.7333,4.99672 -10.8857,9.73733 -18.171,9.16272 -4.1872,-0.71965 -8.6225,-4.91573 -11.7676,-4.86545 1.0719,-4.64815 3.9728,-8.82979 7.0176,-12.36865 6.1395,-6.97191 13.359,-12.96811 22.1029,-16.42602 2.6518,-0.62719 9.8891,-3.40993 3.3744,-1.83648 -5.0259,1.16304 -9.7567,2.79781 -14.3023,5.18399 -9.1066,4.86262 -16.21,13.32532 -20.034,22.85053 -2.3247,6.96438 -1.627,14.62476 1.0522,21.4013 0.7677,4.20016 4.9059,9.50784 4.7908,12.59237 -2.2229,-0.0581 -4.4454,0.0868 -6.6688,0.0576 z m -5.3651,-31.94157 c -2.6571,-5.00478 -8.5241,-5.17127 -13.4631,-4.37471 -4.8292,0.79133 -9.1546,-1.8122 -12.2503,-5.2551 -8.266,-7.78061 -10.1161,-19.60301 -14.4309,-29.70393 -2.8951,-6.44471 -7.7224,-13.22763 -14.6545,-15.13983 13.0122,-4.95047 28.1666,-3.31632 40.3098,3.329 8.4983,4.40479 14.3014,12.62183 17.1442,21.56956 0.9534,4.42269 -2.9167,10.94374 -2.4901,14.16118 -0.1488,1.36421 0.3406,6.55919 -0.6046,2.78624 -2.7507,-8.12459 -7.1048,-15.74855 -12.3903,-22.57019 -4.3292,-4.98453 -9.6857,-9.40723 -16.1697,-11.19458 7.5971,5.47763 15.4874,11.29462 19.9486,19.766 3.2396,5.43488 5.5316,11.61196 7.9431,17.26419 1.7215,2.83014 3.0328,7.89332 1.6078,10.1252 -0.168,-0.2543 -0.3311,-0.50869 -0.4995,-0.76303 z"
       id="path20050-6"
       inkscape:connector-curvature="0"
       sodipodi:nodetypes="cccccccccccccccccccccccccccccccccccc"
       inkscape:export-filename="C:\Users\lamw\Google Drive\Work\Figures\APSIS figures\Resources\Small icons\plant1.png"
       inkscape:export-xdpi="399.98395"
       inkscape:export-ydpi="399.98395" />
    <g
       id="g15857-3-85-8-6-7"
       transform="matrix(2.758522,0,0,2.7537482,25.336038,-795.11107)"
       inkscape:export-xdpi="400.38071"
       inkscape:export-ydpi="400.38071">
      <path
         inkscape:connector-curvature="0"
         id="rect15309-82-6-5-3-4"
         d="m 75.462082,307.81584 c -0.533392,0 -0.962891,0.42262 -0.962891,0.94727 l 0,29.10547 c 0,0.52464 0.429499,0.94726 0.962891,0.94726 l 29.074218,0 c 0.53339,0 0.96289,-0.42262 0.96289,-0.94726 l 0,-29.10547 c 0,-0.52465 -0.4295,-0.94727 -0.96289,-0.94727 l -29.074218,0 z m 14.537109,2.30469 A 13.195118,13.195118 0 0 1 103.1945,323.31584 13.195118,13.195118 0 0 1 89.999191,336.51115 13.195118,13.195118 0 0 1 76.803879,323.31584 13.195118,13.195118 0 0 1 89.999191,310.12053 Z"
         style="color:#000000;clip-rule:nonzero;display:inline;overflow:visible;visibility:visible;opacity:1;isolation:auto;mix-blend-mode:normal;color-interpolation:sRGB;color-interpolation-filters:linearRGB;solid-color:#000000;solid-opacity:1;fill:#686868;fill-opacity:1;fill-rule:nonzero;stroke:#686868;stroke-width:1.57002807;stroke-linecap:round;stroke-linejoin:round;stroke-miterlimit:4;stroke-dasharray:none;stroke-dashoffset:0;stroke-opacity:1;color-rendering:auto;image-rendering:auto;shape-rendering:auto;text-rendering:auto;enable-background:accumulate" />
      <path
         id="path12853-8-9-4-4-7-2-7-6"
         d="m 89.974067,311.31452 c -0.745925,0 -1.706155,4.03813 -1.691406,6.1543 0.0069,0.98953 0.263181,2.40679 0.58789,3.61132 a 2.6918628,2.6918628 0 0 1 0.002,0 2.6918628,2.6918628 0 0 1 0.248047,-0.10351 2.6918628,2.6918628 0 0 1 0.257813,-0.0762 2.6918628,2.6918628 0 0 1 0.263672,-0.0508 2.6918628,2.6918628 0 0 1 0.09766,-0.0117 2.6918628,2.6918628 0 0 1 0.267578,-0.0156 2.6918628,2.6918628 0 0 1 0.269531,0.0137 2.6918628,2.6918628 0 0 1 0.265625,0.0391 2.6918628,2.6918628 0 0 1 0.261719,0.0644 2.6918628,2.6918628 0 0 1 0.251953,0.0918 2.6918628,2.6918628 0 0 1 0.140625,0.0664 c 0.322181,-1.21687 0.560241,-2.65506 0.560547,-3.6582 0.0011,-2.11348 -1.037865,-6.125 -1.783203,-6.125 z"
         style="color:#000000;clip-rule:nonzero;display:inline;overflow:visible;visibility:visible;isolation:auto;mix-blend-mode:normal;color-interpolation:sRGB;color-interpolation-filters:linearRGB;solid-color:#000000;solid-opacity:1;fill:#686868;fill-opacity:1;fill-rule:nonzero;stroke:none;stroke-width:1;stroke-linecap:butt;stroke-linejoin:miter;stroke-miterlimit:4;stroke-dasharray:none;stroke-dashoffset:0;stroke-opacity:1;color-rendering:auto;image-rendering:auto;shape-rendering:auto;text-rendering:auto;enable-background:accumulate"
         inkscape:connector-curvature="0" />
      <path
         id="path15421-30-7-9-1-62-4-6"
         d="m 87.392571,323.91266 c -1.175775,0.4186 -2.488603,1.01368 -3.306659,1.57153 -1.748383,1.19231 -4.522124,4.28015 -4.097577,4.89347 0.424211,0.61284 4.313938,-0.81607 6.051078,-2.01987 0.824211,-0.5709 1.87024,-1.58483 2.687241,-2.54188 a 2.6918628,2.6918628 0 0 1 -0.188326,-0.11434 2.6918628,2.6918628 0 0 1 -0.216253,-0.16148 2.6918628,2.6918628 0 0 1 -0.197142,-0.18184 2.6918628,2.6918628 0 0 1 -0.178028,-0.2022 2.6918628,2.6918628 0 0 1 -0.06052,-0.0769 2.6918628,2.6918628 0 0 1 -0.149005,-0.2223 2.6918628,2.6918628 0 0 1 -0.12664,-0.23777 2.6918628,2.6918628 0 0 1 -0.103532,-0.249 2.6918628,2.6918628 0 0 1 -0.07655,-0.25819 2.6918628,2.6918628 0 0 1 -0.03818,-0.19923 z"
         style="color:#000000;clip-rule:nonzero;display:inline;overflow:visible;visibility:visible;isolation:auto;mix-blend-mode:normal;color-interpolation:sRGB;color-interpolation-filters:linearRGB;solid-color:#000000;solid-opacity:1;fill:#686868;fill-opacity:1;fill-rule:nonzero;stroke:none;stroke-width:1;stroke-linecap:butt;stroke-linejoin:miter;stroke-miterlimit:4;stroke-dasharray:none;stroke-dashoffset:0;stroke-opacity:1;color-rendering:auto;image-rendering:auto;shape-rendering:auto;text-rendering:auto;enable-background:accumulate"
         inkscape:connector-curvature="0" />
      <path
         id="path13272-5-2-4-4-8-6-0-9"
         d="m 92.008646,323.51472 a 1.9887378,1.9887378 0 0 1 -1.919506,1.98753 1.9887378,1.9887378 0 0 1 -2.05315,-1.84915 1.9887378,1.9887378 0 0 1 1.776556,-2.11628 1.9887378,1.9887378 0 0 1 2.176842,1.70181"
         style="color:#000000;clip-rule:nonzero;display:inline;overflow:visible;visibility:visible;opacity:1;isolation:auto;mix-blend-mode:normal;color-interpolation:sRGB;color-interpolation-filters:linearRGB;solid-color:#000000;solid-opacity:1;fill:#686868;fill-opacity:1;fill-rule:nonzero;stroke:none;stroke-width:1;stroke-linecap:butt;stroke-linejoin:miter;stroke-miterlimit:4;stroke-dasharray:none;stroke-dashoffset:0;stroke-opacity:1;color-rendering:auto;image-rendering:auto;shape-rendering:auto;text-rendering:auto;enable-background:accumulate"
         inkscape:connector-curvature="0" />
      <path
         id="path15421-30-7-8-0-7-9-5-5"
         d="m 91.424218,325.77797 c 0.859921,0.90455 1.936769,1.8627 2.778701,2.38381 1.799472,1.1137 5.74753,2.39486 6.135651,1.75786 0.38782,-0.63649 -2.497277,-3.61104 -4.302685,-4.70981 -0.856368,-0.52144 -2.207663,-1.06571 -3.413984,-1.42376 a 2.6918628,2.6918628 0 0 1 -0.02804,0.21851 2.6918628,2.6918628 0 0 1 -0.05978,0.2632 2.6918628,2.6918628 0 0 1 -0.08613,0.25398 2.6918628,2.6918628 0 0 1 -0.112506,0.2448 2.6918628,2.6918628 0 0 1 -0.04568,0.0865 2.6918628,2.6918628 0 0 1 -0.142649,0.22643 2.6918628,2.6918628 0 0 1 -0.165876,0.21226 2.6918628,2.6918628 0 0 1 -0.185522,0.19572 2.6918628,2.6918628 0 0 1 -0.204869,0.17479 2.6918628,2.6918628 0 0 1 -0.16657,0.11577 z"
         style="color:#000000;clip-rule:nonzero;display:inline;overflow:visible;visibility:visible;isolation:auto;mix-blend-mode:normal;color-interpolation:sRGB;color-interpolation-filters:linearRGB;solid-color:#000000;solid-opacity:1;fill:#686868;fill-opacity:1;fill-rule:nonzero;stroke:none;stroke-width:1;stroke-linecap:butt;stroke-linejoin:miter;stroke-miterlimit:4;stroke-dasharray:none;stroke-dashoffset:0;stroke-opacity:1;color-rendering:auto;image-rendering:auto;shape-rendering:auto;text-rendering:auto;enable-background:accumulate"
         inkscape:connector-curvature="0" />
    </g>
    <path
       style="fill:#686868;fill-opacity:1"
       d="m 479.94139,124.25159 0,-14.01547 6.65524,0 6.65502,0 0,14.01547 0,14.01546 -6.65502,0 -6.65524,0 z M 421.70892,102.4612 c 0,-2.19569 1.9414,-5.098988 9.37178,-14.015461 l 9.37186,-11.246118 13.6997,0 13.69963,0 -9.34526,11.27811 c -7.34218,8.860906 -9.34534,11.864759 -9.34534,14.015459 l 0,2.73737 -13.72615,0 -13.72622,0 z m 34.9396,-0.50145 c 0,-2.825567 1.21849,-4.732758 8.95634,-14.015459 l 8.95641,-10.744853 14.11514,0 14.11486,0 -9.34505,11.278132 c -7.34247,8.860877 -9.34534,11.86476 -9.34534,14.01546 l 0,2.73733 -13.72614,0 -13.72622,0 z m 34.66217,2.60323 c -1.81423,-2.18306 0.0593,-5.609216 8.817,-16.117402 l 9.37186,-11.24614 13.9213,0 13.92102,0 0,2.769346 c 0,2.195753 -1.94111,5.099051 -9.37179,14.015523 l -9.37156,11.246053 -13.36675,0 c -7.35163,0 -13.61604,-0.29993 -13.92108,-0.66738 z m 50.88823,-30.474576 -0.28182,-2.395036 -13.68827,-0.27591 -13.68857,-0.275903 7.84883,-9.484696 7.84883,-9.484805 13.95061,0 13.95053,0 0,2.772847 c 0,2.168677 -1.70595,4.817287 -7.82963,12.155854 -7.03955,8.436488 -7.85777,9.141388 -8.11087,6.988 z m -88.87813,-12.40608 7.87022,-9.510483 13.72622,0 13.72614,0 -7.87022,9.510483 -7.86992,9.510467 -13.72622,0 -13.72622,0 z m 34.10761,0 7.87022,-9.510483 14.14217,0 14.14218,0 -7.87022,9.510483 -7.86993,9.510467 -14.14247,0 -14.14188,0 z"
       id="path11750-3"
       inkscape:connector-curvature="0"
       sodipodi:nodetypes="cccccccccsscccsscccssscccsscccssscccsscssscccccccssscccccccccccccccccc"
       inkscape:export-filename="C:\Users\lamw\Google Drive\Work\Figures\APSIS figures\Resources\Small icons\solar pv.png"
       inkscape:export-xdpi="600"
       inkscape:export-ydpi="600" />
    <g
       id="g8925"
       transform="translate(-9.204935,-25.188493)"
       inkscape:export-xdpi="399.98395"
       inkscape:export-ydpi="399.98395">
      <path
         inkscape:export-ydpi="600"
         inkscape:export-xdpi="600"
         inkscape:export-filename="C:\Users\lamw\Google Drive\Work\Figures\APSIS figures\Resources\Small icons\beccs.png"
         inkscape:connector-curvature="0"
         id="path6968-5"
         d="m 218.03518,392.31834 a 6.1537585,3.5110387 0 0 1 3.57059,0.65585 6.9781853,4.5643503 0 0 1 3.43697,-0.59916 6.9781853,4.5643503 0 0 1 6.86187,3.74466 12.291403,7.5487333 0 0 1 1.59501,0.93921 2.8789268,1.1123126 0 0 1 2.14559,-0.37246 2.8789268,1.1123126 0 0 1 1.61929,0.19423 5.3652726,5.8887134 0 0 1 2.96337,-0.97967 5.3652726,5.8887134 0 0 1 3.58273,1.51404 7.1973171,7.2627469 0 0 1 3.61513,-0.99184 7.1973171,7.2627469 0 0 1 6.30317,3.76087 4.6455408,4.1875299 0 0 1 1.87435,-0.35627 4.6455408,4.1875299 0 0 1 4.64744,4.18593 4.6455408,4.1875299 0 0 1 -0.12149,0.93112 4.5801108,1.8320443 0 0 1 2.8662,-0.40888 4.5801108,1.8320443 0 0 1 4.00373,0.94326 3.4677982,3.3369378 0 0 1 2.86619,-1.4655 3.4677982,3.3369378 0 0 1 3.4694,3.33578 3.4677982,3.3369378 0 0 1 -0.39675,1.54647 3.1406476,2.093765 0 0 1 2.3642,-1.06874 3.5332281,2.159195 0 0 1 0.0171,-0.15795 2.159195,2.093765 0 0 1 -1.98365,-2.08488 2.159195,2.093765 0 0 1 2.15774,-2.09293 2.159195,2.093765 0 0 1 2.16175,2.09293 2.159195,2.093765 0 0 1 -0.0207,0.25908 3.5332281,2.159195 0 0 1 1.1983,-0.12953 3.5332281,2.159195 0 0 1 3.43294,1.66388 1.6655797,0.97158817 0 0 1 1.16187,-0.27935 1.6655797,0.97158817 0 0 1 1.66383,0.97158 1.6655797,0.97158817 0 0 1 -0.23076,0.48985 2.944357,1.6357538 0 0 1 1.9513,1.53836 2.944357,1.6357538 0 0 1 -2.9431,1.63548 2.944357,1.6357538 0 0 1 -2.94313,-1.63548 2.944357,1.6357538 0 0 1 0.18222,-0.57081 3.5332281,2.159195 0 0 1 -2.27513,0.50603 3.5332281,2.159195 0 0 1 -0.0142,0 3.1406476,2.093765 0 0 1 -3.13337,1.96342 3.1406476,2.093765 0 0 1 -3.14147,-2.09298 3.1406476,2.093765 0 0 1 0.15386,-0.63557 3.4677982,3.3369378 0 0 1 -1.89055,1.29139 4.7109706,2.8134963 0 0 1 -4.40855,1.82985 4.7109706,2.8134963 0 0 1 -4.42884,-1.86221 4.6455408,3.6640886 0 0 1 -4.40453,2.518 4.6455408,3.6640886 0 0 1 -4.64744,-3.66774 4.6455408,3.6640886 0 0 1 0.51008,-1.66384 4.6455408,4.1875299 0 0 1 -0.0207,-0.005 7.1973171,7.2627469 0 0 1 -5.98743,3.24268 7.1973171,7.2627469 0 0 1 -2.22252,-0.36435 3.9912393,3.7949488 0 0 1 -3.7325,2.46136 3.9912393,3.7949488 0 0 1 -2.48968,-0.83392 6.5365275,6.2028349 0 0 1 -5.42877,2.75282 6.5365275,6.2028349 0 0 1 -4.26286,-1.51001 6.0359827,5.7346964 0 0 1 -4.0685,1.51001 6.0359827,5.7346964 0 0 1 -2.80952,-0.66392 7.5081736,4.2717637 0 0 1 -6.08456,1.77316 7.5081736,4.2717637 0 0 1 -4.75267,-0.96756 4.8287865,4.5936091 0 0 1 -1.93104,0.38054 4.8287865,4.5936091 0 0 1 -4.82559,-4.59075 4.8287865,4.5936091 0 0 1 0.76108,-2.4735 6.6221126,4.066953 0 0 1 -5.70807,-4.01996 6.6221126,4.066953 0 0 1 5.4814,-4.00778 6.3304208,6.2906109 0 0 1 -0.005,-0.14965 6.3304208,6.2906109 0 0 1 6.33151,-6.29104 6.3304208,6.2906109 0 0 1 1.06468,0.0891 6.1537585,3.5110387 0 0 1 5.29518,-1.72457 l 0.003,0 z m 17.52096,6.59062 a 2.8789268,1.1123126 0 0 1 -0.11339,0 12.291403,7.5487333 0 0 1 0.0687,0.0891 5.3652726,5.8887134 0 0 1 0.0445,-0.0891 z m 26.37864,9.24223 a 4.6455408,3.6640886 0 0 1 0.12967,0.33197 4.7109706,2.8134963 0 0 1 0.25098,-0.30361 4.5801108,1.8320443 0 0 1 -0.38051,-0.0284 z m 20.18069,0.51817 a 3.5332281,2.159195 0 0 1 -0.12574,0.16994 2.944357,1.6357538 0 0 1 0.2348,-0.0974 1.6655797,0.97158817 0 0 1 -0.10927,-0.0731 z m -43.08185,13.31481 2.27515,46.88315 -13.93824,0 2.06463,-46.88315 9.59846,0 z m -24.27351,0 2.27514,46.88315 -13.94227,0 2.06863,-46.88315 9.5985,0 z m 116.86182,12.75614 c 6.68441,-0.058 13.40413,3.02718 13.80062,9.43251 l -0.1822,74.46411 -19.73136,0 0.31172,-43.53928 c -0.87738,-4.81694 -3.80984,-9.23888 -7.79292,-11.68739 l 0,-11.1247 -17.79628,0 0,9.76043 c 9.98109,0.60937 19.42755,5.37194 21.13609,14.75193 l -0.3117,41.83901 -46.58768,0 0,-12.40394 -10.50124,0 0,12.92214 -68.85727,0 0,-46.9601 56.85411,0 0,-19.90947 0,-1.846 0,-0.55865 66.06397,0 0,-5.70809 c 0.26006,-6.17332 6.90972,-9.37451 13.59412,-9.43251 z m -33.79507,17.54525 -43.45833,0 0,19.90947 9.59847,0 0,30.52404 10.50125,0 0,-25.92115 c 1.17909,-9.50861 11.97111,-14.64 22.93355,-14.82884 0.14157,-0.001 0.28338,0.003 0.42506,0.003 l 0,-9.68757 z m -49.5672,25.80379 -12.20153,0 0,7.48929 12.20153,0 0,-7.48929 z m -16.71939,0 -12.1975,0 0,7.48929 12.1975,0 0,-7.48929 z m -16.7154,0 -12.20153,0 0,7.48929 12.20153,0 0,-7.48929 z m 33.43479,11.33516 -12.20153,0 0,7.48528 12.20153,0 0,-7.48528 z m -16.71939,0 -12.1975,0 0,7.48528 12.1975,0 0,-7.48528 z m -16.7154,0 -12.20153,0 0,7.48528 12.20153,0 0,-7.48528 z"
         style="fill:#696969;fill-opacity:1;fill-rule:evenodd;stroke:none;stroke-width:0.5;stroke-linecap:butt;stroke-linejoin:miter;stroke-miterlimit:7.33333349;stroke-dasharray:none;stroke-opacity:1" />
      <path
         sodipodi:nodetypes="ccc"
         inkscape:connector-curvature="0"
         inkscape:original-d="m 344.00553,499.96939 24.4962,0 0,42.86915"
         inkscape:path-effect="#path-effect5943"
         id="path5941"
         d="m 344.00553,499.96939 24.4962,0 0,42.86915"
         style="fill:none;fill-rule:evenodd;stroke:#696969;stroke-width:4;stroke-linecap:butt;stroke-linejoin:round;stroke-miterlimit:4;stroke-dasharray:none;stroke-opacity:1" />
      <path
         sodipodi:nodetypes="ccc"
         inkscape:connector-curvature="0"
         inkscape:original-d="m 334.40771,508.24541 24.4962,0 0,34.59313"
         inkscape:path-effect="#path-effect5943-4"
         id="path5941-9"
         d="m 334.40771,508.24541 24.4962,0 0,34.59313"
         style="fill:none;fill-rule:evenodd;stroke:#696969;stroke-width:4;stroke-linecap:butt;stroke-linejoin:round;stroke-miterlimit:4;stroke-dasharray:none;stroke-opacity:1" />
    </g>
    <path
       style="fill:#696969;fill-opacity:1"
       d="m 452.88748,509.46323 c -2.24406,-0.47836 -4.48573,-1.99666 -5.78178,-3.91606 -1.10576,-1.63758 -1.62016,-3.34382 -1.62144,-5.37819 -0.001,-1.87408 0.327,-3.05108 1.44674,-5.18863 0.48544,-0.92667 0.94694,-1.78817 1.02555,-1.91444 0.0786,-0.12627 0.76197,-1.39184 1.51857,-2.81238 0.75659,-1.42055 1.75071,-3.28016 2.20915,-4.13249 1.1225,-2.08693 2.15419,-4.01471 4.27176,-7.98205 0.97845,-1.83316 1.96123,-3.66695 2.18396,-4.07509 0.46072,-0.84425 4.14447,-7.70518 5.48318,-10.21233 0.48882,-0.91546 1.23607,-2.31018 1.66057,-3.09936 0.42449,-0.78919 1.08376,-2.02894 1.46506,-2.75499 0.38128,-0.72605 0.93642,-1.75917 1.23362,-2.29582 0.29722,-0.53665 1.02133,-1.8797 1.60915,-2.98457 0.58782,-1.10487 1.58336,-2.96448 2.21231,-4.13248 2.19867,-4.08306 2.48333,-4.65877 2.83375,-5.73108 0.19412,-0.59404 0.49308,-1.78169 0.66435,-2.63921 l 0.3114,-1.55915 c 0.0131,-8.34204 0.0386,-16.68403 0.0673,-25.02603 l 14.22613,0 14.22612,0 c 0,8.89373 0.32107,17.43474 0.32107,26.17395 0.47904,2.55765 0.93174,3.90162 1.91397,5.68216 0.40052,0.72605 1.18115,2.17242 1.73472,3.21415 0.55357,1.04173 1.14823,2.15234 1.32146,2.46801 0.33928,0.61827 1.77024,3.29377 2.60926,4.87862 0.28411,0.53665 0.65995,1.234 0.83522,1.54968 0.17525,0.31568 0.71842,1.32297 1.20703,2.23843 0.48861,0.91546 1.28806,2.41348 1.77656,3.32894 0.4885,0.91546 1.6363,3.05919 2.55068,4.76383 0.91438,1.70465 2.05043,3.82255 2.52456,4.70644 0.47413,0.88389 1.01548,1.89118 1.203,2.23843 0.18752,0.34724 0.66697,1.25122 1.06546,2.00884 0.39848,0.75762 0.99552,1.86823 1.32674,2.46801 0.5691,1.03051 3.03793,5.63313 4.98745,9.29808 0.48697,0.91546 1.26189,2.36183 1.72204,3.21415 2.94163,5.44866 3.15065,6.01202 3.13039,8.43715 -0.013,1.55573 -0.28662,2.69085 -0.99619,4.13265 -1.21496,2.46868 -3.57453,4.34196 -6.28871,4.99265 -0.94201,0.22583 -1.38736,0.22847 -37.17004,0.22001 -31.65009,-0.007 -36.31791,-0.0302 -37.02013,-0.17983 z m 72.75256,-7.42947 c 0.44671,-0.19114 0.94208,-0.70108 1.10823,-1.14083 0.33413,-0.88436 0.0901,-1.47013 -2.80681,-6.73651 -0.32993,-0.59978 -1.07837,-1.99449 -1.66322,-3.09936 -0.58484,-1.10486 -1.41207,-2.65454 -1.83828,-3.44373 -0.42621,-0.78919 -1.74379,-3.24285 -2.92795,-5.45258 -1.18417,-2.20973 -2.29365,-4.27597 -2.46551,-4.59164 -0.17187,-0.31568 -0.75374,-1.40045 -1.29305,-2.41061 -1.38377,-2.59188 -3.28997,-6.15413 -5.19049,-9.69986 -0.89678,-1.67308 -2.26441,-4.23005 -3.03919,-5.68215 -0.77477,-1.45211 -1.49949,-2.79517 -1.61049,-2.98458 -0.111,-0.1894 -0.4994,-0.91259 -0.86313,-1.60707 -0.36373,-0.69449 -0.80461,-1.52098 -0.97974,-1.83666 -0.39515,-0.71225 -1.87023,-3.48078 -2.75226,-5.1656 -1.14078,-2.17906 -1.76025,-4.19821 -2.37583,-7.7439 -0.34663,-8.13749 -0.22767,-10.24785 -0.31942,-19.29098 l -6.68659,-0.0296 -6.68658,-0.0296 c -0.2592,7.18147 0.5702,15.51749 -0.81151,21.69895 -0.59437,2.60532 -1.12123,3.95117 -2.69917,6.89487 -0.65776,1.22706 -1.74399,3.25122 -2.41387,4.49814 -0.66987,1.24692 -1.83772,3.42939 -2.59522,4.84993 -0.75751,1.42054 -1.72846,3.2285 -2.15767,4.01769 -0.42921,0.78919 -1.3725,2.54549 -2.09619,3.90289 -1.18877,2.22974 -3.21075,6.00297 -5.567,10.3886 -0.47489,0.88389 -1.09568,2.04616 -1.37954,2.5828 -0.28386,0.53665 -0.68951,1.27552 -0.90144,1.64192 -0.21193,0.36642 -0.38533,0.6849 -0.38533,0.70775 0,0.0229 -0.36909,0.73035 -0.82022,1.57222 -0.45111,0.84188 -1.21829,2.2797 -1.70483,3.19516 -0.48654,0.91546 -1.42681,2.67177 -2.08948,3.9029 -2.08695,3.87716 -3.90094,7.2623 -4.2993,8.023 -0.42415,0.80997 -0.47596,1.29254 -0.20768,1.93462 0.23784,0.56923 0.48259,0.82522 1.02874,1.07602 0.44237,0.20313 1.75162,0.21094 35.78982,0.21337 29.74914,0.002 35.38901,-0.0225 35.70004,-0.15553 z m -64.84274,-5.15104 c 0.15031,-0.33147 1.31743,-2.72056 2.59358,-5.3091 1.27616,-2.58854 2.74848,-5.58458 3.27182,-6.65788 5.62213,-11.53008 5.55038,-11.40494 7.24303,-12.63168 2.37108,-1.71842 5.69838,-1.98475 9.85957,-0.78921 2.03798,0.58553 5.26006,2.00988 7.11512,3.14529 1.93644,1.18524 4.20179,2.06518 6.37383,2.47583 1.29929,0.24564 4.35888,0.28168 5.50997,0.0649 2.034,-0.38306 3.62065,-0.89609 5.05492,-1.63444 0.90526,-0.46601 1.02901,-0.50787 1.02901,-0.34801 0,0.0535 1.03849,2.21016 2.30775,4.79253 1.26926,2.58238 2.60685,5.3151 2.97242,6.07272 0.36557,0.75762 1.77787,3.63744 3.13843,6.3996 l 2.47376,5.02212 -29.60826,0 -29.60827,0 z"
       id="path6467"
       inkscape:connector-curvature="0"
       sodipodi:nodetypes="cssscsssssssssssscccccsscscssssssssscssscccssssscssscssscccccsssssssssssssscscccsssssssssssscccc"
       inkscape:export-xdpi="399.98395"
       inkscape:export-ydpi="399.98395" />
    <text
       xml:space="preserve"
       style="font-style:normal;font-variant:normal;font-weight:normal;font-stretch:normal;font-size:10px;line-height:100%;font-family:sans-serif;-inkscape-font-specification:'sans-serif, Normal';text-align:start;letter-spacing:0px;word-spacing:0px;writing-mode:lr-tb;text-anchor:start;fill:#696969;fill-opacity:1;stroke:none;stroke-width:1px;stroke-linecap:butt;stroke-linejoin:miter;stroke-opacity:1"
       x="270.54398"
       y="648.55042"
       id="text8856"
       sodipodi:linespacing="100%"
       inkscape:export-xdpi="399.98395"
       inkscape:export-ydpi="399.98395"><tspan
         sodipodi:role="line"
         id="tspan8858"
         x="270.54398"
         y="648.55042"
         style="font-style:normal;font-variant:normal;font-weight:bold;font-stretch:normal;font-size:25px;line-height:100%;font-family:sans-serif;-inkscape-font-specification:'sans-serif, Bold';text-align:start;writing-mode:lr-tb;text-anchor:start;fill:#696969;fill-opacity:1">AI</tspan></text>
    <g
       id="g8920"
       transform="translate(0,7.873404e-6)"
       inkscape:export-xdpi="399.98395"
       inkscape:export-ydpi="399.98395">
      <text
         sodipodi:linespacing="100%"
         id="text8856-1"
         y="666.46851"
         x="461.96378"
         style="font-style:normal;font-variant:normal;font-weight:bold;font-stretch:normal;font-size:25px;line-height:100%;font-family:sans-serif;-inkscape-font-specification:'sans-serif, Bold';text-align:start;letter-spacing:0px;word-spacing:0px;writing-mode:lr-tb;text-anchor:start;fill:#696969;fill-opacity:1;stroke:none;stroke-width:1px;stroke-linecap:butt;stroke-linejoin:miter;stroke-opacity:1"
         xml:space="preserve"><tspan
           y="666.46851"
           x="461.96378"
           id="tspan8898"
           sodipodi:role="line">CPU</tspan></text>
      <path
         id="rect8643-2-5"
         d="m 460.85205,588.41788 c -0.1651,0 -0.29848,0.13337 -0.29848,0.29852 l 0,20.76578 -8.02374,0 c -5.82554,0 -10.51352,4.69342 -10.51352,10.51883 l 0,8.02374 -22.71704,0 c -0.1651,0 -0.2985,0.13337 -0.2985,0.29848 l 0,4.76628 c 0,0.1651 0.13336,0.29848 0.2985,0.29848 l 22.71704,0 0,21.3256 -22.71704,0 c -0.1651,0 -0.2985,0.13337 -0.2985,0.29848 l 0,4.76628 c 0,0.1651 0.13336,0.29848 0.2985,0.29848 l 22.71704,0 0,21.32025 -22.71704,0 c -0.1651,0 -0.2985,0.13336 -0.2985,0.29851 l 0,4.76625 c 0,0.1651 0.13336,0.29849 0.2985,0.29849 l 22.71704,0 0,8.0291 c 0,5.82556 4.68798,10.51353 10.51352,10.51353 l 8.02374,0 0,20.76578 c 0,0.1651 0.13337,0.2985 0.29848,0.2985 l 4.76623,0 c 0.1651,0 0.29848,-0.13336 0.29848,-0.2985 l 0,-20.76578 21.32558,0 0,20.76578 c 0,0.1651 0.13337,0.2985 0.29849,0.2985 l 4.76625,0 c 0.1651,0 0.29851,-0.13336 0.29851,-0.2985 l 0,-20.76578 21.32559,0 0,20.76578 c 0,0.1651 0.13336,0.2985 0.29848,0.2985 l 4.76627,0 c 0.1651,0 0.29848,-0.13336 0.29848,-0.2985 l 0,-20.76578 8.02375,0 c 5.82541,0 10.5135,-4.68797 10.5135,-10.51353 l 0,-8.0291 22.71705,0 c 0.16511,0 0.29849,-0.13336 0.29849,-0.29849 l 0,-4.76625 c 0,-0.1651 -0.13337,-0.29851 -0.29849,-0.29851 l -22.71705,0 0,-21.32025 22.71705,0 c 0.16511,0 0.29849,-0.13337 0.29849,-0.29848 l 0,-4.76628 c 0,-0.1651 -0.13337,-0.29848 -0.29849,-0.29848 l -22.71705,0 0,-21.3256 22.71705,0 c 0.16511,0 0.29849,-0.13337 0.29849,-0.29848 l 0,-4.76628 c 0,-0.1651 -0.13337,-0.29848 -0.29849,-0.29848 l -22.71705,0 0,-8.02374 c 0,-5.82541 -4.68809,-10.51883 -10.5135,-10.51883 l -8.02375,0 0,-20.76578 c 0,-0.1651 -0.13336,-0.29852 -0.29848,-0.29852 l -4.76627,0 c -0.1651,0 -0.29848,0.13337 -0.29848,0.29852 l 0,20.76578 -21.32559,0 0,-20.76578 c 0,-0.1651 -0.13337,-0.29852 -0.29851,-0.29852 l -4.76625,0 c -0.1651,0 -0.29849,0.13337 -0.29849,0.29852 l 0,20.76578 -21.32558,0 0,-20.76578 c 0,-0.1651 -0.13337,-0.29852 -0.29848,-0.29852 z m 8.17832,33.25193 41.78756,0 c 8.21444,0 14.82659,6.61215 14.82659,14.82661 l 0,41.79281 c 0,8.21451 -6.61215,14.82664 -14.82659,14.82664 l -41.78756,0 c -8.21445,0 -14.8266,-6.61213 -14.8266,-14.82664 l 0,-41.79281 c 0,-8.21446 6.61215,-14.82661 14.8266,-14.82661 z"
         style="opacity:1;fill:#696969;fill-opacity:1;stroke:#696969;stroke-width:3.79856849;stroke-miterlimit:4;stroke-dasharray:none;stroke-dashoffset:0;stroke-opacity:1"
         inkscape:connector-curvature="0" />
    </g>
    <path
       style="fill:#696969;fill-opacity:1;stroke:#696969;stroke-width:1.19141984;stroke-linejoin:round;stroke-miterlimit:4;stroke-dasharray:none;stroke-opacity:1"
       d="m 270.60974,585.83507 -4.10171,0.16755 c -7.85519,0.3202 -15.01235,2.42863 -21.69997,6.39302 -4.32599,2.56442 -9.6936,7.48689 -12.92722,11.8537 -6.00915,8.11499 -8.5672,15.65032 -8.89842,26.22055 -0.13719,4.37829 -0.26366,5.52834 -0.69344,6.25805 -0.28955,0.49165 -0.99684,1.76593 -1.56995,2.83117 -1.01029,1.87786 -3.60801,6.59351 -8.20807,14.89741 -4.95744,8.94904 -4.63638,8.23113 -4.4368,9.91454 0.52776,4.45152 4.11436,7.69958 8.90152,8.06225 2.01374,0.15255 3.70716,0.62717 4.93943,1.38378 l 0.96958,0.59571 0.003,5.59099 c 0.002,3.7113 0.13736,6.09291 0.40179,7.08181 1.19403,4.46536 4.08798,7.41802 8.37406,8.54472 1.79924,0.47303 3.33596,0.54296 11.83354,0.54296 l 9.7656,0 0.90909,0.7648 c 0.49994,0.42024 1.04675,1.25756 1.21468,1.8616 0.18703,0.67269 0.30637,6.2182 0.30717,14.31255 0.002,14.25025 0.0511,14.74163 1.58235,15.48071 l 0.002,0 c 0.96098,0.46385 64.33496,0.48191 65.3528,0.0186 1.55784,-0.70905 1.66923,-1.47554 1.66923,-11.49689 l 0,-9.21178 1.61648,-0.50884 c 5.14594,-1.62041 9.15517,-5.82241 11.87697,-12.44785 l 1.27053,-3.09335 0.0931,-22.05058 c 0.0685,-16.16214 0.0405,-21.14602 0.0405,-22.55088 0,-5.99932 -2.8516,-8.50515 -6.53287,-8.50515 l -16.64568,0 0,-10.09184 13.60205,0 c 0,0 0.1784,-0.0795 0.1784,-0.1784 l 0,-3.91821 c 0,-0.0988 -0.0795,-0.17841 -0.1784,-0.17841 l -13.60205,0 0,-6.81032 c 0,-3.48775 -2.80598,-6.29684 -6.29373,-6.29684 l -4.80447,0 0,-12.43234 c 0,-0.0988 -0.0795,-0.17996 -0.1784,-0.17996 l -3.42179,0 c -0.0989,0 -0.1784,0.0811 -0.1784,0.17996 l 0,12.43234 -11.49091,0 0,-12.43234 c 0,-0.0988 -0.0795,-0.17996 -0.1784,-0.17996 l -3.56363,0 c -0.0988,0 -0.1784,0.0811 -0.1784,0.17996 l 0,12.43234 -12.05825,0 0,-12.43234 c 0,-0.0988 -0.0795,-0.17996 -0.1784,-0.17996 l -3.56362,0 c -0.0988,0 -0.1784,0.0811 -0.1784,0.17996 l 0,12.43234 -4.80447,0 c -3.48782,0 -6.29373,2.80909 -6.29373,6.29684 l 0,4.80446 -13.60205,0 c -0.0988,0 -0.1784,0.0796 -0.1784,0.17841 l 0,3.91821 c 0,0.0988 0.0795,0.17841 0.1784,0.17841 l 13.60205,0 0,11.1363 -13.60205,0 c -0.0988,0 -0.1784,0.0796 -0.1784,0.1784 l 0,3.42179 c 0,0.0988 0.0795,0.17841 0.1784,0.17841 l 13.60205,0 0,11.62964 -13.60205,0 c -0.0988,0 -0.1784,0.0811 -0.1784,0.17996 l 0,3.98757 c 0,0.0989 0.0795,0.1784 0.1784,0.1784 l 13.60205,0 0,4.80757 c 0,3.48784 2.80591,6.29529 6.29373,6.29529 l 4.80447,0 0,12.43234 c 0,0.0988 0.0796,0.1784 0.1784,0.1784 l 3.63454,0 c 0.0988,0 0.1784,-0.0795 0.1784,-0.1784 l 0,-12.43234 11.98733,0 0,12.43234 c 0,0.0988 0.0795,0.1784 0.1784,0.1784 l 3.42179,0 c 0.0989,0 0.17841,-0.0795 0.17841,-0.1784 l 0,-12.43234 11.27815,0 0,12.43234 c 0,0.0988 0.0795,0.1784 0.17841,0.1784 l 3.77637,0 c 0.0989,0 0.1784,-0.0795 0.1784,-0.1784 l 0,-12.43234 4.80447,0 c 3.48775,0 6.29373,-2.80745 6.29373,-6.29529 l 0,-4.80757 13.60205,0 c 0.0989,0 0.1784,-0.0795 0.1784,-0.1784 l 0,-3.91666 c 0,-0.0988 -0.1784,-0.17995 -0.1784,-0.17995 l -13.60205,0 0,-9.5995 3.30743,0 10.24808,0 c 3.45108,0 4.40608,2.15215 4.40608,3.86529 0,1.24003 0.0565,0.82964 0.0589,21.08105 l 0.003,21.45331 -0.83772,2.40146 c -1.93167,5.54307 -6.46209,9.11753 -10.76962,9.55618 -0.86112,0.0877 -1.94103,0.30122 -2.3999,0.47471 -1.62358,0.6138 -1.70181,1.12628 -1.70181,11.24247 l 0,9.25212 -28.33656,0 -28.33501,0 0,-10.99892 c 0,-12.13119 -0.22145,-14.35086 -1.69404,-17.05374 -0.97536,-1.79021 -3.02781,-3.68264 -4.53454,-4.18083 -0.71763,-0.23728 -4.73653,-0.41292 -11.96694,-0.52435 -7.45664,-0.11487 -11.07434,-0.27749 -11.48293,-0.51504 -0.99492,-0.57842 -2.18018,-1.97352 -2.66983,-3.14454 -0.37264,-0.89119 -0.4623,-2.43191 -0.4623,-7.87609 l 0,-6.7669 -1.40395,-1.30622 c -2.34913,-2.18537 -7.4271,-4.2314 -10.53507,-4.24443 -1.14647,-0.005 -2.1963,-0.59542 -2.68845,-1.5141 -0.33387,-0.62319 -0.0713,-1.16974 4.48799,-9.36536 1.09405,-1.9666 3.17208,-5.7209 4.61675,-8.34304 1.44467,-2.62215 3.26428,-5.90753 4.04431,-7.30056 l 1.41791,-2.53331 0.13963,-5.80972 c 0.0861,-3.60236 0.33322,-6.88592 0.65155,-8.6409 0.8693,-4.79228 3.1267,-10.13841 6.22703,-14.75003 1.54887,-2.30389 6.99086,-7.74206 9.29711,-9.28935 6.73968,-4.52175 12.99221,-6.51494 21.55105,-6.87083 l 3.95278,-0.16444 0,-2.98165 z m 4.21651,32.73458 25.01982,0 c 4.9181,0 8.8767,3.95859 8.8767,8.87669 l 0,25.02138 c 0,4.91814 -3.9586,8.8767 -8.8767,8.8767 l -25.01982,0 c -4.9181,0 -8.87669,-3.95856 -8.87669,-8.8767 l 0,-25.02138 c 0,-4.91811 3.95859,-8.87669 8.87669,-8.87669 z"
       id="path4190"
       inkscape:connector-curvature="0"
       sodipodi:nodetypes="ccssscsssscccscscccccccsccccccccccssscsscssssccssssccsssscsscssssccssssccsssscsscssssccssssccsssscsscssscccccscccssscccsssssssccscsscccsssccccsssssssss"
       inkscape:export-xdpi="399.98395"
       inkscape:export-ydpi="399.98395" />
  </g>
</svg>
