<?xml version="1.0" encoding="UTF-8" standalone="no"?>
<!-- Created with Inkscape (http://www.inkscape.org/) -->

<svg
   xmlns:dc="http://purl.org/dc/elements/1.1/"
   xmlns:cc="http://creativecommons.org/ns#"
   xmlns:rdf="http://www.w3.org/1999/02/22-rdf-syntax-ns#"
   xmlns:svg="http://www.w3.org/2000/svg"
   xmlns="http://www.w3.org/2000/svg"
   xmlns:sodipodi="http://sodipodi.sourceforge.net/DTD/sodipodi-0.dtd"
   xmlns:inkscape="http://www.inkscape.org/namespaces/inkscape"
   width="112.33286mm"
   height="166.29495mm"
   viewBox="0 0 112.33285 166.29495"
   version="1.1"
   id="svg8"
   inkscape:version="0.91 r13725"
   sodipodi:docname="systematic review funnel.svg"
   inkscape:export-filename="C:\Users\Will\Google Drive\Work\Figures\APSIS figures\Big literature\systematic review funnel.png"
   inkscape:export-xdpi="300"
   inkscape:export-ydpi="300">
  <defs
     id="defs2">
    <marker
       inkscape:stockid="Arrow2Mend"
       orient="auto"
       refY="0"
       refX="0"
       id="Arrow2Mend"
       style="overflow:visible"
       inkscape:isstock="true">
      <path
         id="path8328"
         style="fill:#3c3c3c;fill-opacity:1;fill-rule:evenodd;stroke:#3c3c3c;stroke-width:0.625;stroke-linejoin:round;stroke-opacity:1"
         d="M 8.7185878,4.0337352 -2.2072895,0.01601326 8.7185884,-4.0017078 c -1.7454984,2.3720609 -1.7354408,5.6174519 -6e-7,8.035443 z"
         transform="scale(-0.6)"
         inkscape:connector-curvature="0" />
    </marker>
    <marker
       inkscape:stockid="Arrow2Mend"
       orient="auto"
       refY="0"
       refX="0"
       id="Arrow2Mend-5"
       style="overflow:visible"
       inkscape:isstock="true">
      <path
         inkscape:connector-curvature="0"
         id="path8328-7"
         style="fill:#3c3c3c;fill-opacity:1;fill-rule:evenodd;stroke:#3c3c3c;stroke-width:0.625;stroke-linejoin:round;stroke-opacity:1"
         d="M 8.7185878,4.0337352 -2.2072895,0.01601326 8.7185884,-4.0017078 c -1.7454984,2.3720609 -1.7354408,5.6174519 -6e-7,8.035443 z"
         transform="scale(-0.6)" />
    </marker>
    <marker
       inkscape:stockid="Arrow2Mend"
       orient="auto"
       refY="0"
       refX="0"
       id="Arrow2Mend-5-1"
       style="overflow:visible"
       inkscape:isstock="true">
      <path
         inkscape:connector-curvature="0"
         id="path8328-7-5"
         style="fill:#3c3c3c;fill-opacity:1;fill-rule:evenodd;stroke:#3c3c3c;stroke-width:0.625;stroke-linejoin:round;stroke-opacity:1"
         d="M 8.7185878,4.0337352 -2.2072895,0.01601326 8.7185884,-4.0017078 c -1.7454984,2.3720609 -1.7354408,5.6174519 -6e-7,8.035443 z"
         transform="scale(-0.6)" />
    </marker>
    <marker
       inkscape:stockid="Arrow2Mend"
       orient="auto"
       refY="0"
       refX="0"
       id="Arrow2Mend-5-4"
       style="overflow:visible"
       inkscape:isstock="true">
      <path
         inkscape:connector-curvature="0"
         id="path8328-7-59"
         style="fill:#3c3c3c;fill-opacity:1;fill-rule:evenodd;stroke:#3c3c3c;stroke-width:0.625;stroke-linejoin:round;stroke-opacity:1"
         d="M 8.7185878,4.0337352 -2.2072895,0.01601326 8.7185884,-4.0017078 c -1.7454984,2.3720609 -1.7354408,5.6174519 -6e-7,8.035443 z"
         transform="scale(-0.6,-0.6)" />
    </marker>
    <marker
       inkscape:stockid="Arrow2Mend"
       orient="auto"
       refY="0"
       refX="0"
       id="Arrow2Mend-5-1-5"
       style="overflow:visible"
       inkscape:isstock="true">
      <path
         inkscape:connector-curvature="0"
         id="path8328-7-5-9"
         style="fill:#3c3c3c;fill-opacity:1;fill-rule:evenodd;stroke:#3c3c3c;stroke-width:0.625;stroke-linejoin:round;stroke-opacity:1"
         d="M 8.7185878,4.0337352 -2.2072895,0.01601326 8.7185884,-4.0017078 c -1.7454984,2.3720609 -1.7354408,5.6174519 -6e-7,8.035443 z"
         transform="scale(-0.6,-0.6)" />
    </marker>
    <marker
       inkscape:stockid="Arrow2Mend"
       orient="auto"
       refY="0"
       refX="0"
       id="Arrow2Mend-9"
       style="overflow:visible"
       inkscape:isstock="true">
      <path
         id="path8328-0"
         style="fill:#3c3c3c;fill-opacity:1;fill-rule:evenodd;stroke:#3c3c3c;stroke-width:0.625;stroke-linejoin:round;stroke-opacity:1"
         d="M 8.7185878,4.0337352 -2.2072895,0.01601326 8.7185884,-4.0017078 c -1.7454984,2.3720609 -1.7354408,5.6174519 -6e-7,8.035443 z"
         transform="scale(-0.6,-0.6)"
         inkscape:connector-curvature="0" />
    </marker>
    <marker
       inkscape:stockid="Arrow2Mend"
       orient="auto"
       refY="0"
       refX="0"
       id="Arrow2Mend-7"
       style="overflow:visible"
       inkscape:isstock="true">
      <path
         id="path8328-9"
         style="fill:#3c3c3c;fill-opacity:1;fill-rule:evenodd;stroke:#3c3c3c;stroke-width:0.625;stroke-linejoin:round;stroke-opacity:1"
         d="M 8.7185878,4.0337352 -2.2072895,0.01601326 8.7185884,-4.0017078 c -1.7454984,2.3720609 -1.7354408,5.6174519 -6e-7,8.035443 z"
         transform="scale(-0.6,-0.6)"
         inkscape:connector-curvature="0" />
    </marker>
  </defs>
  <sodipodi:namedview
     id="base"
     pagecolor="#ffffff"
     bordercolor="#666666"
     borderopacity="1.0"
     inkscape:pageopacity="1"
     inkscape:pageshadow="2"
     inkscape:zoom="0.7"
     inkscape:cx="-403.0273"
     inkscape:cy="302.33786"
     inkscape:document-units="mm"
     inkscape:current-layer="layer1"
     showgrid="false"
     objecttolerance="1"
     inkscape:window-width="1920"
     inkscape:window-height="1027"
     inkscape:window-x="-8"
     inkscape:window-y="-8"
     inkscape:window-maximized="1"
     fit-margin-top="0"
     fit-margin-left="0"
     fit-margin-right="0"
     fit-margin-bottom="0" />
  <metadata
     id="metadata5">
    <rdf:RDF>
      <cc:Work
         rdf:about="">
        <dc:format>image/svg+xml</dc:format>
        <dc:type
           rdf:resource="http://purl.org/dc/dcmitype/StillImage" />
        <dc:title />
      </cc:Work>
    </rdf:RDF>
  </metadata>
  <g
     inkscape:label="Layer 1"
     inkscape:groupmode="layer"
     id="layer1"
     transform="translate(-46.83959,-58.673337)">
    <rect
       style="color:#000000;clip-rule:nonzero;display:inline;overflow:visible;visibility:visible;opacity:1;isolation:auto;mix-blend-mode:normal;color-interpolation:sRGB;color-interpolation-filters:linearRGB;solid-color:#000000;solid-opacity:1;fill:#f7f7f7;fill-opacity:1;fill-rule:nonzero;stroke:#6f6f6f;stroke-width:0.56444442;stroke-linecap:round;stroke-linejoin:round;stroke-miterlimit:4;stroke-dasharray:none;stroke-dashoffset:0;stroke-opacity:1;color-rendering:auto;image-rendering:auto;shape-rendering:auto;text-rendering:auto;enable-background:accumulate"
       id="rect8714-4"
       width="128.54149"
       height="175.87341"
       x="35.771278"
       y="49.0779"
       ry="1.0839819" />
    <path
       style="opacity:1;fill:#ffffff;fill-opacity:1;stroke:#3c3c3c;stroke-width:0.632;stroke-miterlimit:4;stroke-dasharray:none;stroke-dashoffset:0;stroke-opacity:1;stroke-linejoin:round"
       d="m 44.376927,99.049592 27.832455,58.217218 11.966651,25.03049 31.731967,0 11.96666,-25.03049 27.83246,-58.217218 -55.66528,0 z"
       id="path4487"
       inkscape:connector-curvature="0" />
    <path
       style="opacity:1;fill:#525252;fill-opacity:1;stroke:none;stroke-width:0.63208956;stroke-miterlimit:4;stroke-dasharray:none;stroke-dashoffset:0;stroke-opacity:1"
       d="m 75.740116,70.802636 -8.82312,0 4.41151,7.53191 z"
       id="path4493-4"
       inkscape:connector-curvature="0" />
    <path
       style="opacity:1;fill:#525252;fill-opacity:1;stroke:none;stroke-width:0.63208956;stroke-miterlimit:4;stroke-dasharray:none;stroke-dashoffset:0;stroke-opacity:1"
       d="m 116.04851,87.50291 -8.82312,0 4.41152,7.531912 z"
       id="path4493-9"
       inkscape:connector-curvature="0" />
    <path
       style="opacity:1;fill:#525252;fill-opacity:1;stroke:none;stroke-width:0.63208956;stroke-miterlimit:4;stroke-dasharray:none;stroke-dashoffset:0;stroke-opacity:1"
       d="m 128.47163,58.697789 -8.29102,3.017684 6.72152,5.568855 z"
       id="path4493-6"
       inkscape:connector-curvature="0" />
    <path
       style="opacity:1;fill:#525252;fill-opacity:1;stroke:none;stroke-width:0.63208956;stroke-miterlimit:4;stroke-dasharray:none;stroke-dashoffset:0;stroke-opacity:1"
       d="m 147.26526,85.809222 -8.82311,0 4.41151,7.53191 z"
       id="path4493-8"
       inkscape:connector-curvature="0" />
    <path
       style="opacity:1;fill:#525252;fill-opacity:1;stroke:none;stroke-width:0.63208956;stroke-miterlimit:4;stroke-dasharray:none;stroke-dashoffset:0;stroke-opacity:1"
       d="m 143.63403,56.083161 -8.82311,0 4.4115,7.53191 z"
       id="path4493-2"
       inkscape:connector-curvature="0" />
    <path
       style="opacity:1;fill:#525252;fill-opacity:1;stroke:none;stroke-width:0.63208956;stroke-miterlimit:4;stroke-dasharray:none;stroke-dashoffset:0;stroke-opacity:1"
       d="m 80.093587,89.2947 -8.82312,0 4.41151,7.531912 z"
       id="path4493-0"
       inkscape:connector-curvature="0" />
    <path
       style="opacity:1;fill:#525252;fill-opacity:1;stroke:none;stroke-width:0.63208956;stroke-miterlimit:4;stroke-dasharray:none;stroke-dashoffset:0;stroke-opacity:1"
       d="m 84.447051,58.70022 -8.823115,0 4.411505,7.53191 z"
       id="path4493-1"
       inkscape:connector-curvature="0" />
    <path
       style="opacity:1;fill:#525252;fill-opacity:1;stroke:none;stroke-width:0.63208956;stroke-miterlimit:4;stroke-dasharray:none;stroke-dashoffset:0;stroke-opacity:1"
       d="m 96.239341,87.006553 -6.23889,6.238888 8.445267,2.206451 z"
       id="path4493-80"
       inkscape:connector-curvature="0" />
    <path
       style="opacity:1;fill:#525252;fill-opacity:1;stroke:none;stroke-width:0.63208956;stroke-miterlimit:4;stroke-dasharray:none;stroke-dashoffset:0;stroke-opacity:1"
       d="m 65.099951,89.201259 -8.291021,3.017684 6.721529,5.568859 z"
       id="path4493-3"
       inkscape:connector-curvature="0" />
    <path
       style="opacity:1;fill:#525252;fill-opacity:1;stroke:none;stroke-width:0.63208956;stroke-miterlimit:4;stroke-dasharray:none;stroke-dashoffset:0;stroke-opacity:1"
       d="m 55.526254,78.07681 -1.53212,8.689079 8.183533,-3.036592 z"
       id="path4493-93"
       inkscape:connector-curvature="0" />
    <path
       style="opacity:1;fill:#525252;fill-opacity:1;stroke:none;stroke-width:0.63208956;stroke-miterlimit:4;stroke-dasharray:none;stroke-dashoffset:0;stroke-opacity:1"
       d="m 66.723476,53.606019 -6.238887,6.238888 8.445273,2.206456 z"
       id="path4493-86"
       inkscape:connector-curvature="0" />
    <path
       style="opacity:1;fill:#525252;fill-opacity:1;stroke:none;stroke-width:0.63208956;stroke-miterlimit:4;stroke-dasharray:none;stroke-dashoffset:0;stroke-opacity:1"
       d="m 136.6617,72.979609 -8.82312,0 4.41151,7.53191 z"
       id="path4493-39"
       inkscape:connector-curvature="0" />
    <path
       style="opacity:1;fill:#525252;fill-opacity:1;stroke:none;stroke-width:0.63208956;stroke-miterlimit:4;stroke-dasharray:none;stroke-dashoffset:0;stroke-opacity:1"
       d="m 149.28869,69.737672 -6.75889,5.671391 8.22081,2.934117 z"
       id="path4493-24"
       inkscape:connector-curvature="0" />
    <path
       style="opacity:1;fill:#525252;fill-opacity:1;stroke:none;stroke-width:0.63208956;stroke-miterlimit:4;stroke-dasharray:none;stroke-dashoffset:0;stroke-opacity:1"
       d="m 55.876136,63.159423 -8.823121,0 4.411511,7.53191 z"
       id="path4493-1-7"
       inkscape:connector-curvature="0" />
    <path
       style="opacity:1;fill:#525252;fill-opacity:1;stroke:none;stroke-width:0.63208956;stroke-miterlimit:4;stroke-dasharray:none;stroke-dashoffset:0;stroke-opacity:1"
       d="m 115.46806,61.738418 -8.82311,0 4.41151,7.531911 z"
       id="path4493-1-3"
       inkscape:connector-curvature="0" />
    <path
       style="opacity:1;fill:#525252;fill-opacity:1;stroke:none;stroke-width:0.63208956;stroke-miterlimit:4;stroke-dasharray:none;stroke-dashoffset:0;stroke-opacity:1"
       d="m 128.66878,85.093436 -6.7589,5.671391 8.22082,2.934117 z"
       id="path4493-24-4"
       inkscape:connector-curvature="0" />
    <path
       style="opacity:1;fill:#525252;fill-opacity:1;stroke:none;stroke-width:0.63208956;stroke-miterlimit:4;stroke-dasharray:none;stroke-dashoffset:0;stroke-opacity:1"
       d="m 96.122356,56.585016 -6.75889,5.671391 8.220812,2.934117 z"
       id="path4493-24-1"
       inkscape:connector-curvature="0" />
    <g
       id="g4587"
       transform="translate(26.60079,-9.141211)"
       style="fill:#525252;fill-opacity:1">
      <path
         inkscape:connector-curvature="0"
         id="path4493-00-3-6"
         d="m 79.740306,220.96912 8.82312,0 -4.41151,-7.53191 z"
         style="opacity:1;fill:#525252;fill-opacity:1;stroke:none;stroke-width:0.63208956;stroke-miterlimit:4;stroke-dasharray:none;stroke-dashoffset:0;stroke-opacity:1" />
      <path
         inkscape:connector-curvature="0"
         id="path4493-00-3"
         d="m 69.020873,220.96912 8.823122,0 -4.41151,-7.53191 z"
         style="opacity:1;fill:#525252;fill-opacity:1;stroke:none;stroke-width:0.63208956;stroke-miterlimit:4;stroke-dasharray:none;stroke-dashoffset:0;stroke-opacity:1" />
      <path
         inkscape:connector-curvature="0"
         id="path4493-00-3-6-9"
         d="m 58.319038,220.96912 8.82312,0 -4.41151,-7.53191 z"
         style="opacity:1;fill:#525252;fill-opacity:1;stroke:none;stroke-width:0.63208956;stroke-miterlimit:4;stroke-dasharray:none;stroke-dashoffset:0;stroke-opacity:1" />
      <path
         inkscape:connector-curvature="0"
         id="path4493-00-3-6-1"
         d="m 83.267335,212.83921 -8.82311,0 4.4115,7.53191 z"
         style="opacity:1;fill:#525252;fill-opacity:1;stroke:none;stroke-width:0.63208956;stroke-miterlimit:4;stroke-dasharray:none;stroke-dashoffset:0;stroke-opacity:1" />
      <path
         inkscape:connector-curvature="0"
         id="path4493-00-3-6-1-4"
         d="m 72.449008,212.8392 -8.823112,0 4.4115,7.53192 z"
         style="opacity:1;fill:#525252;fill-opacity:1;stroke:none;stroke-width:0.63208956;stroke-miterlimit:4;stroke-dasharray:none;stroke-dashoffset:0;stroke-opacity:1" />
      <path
         inkscape:connector-curvature="0"
         id="path4493-00-3-8"
         d="m 74.44422,211.9131 8.82312,0 -4.41151,-7.53191 z"
         style="opacity:1;fill:#525252;fill-opacity:1;stroke:none;stroke-width:0.63208956;stroke-miterlimit:4;stroke-dasharray:none;stroke-dashoffset:0;stroke-opacity:1" />
      <path
         inkscape:connector-curvature="0"
         id="path4493-00-3-6-9-7"
         d="m 63.625896,211.89209 8.823112,0 -4.411502,-7.53191 z"
         style="opacity:1;fill:#525252;fill-opacity:1;stroke:none;stroke-width:0.63208956;stroke-miterlimit:4;stroke-dasharray:none;stroke-dashoffset:0;stroke-opacity:1" />
      <path
         inkscape:connector-curvature="0"
         id="path4493-00-3-7"
         d="m 77.843995,203.81252 -8.823122,0 4.411512,7.53192 z"
         style="opacity:1;fill:#525252;fill-opacity:1;stroke:none;stroke-width:0.63208956;stroke-miterlimit:4;stroke-dasharray:none;stroke-dashoffset:0;stroke-opacity:1" />
      <path
         inkscape:connector-curvature="0"
         id="path4493-00-3-0"
         d="m 69.020873,202.64225 8.823122,0 -4.41151,-7.53191 z"
         style="opacity:1;fill:#525252;fill-opacity:1;stroke:none;stroke-width:0.63208956;stroke-miterlimit:4;stroke-dasharray:none;stroke-dashoffset:0;stroke-opacity:1" />
    </g>
    <flowRoot
       xml:space="preserve"
       id="flowRoot9205"
       style="font-style:normal;font-variant:normal;font-weight:bold;font-stretch:normal;font-size:21.33333397px;line-height:1.25;font-family:'Times New Roman';-inkscape-font-specification:'Times New Roman, Bold';text-align:center;letter-spacing:0px;word-spacing:0px;writing-mode:lr-tb;text-anchor:middle;fill:#343434;fill-opacity:1;stroke:none"
       transform="matrix(0.26458333,0,0,0.26458333,-25.08522,-39.473232)"><flowRegion
         id="flowRegion9207"
         style="font-style:normal;font-variant:normal;font-weight:bold;font-stretch:normal;font-size:21.33333397px;font-family:'Times New Roman';-inkscape-font-specification:'Times New Roman, Bold';text-align:center;writing-mode:lr-tb;text-anchor:middle;fill:#343434;fill-opacity:1"><rect
           id="rect9209"
           width="352.14288"
           height="54.285679"
           x="296.42856"
           y="542.51971"
           style="font-style:normal;font-variant:normal;font-weight:bold;font-stretch:normal;font-size:21.33333397px;font-family:'Times New Roman';-inkscape-font-specification:'Times New Roman, Bold';text-align:center;writing-mode:lr-tb;text-anchor:middle;fill:#343434;fill-opacity:1" /></flowRegion><flowPara
         id="flowPara4643">Computer-assisted systematic review and meta-analysis</flowPara></flowRoot>    <g
       id="g5836"
       transform="translate(-37.19725,6.9135941)">
      <path
         inkscape:connector-curvature="0"
         id="path4554"
         d="m 111.95163,141.31537 0,-0.58486 1.72209,0 1.72209,0 0,-1.03975 0,-1.03976 -2.62657,0 c -1.4446,0 -2.67281,-0.0177 -2.72933,-0.0394 -0.0926,-0.0356 -0.1028,-0.5592 -0.1028,-5.25679 0,-4.6976 0.0102,-5.22129 0.1028,-5.25679 0.0565,-0.0217 3.33071,-0.0394 7.27597,-0.0394 7.02541,0 7.17458,0.002 7.24046,0.1257 0.0932,0.17419 0.0932,10.16689 0,10.34108 -0.0649,0.12117 -0.1643,0.1257 -2.76184,0.1257 l -2.69457,0 0,1.03976 0,1.03974 1.75458,0 1.75459,0 0,0.58486 0,0.58486 -5.32874,0 -5.32873,0 z m 11.53475,-8.02559 0,-4.224 -6.19897,-0.0165 c -4.52634,-0.0121 -6.22278,0.004 -6.28725,0.0567 -0.12233,0.10149 -0.13204,8.24064 -0.01,8.3627 0.0602,0.0602 1.51192,0.0745 6.28727,0.0617 l 6.20895,-0.0165 z"
         style="opacity:1;fill:#3c3c3c;fill-opacity:1;fill-rule:nonzero;stroke:#3c3c3c;stroke-width:0.09097835;stroke-linecap:round;stroke-miterlimit:4;stroke-dasharray:none;stroke-opacity:1" />
      <rect
         ry="3.0253727"
         y="124.18291"
         x="119.11764"
         height="7.4286408"
         width="9.5352697"
         id="rect8565"
         style="opacity:1;fill:#ffffff;fill-opacity:1;stroke:none;stroke-width:0.62090129;stroke-miterlimit:4;stroke-dasharray:none;stroke-dashoffset:0;stroke-opacity:1" />
      <g
         transform="matrix(0.33114737,0,0,0.33114737,-62.326376,-12.267956)"
         style="fill:#3c3c3c;fill-opacity:1;stroke:none"
         id="g4891">
        <path
           style="opacity:1;fill:#3c3c3c;fill-opacity:1;fill-rule:nonzero;stroke:none;stroke-width:0.2622329;stroke-linecap:round;stroke-linejoin:miter;stroke-miterlimit:4;stroke-dasharray:none;stroke-dashoffset:0;stroke-opacity:1"
           d="m 553.44858,422.81504 c -5.02275,-1.63968 -9.13227,-3.03595 -9.13227,-3.10282 0,-0.0907 17.39114,-6.76614 18.45202,-7.08265 0.23543,-0.0702 18.44789,6.90722 18.44789,7.06765 0,0.14386 -18.02303,6.14157 -18.38068,6.11674 -0.14008,-0.01 -4.36422,-1.35924 -9.38696,-2.99892 z"
           id="path4877"
           inkscape:connector-curvature="0" />
        <path
           style="opacity:1;fill:#3c3c3c;fill-opacity:1;fill-rule:nonzero;stroke:none;stroke-width:0.2622329;stroke-linecap:round;stroke-linejoin:miter;stroke-miterlimit:4;stroke-dasharray:none;stroke-dashoffset:0;stroke-opacity:1"
           d="m 561.83913,432.13156 c -2.33411,-1.37393 -6.22563,-2.65822 -8.74693,-2.8867 l -1.35882,-0.12313 0,-2.65623 0,-2.65623 5.51644,1.87931 5.51645,1.87931 5.60915,-1.87149 5.60916,-1.87148 0,2.67398 0,2.67398 -0.75894,0 c -2.21703,0 -6.48224,1.31111 -9.13163,2.80703 -0.69753,0.39384 -1.28162,0.71187 -1.29799,0.70674 -0.0164,-0.005 -0.44696,-0.25493 -0.95689,-0.55509 z"
           id="path4879"
           inkscape:connector-curvature="0" />
        <path
           style="opacity:1;fill:#3c3c3c;fill-opacity:1;fill-rule:nonzero;stroke:none;stroke-width:0.2622329;stroke-linecap:round;stroke-linejoin:miter;stroke-miterlimit:4;stroke-dasharray:none;stroke-dashoffset:0;stroke-opacity:1"
           d="m 575.44488,437.14145 c 0.002,-2.16718 0.0745,-4.05335 0.162,-4.1915 0.0917,-0.14478 0.0763,-0.47066 -0.0364,-0.76934 -0.15536,-0.41159 -0.13147,-0.61603 0.11614,-0.99393 0.26632,-0.40646 0.31173,-1.02753 0.31173,-4.26369 0,-3.28305 0.0391,-3.80294 0.29331,-3.90049 0.82097,-0.31503 0.81925,-0.32312 0.81925,3.85142 0,3.39196 0.0424,3.99917 0.29393,4.20791 0.20575,0.17075 0.26045,0.414 0.18233,0.81077 -0.0614,0.31175 -0.0996,0.65027 -0.085,0.75225 0.0146,0.10198 0.0609,2.04201 0.10271,4.31117 l 0.0761,4.12574 -1.11945,0 -1.11946,0 0.003,-3.94031 z"
           id="path4881"
           inkscape:connector-curvature="0" />
      </g>
      <g
         transform="matrix(0.47602229,0,0,0.47602229,57.141714,62.072099)"
         id="g8787">
        <path
           inkscape:connector-curvature="0"
           style="opacity:1;fill:#3c3c3c;fill-opacity:1;stroke:#3c3c3c;stroke-width:1.99999988;stroke-miterlimit:4;stroke-dasharray:none;stroke-dashoffset:0;stroke-opacity:1"
           d="m 466.84961,539.92969 c -0.0605,0 -0.10938,0.0489 -0.10938,0.10937 l 0,7.60742 -2.93945,0 c -2.13415,0 -3.85156,1.71941 -3.85156,3.85352 l 0,2.93945 -8.32227,0 c -0.0605,0 -0.10937,0.0489 -0.10937,0.10938 l 0,1.74609 c 0,0.0605 0.0489,0.10938 0.10937,0.10938 l 8.32227,0 0,7.8125 -8.32227,0 c -0.0605,0 -0.10937,0.0489 -0.10937,0.10937 l 0,1.7461 c 0,0.0605 0.0489,0.10937 0.10937,0.10937 l 8.32227,0 0,7.81055 -8.32227,0 c -0.0605,0 -0.10937,0.0489 -0.10937,0.10937 l 0,1.7461 c 0,0.0605 0.0489,0.10937 0.10937,0.10937 l 8.32227,0 0,2.94141 c 0,2.13415 1.71741,3.85156 3.85156,3.85156 l 2.93945,0 0,7.60742 c 0,0.0605 0.0489,0.10938 0.10938,0.10938 l 1.74609,0 c 0.0605,0 0.10938,-0.0489 0.10938,-0.10938 l 0,-7.60742 7.8125,0 0,7.60742 c 0,0.0605 0.0489,0.10938 0.10937,0.10938 l 1.7461,0 c 0.0605,0 0.10937,-0.0489 0.10937,-0.10938 l 0,-7.60742 7.8125,0 0,7.60742 c 0,0.0605 0.0489,0.10938 0.10938,0.10938 l 1.74609,0 c 0.0605,0 0.10938,-0.0489 0.10938,-0.10938 l 0,-7.60742 2.93945,0 c 2.13411,0 3.85156,-1.71741 3.85156,-3.85156 l 0,-2.94141 8.32227,0 c 0.0605,0 0.10937,-0.0489 0.10937,-0.10937 l 0,-1.7461 c 0,-0.0605 -0.0489,-0.10937 -0.10937,-0.10937 l -8.32227,0 0,-7.81055 8.32227,0 c 0.0605,0 0.10937,-0.0489 0.10937,-0.10937 l 0,-1.7461 c 0,-0.0605 -0.0489,-0.10937 -0.10937,-0.10937 l -8.32227,0 0,-7.8125 8.32227,0 c 0.0605,0 0.10937,-0.0489 0.10937,-0.10938 l 0,-1.74609 c 0,-0.0605 -0.0489,-0.10938 -0.10937,-0.10938 l -8.32227,0 0,-2.93945 c 0,-2.13411 -1.71745,-3.85352 -3.85156,-3.85352 l -2.93945,0 0,-7.60742 c 0,-0.0605 -0.0489,-0.10937 -0.10938,-0.10937 l -1.74609,0 c -0.0605,0 -0.10938,0.0489 -0.10938,0.10937 l 0,7.60742 -7.8125,0 0,-7.60742 c 0,-0.0605 -0.0489,-0.10937 -0.10937,-0.10937 l -1.7461,0 c -0.0605,0 -0.10937,0.0489 -0.10937,0.10937 l 0,7.60742 -7.8125,0 0,-7.60742 c 0,-0.0605 -0.0489,-0.10937 -0.10938,-0.10937 z m 2.99609,12.18164 15.3086,0 c 3.00933,0 5.43164,2.42231 5.43164,5.43164 l 0,15.31055 c 0,3.00933 -2.42231,5.43164 -5.43164,5.43164 l -15.3086,0 c -3.00933,0 -5.43164,-2.42231 -5.43164,-5.43164 l 0,-15.31055 c 0,-3.00933 2.42231,-5.43164 5.43164,-5.43164 z"
           transform="scale(0.26458333,0.26458333)"
           id="rect8643" />
        <text
           xml:space="preserve"
           style="font-style:normal;font-variant:normal;font-weight:bold;font-stretch:normal;font-size:4.23333311px;line-height:1.25;font-family:'Times New Roman';-inkscape-font-specification:'Times New Roman, Bold';text-align:start;letter-spacing:0px;word-spacing:0px;writing-mode:lr-tb;text-anchor:start;fill:#3c3c3c;fill-opacity:1;stroke:none;stroke-width:0.26458332"
           x="124.01723"
           y="150.97244"
           id="text8780"><tspan
             sodipodi:role="line"
             id="tspan8782"
             style="font-style:normal;font-variant:normal;font-weight:bold;font-stretch:normal;font-size:4.23333311px;font-family:'Times New Roman';-inkscape-font-specification:'Times New Roman, Bold';text-align:start;writing-mode:lr-tb;text-anchor:start;fill:#3c3c3c;fill-opacity:1"
             x="124.01723"
             y="150.97244">AI</tspan></text>
      </g>
    </g>
    <rect
       style="opacity:1;fill:#ffffff;fill-opacity:1;fill-rule:nonzero;stroke:#3c3c3c;stroke-width:0.66145831;stroke-linecap:round;stroke-miterlimit:4;stroke-dasharray:none;stroke-dashoffset:0;stroke-opacity:1"
       id="rect4720-8-4"
       width="9.1941166"
       height="12.147175"
       x="-119.68047"
       y="-148.52867"
       ry="0"
       rx="0"
       transform="scale(-1,-1)" />
    <rect
       style="opacity:1;fill:#ffffff;fill-opacity:1;fill-rule:nonzero;stroke:#3c3c3c;stroke-width:0.66145831;stroke-linecap:round;stroke-miterlimit:4;stroke-dasharray:none;stroke-dashoffset:0;stroke-opacity:1"
       id="rect4720-9"
       width="9.1941166"
       height="12.147175"
       x="-121.02562"
       y="-147.29228"
       ry="0"
       rx="0"
       transform="scale(-1,-1)" />
    <rect
       style="opacity:1;fill:#ffffff;fill-opacity:1;fill-rule:nonzero;stroke:#3c3c3c;stroke-width:0.66145831;stroke-linecap:round;stroke-miterlimit:4;stroke-dasharray:none;stroke-dashoffset:0;stroke-opacity:1"
       id="rect4720-8-4-7"
       width="9.1941166"
       height="12.147175"
       x="-122.4376"
       y="-145.96141"
       ry="0"
       rx="0"
       transform="scale(-1,-1)" />
    <path
       style="fill:#ffffff;fill-opacity:1;fill-rule:evenodd;stroke:#3c3c3c;stroke-width:0.66145831;stroke-linecap:butt;stroke-linejoin:miter;stroke-miterlimit:4;stroke-dasharray:none;stroke-opacity:1"
       d="m 120.70361,139.7809 -5.72613,0"
       id="path4722-0-8-6"
       inkscape:connector-curvature="0" />
    <path
       style="fill:#ffffff;fill-opacity:1;fill-rule:evenodd;stroke:#3c3c3c;stroke-width:0.66145831;stroke-linecap:butt;stroke-linejoin:miter;stroke-miterlimit:4;stroke-dasharray:none;stroke-opacity:1"
       d="m 120.70361,138.06235 -5.72613,0"
       id="path4722-5-7-2-5"
       inkscape:connector-curvature="0" />
    <path
       style="fill:#ffffff;fill-opacity:1;fill-rule:evenodd;stroke:#3c3c3c;stroke-width:0.66145831;stroke-linecap:butt;stroke-linejoin:miter;stroke-miterlimit:4;stroke-dasharray:none;stroke-opacity:1"
       d="m 120.70361,136.34379 -5.72613,0"
       id="path4722-5-9-1-4-3"
       inkscape:connector-curvature="0" />
    <path
       style="fill:#ffffff;fill-opacity:1;fill-rule:evenodd;stroke:#3c3c3c;stroke-width:0.66145831;stroke-linecap:butt;stroke-linejoin:miter;stroke-miterlimit:4;stroke-dasharray:none;stroke-opacity:1"
       d="m 120.70361,141.49943 -5.72613,0"
       id="path4722-5-9-9-5-6-8"
       inkscape:connector-curvature="0" />
    <path
       style="fill:#ffffff;fill-opacity:1;fill-rule:evenodd;stroke:#3c3c3c;stroke-width:0.66145831;stroke-linecap:butt;stroke-linejoin:miter;stroke-miterlimit:4;stroke-dasharray:none;stroke-opacity:1"
       d="m 120.70361,143.21799 -5.72613,0"
       id="path4722-5-9-9-7-5-7-5"
       inkscape:connector-curvature="0" />
    <text
       xml:space="preserve"
       style="font-style:normal;font-variant:normal;font-weight:bold;font-stretch:normal;font-size:5.64444447px;line-height:1.25;font-family:'Times New Roman';-inkscape-font-specification:'Times New Roman, Bold';text-align:center;letter-spacing:0px;word-spacing:0px;writing-mode:lr-tb;text-anchor:middle;fill:#343434;fill-opacity:1;stroke:none;stroke-width:0.26458332"
       x="100.00345"
       y="75.756493"
       id="text4594"><tspan
         sodipodi:role="line"
         id="tspan4598"
         x="100.709"
         y="75.756493">Unstructured </tspan><tspan
         sodipodi:role="line"
         id="tspan4600"
         x="100.00345"
         y="82.81205">research literature</tspan></text>
    <text
       xml:space="preserve"
       style="font-style:normal;font-variant:normal;font-weight:bold;font-stretch:normal;font-size:5.64444447px;line-height:1.25;font-family:'Times New Roman';-inkscape-font-specification:'Times New Roman, Bold';text-align:center;letter-spacing:0px;word-spacing:0px;writing-mode:lr-tb;text-anchor:middle;fill:#343434;fill-opacity:1;stroke:none;stroke-width:0.26458332"
       x="100.1192"
       y="218.68279"
       id="text4594-2"><tspan
         sodipodi:role="line"
         id="tspan4623"
         x="100.1192"
         y="218.68279">Assessment-ready reviews</tspan></text>
    <rect
       style="color:#000000;clip-rule:nonzero;display:inline;overflow:visible;visibility:visible;opacity:1;isolation:auto;mix-blend-mode:normal;color-interpolation:sRGB;color-interpolation-filters:linearRGB;solid-color:#000000;solid-opacity:1;fill:#f7f7f7;fill-opacity:1;fill-rule:nonzero;stroke:#6f6f6f;stroke-width:0.56444442;stroke-linecap:round;stroke-linejoin:round;stroke-miterlimit:4;stroke-dasharray:none;stroke-dashoffset:0;stroke-opacity:1;color-rendering:auto;image-rendering:auto;shape-rendering:auto;text-rendering:auto;enable-background:accumulate"
       id="rect8714-4-5"
       width="128.54149"
       height="175.87341"
       x="-112.98354"
       y="52.768093"
       ry="1.0839819" />
    <g
       id="g6003"
       transform="translate(-1.1494275,4.2909471)">
      <path
         sodipodi:nodetypes="cc"
         inkscape:connector-curvature="0"
         id="path8299"
         d="m 94.990286,121.67972 c 4.604752,-1.90463 8.524044,-1.06746 12.385774,0"
         style="fill:none;stroke:#3c3c3c;stroke-width:0.5291667;stroke-linecap:butt;stroke-linejoin:miter;stroke-miterlimit:4;stroke-dasharray:none;stroke-opacity:1;marker-end:url(#Arrow2Mend)" />
      <path
         sodipodi:nodetypes="cc"
         inkscape:connector-curvature="0"
         id="path8299-6"
         d="m 107.39261,149.84016 c -4.60475,1.90463 -8.524038,1.06746 -12.385768,0"
         style="fill:none;stroke:#3c3c3c;stroke-width:0.5291667;stroke-linecap:butt;stroke-linejoin:miter;stroke-miterlimit:4;stroke-dasharray:none;stroke-opacity:1;marker-end:url(#Arrow2Mend-7)" />
    </g>
  </g>
</svg>
