<?xml version="1.0" encoding="UTF-8" standalone="no"?>
<!-- Created with Inkscape (http://www.inkscape.org/) -->

<svg
   xmlns:dc="http://purl.org/dc/elements/1.1/"
   xmlns:cc="http://creativecommons.org/ns#"
   xmlns:rdf="http://www.w3.org/1999/02/22-rdf-syntax-ns#"
   xmlns:svg="http://www.w3.org/2000/svg"
   xmlns="http://www.w3.org/2000/svg"
   xmlns:sodipodi="http://sodipodi.sourceforge.net/DTD/sodipodi-0.dtd"
   xmlns:inkscape="http://www.inkscape.org/namespaces/inkscape"
   width="17.290432mm"
   height="20.857656mm"
   viewBox="0 0 61.26531 73.905082"
   id="svg4879"
   version="1.1"
   inkscape:version="0.91 r13725"
   sodipodi:docname="industry.svg">
  <defs
     id="defs4881" />
  <sodipodi:namedview
     id="base"
     pagecolor="#ffffff"
     bordercolor="#666666"
     borderopacity="1.0"
     inkscape:pageopacity="0.0"
     inkscape:pageshadow="2"
     inkscape:zoom="1.979899"
     inkscape:cx="152.12053"
     inkscape:cy="-34.98241"
     inkscape:document-units="px"
     inkscape:current-layer="layer1"
     showgrid="false"
     inkscape:window-width="1920"
     inkscape:window-height="1017"
     inkscape:window-x="-8"
     inkscape:window-y="-8"
     inkscape:window-maximized="1"
     fit-margin-top="0"
     fit-margin-left="0"
     fit-margin-right="0"
     fit-margin-bottom="0" />
  <metadata
     id="metadata4884">
    <rdf:RDF>
      <cc:Work
         rdf:about="">
        <dc:format>image/svg+xml</dc:format>
        <dc:type
           rdf:resource="http://purl.org/dc/dcmitype/StillImage" />
        <dc:title></dc:title>
      </cc:Work>
    </rdf:RDF>
  </metadata>
  <g
     inkscape:label="Layer 1"
     inkscape:groupmode="layer"
     id="layer1"
     transform="translate(-22.093471,-13.369108)">
    <g
       id="g5037"
       transform="matrix(1.488179,0,0,1.488179,-139.31667,-76.429397)">
      <path
         inkscape:connector-curvature="0"
         id="rect12634"
         d="m 136.98495,88.3034 -8.90039,3.6211 0,5.97656 -19.62305,0 0,12.10156 41.16797,0 0,-9.70898 0,-2.39258 0,-9.59766 -12.64453,0 z m 3.91797,5.97852 4.73047,0 0,1.72266 0.006,0 0,4.24218 -4.73243,0 0,-1.72265 -0.004,0 0,-4.24219 z m -8.70117,1.72266 4.73046,0 0,0.0957 0.006,0 0,2.40039 -0.006,0 0,1.74609 -4.73046,0 0,-4.24218 z"
         style="opacity:1;fill:#000000;fill-opacity:1;stroke:none;stroke-width:1.85266209;stroke-miterlimit:4;stroke-dasharray:none;stroke-dashoffset:1.73999989;stroke-opacity:1" />
      <path
         sodipodi:nodetypes="ccccc"
         inkscape:connector-curvature="0"
         id="path12640"
         d="m 113.40281,94.5903 10.24759,0 -1.51816,-21.09636 -7.05669,0 z"
         style="fill:#000000;fill-opacity:1;fill-rule:evenodd;stroke:#000000;stroke-width:0.9808448px;stroke-linecap:butt;stroke-linejoin:miter;stroke-opacity:1" />
      <ellipse
         transform="matrix(0.98936535,-0.14545173,0.14043704,0.99008961,0,0)"
         ry="0.52066487"
         rx="0.96338457"
         cy="87.167152"
         cx="108.83339"
         id="path12642"
         style="opacity:1;fill:#000000;fill-opacity:1;stroke:#000000;stroke-width:1.37219024;stroke-miterlimit:4;stroke-dasharray:none;stroke-dashoffset:1.73999989;stroke-opacity:1" />
      <ellipse
         transform="matrix(0.97969314,-0.20050277,0.10136692,0.99484911,0,0)"
         ry="0.43084791"
         rx="1.2005244"
         cy="90.81604"
         cx="116.94899"
         id="path12644"
         style="opacity:1;fill:#000000;fill-opacity:1;stroke:#000000;stroke-width:1.83116305;stroke-miterlimit:4;stroke-dasharray:none;stroke-dashoffset:1.73999989;stroke-opacity:1" />
      <g
         transform="translate(-215.6619,-425.05903)"
         id="g4590">
        <ellipse
           style="opacity:1;fill:#000000;fill-opacity:1;stroke:#000000;stroke-width:2.65890098;stroke-miterlimit:4;stroke-dasharray:none;stroke-dashoffset:1.73999989;stroke-opacity:1"
           id="path12646"
           cx="272.10498"
           cy="533.60907"
           rx="2.059375"
           ry="0.82374996"
           transform="matrix(0.98973377,-0.14292331,0.14292331,0.98973377,0,0)" />
        <circle
           style="opacity:1;fill:#000000;fill-opacity:1;stroke:#000000;stroke-width:2.65890098;stroke-miterlimit:4;stroke-dasharray:none;stroke-dashoffset:1.73999989;stroke-opacity:1"
           id="path12651"
           cx="273.75247"
           cy="536.02142"
           r="1.3533036"
           transform="matrix(0.98973377,-0.14292331,0.14292331,0.98973377,0,0)" />
        <ellipse
           style="opacity:1;fill:#000000;fill-opacity:1;stroke:#000000;stroke-width:2.65890098;stroke-miterlimit:4;stroke-dasharray:none;stroke-dashoffset:1.73999989;stroke-opacity:1"
           id="path12653"
           cx="277.75354"
           cy="535.96265"
           rx="1.9416964"
           ry="0.35303572"
           transform="matrix(0.98973377,-0.14292331,0.14292331,0.98973377,0,0)" />
        <ellipse
           style="opacity:1;fill:#000000;fill-opacity:1;stroke:#000000;stroke-width:2.65890098;stroke-miterlimit:4;stroke-dasharray:none;stroke-dashoffset:1.73999989;stroke-opacity:1"
           id="path12655"
           cx="274.87042"
           cy="532.84418"
           rx="1.6474999"
           ry="1.3533036"
           transform="matrix(0.98973377,-0.14292331,0.14292331,0.98973377,0,0)" />
        <ellipse
           style="opacity:1;fill:#000000;fill-opacity:1;stroke:#000000;stroke-width:2.65890098;stroke-miterlimit:4;stroke-dasharray:none;stroke-dashoffset:1.73999989;stroke-opacity:1"
           id="path12657"
           cx="279.63641"
           cy="533.64893"
           rx="1.7063392"
           ry="0.41187498"
           transform="matrix(0.98973377,-0.14292331,0.14292331,0.98973377,0,0)" />
      </g>
    </g>
  </g>
</svg>
