<?xml version="1.0" encoding="UTF-8" standalone="no"?>
<!-- Created with Inkscape (http://www.inkscape.org/) -->

<svg
   xmlns:dc="http://purl.org/dc/elements/1.1/"
   xmlns:cc="http://creativecommons.org/ns#"
   xmlns:rdf="http://www.w3.org/1999/02/22-rdf-syntax-ns#"
   xmlns:svg="http://www.w3.org/2000/svg"
   xmlns="http://www.w3.org/2000/svg"
   xmlns:sodipodi="http://sodipodi.sourceforge.net/DTD/sodipodi-0.dtd"
   xmlns:inkscape="http://www.inkscape.org/namespaces/inkscape"
   width="43.40443mm"
   height="14.516931mm"
   viewBox="0 0 153.79523 51.437943"
   id="svg5099"
   version="1.1"
   inkscape:version="0.91 r13725"
   sodipodi:docname="transport.svg">
  <defs
     id="defs5101" />
  <sodipodi:namedview
     id="base"
     pagecolor="#ffffff"
     bordercolor="#666666"
     borderopacity="1.0"
     inkscape:pageopacity="0.0"
     inkscape:pageshadow="2"
     inkscape:zoom="1.979899"
     inkscape:cx="2.0544502"
     inkscape:cy="-64.188254"
     inkscape:document-units="px"
     inkscape:current-layer="g10121"
     showgrid="false"
     fit-margin-top="0"
     fit-margin-left="0"
     fit-margin-right="0"
     fit-margin-bottom="0"
     inkscape:window-width="1920"
     inkscape:window-height="1017"
     inkscape:window-x="-8"
     inkscape:window-y="-8"
     inkscape:window-maximized="1" />
  <metadata
     id="metadata5104">
    <rdf:RDF>
      <cc:Work
         rdf:about="">
        <dc:format>image/svg+xml</dc:format>
        <dc:type
           rdf:resource="http://purl.org/dc/dcmitype/StillImage" />
        <dc:title></dc:title>
      </cc:Work>
    </rdf:RDF>
  </metadata>
  <g
     inkscape:label="Layer 1"
     inkscape:groupmode="layer"
     id="layer1"
     transform="translate(-128.89823,-129.73425)">
    <g
       id="g10121"
       transform="matrix(0.80679102,0,0,0.80679107,-517.08132,-194.86169)">
      <g
         id="g5132">
        <g
           transform="matrix(1.2394783,0,0,1.2394783,-469.0514,-28.113759)"
           id="g4520">
          <path
             id="path8733-6"
             style="opacity:1;fill:#000000;fill-opacity:1;stroke:#000000;stroke-width:0.55251241;stroke-linecap:butt;stroke-linejoin:bevel;stroke-miterlimit:4;stroke-dasharray:none;stroke-dashoffset:0;stroke-opacity:1"
             d="m 1102.9609,347.55486 c 0.4803,0.011 0.9711,0.15684 1.2493,0.43497 0.5415,0.54154 0.569,1.73953 0.054,2.34818 -0.7529,0.88975 -2.0963,0.75372 -2.7734,-0.27963 -0.404,-0.61664 -0.2876,-1.49307 0.2797,-2.12251 0.2403,-0.2667 0.7101,-0.39168 1.1904,-0.38101 z m 4.7634,0 c 0.4803,0.011 0.9694,0.15684 1.2476,0.43497 0.5565,0.55642 0.5874,1.95743 0.054,2.43812 -1.6941,1.52673 -4.0188,-0.79795 -2.492,-2.49208 0.2403,-0.2667 0.7101,-0.39168 1.1904,-0.38101 z m -2.3237,4.22215 c 8.6139,0 9.3916,0.0315 10.3739,0.41043 1.3673,0.52741 2.6082,1.66138 3.3375,3.04316 l 0.5788,1.09396 0.062,12.75147 c 0.07,14.68374 0.1153,14.2531 -1.6941,16.23285 -0.6939,0.75926 -1.4433,1.32662 -2.0587,1.56164 -0.5314,0.20294 -0.9632,0.45361 -0.9632,0.55761 0,0.10406 1.6057,2.60026 3.5714,5.54668 l 3.5762,5.35699 -1.8821,0.0638 c -1.0333,0.0347 -1.9826,0.0219 -2.1111,-0.0278 -0.1286,-0.0497 -1.4015,-1.80666 -2.8306,-3.90328 l -2.5967,-3.81007 -7.3896,-0.003 -7.3846,-0.007 -2.6393,3.89837 -2.6409,3.89673 -2.0473,0 c -1.1247,0 -2.0424,-0.0515 -2.0424,-0.11283 0,-0.0614 1.5623,-2.45411 3.4749,-5.31938 1.9126,-2.86526 3.5216,-5.32331 3.5746,-5.46328 0.054,-0.14365 -0.3463,-0.43599 -0.9174,-0.67044 -1.2916,-0.53026 -2.5624,-1.80374 -3.2263,-3.22956 l -0.5216,-1.1185 0,-12.99348 0,-12.98857 0.5069,-1.08252 c 0.633,-1.35333 2.1092,-2.73113 3.5076,-3.27044 0.9927,-0.38289 1.7433,-0.41371 10.382,-0.41371 z m 0.049,6.38881 c -9.5101,0 -9.637,0.0167 -10.5733,1.32944 -0.4673,0.65512 -0.528,0.99604 -0.5969,3.38982 -0.042,1.46356 -0.012,2.99962 0.065,3.41434 0.1802,0.96076 1.2639,2.20078 2.1454,2.45611 l 0,0.002 c 1.0182,0.29486 16.4094,0.28916 17.5836,-0.007 2.0512,-0.51649 2.6355,-2.01871 2.4316,-6.25309 -0.1173,-2.43441 -0.4823,-3.28599 -1.6827,-3.92781 -0.6997,-0.37397 -1.3811,-0.40389 -9.3731,-0.40389 z m -8.0731,19.9399 c -0.3467,-0.0201 -0.6879,0.0526 -1.1103,0.21258 -1.4479,0.54863 -2.2666,2.14892 -1.8085,3.53699 0.2345,0.71077 1.1333,1.70561 1.7398,1.92629 0.1787,0.0651 0.6454,0.12488 1.0384,0.13409 2.9653,0.0709 3.9655,-4.1931 1.282,-5.46655 -0.443,-0.21021 -0.7946,-0.3233 -1.1414,-0.3434 z m 16.1053,0.0491 c -0.3911,-0.006 -0.786,0.0917 -1.1839,0.28944 -2.2034,1.09502 -2.3628,3.97737 -0.2812,5.09372 2.1583,1.15751 4.5266,-0.41634 4.2548,-2.82731 -0.087,-0.77337 -0.2752,-1.13467 -0.8732,-1.68264 -0.6241,-0.572 -1.2646,-0.864 -1.9165,-0.87321 z"
             inkscape:connector-curvature="0" />
          <path
             style="fill:#000000"
             d="m 1141.8953,397.5302 c -1.4008,-0.86529 -1.8121,-1.53672 -1.9415,-3.16955 -0.1035,-1.3052 -0.248,-1.64462 -0.9958,-2.33916 -0.6395,-0.59395 -0.9208,-1.13092 -1.046,-1.9968 -0.094,-0.65139 -0.1351,-8.61241 -0.091,-17.69114 0.076,-15.56221 0.1093,-16.56477 0.5839,-17.5202 0.7199,-1.44938 1.8382,-2.18535 4.4869,-2.9529 4.3099,-1.24897 7.6804,-1.60754 15.1107,-1.60754 7.4197,0 10.8016,0.35878 15.0866,1.60054 2.724,0.78937 3.6237,1.37221 4.4214,2.86423 0.5922,1.1076 0.5931,1.13143 0.6736,17.61587 0.044,9.07873 0,17.04243 -0.092,17.69712 -0.1253,0.86555 -0.4095,1.41406 -1.0416,2.01023 -0.7365,0.69462 -0.8886,1.05201 -0.9953,2.33935 -0.093,1.12464 -0.2933,1.6985 -0.7696,2.20834 -1.7824,1.90801 -4.0326,1.90581 -5.8184,-0.006 -0.4967,-0.53165 -0.6759,-1.06833 -0.7642,-2.28833 l -0.1152,-1.59376 -10.5856,0 -10.5855,0 -0.1153,1.59377 c -0.088,1.22 -0.2675,1.75668 -0.7642,2.28833 -1.385,1.48253 -3.1822,1.84926 -4.6424,0.94731 z m 3.773,-9.19409 c 1.056,-0.90832 1.056,-2.60928 0,-3.5176 -0.9656,-0.83058 -2.0601,-0.81216 -3.087,0.0519 -1.1595,0.9757 -1.1595,2.43807 0,3.41378 1.0269,0.86407 2.1214,0.88248 3.087,0.0519 z m 27.7967,-0.14089 c 1.0917,-1.09165 1.0758,-2.38521 -0.041,-3.3248 -1.1095,-0.93361 -2.2027,-0.90316 -3.1949,0.089 -0.5311,0.53114 -0.7782,1.04483 -0.7782,1.61791 0,0.57308 0.2471,1.08676 0.7782,1.61791 0.5312,0.53114 1.0449,0.77824 1.6179,0.77824 0.5731,0 1.0868,-0.2471 1.618,-0.77824 z m 0.3571,-9.50043 c 0.3714,-0.1425 0.4212,-1.12738 0.4212,-8.33326 0,-6.00075 -0.085,-8.25653 -0.3195,-8.49115 -0.4614,-0.46134 -31.3808,-0.46134 -31.8421,0 -0.4699,0.46991 -0.4571,16.61988 0.013,16.80969 0.4797,0.19357 31.2239,0.20783 31.7271,0.0147 z m -6.5543,-21.19071 c 0.1757,-0.17573 0.3195,-0.95025 0.3195,-1.72118 0,-1.11333 -0.1059,-1.4584 -0.515,-1.67731 -0.7004,-0.37486 -17.4388,-0.37486 -18.1392,0 -0.409,0.21891 -0.515,0.56398 -0.515,1.67731 0,0.77093 0.1438,1.54545 0.3195,1.72118 0.4576,0.45755 18.0727,0.45755 18.5302,0 z"
             id="path8757"
             inkscape:connector-curvature="0" />
        </g>
        <path
           style="fill:#000000"
           d="m 807.63955,459.88069 c -0.91162,-0.41398 -1.71541,-1.3543 -2.07452,-2.42689 -0.13237,-0.39535 -0.23044,-2.011 -0.23044,-3.7964 l 0,-3.10814 -2.32846,0 -2.32846,0 0,-8.68096 c 0,-9.46554 0.0133,-9.59143 1.18231,-11.18101 0.78944,-1.07348 1.93149,-1.94396 3.09044,-2.35559 l 0.97037,-0.34464 1.76299,-4.56255 c 0.96964,-2.5094 2.12641,-5.50573 2.57059,-6.65851 0.44418,-1.15278 1.09065,-2.51948 1.4366,-3.03712 0.70646,-1.05706 2.19755,-2.14605 3.37118,-2.46207 0.5158,-0.13889 5.78821,-0.19141 15.52117,-0.15461 l 14.74003,0.0557 1.07693,0.59657 c 1.18718,0.65765 2.0597,1.54838 2.64409,2.69927 0.21048,0.41451 1.49491,3.62807 2.85431,7.14124 l 2.47162,6.38759 0.96135,0.34144 c 1.17124,0.41599 2.47505,1.41916 3.16597,2.43594 1.08627,1.5986 1.10019,1.739 1.10019,11.09832 l 0,8.68096 -2.32846,0 -2.32846,0 0,3.10814 c 0,1.7854 -0.0981,3.40105 -0.23043,3.7964 -0.35002,1.04542 -1.11896,1.96146 -2.04158,2.43214 -1.15044,0.58692 -3.2333,0.48292 -4.24758,-0.21207 -1.59376,-1.09206 -1.97222,-2.30437 -1.97939,-6.34058 l -0.005,-2.78403 -16.29922,0 -16.29921,0 -0.005,2.88526 c -0.006,3.30502 -0.14748,4.11875 -0.91058,5.2199 -1.05129,1.51701 -3.42844,2.06872 -5.28357,1.22627 z m 3.92921,-19.03167 c 1.57905,-0.81223 2.47224,-2.28196 2.47224,-4.06804 0,-4.48056 -5.76805,-6.15142 -8.01277,-2.32109 -1.79799,3.06804 0.22753,6.75659 3.71825,6.77109 0.66424,0.003 1.35639,-0.14232 1.82228,-0.38196 z m 40.84294,0.009 c 3.06519,-1.39248 3.37202,-5.8563 0.53763,-7.82136 -0.77838,-0.53963 -1.04417,-0.60867 -2.34325,-0.60867 -1.26064,0 -1.58316,0.078 -2.30929,0.55853 -1.22713,0.81208 -1.87316,1.89841 -2.00705,3.37493 -0.18154,2.00201 0.69039,3.60054 2.47568,4.53876 0.82714,0.43468 2.64282,0.41367 3.64628,-0.0422 z m -3.06673,-14.35241 c -0.28376,-0.75169 -1.15643,-3.09786 -1.93929,-5.21372 -1.73564,-4.69101 -2.02299,-5.2736 -2.84978,-5.77772 -0.6283,-0.38309 -1.107,-0.39625 -14.41816,-0.39625 -13.31115,0 -13.78985,0.0132 -14.41815,0.39625 -0.82679,0.50412 -1.11415,1.08671 -2.84979,5.77772 -0.78285,2.11586 -1.65553,4.46203 -1.93928,5.21372 l -0.51591,1.3667 19.72313,0 19.72314,0 -0.51591,-1.3667 z"
           id="path9063"
           inkscape:connector-curvature="0" />
      </g>
    </g>
  </g>
</svg>
