<?xml version="1.0" encoding="UTF-8" standalone="no"?>
<!-- Created with Inkscape (http://www.inkscape.org/) -->

<svg
   xmlns:dc="http://purl.org/dc/elements/1.1/"
   xmlns:cc="http://creativecommons.org/ns#"
   xmlns:rdf="http://www.w3.org/1999/02/22-rdf-syntax-ns#"
   xmlns:svg="http://www.w3.org/2000/svg"
   xmlns="http://www.w3.org/2000/svg"
   xmlns:sodipodi="http://sodipodi.sourceforge.net/DTD/sodipodi-0.dtd"
   xmlns:inkscape="http://www.inkscape.org/namespaces/inkscape"
   width="16.901587mm"
   height="14.279966mm"
   viewBox="0 0 59.887512 50.598305"
   id="svg4834"
   version="1.1"
   inkscape:version="0.91 r13725"
   sodipodi:docname="BECCS.svg"
   inkscape:export-filename="C:\Users\lamw\Google Drive\Work\Figures\APSIS figures\NETs icons\BECCS.png"
   inkscape:export-xdpi="600.005"
   inkscape:export-ydpi="600.005">
  <defs
     id="defs4836" />
  <sodipodi:namedview
     id="base"
     pagecolor="#ffffff"
     bordercolor="#666666"
     borderopacity="1.0"
     inkscape:pageopacity="0.0"
     inkscape:pageshadow="2"
     inkscape:zoom="1.979899"
     inkscape:cx="-7.3662041"
     inkscape:cy="-86.48667"
     inkscape:document-units="px"
     inkscape:current-layer="layer1"
     showgrid="false"
     fit-margin-top="0"
     fit-margin-left="0"
     fit-margin-right="0"
     fit-margin-bottom="0"
     inkscape:window-width="1920"
     inkscape:window-height="1027"
     inkscape:window-x="-8"
     inkscape:window-y="-8"
     inkscape:window-maximized="1" />
  <metadata
     id="metadata4839">
    <rdf:RDF>
      <cc:Work
         rdf:about="">
        <dc:format>image/svg+xml</dc:format>
        <dc:type
           rdf:resource="http://purl.org/dc/dcmitype/StillImage" />
        <dc:title></dc:title>
      </cc:Work>
    </rdf:RDF>
  </metadata>
  <g
     inkscape:label="Layer 1"
     inkscape:groupmode="layer"
     id="layer1"
     transform="translate(-56.402656,-27.910368)">
    <path
       style="fill:#000000;fill-opacity:1;fill-rule:evenodd;stroke:#000000;stroke-width:0.5;stroke-linecap:butt;stroke-linejoin:miter;stroke-miterlimit:7.33333349;stroke-dasharray:none;stroke-opacity:1"
       d="m 106.98247,28.160475 a 2.4313066,1.3867978 0 0 0 -1.4107,0.259 2.7570319,1.8028371 0 0 0 -1.3579,-0.2367 2.7570319,1.8028371 0 0 0 -2.7111,1.4791 4.8562469,2.9816153 0 0 0 -0.6302,0.371 1.1374437,0.43934369 0 0 0 -0.8477,-0.1471 1.1374437,0.43934369 0 0 0 -0.639796,0.077 2.1197815,2.325937 0 0 0 -1.1708,-0.387 2.1197815,2.325937 0 0 0 -1.4155,0.5981 2.8436093,2.8686557 0 0 0 -1.4283,-0.3918 2.8436093,2.8686557 0 0 0 -2.4903,1.4855 1.8354205,1.6539998 0 0 0 -0.7406,-0.1407 1.8354205,1.6539998 0 0 0 -1.836099,1.6534 1.8354205,1.6539998 0 0 0 0.048,0.3677 1.8095695,0.72362487 0 0 0 -1.1325,-0.1615 1.8095695,0.72362487 0 0 0 -1.5818,0.3726 1.3701026,1.318031 0 0 0 -1.1324,-0.5788 1.3701026,1.318031 0 0 0 -1.3707,1.3175 1.3701026,1.318031 0 0 0 0.1567,0.6109 1.2408477,0.82699989 0 0 0 -0.9341,-0.4222 1.3959536,0.85284358 0 0 0 -0.01,-0.062 0.85308274,0.82699989 0 0 0 0.7838,-0.8235 0.85308274,0.82699989 0 0 0 -0.8525,-0.8267 0.85308274,0.82699989 0 0 0 -0.8542,0.8267 0.85308274,0.82699989 0 0 0 0.01,0.1024 1.3959536,0.85284358 0 0 0 -0.4734,-0.051 1.3959536,0.85284358 0 0 0 -1.3563,0.6572 0.65805881,0.38376004 0 0 0 -0.4591,-0.1104 0.65805881,0.38376004 0 0 0 -0.6573,0.3838 0.65805881,0.38376004 0 0 0 0.091,0.1935 1.1632946,0.64609361 0 0 0 -0.771,0.6076 1.1632946,0.64609361 0 0 0 1.1628,0.646 1.1632946,0.64609361 0 0 0 1.1628,-0.646 1.1632946,0.64609361 0 0 0 -0.072,-0.2255 1.3959536,0.85284358 0 0 0 0.8989,0.1999 1.3959536,0.85284358 0 0 0 0.01,0 1.2408477,0.82699989 0 0 0 1.238,0.7755 1.2408477,0.82699989 0 0 0 1.2412,-0.8266 1.2408477,0.82699989 0 0 0 -0.061,-0.2511 1.3701026,1.318031 0 0 0 0.7469,0.5101 1.8612714,1.111281 0 0 0 1.7418,0.7227 1.8612714,1.111281 0 0 0 1.7498,-0.7355 1.8354205,1.4472498 0 0 0 1.740199,0.9946 1.8354205,1.4472498 0 0 0 1.8362,-1.4487 1.8354205,1.4472498 0 0 0 -0.2016,-0.6572 1.8354205,1.6539998 0 0 0 0.01,0 2.8436093,2.8686557 0 0 0 2.3656,1.2808 2.8436093,2.8686557 0 0 0 0.8781,-0.1439 1.5769105,1.4989372 0 0 0 1.4747,0.9722 1.5769105,1.4989372 0 0 0 0.9837,-0.3294 2.582536,2.4500094 0 0 0 2.144796,1.0873 2.582536,2.4500094 0 0 0 1.6842,-0.5964 2.3847743,2.265103 0 0 0 1.6075,0.5964 2.3847743,2.265103 0 0 0 1.11,-0.2622 2.9664265,1.6872706 0 0 0 2.4039,0.7003 2.9664265,1.6872706 0 0 0 1.8778,-0.3822 1.9078195,1.8143939 0 0 0 0.763,0.1503 1.9078195,1.8143939 0 0 0 1.9065,-1.8132 1.9078195,1.8143939 0 0 0 -0.3007,-0.977 2.6163501,1.6063741 0 0 0 2.2552,-1.5878 2.6163501,1.6063741 0 0 0 -2.1656,-1.583 2.5011047,2.4846794 0 0 0 0,-0.059 2.5011047,2.4846794 0 0 0 -2.5016,-2.4849 2.5011047,2.4846794 0 0 0 -0.4207,0.035 2.4313066,1.3867978 0 0 0 -2.092,-0.6812 l 0,0 z m -6.9224,2.6031 a 1.1374437,0.43934369 0 0 0 0.045,0 4.8562469,2.9816153 0 0 0 -0.027,0.035 2.1197815,2.325937 0 0 0 -0.018,-0.035 z m -10.421995,3.6505 a 1.8354205,1.4472498 0 0 0 -0.051,0.1311 1.8612714,1.111281 0 0 0 -0.099,-0.1199 1.8095695,0.72362487 0 0 0 0.1503,-0.011 z m -7.9733,0.2047 a 1.3959536,0.85284358 0 0 0 0.05,0.067 1.1632946,0.64609361 0 0 0 -0.093,-0.038 0.65805881,0.38376004 0 0 0 0.043,-0.029 z m 17.021399,5.2591 -0.8989,18.518 5.506896,0 -0.8158,-18.518 -3.792196,0 z m 9.590296,0 -0.8989,18.518 5.5085,0 -0.8173,-18.518 -3.7923,0 z m -46.171295,5.0385 c -2.641,-0.023 -5.2959,1.1956 -5.4525,3.7256 l 0.072,29.412 7.7957,0 -0.1232,-17.1972 c 0.3467,-1.9026 1.5053,-3.6492 3.079,-4.6163 l 0,-4.3941 7.0311,0 0,3.8552 c -3.9434,0.2407 -7.6756,2.1218 -8.3507,5.8268 l 0.1232,16.5256 18.4064,0 0,-4.8993 4.149,0 0,5.104 27.204995,0 0,-18.5484 -22.462596,0 0,-7.8639 0,-0.7291 0,-0.2206 -26.101399,0 0,-2.2547 c -0.1028,-2.4383 -2.73,-3.7028 -5.371,-3.7256 z m 13.3522,6.93 17.170099,0 0,7.8639 -3.792299,0 0,12.0564 -4.149,0 0,-10.2383 c -0.4658,-3.7557 -4.7297,-5.7826 -9.0609,-5.8572 -0.056,-8e-4 -0.1119,0 -0.1679,0 l 0,-3.8263 z m 19.583599,10.192 4.8208,0 0,2.9582 -4.8208,0 0,-2.9582 z m 6.605796,0 4.8191,0 0,2.9582 -4.8191,0 0,-2.9582 z m 6.6041,0 4.8207,0 0,2.9582 -4.8207,0 0,-2.9582 z m -13.209896,4.4773 4.8208,0 0,2.9565 -4.8208,0 0,-2.9565 z m 6.605796,0 4.8191,0 0,2.9565 -4.8191,0 0,-2.9565 z m 6.6041,0 4.8207,0 0,2.9565 -4.8207,0 0,-2.9565 z"
       id="path6968-3-7-99"
       inkscape:connector-curvature="0" />
  </g>
</svg>
