<?xml version="1.0" encoding="UTF-8" standalone="no"?>
<!-- Created with Inkscape (http://www.inkscape.org/) -->

<svg
   xmlns:dc="http://purl.org/dc/elements/1.1/"
   xmlns:cc="http://creativecommons.org/ns#"
   xmlns:rdf="http://www.w3.org/1999/02/22-rdf-syntax-ns#"
   xmlns:svg="http://www.w3.org/2000/svg"
   xmlns="http://www.w3.org/2000/svg"
   xmlns:sodipodi="http://sodipodi.sourceforge.net/DTD/sodipodi-0.dtd"
   xmlns:inkscape="http://www.inkscape.org/namespaces/inkscape"
   width="27.513561mm"
   height="14.676329mm"
   viewBox="0 0 97.488997 52.002739"
   id="svg6073"
   version="1.1"
   inkscape:version="0.91 r13725"
   sodipodi:docname="Enhanced Weathering.svg">
  <defs
     id="defs6075" />
  <sodipodi:namedview
     id="base"
     pagecolor="#ffffff"
     bordercolor="#666666"
     borderopacity="1.0"
     inkscape:pageopacity="0.0"
     inkscape:pageshadow="2"
     inkscape:zoom="0.35"
     inkscape:cx="292.31592"
     inkscape:cy="-379.71292"
     inkscape:document-units="px"
     inkscape:current-layer="layer1"
     showgrid="false"
     fit-margin-top="0"
     fit-margin-left="0"
     fit-margin-right="0"
     fit-margin-bottom="0"
     inkscape:window-width="1920"
     inkscape:window-height="1017"
     inkscape:window-x="-8"
     inkscape:window-y="-8"
     inkscape:window-maximized="1" />
  <metadata
     id="metadata6078">
    <rdf:RDF>
      <cc:Work
         rdf:about="">
        <dc:format>image/svg+xml</dc:format>
        <dc:type
           rdf:resource="http://purl.org/dc/dcmitype/StillImage" />
        <dc:title></dc:title>
      </cc:Work>
    </rdf:RDF>
  </metadata>
  <g
     inkscape:label="Layer 1"
     inkscape:groupmode="layer"
     id="layer1"
     transform="translate(-82.684076,-100.64655)">
    <path
       style="fill:#000000;fill-opacity:1;fill-rule:evenodd;stroke:#000000;stroke-width:0.68763906px;stroke-linecap:butt;stroke-linejoin:miter;stroke-opacity:1"
       d="m 83.097988,138.28531 0.98234,-1.65772 -0.49117,-3.3154 1.47351,-1.35072 2.33307,1.22793 0,2.08747 2.08747,-0.12279 -0.24558,3.19261 -2.70144,0.49118 -0.92095,1.41212 -1.53491,-0.67537 z"
       id="path19318"
       inkscape:connector-curvature="0"
       sodipodi:nodetypes="cccccccccccc" />
    <path
       style="fill:#000000;fill-opacity:1;fill-rule:evenodd;stroke:#000000;stroke-width:0.95125997px;stroke-linecap:butt;stroke-linejoin:miter;stroke-opacity:1"
       d="m 111.18827,147.7335 2.61469,0.15512 3.69469,-2.76043 2.5511,0.96801 -0.0242,3.71213 -4.31043,2.10197 -5.3242,0.24254 -0.1441,-2.35641 z"
       id="path19318-0"
       inkscape:connector-curvature="0"
       sodipodi:nodetypes="ccccccccc" />
    <path
       style="fill:#000000;fill-opacity:1;fill-rule:evenodd;stroke:#000000;stroke-width:0.47022811px;stroke-linecap:butt;stroke-linejoin:miter;stroke-opacity:1"
       d="m 99.600758,131.08053 1.515302,-0.25763 1.12636,-0.74131 1.81628,0.20376 -0.0122,1.80286 -0.30203,1.05588 -0.23473,0.82948 -2.01598,0.85465 -1.4473,-0.58704 -0.847412,-1.01431 -0.0725,-1.14443 z"
       id="path19318-0-1"
       inkscape:connector-curvature="0"
       sodipodi:nodetypes="cccccccccccc" />
    <path
       style="fill:#000000;fill-opacity:1;fill-rule:evenodd;stroke:#000000;stroke-width:0.80992639px;stroke-linecap:butt;stroke-linejoin:miter;stroke-opacity:1"
       d="m 103.98749,143.99191 1.18069,-1.91338 -0.59034,-3.82672 1.77106,-1.55904 2.80418,1.41731 0,2.40942 2.50899,-0.14173 -0.29518,3.68499 -3.24694,0.56694 -1.10691,1.62989 -1.84486,-0.77952 z"
       id="path19318-7"
       inkscape:connector-curvature="0"
       sodipodi:nodetypes="cccccccccccc" />
    <path
       style="fill:#000000;fill-opacity:1;fill-rule:evenodd;stroke:#000000;stroke-width:0.68763906px;stroke-linecap:butt;stroke-linejoin:miter;stroke-opacity:1"
       d="m 93.131728,138.165 2.21591,-0.37675 1.64714,-1.08405 2.65604,0.29797 -0.0178,2.63641 -0.44168,1.54407 -0.34326,1.213 -2.94806,1.24979 -2.11647,-0.85846 -1.23921,-1.48327 -0.10601,-1.67357 z"
       id="path19318-0-1-9"
       inkscape:connector-curvature="0"
       sodipodi:nodetypes="cccccccccccc" />
    <path
       style="fill:#000000;fill-opacity:1;fill-rule:evenodd;stroke:#000000;stroke-width:0.68763906px;stroke-linecap:butt;stroke-linejoin:miter;stroke-opacity:1"
       d="m 93.419978,148.66459 1.92376,0.11017 2.71837,-1.96051 1.87697,0.6875 -0.0178,2.63642 -3.1714,1.49286 -3.91728,0.17226 -0.10602,-1.67357 z"
       id="path19318-0-6"
       inkscape:connector-curvature="0"
       sodipodi:nodetypes="ccccccccc" />
    <path
       style="fill:#000000;fill-opacity:1;fill-rule:evenodd;stroke:#000000;stroke-width:0.39258131px;stroke-linecap:butt;stroke-linejoin:miter;stroke-opacity:1"
       d="m 103.32407,148.98746 1.26509,-0.21509 0.94037,-0.6189 1.51636,0.17012 -0.0102,1.50515 -0.25216,0.88153 -0.19596,0.69252 -1.68309,0.71352 -1.20832,-0.49011 -0.70748,-0.84681 -0.0605,-0.95547 z"
       id="path19318-0-1-1"
       inkscape:connector-curvature="0"
       sodipodi:nodetypes="cccccccccccc" />
    <path
       style="fill:#000000;fill-opacity:1;fill-rule:evenodd;stroke:#000000;stroke-width:0.68763906px;stroke-linecap:butt;stroke-linejoin:miter;stroke-opacity:1"
       d="m 123.03676,149.69168 0.98234,-1.65772 -0.49117,-3.3154 1.47351,-1.35072 2.33307,1.22793 0,2.08747 2.08747,-0.12279 -0.24558,3.19261 -2.70144,0.49118 -0.92095,1.41212 -1.53491,-0.67537 z"
       id="path19318-2"
       inkscape:connector-curvature="0"
       sodipodi:nodetypes="cccccccccccc" />
    <path
       style="fill:#000000;fill-opacity:1;fill-rule:evenodd;stroke:#000000;stroke-width:0.68763906px;stroke-linecap:butt;stroke-linejoin:miter;stroke-opacity:1"
       d="m 115.9259,140.13388 1.92376,0.11017 2.71837,-1.96051 1.87697,0.6875 -0.0178,2.63642 -3.1714,1.49286 -3.91728,0.17226 -0.10602,-1.67357 z"
       id="path19318-0-6-7"
       inkscape:connector-curvature="0"
       sodipodi:nodetypes="ccccccccc" />
    <path
       style="fill:#000000;fill-opacity:1;fill-rule:evenodd;stroke:#000000;stroke-width:0.39258131px;stroke-linecap:butt;stroke-linejoin:miter;stroke-opacity:1"
       d="m 87.975678,144.72643 1.26509,-0.21509 0.94037,-0.6189 1.51636,0.17012 -0.0102,1.50515 -0.25216,0.88153 -0.19596,0.69252 -1.68309,0.71352 -1.20832,-0.49011 -0.70748,-0.84681 -0.0605,-0.95547 z"
       id="path19318-0-1-1-1"
       inkscape:connector-curvature="0"
       sodipodi:nodetypes="cccccccccccc" />
    <g
       id="g4695"
       transform="translate(-425.72842,-397.43821)">
      <path
         sodipodi:nodetypes="ccssscscsssssss"
         inkscape:connector-curvature="0"
         id="path4512"
         d="m 597.81002,521.83379 c 2.78763,0.003 3.44408,-0.0363 5.26774,0.0267 1.71965,0 2.82373,2.30356 2.82373,4.13592 0,2.06934 -1.13683,4.05048 -3.20607,4.05048 l -30.08497,0 c -2.48174,0 -4.27337,-1.01136 -4.27337,-4.01375 -0.002,-3.01062 1.96213,-4.17265 4.27337,-4.17265 1.4998,0 16.83668,-0.0359 25.19957,-0.0267 z m 4.01373,2.19018 -29.31244,0 c -1.41615,0 -2.1115,0.77197 -2.1115,1.9337 0,1.33392 0.73016,1.89911 2.1115,1.89911 l 29.31244,0 c 1.09358,0 1.97934,-0.76676 1.97934,-1.86034 0,-1.09358 -0.88576,-1.97247 -1.97934,-1.97247 z"
         style="fill:#000000" />
      <path
         sodipodi:nodetypes="cscsccsccscscccscccsccscscscccc"
         inkscape:connector-curvature="0"
         d="m 585.31682,512.97555 c -0.2505,-0.25049 -0.45546,-0.6185 -0.45546,-0.81781 0,-0.7129 1.99562,-7.27537 2.32211,-7.63615 0.30806,-0.34041 0.57766,-0.36808 3.5859,-0.36808 4.31089,0 4.11387,-0.16405 4.10577,3.41863 -0.18913,1.32003 0.002,5.12475 -0.7555,5.41791 -0.90798,0.261 -3.69941,0.44984 -4.76941,0.47869 -1.38969,0.0375 -3.30003,0.24019 -4.03341,-0.49319 z m 20.10947,8.05755 c 0,-2.06932 0.77458,-5.87253 -2.09173,-5.87253 -2.43592,0 -0.0786,-0.004 -2.35406,-0.004 -0.52981,-3.05528 -0.66751,-3.60164 -1.25482,-6.22788 l -1.06785,-4.77498 0.67268,0 0.67268,0 -0.11384,-1.03427 c -0.12049,-1.09466 -0.29248,-1.30558 -1.20456,-1.4771 -0.30615,-0.0576 -3.74175,-0.0797 -7.63464,-0.0491 -6.65645,0.0522 -7.10126,0.0766 -7.46838,0.40904 -0.29315,0.26544 -0.39038,0.57456 -0.39038,1.24126 0,0.87399 0.01,0.88868 0.62865,0.94537 l 0.62865,0.0576 -1.30115,4.54597 c -0.71563,2.50028 -1.31164,4.55838 -1.32446,4.57355 -0.0128,0.0152 -2.53846,0.27889 -5.61253,0.58604 -3.84433,0.38411 -5.7694,0.65162 -6.16638,0.85692 -0.97976,0.50664 -1.21319,1.20457 -1.29243,3.864 l -0.0705,2.36577 7.85842,0 c 9.76214,-0.006 20.35152,-0.008 28.88661,-0.006 z"
         style="fill:#000000"
         id="path11308-5" />
      <g
         transform="matrix(-0.8073224,0,0,0.8073224,1053.9246,-55.323101)"
         id="g4627">
        <circle
           style="color:#000000;clip-rule:nonzero;display:inline;overflow:visible;visibility:visible;opacity:1;isolation:auto;mix-blend-mode:normal;color-interpolation:sRGB;color-interpolation-filters:linearRGB;solid-color:#000000;solid-opacity:1;fill:#000000;fill-opacity:1;fill-rule:nonzero;stroke:none;stroke-width:2;stroke-linecap:butt;stroke-linejoin:miter;stroke-miterlimit:4;stroke-dasharray:none;stroke-dashoffset:0;stroke-opacity:1;color-rendering:auto;image-rendering:auto;shape-rendering:auto;text-rendering:auto;enable-background:accumulate"
           id="path4559"
           cx="562.2381"
           cy="720.04974"
           r="1.8119612" />
        <circle
           style="color:#000000;clip-rule:nonzero;display:inline;overflow:visible;visibility:visible;opacity:1;isolation:auto;mix-blend-mode:normal;color-interpolation:sRGB;color-interpolation-filters:linearRGB;solid-color:#000000;solid-opacity:1;fill:#000000;fill-opacity:1;fill-rule:nonzero;stroke:none;stroke-width:2;stroke-linecap:butt;stroke-linejoin:miter;stroke-miterlimit:4;stroke-dasharray:none;stroke-dashoffset:0;stroke-opacity:1;color-rendering:auto;image-rendering:auto;shape-rendering:auto;text-rendering:auto;enable-background:accumulate"
           id="path4559-5"
           cx="594.19043"
           cy="719.91724"
           r="1.8119612" />
        <circle
           style="color:#000000;clip-rule:nonzero;display:inline;overflow:visible;visibility:visible;opacity:1;isolation:auto;mix-blend-mode:normal;color-interpolation:sRGB;color-interpolation-filters:linearRGB;solid-color:#000000;solid-opacity:1;fill:#000000;fill-opacity:1;fill-rule:nonzero;stroke:none;stroke-width:2;stroke-linecap:butt;stroke-linejoin:miter;stroke-miterlimit:4;stroke-dasharray:none;stroke-dashoffset:0;stroke-opacity:1;color-rendering:auto;image-rendering:auto;shape-rendering:auto;text-rendering:auto;enable-background:accumulate"
           id="path4559-1"
           cx="572.88885"
           cy="719.96136"
           r="1.8119612" />
        <circle
           style="color:#000000;clip-rule:nonzero;display:inline;overflow:visible;visibility:visible;opacity:1;isolation:auto;mix-blend-mode:normal;color-interpolation:sRGB;color-interpolation-filters:linearRGB;solid-color:#000000;solid-opacity:1;fill:#000000;fill-opacity:1;fill-rule:nonzero;stroke:none;stroke-width:2;stroke-linecap:butt;stroke-linejoin:miter;stroke-miterlimit:4;stroke-dasharray:none;stroke-dashoffset:0;stroke-opacity:1;color-rendering:auto;image-rendering:auto;shape-rendering:auto;text-rendering:auto;enable-background:accumulate"
           id="path4559-10"
           cx="583.53967"
           cy="720.04974"
           r="1.8119612" />
      </g>
      <path
         inkscape:connector-curvature="0"
         id="path4633"
         d="m 575.11899,512.82663 -5.49353,0.65421 -12.44494,-11.01688 -0.63177,-3.43898 z"
         style="fill:#000000;fill-opacity:1;fill-rule:evenodd;stroke:#000000;stroke-width:0.80732238px;stroke-linecap:butt;stroke-linejoin:miter;stroke-opacity:1"
         sodipodi:nodetypes="ccccc" />
      <path
         sodipodi:nodetypes="ccccc"
         inkscape:connector-curvature="0"
         id="path4635"
         d="m 556.1988,502.71687 -0.85095,-4.63211 -14.68256,18.88935 4.89463,0.0127 z"
         style="fill:#000000;fill-opacity:1;fill-rule:evenodd;stroke:none;stroke-width:1px;stroke-linecap:butt;stroke-linejoin:miter;stroke-opacity:1" />
      <path
         sodipodi:nodetypes="ccsscsc"
         inkscape:connector-curvature="0"
         id="path4639"
         d="m 545.39322,517.66948 -5.24759,0.008 c 0,0 -3.41968,4.58034 -3.52065,7.27142 -0.038,1.01124 0.10252,2.82547 1.1145,2.82388 l 14.0272,-0.022 -0.4545,-0.91709 c -0.0954,-0.19259 -7.69521,-3.6631 -5.91896,-9.16447 z"
         style="fill:#000000;fill-opacity:1;fill-rule:evenodd;stroke:none;stroke-width:1px;stroke-linecap:butt;stroke-linejoin:miter;stroke-opacity:1" />
    </g>
  </g>
</svg>
