<?xml version="1.0" encoding="UTF-8" standalone="no"?>
<!-- Created with Inkscape (http://www.inkscape.org/) -->

<svg
   xmlns:dc="http://purl.org/dc/elements/1.1/"
   xmlns:cc="http://creativecommons.org/ns#"
   xmlns:rdf="http://www.w3.org/1999/02/22-rdf-syntax-ns#"
   xmlns:svg="http://www.w3.org/2000/svg"
   xmlns="http://www.w3.org/2000/svg"
   xmlns:sodipodi="http://sodipodi.sourceforge.net/DTD/sodipodi-0.dtd"
   xmlns:inkscape="http://www.inkscape.org/namespaces/inkscape"
   width="20.480291mm"
   height="11.369416mm"
   viewBox="0 0 72.567962 40.285333"
   id="svg6073"
   version="1.1"
   inkscape:version="0.91 r13725"
   sodipodi:docname="Enhanced Weathering.svg"
   inkscape:export-filename="C:\Users\lamw\Google Drive\Work\Figures\APSIS figures\NETs icons\Enhanced Weathering.png"
   inkscape:export-xdpi="600.005"
   inkscape:export-ydpi="600.005">
  <defs
     id="defs6075" />
  <sodipodi:namedview
     id="base"
     pagecolor="#ffffff"
     bordercolor="#666666"
     borderopacity="1.0"
     inkscape:pageopacity="0.0"
     inkscape:pageshadow="2"
     inkscape:zoom="1.4"
     inkscape:cx="-62.459704"
     inkscape:cy="-98.204704"
     inkscape:document-units="px"
     inkscape:current-layer="layer1"
     showgrid="false"
     fit-margin-top="0"
     fit-margin-left="0"
     fit-margin-right="0"
     fit-margin-bottom="0"
     inkscape:window-width="1920"
     inkscape:window-height="1027"
     inkscape:window-x="-8"
     inkscape:window-y="-8"
     inkscape:window-maximized="1" />
  <metadata
     id="metadata6078">
    <rdf:RDF>
      <cc:Work
         rdf:about="">
        <dc:format>image/svg+xml</dc:format>
        <dc:type
           rdf:resource="http://purl.org/dc/dcmitype/StillImage" />
        <dc:title></dc:title>
      </cc:Work>
    </rdf:RDF>
  </metadata>
  <g
     inkscape:label="Layer 1"
     inkscape:groupmode="layer"
     id="layer1"
     transform="translate(-89.971523,-104.64948)">
    <g
       transform="translate(-64.243675,80.636121)"
       id="g10080">
      <path
         sodipodi:nodetypes="cccccccccccc"
         inkscape:connector-curvature="0"
         id="path19318-0-1"
         d="m 172.85362,47.161698 1.5153,-0.25763 1.12636,-0.74131 1.81628,0.20376 -0.0122,1.80286 -0.30203,1.05588 -0.23473,0.82948 -2.01598,0.85465 -1.4473,-0.58704 -0.84741,-1.01431 -0.0725,-1.14443 z"
         style="fill:#000000;fill-opacity:1;fill-rule:evenodd;stroke:#000000;stroke-width:0.47022811px;stroke-linecap:butt;stroke-linejoin:miter;stroke-opacity:1" />
      <path
         inkscape:transform-center-y="0.35255034"
         inkscape:transform-center-x="4.2525666"
         sodipodi:nodetypes="cccccccccccc"
         inkscape:connector-curvature="0"
         id="path19318-7"
         d="m 164.99953,56.995571 2.02513,-0.976673 1.56288,-3.542554 2.33185,-0.360215 1.59993,2.704145 -1.29726,2.030374 2.19059,1.231437 -2.23278,2.946346 -3.04139,-1.270441 -1.81032,0.777506 -1.13493,-1.650182 z"
         style="fill:#000000;fill-opacity:1;fill-rule:evenodd;stroke:#000000;stroke-width:0.80992639px;stroke-linecap:butt;stroke-linejoin:miter;stroke-opacity:1" />
      <path
         sodipodi:nodetypes="cccccccccccc"
         inkscape:connector-curvature="0"
         id="path19318-0-1-1"
         d="m 175.67993,63.606179 -0.10088,-1.279274 -0.53216,-0.992039 0.3053,-1.495019 1.49818,0.145014 0.85539,0.330127 0.67218,0.257219 0.55985,1.740249 -0.5964,1.159549 -0.90679,0.628764 -0.95705,-0.02535 z"
         style="fill:#000000;fill-opacity:1;fill-rule:evenodd;stroke:#000000;stroke-width:0.39258131px;stroke-linecap:butt;stroke-linejoin:miter;stroke-opacity:1" />
      <path
         sodipodi:nodetypes="ccccccccc"
         inkscape:connector-curvature="0"
         id="path19318-0-6-7"
         d="m 176.42559,53.815935 1.92376,0.11017 2.71837,-1.96051 1.87697,0.6875 -0.0178,2.63642 -3.1714,1.49286 -3.91728,0.17226 -0.10602,-1.67357 z"
         style="fill:#000000;fill-opacity:1;fill-rule:evenodd;stroke:#000000;stroke-width:0.68763906px;stroke-linecap:butt;stroke-linejoin:miter;stroke-opacity:1" />
      <path
         sodipodi:nodetypes="ccssscscsssssss"
         inkscape:connector-curvature="0"
         id="path4512"
         d="m 218.69169,54.36635 c 2.78763,0.003 3.44408,-0.0363 5.26774,0.0267 1.71965,0 2.82373,2.30356 2.82373,4.13592 0,2.06934 -1.13683,4.05048 -3.20607,4.05048 l -30.08497,0 c -2.48174,0 -4.27337,-1.01136 -4.27337,-4.01375 -0.002,-3.01062 1.96213,-4.17265 4.27337,-4.17265 1.4998,0 16.83668,-0.0359 25.19957,-0.0267 z m 4.01373,2.19018 -29.31244,0 c -1.41615,0 -2.1115,0.77197 -2.1115,1.9337 0,1.33392 0.73016,1.89911 2.1115,1.89911 l 29.31244,0 c 1.09358,0 1.97934,-0.76676 1.97934,-1.86034 0,-1.09358 -0.88576,-1.97247 -1.97934,-1.97247 z"
         style="fill:#000000" />
      <path
         sodipodi:nodetypes="cscsccsccscscccscccsccscscscccc"
         inkscape:connector-curvature="0"
         d="m 206.19849,45.50811 c -0.2505,-0.25049 -0.45546,-0.6185 -0.45546,-0.81781 0,-0.7129 1.99562,-7.27537 2.32211,-7.63615 0.30806,-0.34041 0.57766,-0.36808 3.5859,-0.36808 4.31089,0 4.11387,-0.16405 4.10577,3.41863 -0.18913,1.32003 0.002,5.12475 -0.7555,5.41791 -0.90798,0.261 -3.69941,0.44984 -4.76941,0.47869 -1.38969,0.0375 -3.30003,0.24019 -4.03341,-0.49319 z m 20.10947,8.05755 c 0,-2.06932 0.77458,-5.87253 -2.09173,-5.87253 -2.43592,0 -0.0786,-0.004 -2.35406,-0.004 -0.52981,-3.05528 -0.66751,-3.60164 -1.25482,-6.22788 l -1.06785,-4.77498 0.67268,0 0.67268,0 -0.11384,-1.03427 c -0.12049,-1.09466 -0.29248,-1.30558 -1.20456,-1.4771 -0.30615,-0.0576 -3.74175,-0.0797 -7.63464,-0.0491 -6.65645,0.0522 -7.10126,0.0766 -7.46838,0.40904 -0.29315,0.26544 -0.39038,0.57456 -0.39038,1.24126 0,0.87399 0.01,0.88868 0.62865,0.94537 l 0.62865,0.0576 -1.30115,4.54597 c -0.71563,2.50028 -1.31164,4.55838 -1.32446,4.57355 -0.0128,0.0152 -2.53846,0.27889 -5.61253,0.58604 -3.84433,0.38411 -5.7694,0.65162 -6.16638,0.85692 -0.97976,0.50664 -1.21319,1.20457 -1.29243,3.864 l -0.0705,2.36577 7.85842,0 c 9.76214,-0.006 20.35152,-0.008 28.88661,-0.006 z"
         style="fill:#000000"
         id="path11308-5" />
      <g
         transform="matrix(-0.8073224,0,0,0.8073224,674.80627,-522.79054)"
         id="g4627">
        <circle
           style="color:#000000;clip-rule:nonzero;display:inline;overflow:visible;visibility:visible;opacity:1;isolation:auto;mix-blend-mode:normal;color-interpolation:sRGB;color-interpolation-filters:linearRGB;solid-color:#000000;solid-opacity:1;fill:#000000;fill-opacity:1;fill-rule:nonzero;stroke:none;stroke-width:2;stroke-linecap:butt;stroke-linejoin:miter;stroke-miterlimit:4;stroke-dasharray:none;stroke-dashoffset:0;stroke-opacity:1;color-rendering:auto;image-rendering:auto;shape-rendering:auto;text-rendering:auto;enable-background:accumulate"
           id="path4559"
           cx="562.2381"
           cy="720.04974"
           r="1.8119612" />
        <circle
           style="color:#000000;clip-rule:nonzero;display:inline;overflow:visible;visibility:visible;opacity:1;isolation:auto;mix-blend-mode:normal;color-interpolation:sRGB;color-interpolation-filters:linearRGB;solid-color:#000000;solid-opacity:1;fill:#000000;fill-opacity:1;fill-rule:nonzero;stroke:none;stroke-width:2;stroke-linecap:butt;stroke-linejoin:miter;stroke-miterlimit:4;stroke-dasharray:none;stroke-dashoffset:0;stroke-opacity:1;color-rendering:auto;image-rendering:auto;shape-rendering:auto;text-rendering:auto;enable-background:accumulate"
           id="path4559-5"
           cx="594.19043"
           cy="719.91724"
           r="1.8119612" />
        <circle
           style="color:#000000;clip-rule:nonzero;display:inline;overflow:visible;visibility:visible;opacity:1;isolation:auto;mix-blend-mode:normal;color-interpolation:sRGB;color-interpolation-filters:linearRGB;solid-color:#000000;solid-opacity:1;fill:#000000;fill-opacity:1;fill-rule:nonzero;stroke:none;stroke-width:2;stroke-linecap:butt;stroke-linejoin:miter;stroke-miterlimit:4;stroke-dasharray:none;stroke-dashoffset:0;stroke-opacity:1;color-rendering:auto;image-rendering:auto;shape-rendering:auto;text-rendering:auto;enable-background:accumulate"
           id="path4559-1"
           cx="572.88885"
           cy="719.96136"
           r="1.8119612" />
        <circle
           style="color:#000000;clip-rule:nonzero;display:inline;overflow:visible;visibility:visible;opacity:1;isolation:auto;mix-blend-mode:normal;color-interpolation:sRGB;color-interpolation-filters:linearRGB;solid-color:#000000;solid-opacity:1;fill:#000000;fill-opacity:1;fill-rule:nonzero;stroke:none;stroke-width:2;stroke-linecap:butt;stroke-linejoin:miter;stroke-miterlimit:4;stroke-dasharray:none;stroke-dashoffset:0;stroke-opacity:1;color-rendering:auto;image-rendering:auto;shape-rendering:auto;text-rendering:auto;enable-background:accumulate"
           id="path4559-10"
           cx="583.53967"
           cy="720.04974"
           r="1.8119612" />
      </g>
      <path
         inkscape:connector-curvature="0"
         id="path4633"
         d="m 195.4481,45.59175 -4.12059,0.523302 -7.84539,-17.356639 0.84759,-3.392242 z"
         style="fill:#000000;fill-opacity:1;fill-rule:evenodd;stroke:#000000;stroke-width:0.80732238px;stroke-linecap:butt;stroke-linejoin:miter;stroke-opacity:1"
         sodipodi:nodetypes="ccccc" />
      <path
         sodipodi:nodetypes="ccccc"
         inkscape:connector-curvature="0"
         id="path4635"
         d="m 182.48372,28.582512 1.14166,-4.569154 -19.79797,10.720801 3.06692,2.438331 z"
         style="fill:#000000;fill-opacity:1;fill-rule:evenodd;stroke:none;stroke-width:1px;stroke-linecap:butt;stroke-linejoin:miter;stroke-opacity:1" />
      <path
         sodipodi:nodetypes="ccsscsc"
         inkscape:connector-curvature="0"
         id="path4639"
         d="m 166.82014,38.460318 -4.06219,-3.322033 c 0,0 -5.5489,1.372349 -7.33376,3.388886 -0.67074,0.757728 -1.71275,2.249503 -0.92934,2.890108 l 10.85892,8.879565 0.23022,-0.997307 c 0.0486,-0.20936 -3.62618,-7.712674 1.23628,-10.83943 z"
         style="fill:#000000;fill-opacity:1;fill-rule:evenodd;stroke:none;stroke-width:1px;stroke-linecap:butt;stroke-linejoin:miter;stroke-opacity:1" />
    </g>
  </g>
</svg>
