<?xml version="1.0" encoding="UTF-8" standalone="no"?>
<!-- Created with Inkscape (http://www.inkscape.org/) -->

<svg
   xmlns:dc="http://purl.org/dc/elements/1.1/"
   xmlns:cc="http://creativecommons.org/ns#"
   xmlns:rdf="http://www.w3.org/1999/02/22-rdf-syntax-ns#"
   xmlns:svg="http://www.w3.org/2000/svg"
   xmlns="http://www.w3.org/2000/svg"
   xmlns:sodipodi="http://sodipodi.sourceforge.net/DTD/sodipodi-0.dtd"
   xmlns:inkscape="http://www.inkscape.org/namespaces/inkscape"
   width="33.044174mm"
   height="14.603568mm"
   viewBox="0 0 117.08566 51.744926"
   id="svg6145"
   version="1.1"
   inkscape:version="0.91 r13725"
   sodipodi:docname="Ocean Ferlization Alkalanisation.svg">
  <defs
     id="defs6147" />
  <sodipodi:namedview
     id="base"
     pagecolor="#ffffff"
     bordercolor="#666666"
     borderopacity="1.0"
     inkscape:pageopacity="0.0"
     inkscape:pageshadow="2"
     inkscape:zoom="0.35"
     inkscape:cx="330.68568"
     inkscape:cy="-402.69897"
     inkscape:document-units="px"
     inkscape:current-layer="layer1"
     showgrid="false"
     inkscape:window-width="1920"
     inkscape:window-height="1017"
     inkscape:window-x="-8"
     inkscape:window-y="-8"
     inkscape:window-maximized="1"
     fit-margin-top="0"
     fit-margin-left="0"
     fit-margin-right="0"
     fit-margin-bottom="0" />
  <metadata
     id="metadata6150">
    <rdf:RDF>
      <cc:Work
         rdf:about="">
        <dc:format>image/svg+xml</dc:format>
        <dc:type
           rdf:resource="http://purl.org/dc/dcmitype/StillImage" />
        <dc:title></dc:title>
      </cc:Work>
    </rdf:RDF>
  </metadata>
  <g
     inkscape:label="Layer 1"
     inkscape:groupmode="layer"
     id="layer1"
     transform="translate(-44.314318,-77.918311)">
    <path
       style="fill:#000000;fill-opacity:1;fill-rule:evenodd;stroke:#000000;stroke-width:0.47022811px;stroke-linecap:butt;stroke-linejoin:miter;stroke-opacity:1"
       d="m 48.886791,113.05983 0.70262,1.36705 1.04649,0.85035 0.35348,1.79317 -1.7226,0.53207 -1.0978,0.0305 -0.86165,0.0264 -1.42284,-1.66437 0.12323,-1.55695 0.71152,-1.11385 1.06928,-0.41427 z"
       id="path19318-0-1-14-0"
       inkscape:connector-curvature="0"
       sodipodi:nodetypes="cccccccccccc" />
    <path
       style="fill:#000000;fill-opacity:1;fill-rule:evenodd;stroke:#000000;stroke-width:0.80992639px;stroke-linecap:butt;stroke-linejoin:miter;stroke-opacity:1"
       d="m 65.095961,123.87737 -2.1601,0.62374 -2.13406,3.2308 -2.35923,-0.0354 -1.1245,-2.93389 1.61895,-1.78445 -1.95343,-1.5809 2.69467,-2.53082 2.78568,1.76182 1.91496,-0.46337 0.84256,1.81695 z"
       id="path19318-7-5"
       inkscape:connector-curvature="0"
       sodipodi:nodetypes="cccccccccccc" />
    <path
       style="fill:#000000;fill-opacity:1;fill-rule:evenodd;stroke:#000000;stroke-width:0.68763906px;stroke-linecap:butt;stroke-linejoin:miter;stroke-opacity:1"
       d="m 51.280771,127.03043 -1.92597,0.0603 -2.53446,2.1931 -1.93039,-0.51894 -0.21528,-2.62767 3.02706,-1.76731 3.88672,-0.51779 0.25353,1.65766 z"
       id="path19318-0-6-6"
       inkscape:connector-curvature="0"
       sodipodi:nodetypes="ccccccccc"
       inkscape:transform-center-x="-9.031305"
       inkscape:transform-center-y="13.019583" />
    <path
       style="fill:#000000;fill-opacity:1;fill-rule:evenodd;stroke:#000000;stroke-width:0.79412401px;stroke-linecap:butt;stroke-linejoin:miter;stroke-opacity:1"
       d="m 57.882471,108.44885 1.38348,1.69331 3.78459,0.70761 0.84834,2.11398 -2.29315,2.08452 -3.72849,-1.4581 -3.16001,-3.13221 1.36547,-1.42114 z"
       id="path19318-0-11"
       inkscape:connector-curvature="0"
       sodipodi:nodetypes="ccccccccc" />
    <path
       style="fill:#000000"
       d="m 102.02706,105.683 c -0.21727,-0.2092 -0.26922,-0.7735 -0.14743,-1.60147 l 0.18803,-1.27845 -1.87754,-1.49987 c -2.662329,-2.126797 -3.252309,-3.227877 -3.406039,-6.356659 l -0.12364,-2.51617 20.336299,0 20.33628,0 0.48523,-0.81308 c 0.27877,-0.46711 0.76924,-0.86832 1.15272,-0.94292 0.36712,-0.0714 5.56383,-0.10057 11.54825,-0.0646 l 10.88075,0.0652 -4.00839,6.669752 c -2.45683,4.088047 -4.3516,6.945267 -4.8951,7.381517 -0.4877,0.39147 -1.4206,0.83957 -2.07313,0.99579 -1.85476,0.44403 -47.93319,0.40693 -48.39632,-0.039 z m -2.958409,-20.040439 0,-5.85155 -1.75754,0 -1.75754,0 0,-0.93625 0,-0.93625 3.95447,0 c 2.685539,0 1.939539,-8e-4 9.300289,8e-4 l 4.17416,7.9e-4 -1.39138,0.95296 -1.39138,0.95293 0,5.83337 0,5.83335 -5.56553,0 -5.565549,0 0,-5.85156 z m 9.080609,1.05329 0,-1.28736 -1.75753,0 -1.75753,0 0,1.28736 0,1.28734 1.75753,0 1.75753,0 z m 0,-4.33015 0,-1.40438 -1.75753,0 -1.75753,0 0,1.40438 0,1.40437 1.75753,0 1.75753,0 z m 4.74535,8.84755 c -0.49395,-0.39469 -0.49395,-8.17199 0,-8.56669 0.24538,-0.19606 1.83101,-0.28086 5.25168,-0.28086 4.06417,0 4.97873,0.0629 5.3605,0.3678 0.38178,0.30507 0.46032,1.03586 0.46032,4.28335 0,2.73333 -0.10612,4.00033 -0.35152,4.1964 -0.24599,0.19656 -1.85517,0.28088 -5.36048,0.28088 -3.50533,0 -5.11451,-0.0843 -5.3605,-0.28088 z m 13.77659,0.0853 c -0.2869,-0.14552 -0.35365,-1.46471 -0.2929,-5.78946 l 0.0786,-5.60101 4.83321,0 4.83324,0 0.0787,5.60101 c 0.0607,4.32475 -0.006,5.64394 -0.29291,5.78946 -0.20438,0.10365 -2.28292,0.18845 -4.61897,0.18845 -2.33606,0 -4.41459,-0.0848 -4.61897,-0.18845 z m 12.29355,-2.894 c -0.22189,-0.17731 -0.35151,-1.06629 -0.35151,-2.41083 0,-1.34458 0.12959,-2.23356 0.35151,-2.41086 0.49395,-0.39469 10.22704,-0.39469 10.72098,0 0.47687,0.38105 0.47687,4.44064 0,4.82169 -0.49394,0.39469 -10.22703,0.39469 -10.72098,0 z"
       id="path20005"
       inkscape:connector-curvature="0"
       sodipodi:nodetypes="cscsscccssscsssccccccccccccccccccccccccccccccccccccsssssssscscccssscssssss" />
    <path
       style="fill:#000000;fill-opacity:1;fill-rule:evenodd;stroke:#000000;stroke-width:0.68763906px;stroke-linecap:butt;stroke-linejoin:miter;stroke-opacity:1"
       d="m 83.520111,126.30277 1.35671,-1.36836 3.33219,-0.36004 0.93586,-1.76632 -1.77616,-1.94838 -2.02012,0.52597 -0.40714,-2.05106 -3.02774,1.0421 0.20535,2.73803 -1.13455,1.24702 1.04033,1.31521 z"
       id="path19318-73"
       inkscape:connector-curvature="0"
       sodipodi:nodetypes="cccccccccccc" />
    <path
       style="fill:#000000;fill-opacity:1;fill-rule:evenodd;stroke:#000000;stroke-width:0.47022811px;stroke-linecap:butt;stroke-linejoin:miter;stroke-opacity:1"
       d="m 81.630191,116.45858 -0.13249,-1.53135 0.43359,-1.27679 -0.65484,-1.70634 -1.7416,0.46607 -0.94574,0.55831 -0.74357,0.43616 -0.31911,2.16628 0.93278,1.25269 1.1951,0.5645 1.12578,-0.21819 z"
       id="path19318-0-1-96"
       inkscape:connector-curvature="0"
       sodipodi:nodetypes="cccccccccccc" />
    <path
       style="fill:#000000;fill-opacity:1;fill-rule:evenodd;stroke:#000000;stroke-width:0.69068748px;stroke-linecap:butt;stroke-linejoin:miter;stroke-opacity:1"
       d="m 84.662481,101.09891 -0.54543,-1.587967 1.60344,-2.862 -1.18291,-1.379902 -2.95388,0.785102 -0.97943,3.10694 0.6657,3.349347 1.90083,-0.39962 z"
       id="path19318-0-4-1"
       inkscape:connector-curvature="0"
       sodipodi:nodetypes="ccccccccc" />
    <path
       style="fill:#000000;fill-opacity:1;fill-rule:evenodd;stroke:#000000;stroke-width:0.68763906px;stroke-linecap:butt;stroke-linejoin:miter;stroke-opacity:1"
       d="m 72.911801,109.02539 -0.19374,-2.23935 0.63406,-1.86714 -0.9576,-2.49527 -2.54687,0.68152 -1.38294,0.81651 -1.08739,0.63779 -0.46665,3.16784 1.36404,1.83189 1.74766,0.8255 1.64627,-0.31911 z"
       id="path19318-0-1-9-3"
       inkscape:connector-curvature="0"
       sodipodi:nodetypes="cccccccccccc" />
    <path
       style="fill:#000000;fill-opacity:1;fill-rule:evenodd;stroke:#000000;stroke-width:0.68763906px;stroke-linecap:butt;stroke-linejoin:miter;stroke-opacity:1"
       d="m 73.532561,125.25879 -0.59134,-1.83393 1.21231,-3.12465 -1.13825,-1.64318 -2.54688,0.68152 -0.64561,3.44522 0.82033,3.8343 1.6463,-0.31908 z"
       id="path19318-0-6-1"
       inkscape:connector-curvature="0"
       sodipodi:nodetypes="ccccccccc" />
  </g>
</svg>
