<?xml version="1.0" encoding="UTF-8" standalone="no"?>
<!-- Created with Inkscape (http://www.inkscape.org/) -->

<svg
   xmlns:dc="http://purl.org/dc/elements/1.1/"
   xmlns:cc="http://creativecommons.org/ns#"
   xmlns:rdf="http://www.w3.org/1999/02/22-rdf-syntax-ns#"
   xmlns:svg="http://www.w3.org/2000/svg"
   xmlns="http://www.w3.org/2000/svg"
   xmlns:sodipodi="http://sodipodi.sourceforge.net/DTD/sodipodi-0.dtd"
   xmlns:inkscape="http://www.inkscape.org/namespaces/inkscape"
   width="145.88608mm"
   height="117.04571mm"
   viewBox="0 0 516.91917 414.72885"
   id="svg5577"
   version="1.1"
   inkscape:version="0.91 r13725"
   sodipodi:docname="CITIES consumption disciplines.svg"
   inkscape:export-filename="C:\Users\lamw\Google Drive\Work\Figures\APSIS figures\CITIES figures\CITIES transport disciplines.png"
   inkscape:export-xdpi="600.005"
   inkscape:export-ydpi="600.005">
  <defs
     id="defs5579">
    <marker
       inkscape:isstock="true"
       style="overflow:visible"
       id="marker7677"
       refX="0"
       refY="0"
       orient="auto"
       inkscape:stockid="DotM">
      <path
         transform="matrix(0.4,0,0,0.4,2.96,0.4)"
         style="fill:#969696;fill-opacity:1;fill-rule:evenodd;stroke:#969696;stroke-width:1pt;stroke-opacity:1"
         d="m -2.5,-1 c 0,2.76 -2.24,5 -5,5 -2.76,0 -5,-2.24 -5,-5 0,-2.76 2.24,-5 5,-5 2.76,0 5,2.24 5,5 z"
         id="path7679"
         inkscape:connector-curvature="0" />
    </marker>
    <marker
       inkscape:stockid="DotM"
       orient="auto"
       refY="0"
       refX="0"
       id="marker5835"
       style="overflow:visible"
       inkscape:isstock="true">
      <path
         id="path5837"
         d="m -2.5,-1 c 0,2.76 -2.24,5 -5,5 -2.76,0 -5,-2.24 -5,-5 0,-2.76 2.24,-5 5,-5 2.76,0 5,2.24 5,5 z"
         style="fill:#969696;fill-opacity:1;fill-rule:evenodd;stroke:#969696;stroke-width:1pt;stroke-opacity:1"
         transform="matrix(0.4,0,0,0.4,2.96,0.4)"
         inkscape:connector-curvature="0" />
    </marker>
    <marker
       inkscape:isstock="true"
       style="overflow:visible"
       id="marker5651"
       refX="0"
       refY="0"
       orient="auto"
       inkscape:stockid="DotM">
      <path
         transform="matrix(0.4,0,0,0.4,2.96,0.4)"
         style="fill:#969696;fill-opacity:1;fill-rule:evenodd;stroke:#969696;stroke-width:1pt;stroke-opacity:1"
         d="m -2.5,-1 c 0,2.76 -2.24,5 -5,5 -2.76,0 -5,-2.24 -5,-5 0,-2.76 2.24,-5 5,-5 2.76,0 5,2.24 5,5 z"
         id="path5653"
         inkscape:connector-curvature="0" />
    </marker>
    <marker
       inkscape:stockid="DotM"
       orient="auto"
       refY="0"
       refX="0"
       id="marker4623"
       style="overflow:visible"
       inkscape:isstock="true">
      <path
         id="path4625"
         d="m -2.5,-1 c 0,2.76 -2.24,5 -5,5 -2.76,0 -5,-2.24 -5,-5 0,-2.76 2.24,-5 5,-5 2.76,0 5,2.24 5,5 z"
         style="fill:#969696;fill-opacity:1;fill-rule:evenodd;stroke:#969696;stroke-width:1pt;stroke-opacity:1"
         transform="matrix(0.4,0,0,0.4,2.96,0.4)"
         inkscape:connector-curvature="0" />
    </marker>
    <marker
       inkscape:stockid="DotM"
       orient="auto"
       refY="0"
       refX="0"
       id="DotM"
       style="overflow:visible"
       inkscape:isstock="true"
       inkscape:collect="always">
      <path
         id="path4290"
         d="m -2.5,-1 c 0,2.76 -2.24,5 -5,5 -2.76,0 -5,-2.24 -5,-5 0,-2.76 2.24,-5 5,-5 2.76,0 5,2.24 5,5 z"
         style="fill:#969696;fill-opacity:1;fill-rule:evenodd;stroke:#969696;stroke-width:1pt;stroke-opacity:1"
         transform="matrix(0.4,0,0,0.4,2.96,0.4)"
         inkscape:connector-curvature="0" />
    </marker>
    <marker
       inkscape:stockid="Arrow2Mend"
       orient="auto"
       refY="0"
       refX="0"
       id="Arrow2Mend"
       style="overflow:visible"
       inkscape:isstock="true">
      <path
         id="path6450"
         style="fill-rule:evenodd;stroke-width:0.625;stroke-linejoin:round"
         d="M 8.7185878,4.0337352 -2.2072895,0.01601326 8.7185884,-4.0017078 c -1.7454984,2.3720609 -1.7354408,5.6174519 -6e-7,8.035443 z"
         transform="scale(-0.6,-0.6)"
         inkscape:connector-curvature="0" />
    </marker>
    <marker
       inkscape:isstock="true"
       style="overflow:visible"
       id="marker7619"
       refX="0"
       refY="0"
       orient="auto"
       inkscape:stockid="Arrow2Mend">
      <path
         transform="scale(-0.6,-0.6)"
         d="M 8.7185878,4.0337352 -2.2072895,0.01601326 8.7185884,-4.0017078 c -1.7454984,2.3720609 -1.7354408,5.6174519 -6e-7,8.035443 z"
         style="fill:#666666;fill-opacity:1;fill-rule:evenodd;stroke:#666666;stroke-width:0.625;stroke-linejoin:round;stroke-opacity:1"
         id="path7621"
         inkscape:connector-curvature="0" />
    </marker>
    <marker
       inkscape:stockid="Arrow2Mstart"
       orient="auto"
       refY="0"
       refX="0"
       id="Arrow2Mstart"
       style="overflow:visible"
       inkscape:isstock="true">
      <path
         id="path6447"
         style="fill:#494949;fill-opacity:1;fill-rule:evenodd;stroke:#494949;stroke-width:0.625;stroke-linejoin:round;stroke-opacity:1"
         d="M 8.7185878,4.0337352 -2.2072895,0.01601326 8.7185884,-4.0017078 c -1.7454984,2.3720609 -1.7354408,5.6174519 -6e-7,8.035443 z"
         transform="scale(0.6,0.6)"
         inkscape:connector-curvature="0" />
    </marker>
    <marker
       inkscape:isstock="true"
       style="overflow:visible"
       id="marker7619-9"
       refX="0"
       refY="0"
       orient="auto"
       inkscape:stockid="Arrow2Mend">
      <path
         inkscape:connector-curvature="0"
         transform="scale(-0.6,-0.6)"
         d="M 8.7185878,4.0337352 -2.2072895,0.01601326 8.7185884,-4.0017078 c -1.7454984,2.3720609 -1.7354408,5.6174519 -6e-7,8.035443 z"
         style="fill:#666666;fill-opacity:1;fill-rule:evenodd;stroke:#666666;stroke-width:0.625;stroke-linejoin:round;stroke-opacity:1"
         id="path7621-2" />
    </marker>
    <marker
       inkscape:isstock="true"
       style="overflow:visible"
       id="marker7619-8"
       refX="0"
       refY="0"
       orient="auto"
       inkscape:stockid="Arrow2Mend">
      <path
         inkscape:connector-curvature="0"
         transform="scale(-0.6,-0.6)"
         d="M 8.7185878,4.0337352 -2.2072895,0.01601326 8.7185884,-4.0017078 c -1.7454984,2.3720609 -1.7354408,5.6174519 -6e-7,8.035443 z"
         style="fill:#000000;fill-opacity:1;fill-rule:evenodd;stroke:#000000;stroke-width:0.625;stroke-linejoin:round;stroke-opacity:1"
         id="path7621-0" />
    </marker>
    <marker
       inkscape:isstock="true"
       style="overflow:visible"
       id="marker7619-8-8"
       refX="0"
       refY="0"
       orient="auto"
       inkscape:stockid="Arrow2Mend">
      <path
         inkscape:connector-curvature="0"
         transform="scale(-0.6,-0.6)"
         d="M 8.7185878,4.0337352 -2.2072895,0.01601326 8.7185884,-4.0017078 c -1.7454984,2.3720609 -1.7354408,5.6174519 -6e-7,8.035443 z"
         style="fill:#666666;fill-opacity:1;fill-rule:evenodd;stroke:#666666;stroke-width:0.625;stroke-linejoin:round;stroke-opacity:1"
         id="path7621-0-1" />
    </marker>
    <marker
       inkscape:isstock="true"
       style="overflow:visible"
       id="marker7619-8-8-5"
       refX="0"
       refY="0"
       orient="auto"
       inkscape:stockid="Arrow2Mend">
      <path
         inkscape:connector-curvature="0"
         transform="scale(-0.6,-0.6)"
         d="M 8.7185878,4.0337352 -2.2072895,0.01601326 8.7185884,-4.0017078 c -1.7454984,2.3720609 -1.7354408,5.6174519 -6e-7,8.035443 z"
         style="fill:#666666;fill-opacity:1;fill-rule:evenodd;stroke:#666666;stroke-width:0.625;stroke-linejoin:round;stroke-opacity:1"
         id="path7621-0-1-8" />
    </marker>
    <marker
       inkscape:isstock="true"
       style="overflow:visible"
       id="marker7677-1"
       refX="0"
       refY="0"
       orient="auto"
       inkscape:stockid="DotM">
      <path
         inkscape:connector-curvature="0"
         transform="matrix(0.4,0,0,0.4,2.96,0.4)"
         style="fill:#969696;fill-opacity:1;fill-rule:evenodd;stroke:#969696;stroke-width:1pt;stroke-opacity:1"
         d="m -2.5,-1 c 0,2.76 -2.24,5 -5,5 -2.76,0 -5,-2.24 -5,-5 0,-2.76 2.24,-5 5,-5 2.76,0 5,2.24 5,5 z"
         id="path7679-0" />
    </marker>
    <marker
       inkscape:stockid="DotM"
       orient="auto"
       refY="0"
       refX="0"
       id="marker4623-5"
       style="overflow:visible"
       inkscape:isstock="true">
      <path
         id="path4625-1"
         d="m -2.5,-1 c 0,2.76 -2.24,5 -5,5 -2.76,0 -5,-2.24 -5,-5 0,-2.76 2.24,-5 5,-5 2.76,0 5,2.24 5,5 z"
         style="fill:#969696;fill-opacity:1;fill-rule:evenodd;stroke:#969696;stroke-width:1pt;stroke-opacity:1"
         transform="matrix(0.4,0,0,0.4,2.96,0.4)"
         inkscape:connector-curvature="0" />
    </marker>
    <marker
       inkscape:isstock="true"
       style="overflow:visible"
       id="marker7677-1-1"
       refX="0"
       refY="0"
       orient="auto"
       inkscape:stockid="DotM">
      <path
         inkscape:connector-curvature="0"
         transform="matrix(0.4,0,0,0.4,2.96,0.4)"
         style="fill:#969696;fill-opacity:1;fill-rule:evenodd;stroke:#969696;stroke-width:1pt;stroke-opacity:1"
         d="m -2.5,-1 c 0,2.76 -2.24,5 -5,5 -2.76,0 -5,-2.24 -5,-5 0,-2.76 2.24,-5 5,-5 2.76,0 5,2.24 5,5 z"
         id="path7679-0-4" />
    </marker>
  </defs>
  <sodipodi:namedview
     id="base"
     pagecolor="#ffffff"
     bordercolor="#666666"
     borderopacity="1.0"
     inkscape:pageopacity="1"
     inkscape:pageshadow="2"
     inkscape:zoom="1.4142136"
     inkscape:cx="319.52534"
     inkscape:cy="236.02088"
     inkscape:document-units="px"
     inkscape:current-layer="layer1"
     showgrid="false"
     inkscape:window-width="1920"
     inkscape:window-height="1027"
     inkscape:window-x="-8"
     inkscape:window-y="-8"
     inkscape:window-maximized="1"
     fit-margin-top="0"
     fit-margin-left="0"
     fit-margin-right="0"
     fit-margin-bottom="0" />
  <metadata
     id="metadata5582">
    <rdf:RDF>
      <cc:Work
         rdf:about="">
        <dc:format>image/svg+xml</dc:format>
        <dc:type
           rdf:resource="http://purl.org/dc/dcmitype/StillImage" />
        <dc:title></dc:title>
      </cc:Work>
    </rdf:RDF>
  </metadata>
  <g
     inkscape:label="Layer 1"
     inkscape:groupmode="layer"
     id="layer1"
     transform="translate(-85.82383,-151.29069)">
    <path
       style="fill:none;fill-rule:evenodd;stroke:#000000;stroke-width:1px;stroke-linecap:butt;stroke-linejoin:miter;stroke-opacity:1"
       d="m 157.49969,306.86963 396.28284,0"
       id="path6125"
       inkscape:connector-curvature="0"
       sodipodi:nodetypes="cc" />
    <g
       id="g16249">
      <text
         sodipodi:linespacing="125%"
         id="text6127"
         y="310.47314"
         x="85.372169"
         style="font-style:normal;font-variant:normal;font-weight:normal;font-stretch:normal;font-size:12.5px;line-height:125%;font-family:'Times New Roman';-inkscape-font-specification:'Times New Roman, Normal';text-align:start;letter-spacing:0px;word-spacing:0px;writing-mode:lr-tb;text-anchor:start;fill:#676767;fill-opacity:1;stroke:none;stroke-width:1px;stroke-linecap:butt;stroke-linejoin:miter;stroke-opacity:1"
         xml:space="preserve"><tspan
           y="310.47314"
           x="85.372169"
           id="tspan6129"
           sodipodi:role="line">Consumption</tspan></text>
      <text
         sodipodi:linespacing="125%"
         id="text6131"
         y="431.47812"
         x="97.896584"
         style="font-style:normal;font-variant:normal;font-weight:normal;font-stretch:normal;font-size:12.5px;line-height:125%;font-family:'Times New Roman';-inkscape-font-specification:'Times New Roman, Normal';text-align:start;letter-spacing:0px;word-spacing:0px;writing-mode:lr-tb;text-anchor:start;fill:#676767;fill-opacity:1;stroke:none;stroke-width:1px;stroke-linecap:butt;stroke-linejoin:miter;stroke-opacity:1"
         xml:space="preserve"><tspan
           y="431.47812"
           x="97.896584"
           id="tspan6133"
           sodipodi:role="line">Production</tspan></text>
    </g>
    <g
       id="g7607"
       transform="translate(-2.4028547,-17.234018)">
      <path
         sodipodi:nodetypes="cccccscccccccccccccccccccc"
         inkscape:connector-curvature="0"
         id="path6968"
         d="m 196.68171,411.09543 0,-0.89062 0,-0.26953 -9.7444,0 0,-2.75391 c -0.12548,-2.97837 -3.33366,-4.5228 -6.55859,-4.55078 -3.22494,-0.028 -6.46692,1.46048 -6.65821,4.55078 l 0.0879,35.92578 9.51953,0 -0.15039,-21.00586 c 0.4233,-2.32396 1.83808,-4.45736 3.75976,-5.63867 l 0,-5.36719 8.58594,0 0,4.70899 c -4.81546,0.294 -9.37296,2.59173 -10.19727,7.11718 l 0.15039,20.18555 22.47657,0 0,-5.98437 0,-1.69532 0,-12.50586 c -0.56887,-4.5875 -5.77556,-7.06317 -11.06446,-7.15429 -0.0683,-0.001 -0.13673,0.002 -0.20507,0.002 l 0,-4.67383 0,-5e-5 -1.16186,0 z"
         style="fill:#494949;fill-opacity:1;fill-rule:evenodd;stroke:none;stroke-width:0.5;stroke-linecap:butt;stroke-linejoin:miter;stroke-miterlimit:7.33333349;stroke-dasharray:none;stroke-opacity:1" />
      <path
         sodipodi:nodetypes="csssscscccccccccccccccccscccccscssscccssscccscccccsccsscccsscccccccccsscccscccccccssscccscssccscsccccsccsscssccccsscssscccsssssscscsscccsccsccscscccccccccscscsscsccscccccccccccccccssccscssccccccccccsscscsssscscccscsssssccsssssscccccscscssccsscsccsssccccssccccsssccccsccccccscccscscs"
         inkscape:connector-curvature="0"
         id="path6223"
         d="m 262.38975,443.35715 0,-14.86231 c 0,-9.47776 0.004,-17.2323 -0.0709,-17.2323 -0.32116,0 -18.6586,14.95733 -18.73247,15.27955 -0.0616,0.26852 0.21939,0.3556 1.14742,0.3556 0.67591,0 1.36512,0.13618 1.53157,0.30262 0.19367,0.19367 0.30261,1.18119 0.30261,2.74309 0,3.06543 -0.0375,3.10321 -3.19042,3.22009 l -2.35753,0.0874 0,5.01925 0,5.01926 -2.01744,0 -2.01745,0 0,-5.0436 0,-5.0436 -6.30448,0 -6.3045,0 0,5.0436 0,5.0436 -1.89135,0 -1.89135,0 0,-5.01997 0,-5.01997 -2.54247,-0.0866 c -3.17769,-0.10834 -3.25767,-0.18786 -3.25767,-3.23893 0,-2.65643 0.19812,-2.97888 1.89135,-3.07825 l 1.2609,-0.074 0.0718,-2.88989 c 0.0946,-3.80921 0.0438,-3.75585 3.67015,-3.84796 l 2.79556,-0.071 1.82701,-10.21328 c 1.00487,-5.6173 1.83191,-10.29839 1.83789,-10.40241 0.006,-0.10403 1.13804,-0.18914 2.51568,-0.18914 2.16833,0 2.5221,0.0593 2.63363,0.44131 0.0709,0.24273 0.87444,4.69686 1.78573,9.89807 0.91129,5.20121 1.71425,9.71207 1.78432,10.02414 0.12254,0.54566 0.23113,0.56721 2.83354,0.56232 l 2.70613,-0.005 9.52736,-7.6864 c 5.24004,-4.22753 9.62769,-7.6864 9.75033,-7.6864 0.12265,0 0.9577,0.92241 1.85569,2.04981 l 1.6327,2.04981 -0.85285,0.74881 -0.91265,0.74881 0,17.79608 0,15.2581 z m -17.80206,-19.0999 0.7404,-0.62301 -0.6527,-0.16382 c -0.75962,-0.19066 -0.75914,-0.19101 -0.97681,0.71634 -0.2049,0.85409 -0.0562,0.86589 0.88911,0.0705 z m 0.71938,-1.79935 c 0,-0.084 -0.27164,-0.47556 -0.60365,-0.87014 l -0.60366,-0.7174 -0.10831,0.73789 c -0.0595,0.40584 0.0135,0.78845 0.16236,0.85023 0.41339,0.17159 1.15326,0.17122 1.15326,-5e-4 z m 0.92326,-2.03422 c -0.0678,-0.0678 -0.37143,-0.0858 -0.67459,-0.04 l -0.55119,0.0834 0.59258,0.75366 0.59257,0.75366 0.082,-0.71367 c 0.0451,-0.39252 0.0265,-0.76922 -0.0414,-0.83709 z m 2.34365,0.56156 c 0.28248,-0.34036 0.22158,-0.39205 -0.46205,-0.39205 -0.6747,0 -0.78741,0.0915 -0.78741,0.63933 0,0.54166 0.0706,0.60155 0.46205,0.39204 0.25413,-0.136 0.60846,-0.42371 0.78741,-0.63932 z m -14.88819,-1.48943 c -0.0577,-0.0487 -0.74287,-0.37619 -1.52239,-0.72761 l -1.41732,-0.63894 -1.60884,0.72055 -1.60884,0.72054 3.13123,0.007 c 1.72218,0.004 3.08395,-0.0328 3.02616,-0.0816 z m 14.92226,-0.37339 c -0.136,-0.25413 -0.4237,-0.60846 -0.63932,-0.78741 -0.34035,-0.28248 -0.39204,-0.22158 -0.39204,0.46205 0,0.6747 0.0915,0.78742 0.63932,0.78742 0.54167,0 0.60155,-0.0706 0.39204,-0.46206 z m -20.13561,-0.97207 c 0.51922,-0.21153 0.87977,-0.48857 0.80122,-0.61568 -0.0786,-0.12711 -0.80093,-0.5633 -1.60527,-0.96933 l -1.46243,-0.73823 -0.28445,1.41637 c -0.43362,2.1591 -0.43364,2.15902 0.66122,1.69352 0.52012,-0.22114 1.37049,-0.57513 1.88971,-0.78665 z m 7.13018,-0.26808 c -0.26647,-2.14965 -0.29154,-2.16306 -2.12155,-1.13453 l -1.61272,0.90641 1.36055,0.58849 c 0.74829,0.32366 1.5875,0.69357 1.86489,0.822 0.2774,0.12844 0.54581,0.24121 0.59646,0.25059 0.0507,0.009 0.0113,-0.63545 -0.0876,-1.43296 z m 10.96535,0.81071 c 0,-0.54167 -0.0706,-0.60155 -0.46205,-0.39204 -0.25414,0.136 -0.60846,0.4237 -0.78741,0.63932 -0.28248,0.34036 -0.22158,0.39204 0.46205,0.39204 0.6747,0 0.78741,-0.0915 0.78741,-0.63932 z m 3.16281,-1.18512 c -0.31548,-0.22247 -1.14537,-0.25417 -1.14537,-0.0438 0,0.0821 0.25534,0.46048 0.5674,0.84086 l 0.56741,0.69161 0.13665,-0.65172 c 0.0752,-0.35846 0.0184,-0.7351 -0.12609,-0.837 z m 2.34541,0.28146 c -0.73783,-0.46764 -1.22116,-0.24938 -1.22116,0.55143 l 0,0.77371 0.77984,-0.55529 c 0.59286,-0.42215 0.69868,-0.60673 0.44132,-0.76985 z m -19.88246,-1.48318 1.38699,-0.73274 -2.90007,0 -2.90007,0 1.38699,0.73274 c 0.76285,0.403 1.44373,0.73274 1.51308,0.73274 0.0693,0 0.75024,-0.32974 1.51308,-0.73274 z m 19.88233,-0.25218 c -0.67183,-0.90869 -0.96885,-0.96023 -0.96885,-0.16812 0,0.74145 0.18472,0.92466 0.93221,0.92466 l 0.59597,0 z m -1.90314,-0.18913 c 0.17361,-0.90379 0.12723,-0.92471 -0.66638,-0.30046 -0.82924,0.65229 -0.85258,0.99395 -0.0678,0.99395 0.45528,0 0.63336,-0.1682 0.73427,-0.69349 z m 5.71175,-0.89938 c 0.008,-0.11324 -0.29812,-0.16998 -0.67954,-0.1261 -0.55425,0.0638 -0.7102,0.22626 -0.77676,0.80922 l -0.0833,0.72941 0.76281,-0.60332 c 0.41954,-0.33183 0.76908,-0.69598 0.77675,-0.80921 z m -2.25952,0.0167 c 0.003,-0.32405 -0.19918,-0.44132 -0.76023,-0.44132 l -0.76409,0 0.55973,0.75709 c 0.5741,0.7765 0.95613,0.65145 0.96459,-0.31577 z m -21.58244,-1.20223 -1.28583,-0.74978 -1.36206,0.75078 -1.36207,0.75077 2.6479,-8.8e-4 2.64789,-8.9e-4 -1.28583,-0.74978 z m -3.65944,-0.5276 1.35922,-0.77943 -1.10705,-0.72012 c -0.60887,-0.39607 -1.21475,-0.75352 -1.34639,-0.79433 -0.13165,-0.0408 -0.36762,0.63504 -0.5244,1.50191 -0.33592,1.85742 -0.28384,1.8829 1.61862,0.79197 z m 6.42143,-0.0354 c -0.0827,-0.45078 -0.22173,-1.18557 -0.30892,-1.63287 l -0.15852,-0.81328 -1.19787,0.78008 c -0.65881,0.42904 -1.19784,0.85666 -1.19784,0.95026 0,0.16555 2.46528,1.48937 2.83071,1.52005 0.10056,0.009 0.11516,-0.35347 0.0324,-0.80424 z m 20.77067,-0.16976 c -0.50877,-0.60463 -0.66857,-0.67932 -0.78793,-0.36829 -0.29056,0.7572 -0.14224,1.07287 0.54379,1.15728 0.95547,0.11758 0.96931,0.0728 0.24414,-0.78899 z m -1.73969,-0.20851 c 0.10282,-0.72396 -0.14689,-0.70478 -1.0893,0.0837 l -0.75654,0.63293 0.88262,-0.0746 c 0.69545,-0.0587 0.89972,-0.19493 0.96322,-0.64201 z m 5.10562,-0.16434 0.71978,-0.60565 -0.65009,-0.16316 c -0.75709,-0.19002 -0.72334,-0.21452 -0.93817,0.68097 -0.20399,0.85033 -0.0555,0.86535 0.86848,0.0879 z m -1.78177,-0.24756 c 0,-0.41013 -0.18024,-0.64934 -0.56741,-0.7531 -0.95078,-0.2548 -1.00041,-0.18759 -0.44132,0.59759 0.64926,0.91179 1.00873,0.9672 1.00873,0.15551 z m -25.28103,-2.12372 c -0.65881,-0.0423 -1.73689,-0.0423 -2.3957,0 l -1.19785,0.0769 1.23069,0.8091 1.2307,0.80911 1.16501,-0.80911 1.16501,-0.8091 z m 27.57328,0.24527 c -0.136,-0.25414 -0.40984,-0.59697 -0.60852,-0.76187 -0.29205,-0.24238 -0.38895,-0.19379 -0.50596,0.25365 -0.19236,0.73559 -0.0141,0.97026 0.73733,0.97026 0.52724,0 0.58594,-0.0719 0.37715,-0.46204 z m -2.04008,-0.55423 0,-0.76409 -0.75653,0.55934 c -0.41609,0.30764 -0.75654,0.65147 -0.75654,0.76409 0,0.11262 0.34045,0.20475 0.75654,0.20475 0.67413,0 0.75653,-0.0832 0.75653,-0.76409 z m 3.27834,-0.49681 c 0,-0.63885 -0.0981,-0.75653 -0.63045,-0.75653 -0.77305,0 -0.78872,0.17728 -0.0821,0.92941 0.69531,0.74013 0.71258,0.73594 0.71258,-0.17288 z m 2.01744,0.12609 0.59228,-0.63045 -0.80049,0 c -0.68575,0 -0.8005,0.0904 -0.8005,0.63045 0,0.34675 0.0937,0.63045 0.20822,0.63045 0.11452,0 0.47474,-0.2837 0.80049,-0.63045 z m -30.00939,-0.21867 c 0,-0.0509 -0.45392,-0.39296 -1.00872,-0.76011 l -1.00872,-0.66754 -1.00872,0.66754 c -0.5548,0.36715 -1.00873,0.70919 -1.00873,0.76011 0,0.0509 0.90785,0.0926 2.01745,0.0926 1.10959,0 2.01744,-0.0416 2.01744,-0.0926 z m -3.63619,-2.69729 c -0.46395,-0.40735 -0.90466,-0.74064 -0.97934,-0.74064 -0.0747,0 -0.20157,0.34044 -0.28194,0.75654 -0.0803,0.41609 -0.21303,1.10218 -0.29479,1.52464 l -0.14867,0.7681 1.27416,-0.784 1.27414,-0.78399 z m 4.76476,0.96157 c -0.28928,-1.75514 -0.43659,-1.86274 -1.38726,-1.01331 l -0.8364,0.74731 0.98435,0.66888 c 0.5414,0.36788 1.08147,0.66889 1.20016,0.66889 0.11869,0 0.13632,-0.48231 0.0391,-1.07177 z m 28.89116,-0.4268 c -0.68028,-0.95537 -0.76688,-0.95899 -0.76688,-0.0321 0,0.5714 0.12869,0.75955 0.5674,0.82962 0.80089,0.12792 0.81585,0.068 0.19948,-0.79756 z m -1.7756,-0.15778 0,-0.64761 -0.75654,0.53869 c -0.41609,0.2963 -0.75654,0.58772 -0.75654,0.64763 0,0.06 0.34045,0.10891 0.75654,0.10891 0.64421,0 0.75654,-0.0962 0.75654,-0.64762 z m -29.19379,-1.11024 0.82357,-0.74914 -1.89135,0.003 -1.89135,0.003 0.87311,0.7463 c 0.4802,0.41045 0.96071,0.74628 1.06778,0.74628 0.10708,0 0.56529,-0.33712 1.01824,-0.74915 z m -0.30328,-2.39464 -0.58433,-0.62198 -0.72054,0.51307 c -0.39629,0.28218 -0.72053,0.56208 -0.72053,0.62198 0,0.06 0.58718,0.10892 1.30485,0.10892 l 1.30487,0 z m -2.06116,-0.72693 c 0.5537,-0.58939 0.55404,-0.59546 0.0656,-1.19785 -0.59158,-0.72973 -0.67795,-0.66123 -0.90589,0.71847 -0.20088,1.21594 0.0264,1.34563 0.84022,0.47938 z m 3.42652,-0.79783 -0.17758,-1.18424 -0.58998,0.71982 -0.58998,0.71982 0.65165,0.58034 c 0.35842,0.31919 0.70382,0.52817 0.76757,0.46442 0.0638,-0.0637 0.0361,-0.64881 -0.0617,-1.30016 z m -1.37332,-1.25768 0.59228,-0.63045 -1.17878,0 c -1.28715,0 -1.38866,0.10662 -0.7614,0.79973 0.53991,0.59661 0.64023,0.584 1.3479,-0.16928 z"
         style="fill:#494949;fill-opacity:1" />
    </g>
    <g
       id="g4216"
       transform="translate(4.1779253,0)">
      <path
         inkscape:connector-curvature="0"
         id="path6186"
         d="m 209.22622,305.98337 c 0,-0.73296 0.25423,-1.00234 1.0047,-1.06457 l 0.56057,-0.0464 0.0237,-8.61685 c 0.0222,-8.03599 0.0348,-8.64137 0.18788,-8.98053 0.2622,-0.58098 0.56189,-0.91179 1.09197,-1.20539 l 0.49492,-0.27411 3.99267,-0.0276 c 4.66302,-0.0323 4.71863,-0.0249 5.45649,0.7129 0.73064,0.73064 0.73439,0.75892 0.73439,5.53898 l 0,4.11725 0.71424,0.0498 c 0.9121,0.0636 1.41947,0.2707 1.82564,0.74522 0.45793,0.53499 0.57567,1.06368 0.68058,3.0559 0.0943,1.791 0.23702,2.58377 0.53756,2.98631 0.23498,0.31475 0.59587,0.42167 0.90749,0.26889 0.69801,-0.34223 0.8641,-1.11011 0.92968,-4.29831 l 0.0499,-2.42549 -1.01333,-1.03046 c -0.55732,-0.56676 -1.08987,-1.17562 -1.18344,-1.35302 -0.13956,-0.26461 -0.17632,-0.58748 -0.20459,-1.7971 l -0.0345,-1.47454 -1.18991,-1.20571 c -1.02798,-1.04162 -1.18992,-1.246 -1.18992,-1.50177 0,-0.42045 0.35017,-0.74795 0.8022,-0.75028 0.3327,-0.002 0.43317,0.0828 2.05671,1.72954 1.99017,2.01863 2.86972,3.02258 3.20962,3.66356 l 0.24435,0.46079 -4.6e-4,3.96283 c -4.6e-4,4.13501 -0.0373,4.64156 -0.42299,5.82191 -0.22169,0.67838 -0.78591,1.36364 -1.32404,1.60808 -0.45906,0.20852 -1.46117,0.22855 -1.91652,0.0383 -1.21538,-0.50783 -1.67865,-1.67393 -1.81361,-4.56527 -0.0437,-0.93772 -0.12446,-1.81973 -0.1793,-1.96003 -0.12036,-0.30794 -0.42323,-0.4361 -1.0306,-0.4361 l -0.45479,0 0,3.5942 0,3.59419 0.55714,0 c 0.46866,0 0.59307,0.036 0.78335,0.22621 0.19028,0.19028 0.22621,0.31469 0.22621,0.78335 l 0,0.55714 -7.55703,0 -7.55702,0 0,-0.50174 z m 11.7583,-12.52084 0.22235,-0.25858 0,-2.67456 0,-2.67455 -0.26939,-0.26939 -0.26938,-0.26939 -3.79019,0 c -4.18328,0 -4.22125,0.005 -4.41614,0.56391 -0.0646,0.18533 -0.10215,1.17193 -0.10215,2.68451 0,2.57265 0.0482,2.87773 0.48868,3.09393 0.13693,0.0672 1.45123,0.0935 4.05819,0.0811 l 3.85568,-0.0183 0.22235,-0.25857 z"
         style="fill:#494949;fill-opacity:1" />
      <path
         sodipodi:nodetypes="cccccccccccccc"
         inkscape:connector-curvature="0"
         id="path6225"
         d="m 183.69585,274.91992 0,2 58.34034,0 0,-2 z m 9.46484,1.99721 0.0195,5.80162 -3.91601,0 0,23.92969 11.07031,0 0,-23.92969 -4.74219,0 -0.0195,-5.80162 z"
         style="fill:#494949;fill-opacity:1;fill-rule:evenodd;stroke:none;stroke-width:1px;stroke-linecap:butt;stroke-linejoin:round;stroke-opacity:1" />
    </g>
    <path
       style="opacity:1;fill:#494949;fill-opacity:1;fill-rule:nonzero;stroke:none;stroke-width:0.32089758;stroke-linecap:round;stroke-linejoin:round;stroke-miterlimit:4;stroke-dasharray:none;stroke-dashoffset:0;stroke-opacity:1"
       d="m 490.43032,260.15787 c -1.61104,0 -2.90713,1.29599 -2.90713,2.90714 l 0,35.4855 -8.67188,0 0,8.01602 49.1509,0 0,-8.01602 -8.67197,0 0,-35.4855 c 0,-1.61115 -1.29923,-2.90714 -2.91041,-2.90714 l -25.98951,0 z m 12.99635,3.82674 a 8.4379396,8.4379396 0 0 1 8.43799,8.43795 8.4379396,8.4379396 0 0 1 -8.43799,8.43793 8.4379396,8.4379396 0 0 1 -8.43783,-8.43793 8.4379396,8.4379396 0 0 1 8.43783,-8.43795 z m -1.44035,3.63226 0,3.2005 -3.20372,0 0,2.88405 3.20372,0 0,3.2038 2.88077,0 0,-3.2038 3.20381,0 0,-2.88405 -3.20381,0 0,-3.2005 -2.88077,0 z m -9.56186,16.31228 3.98493,0 0,3.98493 -3.98493,0 0,-3.98493 z m 9.00814,0 3.98828,0 0,3.98493 -3.98828,0 0,-3.98493 z m 9.01144,0 3.98507,0 0,3.98493 -3.98507,0 0,-3.98493 z m -9.69707,7.50184 5.3594,0 0,8.54341 -5.3594,0 0,-8.54341 z m -8.32251,0.79765 3.98493,0 0,3.98825 -3.98493,0 0,-3.98825 z m 18.01958,0 3.98507,0 0,3.98825 -3.98507,0 0,-3.98825 z"
       id="rect4920-3"
       inkscape:connector-curvature="0" />
    <g
       id="g4563"
       transform="matrix(0.12249023,0,0,0.12249023,445.20284,200.68006)"
       style="fill:#494949;fill-opacity:1;stroke:none;stroke-width:2.44917488;stroke-miterlimit:4;stroke-dasharray:none">
      <path
         inkscape:connector-curvature="0"
         id="path4557"
         d="m 15.323013,863.381 c -1.60091,-1.17638 -1.70102,-6.02939 -1.45898,-70.72582 l 0.25987,-69.46276 52,-46.23871 c 28.6,-25.43129 52.721727,-46.14805 53.603837,-46.03724 0.88211,0.11082 15.50711,12.53099 32.5,27.60039 16.99289,15.0694 40.4223,35.7694 52.06537,46 l 21.16921,18.60109 0.0808,69.71482 c 0.0791,68.25436 0.0397,69.73678 -1.87875,70.76353 -1.284,0.68717 -13.43635,0.95786 -35.25,0.78518 l -33.29047,-0.26353 -0.26496,-30.45148 c -0.25791,-29.64091 -0.32245,-30.51266 -2.42432,-32.75 l -2.15935,-2.29852 -30.65137,0 -30.651367,0 -2.15935,2.29852 c -2.10187,2.23734 -2.1664,3.10909 -2.42431,32.75 l -0.26497,30.45148 -33.54102,0.26305 c -25.78467,0.20222 -33.93851,-0.029 -35.25987,-1 z"
         style="opacity:1;fill:#494949;fill-opacity:1;stroke:none;stroke-width:2.44917488;stroke-miterlimit:4;stroke-dasharray:none;stroke-opacity:1" />
      <path
         inkscape:connector-curvature="0"
         id="path4559-17"
         d="m -24.362637,719.41737 c -3.64016,-4.12207 -6.70933,-7.74567 -6.82038,-8.05243 -0.11106,-0.30677 8.00299,-7.83443 18.03122,-16.72812 10.0282201,-8.89369 26.50628,-23.50896 36.61791,-32.47837 10.11163,-8.96942 27.77162,-24.60909 39.24443,-34.75482 11.47281,-10.14574 28.74863,-25.43366 38.390707,-33.97317 9.64208,-8.53951 17.96526,-15.52639 18.49595,-15.52639 0.53069,0 4.60319,3.2085 9.05001,7.13 8.69697,7.66957 27.33851,24.17048 68.76717,60.87057 14.38962,12.74723 36.75699,32.55716 49.70525,44.02208 12.94826,11.46492 23.4488,21.1042 23.33452,21.42064 -0.11427,0.31644 -3.18609,3.94794 -6.82624,8.07001 -5.7642,6.52732 -6.76733,7.37774 -7.77181,6.58872 -1.23345,-0.96887 -30.90053,-27.15843 -65.47472,-57.79987 -11.64632,-10.32158 -29.78361,-26.3815 -40.30508,-35.6887 -10.52148,-9.30721 -21.54578,-19.0918 -24.49845,-21.74354 -2.95268,-2.65173 -5.60437,-4.82134 -5.89266,-4.82134 -0.28828,0 -5.81348,4.69342 -12.27822,10.42983 -6.46474,5.7364 -17.508997,15.52099 -24.542807,21.74353 -7.0338,6.22254 -26.43859,23.40524 -43.12174,38.18377 -36.9676799,32.74728 -54.82145,48.49559 -56.34049,49.69632 -0.99647,0.78768 -2.0102,-0.0725 -7.76457,-6.58872 z"
         style="opacity:1;fill:#494949;fill-opacity:1;stroke:none;stroke-width:2.44917488;stroke-miterlimit:4;stroke-dasharray:none;stroke-opacity:1" />
      <path
         inkscape:connector-curvature="0"
         id="path4561"
         d="m 13.213063,622.9633 0,-26.20305 18.03123,0 18.03122,0 -0.008,7.95496 c -0.0131,13.36239 1.36771,11.12253 -17.18126,27.8708 -8.97399,8.10281 -16.89169,15.14817 -17.59488,15.65636 -1.22692,0.88668 -1.27853,-0.13368 -1.27853,-25.27907 z"
         style="opacity:1;fill:#494949;fill-opacity:1;stroke:none;stroke-width:2.44917488;stroke-miterlimit:4;stroke-dasharray:none;stroke-opacity:1" />
    </g>
    <g
       id="g4210"
       transform="translate(0.16686788,0)">
      <path
         inkscape:connector-curvature="0"
         id="path9917"
         d="m 378.11917,306.08693 c -2.00435,-0.38 -3.72101,-1.72799 -4.60572,-3.61659 -0.4369,-0.93268 -0.55447,-1.50202 -0.55277,-2.67673 0.002,-1.22778 0.12532,-1.78466 0.62122,-2.80071 1.17798,-2.41358 3.76689,-3.84367 6.40982,-3.54078 0.85894,0.0985 1.45302,0.2641 1.40413,0.39153 -0.0195,0.0509 -0.16908,0.27977 -0.33233,0.50854 l -0.29682,0.41593 -0.37924,-0.0892 c -0.56535,-0.13305 -1.6604,-0.11503 -2.29782,0.0378 -1.89404,0.45411 -3.35198,1.89184 -3.8533,3.7999 -0.18958,0.72157 -0.18868,1.83573 0.002,2.56203 0.89159,3.39507 4.64935,4.97572 7.70703,3.24187 0.47045,-0.26678 1.22038,-0.93447 1.62408,-1.44598 l 0.19493,-0.24697 0.57203,0.14813 0.57202,0.14814 -0.30713,0.46129 c -0.82019,1.23194 -2.19166,2.20474 -3.67058,2.60355 -0.69274,0.18681 -2.0875,0.23557 -2.81162,0.0983 z m 19.81356,0.006 c -3.46438,-0.67259 -5.73843,-3.94534 -5.13716,-7.39328 0.10603,-0.60805 0.68585,-2.05859 0.98488,-2.46391 l 0.1493,-0.20234 0.27917,0.66153 c 0.18901,0.44794 0.25892,0.68796 0.21651,0.74328 -0.1113,0.14517 -0.34286,0.79432 -0.45227,1.26789 -0.16566,0.71693 -0.10241,2.01033 0.13213,2.70187 0.58725,1.73166 1.94,2.9999 3.69564,3.4647 0.73143,0.19366 1.83903,0.19361 2.57006,0 2.38324,-0.63155 3.93128,-2.63157 3.93128,-5.07911 0,-2.92285 -2.27973,-5.20356 -5.20331,-5.20556 -0.62675,0 -1.46849,0.12998 -1.73409,0.26865 -0.0867,0.0453 -0.14498,-0.0314 -0.31301,-0.41179 -0.11356,-0.25708 -0.20647,-0.5069 -0.20647,-0.55513 0,-0.13033 0.79061,-0.35218 1.5651,-0.43918 3.11331,-0.34971 6.0638,1.69209 6.8805,4.76144 0.21765,0.81796 0.21775,2.36052 0,3.16316 -0.51612,1.9043 -1.76523,3.395 -3.54274,4.22797 -0.83157,0.38969 -1.42875,0.52387 -2.4648,0.5538 -0.58202,0.0169 -1.04915,-0.005 -1.35092,-0.0639 z m -13.99276,-4.88151 c -5.41428,-0.96475 -5.18306,-0.90217 -5.17871,-1.40184 0.002,-0.21832 0.31625,-0.68599 2.725,-4.05418 l 2.72286,-3.80739 -0.38059,-0.8385 c -0.20932,-0.46117 -0.44834,-0.97462 -0.53115,-1.14102 l -0.15058,-0.30252 -0.79592,0.13146 c -0.92543,0.15285 -1.07098,0.12125 -1.23351,-0.2677 -0.14546,-0.34814 -0.085,-0.96225 0.11575,-1.17594 l 0.14898,-0.15858 1.98377,0 c 2.18391,0 2.22432,0.007 2.31062,0.39983 0.051,0.23233 -0.0511,0.52653 -0.21927,0.63154 -0.0636,0.0397 -0.32959,0.10829 -0.59116,0.1524 -0.26157,0.0441 -0.47583,0.0998 -0.47616,0.1237 0,0.0239 0.15538,0.39184 0.34598,0.81765 l 0.34654,0.77421 4.00336,0 c 2.76375,0 4.00337,-0.0214 4.00337,-0.0694 0,-0.0382 -0.089,-0.27858 -0.1977,-0.53409 -0.10872,-0.25551 -0.19769,-0.51426 -0.19769,-0.57498 0,-0.0607 0.19275,-0.59117 0.42833,-1.17877 0.23561,-0.58758 0.42835,-1.08145 0.42835,-1.09747 0,-0.016 -0.50182,-0.0385 -1.11517,-0.05 -1.07568,-0.0201 -1.12115,-0.0265 -1.28502,-0.18058 -0.11481,-0.10798 -0.16987,-0.22904 -0.16987,-0.37353 0,-0.58707 0.10795,-0.61994 2.03454,-0.61994 l 1.5798,0 0.20276,0.1706 c 0.14108,0.11872 0.20274,0.22907 0.20274,0.36285 0,0.10573 -0.24894,0.81374 -0.55321,1.57336 l -0.55319,1.3811 1.37977,3.3138 1.37975,3.31378 1.48176,1.48512 c 1.27063,1.2735 1.48735,1.51953 1.52098,1.72679 0.0341,0.21001 0.0119,0.26906 -0.16966,0.45057 -0.18151,0.1815 -0.24054,0.20372 -0.45059,0.16964 -0.20784,-0.0337 -0.45915,-0.25653 -1.79379,-1.59031 l -1.5521,-1.55108 -0.88768,-2.13867 c -0.4882,-1.17629 -0.90569,-2.11754 -0.92774,-2.0917 -0.022,0.0258 -0.96629,2.01902 -2.09834,4.42927 -1.13205,2.41026 -2.12041,4.44902 -2.19636,4.53057 -0.10726,0.11516 -0.20542,0.14653 -0.43962,0.14046 -0.16585,-0.004 -2.50595,-0.40061 -5.20023,-0.88069 z m 4.25483,-0.47891 c -0.0141,-0.0272 -0.77694,-1.71009 -1.69526,-3.73978 -0.91831,-2.02968 -1.6901,-3.71423 -1.71509,-3.74343 -0.025,-0.0292 -1.04055,1.34006 -2.25681,3.04278 l -2.21137,3.09585 0.6038,0.10809 c 4.17951,0.74814 7.14429,1.27389 7.21406,1.27926 0.0475,0.004 0.0747,-0.0157 0.0607,-0.0428 z m -3.0878,-1.35798 -0.5685,-0.12916 -0.11741,-0.55951 c -0.0777,-0.36998 -0.23318,-0.79039 -0.45916,-1.24122 l -0.34174,-0.68172 0.32038,-0.44523 c 0.17621,-0.24488 0.34211,-0.45224 0.36866,-0.46079 0.073,-0.0235 0.59306,0.78699 0.80351,1.25234 0.10215,0.22587 0.2461,0.6068 0.31991,0.84652 0.12956,0.42084 0.31738,1.49647 0.26735,1.53103 -0.0134,0.009 -0.28031,-0.0412 -0.593,-0.11226 z m 5.96441,-3.15713 c 1.00102,-2.12991 1.82004,-3.90178 1.82004,-3.93746 0,-0.0418 -1.29229,-0.0649 -3.63214,-0.0649 -3.42806,0 -3.63024,0.006 -3.59846,0.11531 0.0328,0.11246 3.44973,7.63351 3.51871,7.74511 0.0191,0.0309 0.0431,0.0468 0.0533,0.0354 0.0102,-0.0115 0.83756,-1.76353 1.83857,-3.89345 z"
         style="fill:#494949;fill-opacity:1" />
      <path
         style="fill:#494949;fill-opacity:1"
         d="m 296.01489,306.53498 c -1.30143,-0.63511 -0.98483,-2.23758 -1.02559,-3.42943 0.18314,-0.69917 -0.20059,-0.83145 -0.82549,-0.72257 -0.37952,-0.11855 -1.2649,0.26874 -1.24659,-0.24765 0.0455,-2.60434 -0.11835,-5.22239 0.13103,-7.81546 0.209,-1.18237 1.49751,-1.56797 2.26139,-2.12989 0.83967,-2.06142 1.5044,-4.20253 2.50792,-6.19014 0.8339,-1.37307 2.5058,-1.15521 3.87281,-1.16307 3.69728,-0.0169 7.39456,0.0139 11.09184,0.0236 0.99794,0.4261 1.73293,1.28059 2.01574,2.33057 0.68558,1.71236 1.34189,3.4362 2.00968,5.15553 1.40423,0.33688 2.48968,1.66117 2.30464,3.14055 0.0387,2.29838 0.0146,4.59734 0.0213,6.89598 -0.69069,0 -1.38139,0 -2.07208,0 -0.0782,1.18513 0.24038,2.48773 -0.35016,3.56376 -0.81816,1.32114 -3.23581,0.84954 -3.33836,-0.77126 -0.13904,-0.92401 -0.08,-1.86153 -0.0953,-2.7925 -4.83486,0 -9.66973,0 -14.50459,0 -0.0938,1.28617 0.32037,2.78922 -0.60885,3.83899 -0.56776,0.52099 -1.45582,0.62586 -2.14935,0.31303 z m 1.74829,-8.4681 c 1.72173,-0.73814 1.30478,-3.63521 -0.60034,-3.77446 -1.76209,-0.31521 -2.8806,2.15419 -1.62744,3.34826 0.55307,0.59358 1.4952,0.76318 2.22778,0.4262 z m 18.17297,0.004 c 1.67275,-0.66957 1.34992,-3.5177 -0.44535,-3.74237 -1.60518,-0.38899 -2.87562,1.55317 -2.056,2.92888 0.46486,0.92062 1.59418,1.1927 2.50135,0.81349 z m -1.36453,-6.38608 c -0.64747,-1.55219 -1.05131,-3.22424 -1.88616,-4.68782 -1.26493,-0.68555 -2.86739,-0.24385 -4.27992,-0.37807 -2.83532,0.0314 -5.67631,-0.0732 -8.50801,0.0758 -1.25646,0.64748 -1.27588,2.38748 -1.88451,3.55808 0.0159,0.57265 -1.16063,1.96568 -0.43318,2.04009 5.74044,0 11.48089,0 17.22133,0 -0.0765,-0.2027 -0.15303,-0.4054 -0.22955,-0.60811 z"
         id="path9063-7-8"
         inkscape:connector-curvature="0" />
      <path
         inkscape:connector-curvature="0"
         d="m 331.74354,278.17684 c 0.27019,0.007 0.54629,0.0879 0.70279,0.24393 0.30462,0.3037 0.32008,0.97554 0.0303,1.31687 -0.42354,0.49898 -1.17926,0.42269 -1.56016,-0.15682 -0.22727,-0.34581 -0.16179,-0.83732 0.15734,-1.19031 0.13518,-0.14956 0.39946,-0.21965 0.66966,-0.21367 z m 2.67963,0 c 0.27019,0.007 0.54534,0.0879 0.70183,0.24393 0.31306,0.31205 0.33045,1.09774 0.0304,1.36731 -0.95301,0.85619 -2.26076,-0.44749 -1.40187,-1.39757 0.13518,-0.14956 0.39946,-0.21965 0.66966,-0.21367 z m -1.30719,2.3678 c 4.84572,0 5.28322,0.0176 5.8358,0.23018 0.76917,0.29577 1.46723,0.9317 1.87749,1.70661 l 0.32561,0.6135 0.0348,7.15109 c 0.0394,8.23472 0.0648,7.99321 -0.95301,9.10346 -0.39035,0.4258 -0.81192,0.74397 -1.15811,0.87578 -0.29894,0.11381 -0.54185,0.25439 -0.54185,0.31271 0,0.0584 0.90328,1.45824 2.00908,3.1106 l 2.01178,3.00423 -1.05877,0.0358 c -0.58128,0.0195 -1.11531,0.0123 -1.18759,-0.0156 -0.0724,-0.0279 -0.7884,-1.01318 -1.59234,-2.18897 l -1.46077,-2.13671 -4.15699,-0.002 -4.15417,-0.004 -1.48473,2.18622 -1.48563,2.18531 -1.1517,0 c -0.6327,0 -1.14894,-0.0289 -1.14894,-0.0633 0,-0.0344 0.87886,-1.37627 1.95479,-2.98313 1.07592,-1.60685 1.98106,-2.98534 2.01088,-3.06383 0.0303,-0.0806 -0.19482,-0.24451 -0.51608,-0.37599 -0.72659,-0.29737 -1.44147,-1.01155 -1.81495,-1.81115 l -0.29342,-0.62726 0,-7.28682 0,-7.28405 0.28515,-0.60709 c 0.3561,-0.75895 1.18653,-1.53162 1.97318,-1.83407 0.55845,-0.21474 0.9807,-0.23201 5.84036,-0.23201 z m 0.0276,3.58288 c -5.34987,0 -5.42126,0.01 -5.94797,0.74555 -0.26288,0.3674 -0.29703,0.55859 -0.33578,1.90104 -0.0236,0.82076 -0.007,1.68219 0.0366,1.91477 0.1014,0.5388 0.71101,1.23421 1.2069,1.3774 l 0,10e-4 c 0.57277,0.16536 9.23103,0.16216 9.89158,-0.004 1.15389,-0.28965 1.48258,-1.13211 1.36788,-3.50677 -0.066,-1.36524 -0.27132,-1.8428 -0.94659,-2.20274 -0.39362,-0.20972 -0.77694,-0.22651 -5.27281,-0.22651 z m -4.54149,11.18239 c -0.19504,-0.0113 -0.38698,0.0295 -0.62459,0.11922 -0.81452,0.30768 -1.27507,1.20512 -1.01737,1.98357 0.13192,0.3986 0.63753,0.9565 0.97871,1.08027 0.10052,0.0365 0.36307,0.0701 0.58416,0.0752 1.66811,0.0398 2.23077,-2.35151 0.72118,-3.06567 -0.24921,-0.1179 -0.44701,-0.18132 -0.64209,-0.19258 z m 9.05997,0.0275 c -0.22001,-0.003 -0.44215,0.0515 -0.666,0.16232 -1.23951,0.61408 -1.32917,2.23053 -0.15819,2.85657 1.21414,0.64914 2.54643,-0.23348 2.39353,-1.58556 -0.0489,-0.43372 -0.15482,-0.63633 -0.49122,-0.94363 -0.35108,-0.32078 -0.71139,-0.48454 -1.07812,-0.4897 z"
         style="opacity:1;fill:#494949;fill-opacity:1;stroke:none;stroke-width:1.0771029;stroke-linecap:butt;stroke-linejoin:bevel;stroke-miterlimit:4;stroke-dasharray:none;stroke-dashoffset:0;stroke-opacity:1"
         id="path8733-6" />
      <path
         inkscape:connector-curvature="0"
         id="path8757"
         d="m 349.63247,306.46298 c -0.71967,-0.44317 -0.93098,-0.78706 -0.99746,-1.62334 -0.0532,-0.66848 -0.12741,-0.84232 -0.5116,-1.19804 -0.32855,-0.3042 -0.47307,-0.57922 -0.53739,-1.02269 -0.0483,-0.33363 -0.0694,-4.411 -0.0467,-9.06083 0.039,-7.97045 0.0562,-8.48393 0.29998,-8.97327 0.36986,-0.74232 0.94439,-1.11926 2.30518,-1.51238 2.21424,-0.63968 3.94586,-0.82333 7.76323,-0.82333 3.81192,0 5.5494,0.18376 7.75085,0.81975 1.39948,0.40429 1.8617,0.7028 2.27153,1.46696 0.30424,0.56728 0.30471,0.57948 0.34606,9.02227 0.0226,4.64983 0,8.72858 -0.0473,9.06389 -0.0644,0.4433 -0.21039,0.72423 -0.53513,1.02957 -0.37838,0.35576 -0.45653,0.53881 -0.51134,1.19814 -0.0478,0.576 -0.15069,0.86992 -0.39539,1.13104 -0.91572,0.97722 -2.07178,0.97609 -2.98925,-0.003 -0.25518,-0.2723 -0.34725,-0.54717 -0.39261,-1.17201 l -0.0592,-0.81627 -5.43842,0 -5.43838,0 -0.0592,0.81627 c -0.0452,0.62485 -0.13743,0.89972 -0.39261,1.17201 -0.71155,0.7593 -1.63488,0.94713 -2.38507,0.48518 z m 1.93841,-4.70891 c 0.54252,-0.46521 0.54252,-1.33639 0,-1.8016 -0.49609,-0.4254 -1.0584,-0.41596 -1.58597,0.0266 -0.5957,0.49972 -0.5957,1.2487 0,1.74843 0.52757,0.44255 1.08988,0.45198 1.58597,0.0266 z m 14.28075,-0.0722 c 0.56087,-0.55911 0.5527,-1.22163 -0.0211,-1.70285 -0.57002,-0.47817 -1.13166,-0.46257 -1.64141,0.0456 -0.27285,0.27203 -0.3998,0.53513 -0.3998,0.82864 0,0.29351 0.12695,0.5566 0.3998,0.82864 0.27291,0.27203 0.53683,0.39859 0.83121,0.39859 0.29444,0 0.55835,-0.12656 0.83126,-0.39859 z m 0.18346,-4.86581 c 0.19081,-0.073 0.2164,-0.57741 0.2164,-4.26802 0,-3.07339 -0.0437,-4.22873 -0.16415,-4.34889 -0.23704,-0.23628 -16.12211,-0.23628 -16.35911,0 -0.24141,0.24067 -0.23483,8.51216 0.007,8.60937 0.24645,0.0991 16.04151,0.10645 16.30003,0.008 z m -3.36731,-10.85319 c 0.0903,-0.09 0.16414,-0.48668 0.16414,-0.88153 0,-0.57021 -0.0544,-0.74694 -0.26458,-0.85906 -0.35984,-0.19199 -8.95931,-0.19199 -9.31915,0 -0.21013,0.11212 -0.26458,0.28885 -0.26458,0.85906 0,0.39485 0.0739,0.79153 0.16414,0.88153 0.2351,0.23435 9.28498,0.23435 9.52003,0 z"
         style="fill:#494949;fill-opacity:1;stroke:none" />
    </g>
    <text
       xml:space="preserve"
       style="font-style:normal;font-variant:normal;font-weight:normal;font-stretch:normal;font-size:12.5px;line-height:125%;font-family:'Times New Roman';-inkscape-font-specification:'Times New Roman, Normal';text-align:center;letter-spacing:0px;word-spacing:0px;writing-mode:lr-tb;text-anchor:middle;fill:#676767;fill-opacity:1;stroke:none;stroke-width:1px;stroke-linecap:butt;stroke-linejoin:miter;stroke-opacity:1"
       x="217.09277"
       y="440.19403"
       id="text7362"
       sodipodi:linespacing="125%"><tspan
         sodipodi:role="line"
         id="tspan8527"
         x="217.09277"
         y="440.19403">Fossil fuel</tspan><tspan
         sodipodi:role="line"
         id="tspan8529"
         x="217.09277"
         y="455.81903">production</tspan></text>
    <text
       xml:space="preserve"
       style="font-style:normal;font-variant:normal;font-weight:normal;font-stretch:normal;font-size:12.5px;line-height:125%;font-family:'Times New Roman';-inkscape-font-specification:'Times New Roman, Normal';text-align:center;letter-spacing:0px;word-spacing:0px;writing-mode:lr-tb;text-anchor:middle;fill:#676767;fill-opacity:1;stroke:none;stroke-width:1px;stroke-linecap:butt;stroke-linejoin:miter;stroke-opacity:1"
       x="483.91104"
       y="440.18182"
       id="text7370"
       sodipodi:linespacing="125%"><tspan
         sodipodi:role="line"
         id="tspan7400"
         x="483.91104"
         y="440.18182">Infrastructure</tspan><tspan
         sodipodi:role="line"
         id="tspan7402"
         x="483.91104"
         y="455.80682">provisioning</tspan></text>
    <g
       id="g7600"
       transform="translate(0,-17.234018)">
      <g
         transform="translate(0,-0.24106)"
         id="g7596">
        <path
           style="fill:#494949;fill-opacity:1"
           d="m 441.10887,428.77094 c -0.47245,-0.44133 -0.7169,-1.15852 -0.55408,-1.62559 0.0665,-0.19071 2.88225,-5.08843 6.25728,-10.88384 3.37501,-5.79541 6.39825,-10.99256 6.71829,-11.54921 0.32004,-0.55667 0.73354,-1.11166 0.91888,-1.23331 0.46319,-0.30405 1.42023,-0.29403 1.83825,0.0193 0.33555,0.25146 13.61975,22.87264 13.85446,23.59228 0.18251,0.55953 -0.17083,1.46228 -0.69819,1.78385 -0.3768,0.22976 -0.82034,0.23719 -14.17914,0.23764 l -13.79017,5e-4 -0.36558,-0.34151 z m 25.9831,-2.31392 c 0.0431,-0.03 -11.68604,-20.53524 -11.74741,-20.53713 -0.0341,-0.001 -0.86692,1.43412 -1.85065,3.18927 -0.98373,1.75516 -3.59395,6.38859 -5.80048,10.29652 -2.20653,3.90793 -4.01188,7.13349 -4.01188,7.16789 0,0.051 23.33648,-0.0652 23.41042,-0.11655 z m -21.51501,-0.9117 c 0.0269,-0.0512 0.73698,-1.33536 1.57793,-2.85372 1.23682,-2.23312 1.57859,-2.76053 1.78848,-2.75996 0.55058,10e-4 1.1907,0.27111 1.46358,0.61653 0.15664,0.19829 0.488,0.49757 0.73634,0.66507 l 0.45154,0.30454 0.49598,-0.29577 c 0.39389,-0.23489 0.51358,-0.39182 0.58145,-0.7624 0.047,-0.25665 0.22887,-0.78858 0.40414,-1.18208 0.3019,-0.6778 0.31119,-0.76066 0.17674,-1.57483 -0.20705,-1.25372 -0.18345,-1.43806 0.24681,-1.92811 0.21381,-0.24351 0.35125,-0.48023 0.30543,-0.52604 -0.0458,-0.0458 -0.3063,-0.0889 -0.57887,-0.0957 -1.02649,-0.0258 -1.56466,-1.23358 -0.87617,-1.96644 0.38556,-0.41042 0.79176,-0.49402 1.32263,-0.27221 0.4525,0.18907 0.84909,0.84524 0.77615,1.28416 -0.0465,0.27931 0.0745,0.2604 0.95747,-0.14967 0.76823,-0.3568 1.79841,-0.53486 2.32695,-0.40221 0.65986,0.16562 1.35961,1.18467 1.50661,2.19408 0.045,0.30931 0.19815,0.75354 0.34024,0.98718 l 0.25834,0.4248 -0.32559,0.28006 c -0.17907,0.15403 -0.40859,0.2482 -0.51004,0.20927 -0.23058,-0.0885 -0.2289,0.004 0.0127,0.69776 0.10645,0.30572 0.23941,0.96491 0.29548,1.46486 0.093,0.82948 0.36557,1.43378 0.61129,1.35537 0.0947,-0.0302 1.18562,1.15294 1.59728,1.73224 0.15381,0.21643 0.4415,0.46516 0.63931,0.55272 l 0.35966,0.1592 -0.35995,0.71306 c -0.48281,0.95645 -0.78645,1.22133 -1.40004,1.22133 l -0.49453,0 0.25427,-0.27917 c 0.24046,-0.264 0.53343,-0.74867 0.53343,-0.88246 0,-0.0337 -0.57989,-0.54254 -1.28866,-1.13076 -1.356,-1.12537 -1.93806,-1.93269 -2.12673,-2.94976 -0.0475,-0.25591 -0.12597,-0.46528 -0.17445,-0.46528 -0.18307,0 -1.12492,1.82618 -1.12323,2.17786 10e-4,0.20112 -0.14741,1.07755 -0.32971,1.94762 l -0.33146,1.58195 -1.22123,0 c -0.67168,0 -1.22122,-0.0503 -1.22122,-0.11178 0,-0.0615 0.24489,-0.21308 0.54421,-0.33688 0.52092,-0.21545 0.54743,-0.25182 0.61929,-0.84979 0.0413,-0.34359 0.0789,-1.04346 0.0836,-1.55527 0.008,-0.89597 0.11723,-1.71316 0.31355,-2.34913 l 0.0932,-0.30191 -0.4857,0.29148 c -0.26713,0.16032 -0.61537,0.44972 -0.77386,0.64312 -0.17658,0.21547 -0.40824,0.35162 -0.59827,0.35162 -0.17057,0 -0.55171,0.14158 -0.84698,0.31462 l -0.53684,0.31462 0.36799,0.95566 c 0.31353,0.81424 0.71559,2.22955 0.72172,2.54059 0.001,0.0512 -1.62063,0.0931 -3.60365,0.0931 -1.98301,0 -3.58346,-0.0418 -3.55654,-0.0931 z m 9.78836,-6.45214 c 0.18798,-0.47476 0.0919,-0.79689 -0.38989,-1.30733 l -0.49319,-0.52251 -0.003,0.80688 c -0.003,0.72058 -0.0496,0.87221 -0.43736,1.41768 -0.23884,0.33594 -0.43426,0.65318 -0.43426,0.70499 0,0.16821 1.66928,-0.87612 1.75781,-1.09971 z m 3.35621,-1.91075 c 0.0262,-0.0786 -0.10135,-0.56716 -0.28346,-1.08565 -0.33161,-0.94413 -0.60706,-1.24659 -1.13934,-1.25107 -0.22657,-0.002 -0.3008,0.30404 -0.10337,0.42606 0.0626,0.0387 0.37116,0.51655 0.68575,1.06196 0.55359,0.95977 0.74049,1.14851 0.84042,0.8487 z"
           id="path7396"
           inkscape:connector-curvature="0" />
        <path
           style="fill:none;fill-rule:evenodd;stroke:#494949;stroke-width:2;stroke-linecap:butt;stroke-linejoin:miter;stroke-miterlimit:4;stroke-dasharray:none;stroke-opacity:1"
           d="m 455.34748,428.92471 0,14.4375"
           id="path7398"
           inkscape:connector-curvature="0" />
      </g>
      <path
         sodipodi:nodetypes="ccccccccccsccccccsccccccccccccccccccccccccccccccccccccccccccccccccccccccccccccccccccccccccccccccccccccccccccccccccccccccccccccccccc"
         inkscape:connector-curvature="0"
         id="path7579"
         d="m 514.01537,436.34091 0,-6.7802 0.81067,0 0.81068,0 0,0.73697 0,0.73698 1.32656,0 1.32656,0 0,-2.57942 0,-2.57942 0.50781,0 c 0.50124,0 0.50839,0.009 0.55273,0.70013 l 0.0449,0.70012 1.28971,0.0426 1.28972,0.0426 0,-0.74272 0,-0.74271 0.50781,0 c 0.50124,0 0.50839,0.009 0.55273,0.70013 l 0.045,0.70012 1.28972,0.0426 1.28971,0.0426 0,-0.74272 0,-0.74271 0.81067,0 0.81068,0 0,8.62264 0,8.62265 -6.6328,0 -6.63281,0 0,-6.7802 z m 4.27447,4.42187 0,-1.32657 -1.32656,0 -1.32656,0 0,1.32657 0,1.32656 1.32656,0 1.32656,0 z m 3.6849,0 0,-1.32657 -1.32657,0 -1.32656,0 0,1.32657 0,1.32656 1.32656,0 1.32657,0 z m 3.68489,0 0,-1.32657 -1.32657,0 -1.32655,0 0,1.32657 0,1.32656 1.32655,0 1.32657,0 z m -7.36979,-3.68489 0,-1.32657 -1.32656,0 -1.32656,0 0,1.32657 0,1.32655 1.32656,0 1.32656,0 z m 3.6849,0 0,-1.32657 -1.32657,0 -1.32656,0 0,1.32657 0,1.32655 1.32656,0 1.32657,0 z m 3.68489,0 0,-1.32657 -1.32657,0 -1.32655,0 0,1.32657 0,1.32655 1.32655,0 1.32657,0 z m -7.36979,-3.68489 0,-1.32657 -1.32656,0 -1.32656,0 0,1.32657 0,1.32655 1.32656,0 1.32656,0 z m 3.6849,0 0,-1.32657 -1.32657,0 -1.32656,0 0,1.32657 0,1.32655 1.32656,0 1.32657,0 z m 3.68489,0 0,-1.32657 -1.32657,0 -1.32655,0 0,1.32657 0,1.32655 1.32655,0 1.32657,0 z m -3.68489,-3.6849 0,-1.32656 -1.32657,0 -1.32656,0 0,1.32656 0,1.32656 1.32656,0 1.32657,0 z m 3.68489,0 0,-1.32656 -1.32657,0 -1.32655,0 0,1.32656 0,1.32656 1.32655,0 1.32657,0 z"
         style="fill:#494949;fill-opacity:1" />
      <path
         sodipodi:nodetypes="ccccccccccccsccccccssscscccsscsscccsccssssssscccccccccccssscccsscccsssssscccsscccssscccccscccscccccsscccssccccssccscccsssssccccsscccsssccscccccccsccscccsccccccccccccsssssccsscccssscsccccsscccscscccsscccccs"
         inkscape:connector-curvature="0"
         id="path7592"
         d="m 482.3334,442.43284 0,-0.68847 3.71768,0 3.7177,0 0,-20.76572 0,-16.52308 -3.15578,0 -3.15579,0 -0.08,2.27191 -0.08,2.27193 -2.82268,0.0784 -2.8227,0.0784 0,-2.35039 c 0,-3.0217 -0.50259,-3.08652 -0.60848,-0.0784 l -0.08,2.27194 -2.82269,0.0784 -2.8227,0.0784 0,-2.90117 0,-2.90117 1.11272,0 c 1.13167,0 18.14943,-4.00894 18.48581,-4.35477 0.10115,-0.10399 0.51553,-1.42832 0.92082,-2.94294 0.40529,-1.51461 0.8945,-2.91865 1.08714,-3.12006 0.2886,-0.30176 1.16474,0.19507 4.97768,2.82269 l 4.62742,3.18891 6.15295,0 6.15296,0 2.68164,2.22092 c 1.47491,1.22151 2.68166,2.42975 2.68166,2.685 0,0.37695 -0.32318,0.47948 -1.72116,0.54608 -1.21773,0.058 -1.72115,0.19035 -1.72115,0.45246 0,0.20375 -0.18588,0.4418 -0.41308,0.52898 -0.33723,0.1294 -0.41341,0.80481 -0.41489,3.67831 -0.002,3.04932 -0.0749,3.63023 -0.54895,4.34595 -0.30093,0.4544 -0.54796,1.19328 -0.54895,1.64197 -8.7e-4,0.55726 -0.24183,1.00894 -0.75914,1.42522 -0.61599,0.4957 -0.69179,0.67618 -0.40619,0.96729 0.28355,0.28904 0.45789,0.29119 0.9062,0.0113 1.11221,-0.69458 1.53592,0.46437 0.4338,1.18651 -1.71047,1.12073 -3.56626,-1.42938 -2.10418,-2.89146 0.70001,-0.70002 0.70001,-1.51336 0,-2.4033 -0.48837,-0.62087 -0.55078,-1.11718 -0.55078,-4.38076 0,-2.27011 -0.10551,-3.68056 -0.27538,-3.68056 -0.15146,0 -0.27538,-0.18587 -0.27538,-0.41307 0,-0.35717 -1.02504,-0.41307 -7.57308,-0.41307 l -7.57309,0 0,16.52308 0,20.76572 3.58,0 3.58,0 0,0.68847 0,0.68846 -10.74,0 -10.74001,0 0,-0.68846 z m 13.21846,-12.3665 c 0,-0.90876 -0.0968,-1.6523 -0.21515,-1.6523 -0.11834,0 -0.95095,0.74354 -1.85024,1.6523 l -1.63506,1.65232 1.85022,0 1.85023,0 z m -2.61616,-1.10153 1.63507,-1.65231 -1.85022,0 -1.85023,0 0,1.65231 c 0,0.90877 0.0968,1.65231 0.21517,1.65231 0.11833,0 0.95093,-0.74354 1.85021,-1.65231 z m 0,-4.68154 c -0.89928,-0.90877 -1.73188,-1.65231 -1.85021,-1.65231 -0.11835,0 -0.21517,0.74354 -0.21517,1.65231 l 0,1.6523 1.85023,0 1.85022,0 z m 2.61616,-0.96385 0,-1.79 -1.8509,0 -1.85088,0 1.77408,1.79 c 0.97576,0.98449 1.80866,1.79001 1.8509,1.79001 0.0423,0 0.0768,-0.80552 0.0768,-1.79001 z m -0.11341,-3.26859 c 0.0796,-0.20739 0.10672,-1.0176 0.0602,-1.80049 l -0.0845,-1.42343 -1.78205,1.8005 -1.78205,1.80047 1.72185,0 c 1.20338,0 1.76541,-0.11353 1.86653,-0.37705 z m -2.39059,-4.25128 c -2.09279,-0.12423 -2.17754,-0.0493 -2.17754,1.92672 l 0,1.72185 1.80048,-1.78204 1.80048,-1.78205 -1.42342,-0.0845 z m 1.40246,-1.23155 c 0,-0.0423 -0.8055,-0.87514 -1.79,-1.8509 l -1.79,-1.77408 0,1.85089 0,1.85089 1.79,0 c 0.9845,0 1.79,-0.0346 1.79,-0.0768 z m 1.10154,-2.67704 0,-1.65232 -1.71253,0 -1.71254,0 1.63507,1.65232 c 0.89929,0.90876 1.66993,1.6523 1.71253,1.6523 0.0426,0 0.0774,-0.74354 0.0774,-1.6523 z m 19.27693,-3.06296 0,-3.54629 -0.68846,0 -0.68846,0 0,3.52493 c 0,3.62278 0.23375,4.51639 1.01237,3.8702 0.26794,-0.22237 0.36455,-1.24234 0.36455,-3.84884 z m -19.27693,-1.75629 c 0,-0.98449 -0.0345,-1.79 -0.0768,-1.79 -0.0423,0 -0.87514,0.80551 -1.8509,1.79 l -1.77408,1.79001 1.85088,0 1.8509,0 z m -2.61616,-0.96384 1.63507,-1.6523 -1.85022,0 -1.85023,0 0,1.6523 c 0,0.90878 0.0968,1.65231 0.21517,1.65231 0.11833,0 0.95093,-0.74353 1.85021,-1.65231 z m -2.66371,-4.19073 c 0.16215,-0.63882 0.24778,-1.20854 0.19028,-1.26604 -0.0576,-0.0575 -2.37472,0.45255 -5.1494,1.13344 l -5.04486,1.23796 4.85458,0.0281 4.85458,0.0281 0.29482,-1.1615 z m 4.91151,0.76565 c -0.0836,-0.21772 -0.28746,-0.8993 -0.45316,-1.51462 -0.29459,-1.09406 -0.32815,-1.11877 -1.51924,-1.11877 -1.20237,0 -1.22186,0.0151 -1.51761,1.17039 -0.16478,0.64372 -0.35155,1.32529 -0.41505,1.51462 -0.0856,0.25525 0.42381,0.34423 1.97076,0.34423 1.70092,0 2.05814,-0.0731 1.9343,-0.39585 z m 10.68152,0.16828 c -0.32784,-0.28519 -2.91288,-2.10513 -3.31001,-2.33033 -0.162,-0.0919 -1.21536,0.44576 -2.34078,1.19473 l -2.04622,1.36178 3.97931,5.5e-4 c 2.18863,2.7e-4 3.86159,-0.1017 3.7177,-0.22689 z m 4.63905,-2.74462 c -1.09118,-0.0444 -2.95003,-0.0444 -4.13077,0 l -2.14682,0.0807 2.02986,1.43167 2.02986,1.43169 2.1009,-1.43169 2.10092,-1.43167 z m 1.29549,2.54942 c 0,-0.33742 -0.11117,-0.36326 -0.55076,-0.128 -0.30293,0.16212 -0.55078,0.35237 -0.55078,0.42276 0,0.0704 0.24785,0.12801 0.55078,0.12801 0.31159,0 0.55076,-0.18359 0.55076,-0.42277 z m 6.03552,0.34484 c -0.0631,-0.0428 -0.3316,-0.24391 -0.59666,-0.4468 -0.41252,-0.31574 -0.48193,-0.30452 -0.48193,0.078 0,0.27466 0.22987,0.44678 0.59667,0.44678 0.32817,0 0.54503,-0.0351 0.48192,-0.078 z m -17.88279,-2.74476 c 0.003,-0.1136 -0.92369,-0.20655 -2.05966,-0.20655 -1.13596,0 -2.06539,0.069 -2.06539,0.15345 0,0.0843 0.1367,0.69632 0.30378,1.35984 l 0.30378,1.20642 1.75588,-1.15331 c 0.96573,-0.63433 1.75845,-1.24626 1.76161,-1.35985 z m 15.59054,0.88051 -0.95745,-0.84064 -1.11752,0.73955 c -0.61464,0.40674 -1.11752,0.78503 -1.11752,0.84064 0,0.0556 0.93372,0.10114 2.07496,0.10114 l 2.07497,0 -0.95744,-0.84064 z m -21.78849,-3.594 c -0.34925,-1.32394 -0.67728,-2.02574 -0.68392,-1.46318 -0.002,0.13883 -0.1816,0.84107 -0.39991,1.56051 l -0.39692,1.30808 0.92574,0 0.92575,0 z m 5.48768,0.63193 c -2.49168,-1.79447 -4.56758,-3.12244 -4.68986,-3.00015 -0.0721,0.0722 0.0873,0.95066 0.3542,1.95237 l 0.48529,1.82126 2.46219,0 2.4622,0 z"
         style="fill:#494949;fill-opacity:1" />
    </g>
    <text
       xml:space="preserve"
       style="font-style:normal;font-variant:normal;font-weight:normal;font-stretch:normal;font-size:12.5px;line-height:125%;font-family:'Times New Roman';-inkscape-font-specification:'Times New Roman, Normal';text-align:center;letter-spacing:0px;word-spacing:0px;writing-mode:lr-tb;text-anchor:middle;fill:#676767;fill-opacity:1;stroke:none;stroke-width:1px;stroke-linecap:butt;stroke-linejoin:miter;stroke-opacity:1"
       x="217.15991"
       y="321.22601"
       id="text4194"
       sodipodi:linespacing="125%"><tspan
         sodipodi:role="line"
         id="tspan4196"
         x="217.15991"
         y="321.22601">Fuel prices</tspan></text>
    <text
       xml:space="preserve"
       style="font-style:normal;font-variant:normal;font-weight:normal;font-stretch:normal;font-size:12.5px;line-height:125%;font-family:'Times New Roman';-inkscape-font-specification:'Times New Roman, Normal';text-align:center;letter-spacing:0px;word-spacing:0px;writing-mode:lr-tb;text-anchor:middle;fill:#676767;fill-opacity:1;stroke:none;stroke-width:1px;stroke-linecap:butt;stroke-linejoin:miter;stroke-opacity:1"
       x="349.41711"
       y="321.22601"
       id="text4198"
       sodipodi:linespacing="125%"><tspan
         sodipodi:role="line"
         id="tspan4200"
         x="349.41711"
         y="321.22601">Modal choice</tspan></text>
    <text
       xml:space="preserve"
       style="font-style:normal;font-variant:normal;font-weight:normal;font-stretch:normal;font-size:12.5px;line-height:125%;font-family:'Times New Roman';-inkscape-font-specification:'Times New Roman, Normal';text-align:center;letter-spacing:0px;word-spacing:0px;writing-mode:lr-tb;text-anchor:middle;fill:#676767;fill-opacity:1;stroke:none;stroke-width:1px;stroke-linecap:butt;stroke-linejoin:miter;stroke-opacity:1"
       x="483.95377"
       y="321.21381"
       id="text4202"
       sodipodi:linespacing="125%"><tspan
         sodipodi:role="line"
         id="tspan4206"
         x="483.95377"
         y="321.21381">Infrastructures</tspan><tspan
         sodipodi:role="line"
         id="tspan4208"
         x="483.95377"
         y="336.83881">&amp; urban form</tspan></text>
    <flowRoot
       xml:space="preserve"
       id="flowRoot4512"
       style="font-style:normal;font-variant:normal;font-weight:normal;font-stretch:normal;font-size:12.5px;line-height:125%;font-family:'Times New Roman';-inkscape-font-specification:'Times New Roman, Normal';text-align:start;letter-spacing:0px;word-spacing:0px;writing-mode:lr-tb;text-anchor:start;fill:#000000;fill-opacity:1;stroke:none;stroke-width:1px;stroke-linecap:butt;stroke-linejoin:miter;stroke-opacity:1"
       transform="translate(-45.307611,78.636037)"><flowRegion
         id="flowRegion4514"><rect
           id="rect4516"
           width="137.27208"
           height="67.80761"
           x="146.5"
           y="111.36223"
           style="font-style:normal;font-variant:normal;font-weight:normal;font-stretch:normal;font-size:12.5px;line-height:125%;font-family:'Times New Roman';-inkscape-font-specification:'Times New Roman, Normal';text-align:start;writing-mode:lr-tb;text-anchor:start" /></flowRegion><flowPara
         id="flowPara23194"><flowSpan
   style="font-weight:bold"
   id="flowSpan23196">Economics:</flowSpan> relative prices and elasticity of demand for transportation options</flowPara></flowRoot>    <path
       style="fill:none;fill-rule:evenodd;stroke:#969696;stroke-width:1px;stroke-linecap:butt;stroke-linejoin:miter;stroke-opacity:1;marker-end:url(#marker4623)"
       d="m 250.38443,216.73879 25.8094,0 0,81.49405"
       id="path4621"
       inkscape:connector-curvature="0" />
    <path
       style="fill:none;fill-rule:evenodd;stroke:#969696;stroke-width:1px;stroke-linecap:butt;stroke-linejoin:miter;stroke-opacity:1;marker-end:url(#DotM)"
       d="m 349.34691,206.61097 0,59.25126"
       id="path5611"
       inkscape:connector-curvature="0"
       sodipodi:nodetypes="cc" />
    <flowRoot
       xml:space="preserve"
       id="flowRoot5635"
       style="font-style:normal;font-variant:normal;font-weight:normal;font-stretch:normal;font-size:12.5px;line-height:125%;font-family:'Times New Roman';-inkscape-font-specification:'Times New Roman, Normal';text-align:start;letter-spacing:0px;word-spacing:0px;writing-mode:lr-tb;text-anchor:start;fill:#000000;fill-opacity:1;stroke:none;stroke-width:1px;stroke-linecap:butt;stroke-linejoin:miter;stroke-opacity:1"
       transform="translate(18.725572,45.127416)"><flowRegion
         id="flowRegion5637"><rect
           id="rect5639"
           width="143.5"
           height="52.5"
           x="262.5"
           y="125.36223" /></flowRegion><flowPara
         id="flowPara5641"><flowSpan
   style="font-weight:bold"
   id="flowSpan16181">Psychology:</flowSpan> symbolic status of vehicle ownership</flowPara></flowRoot>    <flowRoot
       xml:space="preserve"
       id="flowRoot5819"
       style="font-style:normal;font-variant:normal;font-weight:normal;font-stretch:normal;font-size:12.5px;line-height:125%;font-family:'Times New Roman';-inkscape-font-specification:'Times New Roman, Normal';text-align:start;letter-spacing:0px;word-spacing:0px;writing-mode:lr-tb;text-anchor:start;fill:#000000;fill-opacity:1;stroke:none;stroke-width:1px;stroke-linecap:butt;stroke-linejoin:miter;stroke-opacity:1"
       transform="translate(0,2.136037)"><flowRegion
         id="flowRegion5821"><rect
           id="rect5823"
           width="142"
           height="47"
           x="462"
           y="187.86223" /></flowRegion><flowPara
         id="flowPara5825"><flowSpan
   style="font-weight:bold"
   id="flowSpan16183">Practice theory:</flowSpan> every-day routines and habits in accessing infrastructures</flowPara></flowRoot>    <path
       style="fill:none;fill-rule:evenodd;stroke:#969696;stroke-width:1px;stroke-linecap:butt;stroke-linejoin:miter;stroke-opacity:1;marker-start:url(#marker5835)"
       d="m 349.34691,357.98337 0,159.45256"
       id="path5833"
       inkscape:connector-curvature="0"
       sodipodi:nodetypes="cc"
       mask="none" />
    <flowRoot
       xml:space="preserve"
       id="flowRoot5635-3"
       style="font-style:normal;font-variant:normal;font-weight:normal;font-stretch:normal;font-size:12.5px;line-height:125%;font-family:'Times New Roman';-inkscape-font-specification:'Times New Roman, Normal';text-align:start;letter-spacing:0px;word-spacing:0px;writing-mode:lr-tb;text-anchor:start;fill:#000000;fill-opacity:1;stroke:none;stroke-width:1px;stroke-linecap:butt;stroke-linejoin:miter;stroke-opacity:1"
       transform="translate(9.0881209,394.60193)"><flowRegion
         id="flowRegion5637-2"><rect
           id="rect5639-6"
           width="161.43329"
           height="59.060955"
           x="262.5"
           y="125.36223"
           style="font-style:normal;font-variant:normal;font-weight:normal;font-stretch:normal;font-size:12.5px;line-height:125%;font-family:'Times New Roman';-inkscape-font-specification:'Times New Roman, Normal';text-align:start;writing-mode:lr-tb;text-anchor:start" /></flowRegion><flowPara
         id="flowPara16169"><flowSpan
   style="font-weight:bold"
   id="flowSpan16175">Technical innovation studies:</flowSpan> innovation and demand for efficient end-use technologies</flowPara></flowRoot>    <flowRoot
       transform="translate(-353.68671,296.20047)"
       xml:space="preserve"
       id="flowRoot5819-8"
       style="font-style:normal;font-variant:normal;font-weight:normal;font-stretch:normal;font-size:12.5px;line-height:125%;font-family:'Times New Roman';-inkscape-font-specification:'Times New Roman, Normal';text-align:start;letter-spacing:0px;word-spacing:0px;writing-mode:lr-tb;text-anchor:start;fill:#000000;fill-opacity:1;stroke:none;stroke-width:1px;stroke-linecap:butt;stroke-linejoin:miter;stroke-opacity:1"><flowRegion
         id="flowRegion5821-9"><rect
           id="rect5823-4"
           width="134.92894"
           height="50.535534"
           x="462"
           y="187.86223" /></flowRegion><flowPara
         id="flowPara5825-5"><flowSpan
   style="font-weight:bold"
   id="flowSpan16177">Industrial ecology:</flowSpan> life-cycle impacts of technology pathways</flowPara></flowRoot>    <path
       style="fill:none;fill-rule:evenodd;stroke:#969696;stroke-width:1px;stroke-linecap:butt;stroke-linejoin:miter;stroke-opacity:1;marker-end:url(#marker7677-1)"
       d="m 450.78425,502.23314 -28.28426,0 0,-144.24977"
       id="path7669-0"
       inkscape:connector-curvature="0"
       sodipodi:nodetypes="ccc" />
    <flowRoot
       transform="translate(-0.32144245,295.99295)"
       xml:space="preserve"
       id="flowRoot5819-8-5"
       style="font-style:normal;font-variant:normal;font-weight:normal;font-stretch:normal;font-size:12.5px;line-height:125%;font-family:'Times New Roman';-inkscape-font-specification:'Times New Roman, Normal';text-align:start;letter-spacing:0px;word-spacing:0px;writing-mode:lr-tb;text-anchor:start;fill:#000000;fill-opacity:1;stroke:none;stroke-width:1px;stroke-linecap:butt;stroke-linejoin:miter;stroke-opacity:1"><flowRegion
         id="flowRegion5821-9-3"><rect
           id="rect5823-4-0"
           width="142"
           height="47"
           x="462"
           y="187.86223"
           style="font-style:normal;font-variant:normal;font-weight:normal;font-stretch:normal;font-size:12.5px;line-height:125%;font-family:'Times New Roman';-inkscape-font-specification:'Times New Roman, Normal';text-align:start;writing-mode:lr-tb;text-anchor:start" /></flowRegion><flowPara
         id="flowPara16171"><flowSpan
   style="font-weight:bold"
   id="flowSpan16173">Transition studies &amp; urban transport planning:</flowSpan> car dependency regime</flowPara></flowRoot>    <rect
       style="color:#000000;clip-rule:nonzero;display:inline;overflow:visible;visibility:visible;opacity:1;isolation:auto;mix-blend-mode:normal;color-interpolation:sRGB;color-interpolation-filters:linearRGB;solid-color:#000000;solid-opacity:1;fill:#ffffff;fill-opacity:1;fill-rule:nonzero;stroke:none;stroke-width:2;stroke-linecap:round;stroke-linejoin:round;stroke-miterlimit:4;stroke-dasharray:none;stroke-dashoffset:0;stroke-opacity:1;color-rendering:auto;image-rendering:auto;shape-rendering:auto;text-rendering:auto;enable-background:accumulate"
       id="rect12518"
       width="35"
       height="91.514717"
       x="331.84692"
       y="375.36221"
       ry="2.4717243"
       mask="none" />
    <path
       style="fill:none;fill-rule:evenodd;stroke:#000000;stroke-width:1px;stroke-linecap:butt;stroke-linejoin:miter;stroke-opacity:1"
       d="m 157.49969,426.37313 396.28284,0"
       id="path6125-2"
       inkscape:connector-curvature="0"
       sodipodi:nodetypes="cc" />
    <path
       style="fill:#494949;fill-opacity:1;fill-rule:evenodd;stroke:none;stroke-width:0.5;stroke-linecap:butt;stroke-linejoin:miter;stroke-miterlimit:7.33333349;stroke-dasharray:none;stroke-opacity:1"
       d="m 360.54791,377.57806 -1.13078,23.30147 6.92747,0 -1.02614,-23.30147 z m 12.06421,0 -1.13077,23.30147 6.92947,0 -1.02814,-23.30147 z m -53.01935,19.99166 c -0.17887,-0.002 -0.34464,0.093 -0.43058,0.24747 l -2.78869,5.01603 c -0.0387,0.0705 -0.0586,0.14923 -0.0583,0.22937 3.1e-4,7.60336 -2e-5,15.20716 0,22.81054 l 15.35994,0 19.88905,0 30.81444,0 0,-23.3397 -28.25714,0 -1.19515,0 -1.50903,0 -8.88921,-4.90335 c -0.0707,-0.0392 -0.15032,-0.0591 -0.23139,-0.0604 -0.17954,-0.002 -0.34431,0.0923 -0.43058,0.24747 l -2.43457,4.37419 -8.26748,-4.56131 c -0.0712,-0.0396 -0.15169,-0.0594 -0.2334,-0.0604 -0.17885,-0.002 -0.34463,0.093 -0.43058,0.24747 l -2.4245,4.36212 -8.2514,-4.54924 c -0.0712,-0.0396 -0.14967,-0.0594 -0.23138,-0.0604 z m 36.36969,9.53223 6.0643,0 0,3.72228 -6.0643,0 z m 8.30973,0 6.06229,0 0,3.72228 -6.06229,0 z m 8.30774,0 6.0643,0 0,3.72228 -6.0643,0 z m -48.57766,3.99473 6.0643,0 0,3.72026 -6.0643,0 z m 8.30973,0 6.06229,0 0,3.72026 -6.06229,0 z m 8.30773,0 6.0643,0 0,3.72026 -6.0643,0 z"
       id="path6968-4"
       inkscape:connector-curvature="0"
       sodipodi:nodetypes="ccccccccccccccccccccccccccccccccccccccccccccccccccccccccccccccc" />
    <text
       xml:space="preserve"
       style="font-style:normal;font-variant:normal;font-weight:normal;font-stretch:normal;font-size:12.5px;line-height:125%;font-family:'Times New Roman';-inkscape-font-specification:'Times New Roman, Normal';text-align:center;letter-spacing:0px;word-spacing:0px;writing-mode:lr-tb;text-anchor:middle;fill:#676767;fill-opacity:1;stroke:none;stroke-width:1px;stroke-linecap:butt;stroke-linejoin:miter;stroke-opacity:1"
       x="349.46899"
       y="440.19403"
       id="text7366"
       sodipodi:linespacing="125%"><tspan
         sodipodi:role="line"
         id="tspan7404"
         x="349.46899"
         y="440.19403">Vehicle</tspan><tspan
         sodipodi:role="line"
         id="tspan7406"
         x="349.46899"
         y="455.81903">manufacture</tspan></text>
    <g
       id="g16257"
       transform="translate(4.2824551,0)">
      <path
         sodipodi:nodetypes="sscscssssssccsccs"
         inkscape:connector-curvature="0"
         id="rect16191"
         d="m 103.6438,339.27993 c -0.15539,0 -8.371156,13.35262 -8.287629,13.49319 0.02882,0.0485 3.062057,0.0658 5.272919,0.079 -0.0399,0.14343 -0.0683,0.29229 -0.0683,0.44882 l 0,36.33313 0,2.864 c 0,0.92278 0.74146,1.66497 1.66168,1.66497 l 19.72348,0 c 0.92022,0 1.66167,-0.74219 1.66167,-1.66497 l 0,-2.864 c 0,-0.92278 -0.74145,-1.66497 -1.66167,-1.66497 l -13.60278,0 c -1.06252,0 -1.60427,-0.26247 -1.60427,-1.60933 l 0,-33.05883 c 0,-0.15649 -0.0284,-0.30543 -0.0683,-0.44882 2.21063,-0.0132 5.36159,-0.0305 5.39041,-0.079 0.0835,-0.14057 -8.26193,-13.49319 -8.41731,-13.49319 z"
         style="color:#000000;clip-rule:nonzero;display:inline;overflow:visible;visibility:visible;opacity:1;isolation:auto;mix-blend-mode:normal;color-interpolation:sRGB;color-interpolation-filters:linearRGB;solid-color:#000000;solid-opacity:1;fill:#e6e6e6;fill-opacity:1;fill-rule:nonzero;stroke:#494949;stroke-width:0.5;stroke-linecap:round;stroke-linejoin:round;stroke-miterlimit:4;stroke-dasharray:none;stroke-dashoffset:0;stroke-opacity:1;color-rendering:auto;image-rendering:auto;shape-rendering:auto;text-rendering:auto;enable-background:accumulate" />
      <path
         sodipodi:nodetypes="sscscssssssccsccs"
         inkscape:connector-curvature="0"
         id="rect16191-3"
         d="m 138.88009,394.16303 c 0.15538,0 8.37115,-13.35262 8.28762,-13.49319 -0.0288,-0.0485 -3.06205,-0.0658 -5.27292,-0.079 0.0399,-0.14343 0.0683,-0.29229 0.0683,-0.44882 l 0,-36.33313 0,-2.86399 c 0,-0.92278 -0.74146,-1.66497 -1.66167,-1.66497 l -19.72349,0 c -0.92022,0 -1.66167,0.74219 -1.66167,1.66497 l 0,2.86399 c 0,0.92278 0.74145,1.66497 1.66167,1.66497 l 13.60279,0 c 1.06252,0 1.60426,0.26247 1.60426,1.60933 l 0,33.05883 c 0,0.15649 0.0284,0.30543 0.0683,0.44882 -2.21062,0.0132 -5.36159,0.0305 -5.39041,0.079 -0.0835,0.14057 8.26193,13.49319 8.41731,13.49319 z"
         style="color:#000000;clip-rule:nonzero;display:inline;overflow:visible;visibility:visible;opacity:1;isolation:auto;mix-blend-mode:normal;color-interpolation:sRGB;color-interpolation-filters:linearRGB;solid-color:#000000;solid-opacity:1;fill:#e6e6e6;fill-opacity:1;fill-rule:nonzero;stroke:#494949;stroke-width:0.5;stroke-linecap:round;stroke-linejoin:round;stroke-miterlimit:4;stroke-dasharray:none;stroke-dashoffset:0;stroke-opacity:1;color-rendering:auto;image-rendering:auto;shape-rendering:auto;text-rendering:auto;enable-background:accumulate" />
    </g>
    <path
       style="fill:none;fill-rule:evenodd;stroke:#969696;stroke-width:1px;stroke-linecap:butt;stroke-linejoin:miter;stroke-opacity:1;marker-end:url(#marker4623-5)"
       d="m 448.30939,216.73879 -25.8094,0 0,81.49405"
       id="path4621-0"
       inkscape:connector-curvature="0" />
    <path
       style="fill:none;fill-rule:evenodd;stroke:#969696;stroke-width:1px;stroke-linecap:butt;stroke-linejoin:miter;stroke-opacity:1;marker-end:url(#marker7677-1-1)"
       d="m 247.90957,502.23314 28.28426,0 0,-144.24977"
       id="path7669-0-5"
       inkscape:connector-curvature="0"
       sodipodi:nodetypes="ccc" />
  </g>
</svg>
