<?xml version="1.0" encoding="UTF-8" standalone="no"?>
<!-- Created with Inkscape (http://www.inkscape.org/) -->

<svg
   xmlns:dc="http://purl.org/dc/elements/1.1/"
   xmlns:cc="http://creativecommons.org/ns#"
   xmlns:rdf="http://www.w3.org/1999/02/22-rdf-syntax-ns#"
   xmlns:svg="http://www.w3.org/2000/svg"
   xmlns="http://www.w3.org/2000/svg"
   xmlns:sodipodi="http://sodipodi.sourceforge.net/DTD/sodipodi-0.dtd"
   xmlns:inkscape="http://www.inkscape.org/namespaces/inkscape"
   width="32.19408mm"
   height="17.411285mm"
   viewBox="0 0 114.07351 61.69353"
   id="svg4834"
   version="1.1"
   inkscape:version="0.91 r13725"
   sodipodi:docname="BECCS.svg"
   inkscape:export-filename="C:\Users\lamw\Google Drive\Work\Figures\APSIS figures\NETs icons\BECCS.png"
   inkscape:export-xdpi="600.005"
   inkscape:export-ydpi="600.005">
  <defs
     id="defs4836" />
  <sodipodi:namedview
     id="base"
     pagecolor="#ffffff"
     bordercolor="#666666"
     borderopacity="1.0"
     inkscape:pageopacity="0.0"
     inkscape:pageshadow="2"
     inkscape:zoom="1.979899"
     inkscape:cx="34.518259"
     inkscape:cy="-84.934324"
     inkscape:document-units="px"
     inkscape:current-layer="layer1"
     showgrid="false"
     fit-margin-top="0"
     fit-margin-left="0"
     fit-margin-right="0"
     fit-margin-bottom="0"
     inkscape:window-width="1920"
     inkscape:window-height="1027"
     inkscape:window-x="-8"
     inkscape:window-y="-8"
     inkscape:window-maximized="1" />
  <metadata
     id="metadata4839">
    <rdf:RDF>
      <cc:Work
         rdf:about="">
        <dc:format>image/svg+xml</dc:format>
        <dc:type
           rdf:resource="http://purl.org/dc/dcmitype/StillImage" />
        <dc:title></dc:title>
      </cc:Work>
    </rdf:RDF>
  </metadata>
  <g
     inkscape:label="Layer 1"
     inkscape:groupmode="layer"
     id="layer1"
     transform="translate(-14.518193,-18.36749)">
    <g
       transform="translate(-536.22709,-197.28569)"
       id="g6633"
       inkscape:export-filename="C:\Users\lamw\Google Drive\Work\Figures\APSIS figures\NETs\icons\BECCS.png"
       inkscape:export-xdpi="600.005"
       inkscape:export-ydpi="600.005">
      <path
         inkscape:connector-curvature="0"
         id="path6968"
         d="m 653.50824,215.90335 a 2.9689268,1.6939269 0 0 0 -1.72266,0.31641 3.3666778,2.202105 0 0 0 -1.6582,-0.28906 3.3666778,2.202105 0 0 0 -3.31055,1.80664 5.9300796,3.641943 0 0 0 -0.76953,0.45312 1.3889598,0.53664356 0 0 0 -1.03515,-0.17969 1.3889598,0.53664356 0 0 0 -0.78125,0.0937 2.588516,2.841054 0 0 0 -1.42969,-0.47265 2.588516,2.841054 0 0 0 -1.72852,0.73047 3.4723995,3.5039666 0 0 0 -1.74414,-0.47852 3.4723995,3.5039666 0 0 0 -3.04101,1.81445 2.241276,2.0203052 0 0 0 -0.9043,-0.17187 2.241276,2.0203052 0 0 0 -2.24219,2.01953 2.241276,2.0203052 0 0 0 0.0586,0.44922 2.2097087,0.88388348 0 0 0 -1.38282,-0.19727 2.2097087,0.88388348 0 0 0 -1.93164,0.45508 1.6730652,1.6099306 0 0 0 -1.38281,-0.70703 1.6730652,1.6099306 0 0 0 -1.67383,1.60937 1.6730652,1.6099306 0 0 0 0.19141,0.7461 1.5152289,1.0101526 0 0 0 -1.14063,-0.51563 1.7046324,1.0417198 0 0 0 -0.008,-0.0762 1.0417198,1.0101526 0 0 0 0.95703,-1.00586 1.0417198,1.0101526 0 0 0 -1.04101,-1.00976 1.0417198,1.0101526 0 0 0 -1.04297,1.00976 1.0417198,1.0101526 0 0 0 0.01,0.125 1.7046324,1.0417198 0 0 0 -0.57812,-0.0625 1.7046324,1.0417198 0 0 0 -1.65625,0.80274 0.8035714,0.46875 0 0 0 -0.56055,-0.13477 0.8035714,0.46875 0 0 0 -0.80273,0.46875 0.8035714,0.46875 0 0 0 0.11133,0.23633 1.420527,0.78918165 0 0 0 -0.94141,0.74219 1.420527,0.78918165 0 0 0 1.41992,0.78906 1.420527,0.78918165 0 0 0 1.41992,-0.78906 1.420527,0.78918165 0 0 0 -0.0879,-0.27539 1.7046324,1.0417198 0 0 0 1.09766,0.24414 1.7046324,1.0417198 0 0 0 0.006,0 1.5152289,1.0101526 0 0 0 1.51172,0.94726 1.5152289,1.0101526 0 0 0 1.51562,-1.00976 1.5152289,1.0101526 0 0 0 -0.0742,-0.30664 1.6730652,1.6099306 0 0 0 0.91211,0.62304 2.2728431,1.3573924 0 0 0 2.12695,0.88282 2.2728431,1.3573924 0 0 0 2.13672,-0.89844 2.241276,1.767767 0 0 0 2.125,1.21484 2.241276,1.767767 0 0 0 2.24219,-1.76953 2.241276,1.767767 0 0 0 -0.24609,-0.80273 2.241276,2.0203052 0 0 0 0.01,-0.004 3.4723995,3.5039666 0 0 0 2.88868,1.56445 3.4723995,3.5039666 0 0 0 1.07226,-0.17578 1.9256033,1.8309015 0 0 0 1.80078,1.1875 1.9256033,1.8309015 0 0 0 1.20117,-0.40234 3.1535967,2.9926042 0 0 0 2.61914,1.32812 3.1535967,2.9926042 0 0 0 2.05665,-0.72851 2.9121051,2.7667473 0 0 0 1.96289,0.72851 2.9121051,2.7667473 0 0 0 1.35546,-0.32031 3.6223746,2.0609444 0 0 0 2.93555,0.85547 3.6223746,2.0609444 0 0 0 2.29297,-0.4668 2.3296842,2.2162212 0 0 0 0.93164,0.1836 2.3296842,2.2162212 0 0 0 2.32813,-2.21485 2.3296842,2.2162212 0 0 0 -0.36719,-1.19336 3.1948879,1.962132 0 0 0 2.7539,-1.93945 3.1948879,1.962132 0 0 0 -2.64453,-1.93359 3.054159,3.0349524 0 0 0 0.004,-0.0723 3.054159,3.0349524 0 0 0 -3.05469,-3.03516 3.054159,3.0349524 0 0 0 -0.51367,0.043 2.9689268,1.6939269 0 0 0 -2.55469,-0.83203 l -0.002,0 z m -8.45313,3.17969 a 1.3889598,0.53664356 0 0 0 0.0547,0 5.9300796,3.641943 0 0 0 -0.0332,0.043 2.588516,2.841054 0 0 0 -0.0215,-0.043 z m -12.72656,4.45898 a 2.241276,1.767767 0 0 0 -0.0625,0.16016 2.2728431,1.3573924 0 0 0 -0.12109,-0.14648 2.2097087,0.88388348 0 0 0 0.18359,-0.0137 z m -9.73633,0.25 a 1.7046324,1.0417198 0 0 0 0.0606,0.082 1.420527,0.78918165 0 0 0 -0.11328,-0.0469 0.8035714,0.46875 0 0 0 0.0527,-0.0352 z m 20.78516,6.42383 -1.09766,22.61914 6.72461,0 -0.99609,-22.61914 -4.63086,0 z m 11.71094,0 -1.09766,22.61914 6.72656,0 -0.99804,-22.61914 -4.63086,0 z m -56.38086,6.1543 c -3.22494,-0.028 -6.46692,1.46048 -6.65821,4.55078 l 0.0879,35.92578 9.51953,0 -0.15039,-21.00586 c 0.4233,-2.32396 1.83808,-4.45736 3.75976,-5.63867 l 0,-5.36719 8.58594,0 0,4.70899 c -4.81546,0.294 -9.37296,2.59173 -10.19727,7.11718 l 0.15039,20.18555 22.47657,0 0,-5.98437 5.0664,0 0,6.23437 33.22071,0 0,-22.65625 -27.42969,0 0,-9.60547 0,-0.89062 0,-0.26953 -31.87305,0 0,-2.75391 c -0.12548,-2.97837 -3.33366,-4.5228 -6.55859,-4.55078 z m 16.30469,8.46484 20.96679,0 0,9.60547 -4.63086,0 0,14.72656 -5.0664,0 0,-12.50586 c -0.56887,-4.5875 -5.77556,-7.06317 -11.06446,-7.15429 -0.0683,-0.001 -0.13673,0.002 -0.20507,0.002 l 0,-4.67383 z m 23.91406,12.44922 5.88672,0 0,3.61328 -5.88672,0 0,-3.61328 z m 8.0664,0 5.88477,0 0,3.61328 -5.88477,0 0,-3.61328 z m 8.06446,0 5.88672,0 0,3.61328 -5.88672,0 0,-3.61328 z m -16.13086,5.46875 5.88672,0 0,3.61133 -5.88672,0 0,-3.61133 z m 8.0664,0 5.88477,0 0,3.61133 -5.88477,0 0,-3.61133 z m 8.06446,0 5.88672,0 0,3.61133 -5.88672,0 0,-3.61133 z"
         style="fill:#000000;fill-opacity:1;fill-rule:evenodd;stroke:#000000;stroke-width:0.5;stroke-linecap:butt;stroke-linejoin:miter;stroke-miterlimit:7.33333349;stroke-dasharray:none;stroke-opacity:1" />
      <g
         transform="matrix(1.1324879,0,0,1.1324879,-64.473416,-48.04286)"
         id="g6607">
        <g
           id="g12517-0-6"
           transform="matrix(0.52068492,0,0,0.52068492,427.33245,-5.4095001)">
          <g
             style="fill:#000000;fill-opacity:1;stroke:none;stroke-width:0.24905673;stroke-miterlimit:4;stroke-dasharray:none"
             id="g8970-0-2-5"
             transform="matrix(5.1289218,0,0,3.4953709,-1876.9935,-1522.49)">
            <path
               style="opacity:1;fill:#000000;fill-opacity:1;stroke:none;stroke-width:0.24905673;stroke-miterlimit:4;stroke-dasharray:none;stroke-opacity:1"
               d="m 410.68442,588.91412 c -0.24891,-0.0765 -0.50762,-0.2411 -0.73283,-0.46631 -0.48566,-0.48566 -0.63086,-1.00753 -0.57291,-2.05916 0.0239,-0.43358 0.0802,-0.82512 0.12519,-0.87008 0.0559,-0.0559 0.27857,0.0833 0.70403,0.44017 1.28433,1.07717 1.53918,1.45278 1.53727,2.26562 -0.002,0.72355 -0.0476,0.82001 -0.38658,0.81351 -0.15919,-0.003 -0.46256,-0.0587 -0.67417,-0.12375 z"
               id="path8717-8-5-6"
               inkscape:connector-curvature="0" />
            <path
               style="opacity:1;fill:#000000;fill-opacity:1;stroke:none;stroke-width:0.24905673;stroke-miterlimit:4;stroke-dasharray:none;stroke-opacity:1"
               d="m 412.27364,588.90401 c -0.20572,-0.70033 -0.0954,-1.42437 0.28789,-1.88937 0.31992,-0.38811 1.7349,-1.56454 1.81916,-1.51246 0.12422,0.0768 0.25183,0.96001 0.20659,1.4299 -0.0657,0.68278 -0.25766,1.17423 -0.58734,1.50391 -0.49141,0.49141 -1.62884,0.79978 -1.7263,0.46802 z"
               id="path8719-8-9-6"
               inkscape:connector-curvature="0" />
            <path
               style="opacity:1;fill:#000000;fill-opacity:1;stroke:none;stroke-width:0.24905673;stroke-miterlimit:4;stroke-dasharray:none;stroke-opacity:1"
               d="m 412.27022,586.2654 c -0.10741,-0.17379 -0.13784,-1.20169 -0.0487,-1.64364 0.0936,-0.46406 0.12173,-0.50217 1.01228,-1.37345 0.50378,-0.49289 0.94802,-0.89616 0.98719,-0.89616 0.12833,0 0.19179,0.42404 0.19075,1.27453 -9e-4,0.70344 -0.0306,0.9026 -0.18726,1.25278 -0.22267,0.49783 -0.74044,0.99725 -1.30773,1.26138 -0.44603,0.20766 -0.57934,0.23335 -0.64657,0.12456 z"
               id="path8721-7-1-1"
               inkscape:connector-curvature="0" />
            <path
               style="opacity:1;fill:#000000;fill-opacity:1;stroke:none;stroke-width:0.24905673;stroke-miterlimit:4;stroke-dasharray:none;stroke-opacity:1"
               d="m 410.96045,586.11599 c -0.67443,-0.36073 -0.94209,-0.6232 -1.21876,-1.19511 -0.24169,-0.49961 -0.25972,-0.59353 -0.25617,-1.33403 0.002,-0.43812 0.0458,-0.89801 0.0972,-1.02198 l 0.0933,-0.2254 0.30499,0.24155 c 0.16774,0.13286 0.5906,0.52525 0.93967,0.87199 0.73012,0.72524 0.82612,0.94594 0.82448,1.89556 -0.002,1.07911 -0.0726,1.1483 -0.78472,0.76742 z"
               id="path8723-6-9-8"
               inkscape:connector-curvature="0" />
            <path
               style="opacity:1;fill:#000000;fill-opacity:1;stroke:none;stroke-width:0.24905673;stroke-miterlimit:4;stroke-dasharray:none;stroke-opacity:1"
               d="m 411.06798,583.05902 c -1.01463,-0.54134 -1.47249,-1.32791 -1.47249,-2.52963 0,-0.43172 0.15469,-1.28389 0.23305,-1.28389 0.0285,0 0.42874,0.38594 0.88952,0.85764 0.94064,0.96298 1.06959,1.22642 1.06183,2.16936 -0.008,0.98808 -0.1143,1.10537 -0.71191,0.78652 z"
               id="path8725-5-5-6"
               inkscape:connector-curvature="0" />
            <path
               style="opacity:1;fill:#000000;fill-opacity:1;stroke:none;stroke-width:0.24905673;stroke-miterlimit:4;stroke-dasharray:none;stroke-opacity:1"
               d="m 412.19567,582.92968 c -0.0853,-0.51603 -0.0558,-1.17025 0.0723,-1.60143 0.10579,-0.35623 0.24421,-0.53533 0.9696,-1.25459 0.62573,-0.62045 0.8624,-0.81008 0.90842,-0.72784 0.11049,0.19744 0.23532,1.17744 0.18838,1.47891 -0.17018,1.093 -0.55244,1.70642 -1.34645,2.16071 -0.57972,0.33169 -0.72994,0.32111 -0.79223,-0.0558 z"
               id="path8727-1-3-3"
               inkscape:connector-curvature="0" />
            <path
               style="opacity:1;fill:#000000;fill-opacity:1;stroke:none;stroke-width:0.24905673;stroke-miterlimit:4;stroke-dasharray:none;stroke-opacity:1"
               d="m 412.17858,579.7524 c -0.0305,-0.20313 -0.0353,-0.63454 -0.0108,-0.95869 0.0572,-0.75573 0.23006,-1.04967 1.15736,-1.96752 l 0.71394,-0.70667 0.0451,0.30838 c 0.12407,0.84756 0.13385,1.14903 0.0535,1.65163 -0.048,0.30067 -0.15468,0.67866 -0.23698,0.83998 -0.26617,0.52175 -1.11996,1.20222 -1.50841,1.20222 -0.12735,0 -0.16925,-0.0724 -0.21378,-0.36933 z"
               id="path8729-5-4-2"
               inkscape:connector-curvature="0" />
            <path
               style="opacity:1;fill:#000000;fill-opacity:1;stroke:none;stroke-width:0.24905673;stroke-miterlimit:4;stroke-dasharray:none;stroke-opacity:1"
               d="m 410.97804,579.88523 c -0.51655,-0.29627 -0.84567,-0.69341 -1.06856,-1.28941 -0.15282,-0.40865 -0.17028,-0.58164 -0.13958,-1.38354 0.0193,-0.50408 0.0723,-0.95377 0.1179,-0.99932 0.0573,-0.0573 0.29839,0.14537 0.78299,0.65836 0.3851,0.40766 0.76582,0.84782 0.84606,0.97815 0.22596,0.36703 0.33225,1.02964 0.27064,1.68715 -0.0497,0.53029 -0.071,0.58504 -0.22726,0.58437 -0.0948,-4.3e-4 -0.35683,-0.10651 -0.58219,-0.23576 z"
               id="path8731-2-3-5"
               inkscape:connector-curvature="0" />
            <path
               style="opacity:1;fill:#000000;fill-opacity:1;stroke:none;stroke-width:0.24905673;stroke-miterlimit:4;stroke-dasharray:none;stroke-opacity:1"
               d="m 411.59367,577.31379 c -0.72747,-0.76043 -0.74346,-1.26836 -0.0866,-2.75273 0.23648,-0.53443 0.45574,-0.94472 0.48724,-0.91174 0.0315,0.033 0.25742,0.52891 0.50205,1.10207 0.47587,1.11493 0.53346,1.46114 0.31428,1.88927 -0.15652,0.30573 -0.73347,1.01168 -0.82681,1.01168 -0.0364,0 -0.212,-0.15235 -0.39013,-0.33855 z"
               id="path8733-5-6-0"
               inkscape:connector-curvature="0" />
          </g>
          <rect
             rx="0.1772822"
             ry="0.1772822"
             y="539.94489"
             x="235.73024"
             height="20.880074"
             width="0.59562308"
             id="rect12515-9-2"
             style="opacity:1;fill:#000000;fill-opacity:1;stroke:#000000;stroke-width:2.43927836;stroke-miterlimit:4;stroke-dasharray:none;stroke-dashoffset:1.73999989;stroke-opacity:1" />
        </g>
        <g
           id="g12517-9-2"
           transform="matrix(0.52068492,0,0,0.52068492,443.01791,-5.4095001)">
          <g
             style="fill:#000000;fill-opacity:1;stroke:none;stroke-width:0.24905673;stroke-miterlimit:4;stroke-dasharray:none"
             id="g8970-0-5-9"
             transform="matrix(5.1289218,0,0,3.4953709,-1876.9935,-1522.49)">
            <path
               style="opacity:1;fill:#000000;fill-opacity:1;stroke:none;stroke-width:0.24905673;stroke-miterlimit:4;stroke-dasharray:none;stroke-opacity:1"
               d="m 410.68442,588.91412 c -0.24891,-0.0765 -0.50762,-0.2411 -0.73283,-0.46631 -0.48566,-0.48566 -0.63086,-1.00753 -0.57291,-2.05916 0.0239,-0.43358 0.0802,-0.82512 0.12519,-0.87008 0.0559,-0.0559 0.27857,0.0833 0.70403,0.44017 1.28433,1.07717 1.53918,1.45278 1.53727,2.26562 -0.002,0.72355 -0.0476,0.82001 -0.38658,0.81351 -0.15919,-0.003 -0.46256,-0.0587 -0.67417,-0.12375 z"
               id="path8717-8-6-7"
               inkscape:connector-curvature="0" />
            <path
               style="opacity:1;fill:#000000;fill-opacity:1;stroke:none;stroke-width:0.24905673;stroke-miterlimit:4;stroke-dasharray:none;stroke-opacity:1"
               d="m 412.27364,588.90401 c -0.20572,-0.70033 -0.0954,-1.42437 0.28789,-1.88937 0.31992,-0.38811 1.7349,-1.56454 1.81916,-1.51246 0.12422,0.0768 0.25183,0.96001 0.20659,1.4299 -0.0657,0.68278 -0.25766,1.17423 -0.58734,1.50391 -0.49141,0.49141 -1.62884,0.79978 -1.7263,0.46802 z"
               id="path8719-8-0-6"
               inkscape:connector-curvature="0" />
            <path
               style="opacity:1;fill:#000000;fill-opacity:1;stroke:none;stroke-width:0.24905673;stroke-miterlimit:4;stroke-dasharray:none;stroke-opacity:1"
               d="m 412.27022,586.2654 c -0.10741,-0.17379 -0.13784,-1.20169 -0.0487,-1.64364 0.0936,-0.46406 0.12173,-0.50217 1.01228,-1.37345 0.50378,-0.49289 0.94802,-0.89616 0.98719,-0.89616 0.12833,0 0.19179,0.42404 0.19075,1.27453 -9e-4,0.70344 -0.0306,0.9026 -0.18726,1.25278 -0.22267,0.49783 -0.74044,0.99725 -1.30773,1.26138 -0.44603,0.20766 -0.57934,0.23335 -0.64657,0.12456 z"
               id="path8721-7-0-0"
               inkscape:connector-curvature="0" />
            <path
               style="opacity:1;fill:#000000;fill-opacity:1;stroke:none;stroke-width:0.24905673;stroke-miterlimit:4;stroke-dasharray:none;stroke-opacity:1"
               d="m 410.96045,586.11599 c -0.67443,-0.36073 -0.94209,-0.6232 -1.21876,-1.19511 -0.24169,-0.49961 -0.25972,-0.59353 -0.25617,-1.33403 0.002,-0.43812 0.0458,-0.89801 0.0972,-1.02198 l 0.0933,-0.2254 0.30499,0.24155 c 0.16774,0.13286 0.5906,0.52525 0.93967,0.87199 0.73012,0.72524 0.82612,0.94594 0.82448,1.89556 -0.002,1.07911 -0.0726,1.1483 -0.78472,0.76742 z"
               id="path8723-6-7-5"
               inkscape:connector-curvature="0" />
            <path
               style="opacity:1;fill:#000000;fill-opacity:1;stroke:none;stroke-width:0.24905673;stroke-miterlimit:4;stroke-dasharray:none;stroke-opacity:1"
               d="m 411.06798,583.05902 c -1.01463,-0.54134 -1.47249,-1.32791 -1.47249,-2.52963 0,-0.43172 0.15469,-1.28389 0.23305,-1.28389 0.0285,0 0.42874,0.38594 0.88952,0.85764 0.94064,0.96298 1.06959,1.22642 1.06183,2.16936 -0.008,0.98808 -0.1143,1.10537 -0.71191,0.78652 z"
               id="path8725-5-1-8"
               inkscape:connector-curvature="0" />
            <path
               style="opacity:1;fill:#000000;fill-opacity:1;stroke:none;stroke-width:0.24905673;stroke-miterlimit:4;stroke-dasharray:none;stroke-opacity:1"
               d="m 412.19567,582.92968 c -0.0853,-0.51603 -0.0558,-1.17025 0.0723,-1.60143 0.10579,-0.35623 0.24421,-0.53533 0.9696,-1.25459 0.62573,-0.62045 0.8624,-0.81008 0.90842,-0.72784 0.11049,0.19744 0.23532,1.17744 0.18838,1.47891 -0.17018,1.093 -0.55244,1.70642 -1.34645,2.16071 -0.57972,0.33169 -0.72994,0.32111 -0.79223,-0.0558 z"
               id="path8727-1-1-0"
               inkscape:connector-curvature="0" />
            <path
               style="opacity:1;fill:#000000;fill-opacity:1;stroke:none;stroke-width:0.24905673;stroke-miterlimit:4;stroke-dasharray:none;stroke-opacity:1"
               d="m 412.17858,579.7524 c -0.0305,-0.20313 -0.0353,-0.63454 -0.0108,-0.95869 0.0572,-0.75573 0.23006,-1.04967 1.15736,-1.96752 l 0.71394,-0.70667 0.0451,0.30838 c 0.12407,0.84756 0.13385,1.14903 0.0535,1.65163 -0.048,0.30067 -0.15468,0.67866 -0.23698,0.83998 -0.26617,0.52175 -1.11996,1.20222 -1.50841,1.20222 -0.12735,0 -0.16925,-0.0724 -0.21378,-0.36933 z"
               id="path8729-5-6-0"
               inkscape:connector-curvature="0" />
            <path
               style="opacity:1;fill:#000000;fill-opacity:1;stroke:none;stroke-width:0.24905673;stroke-miterlimit:4;stroke-dasharray:none;stroke-opacity:1"
               d="m 410.97804,579.88523 c -0.51655,-0.29627 -0.84567,-0.69341 -1.06856,-1.28941 -0.15282,-0.40865 -0.17028,-0.58164 -0.13958,-1.38354 0.0193,-0.50408 0.0723,-0.95377 0.1179,-0.99932 0.0573,-0.0573 0.29839,0.14537 0.78299,0.65836 0.3851,0.40766 0.76582,0.84782 0.84606,0.97815 0.22596,0.36703 0.33225,1.02964 0.27064,1.68715 -0.0497,0.53029 -0.071,0.58504 -0.22726,0.58437 -0.0948,-4.3e-4 -0.35683,-0.10651 -0.58219,-0.23576 z"
               id="path8731-2-8-6"
               inkscape:connector-curvature="0" />
            <path
               style="opacity:1;fill:#000000;fill-opacity:1;stroke:none;stroke-width:0.24905673;stroke-miterlimit:4;stroke-dasharray:none;stroke-opacity:1"
               d="m 411.59367,577.31379 c -0.72747,-0.76043 -0.74346,-1.26836 -0.0866,-2.75273 0.23648,-0.53443 0.45574,-0.94472 0.48724,-0.91174 0.0315,0.033 0.25742,0.52891 0.50205,1.10207 0.47587,1.11493 0.53346,1.46114 0.31428,1.88927 -0.15652,0.30573 -0.73347,1.01168 -0.82681,1.01168 -0.0364,0 -0.212,-0.15235 -0.39013,-0.33855 z"
               id="path8733-5-3-2"
               inkscape:connector-curvature="0" />
          </g>
          <rect
             rx="0.1772822"
             ry="0.1772822"
             y="539.94489"
             x="235.73024"
             height="20.880074"
             width="0.59562308"
             id="rect12515-1-8"
             style="opacity:1;fill:#000000;fill-opacity:1;stroke:#000000;stroke-width:2.43927836;stroke-miterlimit:4;stroke-dasharray:none;stroke-dashoffset:1.73999989;stroke-opacity:1" />
        </g>
      </g>
    </g>
  </g>
</svg>
