<?xml version="1.0" encoding="UTF-8" standalone="no"?>
<!-- Created with Inkscape (http://www.inkscape.org/) -->

<svg
   xmlns:dc="http://purl.org/dc/elements/1.1/"
   xmlns:cc="http://creativecommons.org/ns#"
   xmlns:rdf="http://www.w3.org/1999/02/22-rdf-syntax-ns#"
   xmlns:svg="http://www.w3.org/2000/svg"
   xmlns="http://www.w3.org/2000/svg"
   xmlns:sodipodi="http://sodipodi.sourceforge.net/DTD/sodipodi-0.dtd"
   xmlns:inkscape="http://www.inkscape.org/namespaces/inkscape"
   width="15.598804mm"
   height="16.979284mm"
   viewBox="0 0 55.271351 60.162818"
   id="svg6852"
   version="1.1"
   inkscape:version="0.91 r13725"
   sodipodi:docname="Blue carbon.svg"
   inkscape:export-filename="C:\Users\lamw\Google Drive\Work\Figures\APSIS figures\NETs\icons\Blue carbon.png"
   inkscape:export-xdpi="600.005"
   inkscape:export-ydpi="600.005">
  <defs
     id="defs6854" />
  <sodipodi:namedview
     id="base"
     pagecolor="#ffffff"
     bordercolor="#666666"
     borderopacity="1.0"
     inkscape:pageopacity="0.0"
     inkscape:pageshadow="2"
     inkscape:zoom="1.979899"
     inkscape:cx="-173.04541"
     inkscape:cy="-6.1518751"
     inkscape:document-units="px"
     inkscape:current-layer="layer1"
     showgrid="false"
     fit-margin-top="0"
     fit-margin-left="0"
     fit-margin-right="0"
     fit-margin-bottom="0"
     inkscape:window-width="1920"
     inkscape:window-height="1027"
     inkscape:window-x="-8"
     inkscape:window-y="-8"
     inkscape:window-maximized="1" />
  <metadata
     id="metadata6857">
    <rdf:RDF>
      <cc:Work
         rdf:about="">
        <dc:format>image/svg+xml</dc:format>
        <dc:type
           rdf:resource="http://purl.org/dc/dcmitype/StillImage" />
        <dc:title />
      </cc:Work>
    </rdf:RDF>
  </metadata>
  <g
     inkscape:label="Layer 1"
     inkscape:groupmode="layer"
     id="layer1"
     transform="translate(-375.22147,-296.56651)">
    <g
       transform="translate(-116.51609,275.33042)"
       id="g6479"
       inkscape:export-filename="C:\Users\lamw\Google Drive\Work\Figures\APSIS figures\NETs\icons\blue carbon.png"
       inkscape:export-xdpi="600.005"
       inkscape:export-ydpi="600.005">
      <g
         id="g6472">
        <g
           id="g6409">
          <path
             sodipodi:nodetypes="csscssssssssssssssscssscssscsssscssccccscssssssssssccs"
             inkscape:connector-curvature="0"
             id="path11150-9"
             d="m 524.23269,81.295325 -0.0975,-11.0365 c -0.11374,-12.87377 0.40625,-11.10578 -4.32041,-14.7044 l -3.05598,-2.326672 -1.49875,0.22466 c -7.06982,1.05974 -12.37499,-2.03804 -11.05454,-6.45496 0.36396,-1.21741 2.385,-3.55858 3.67849,-4.26114 0.56367,-0.30615 0.55671,-0.33967 -0.2202,-1.05968 -1.06205,-0.98426 -1.06017,-2.19666 0.005,-3.33042 0.44408,-0.47263 1.05503,-0.99648 1.35765,-1.16415 0.48722,-0.26992 0.51079,-0.42437 0.20576,-1.34864 -0.27603,-0.83633 -0.26202,-1.24118 0.0704,-2.03691 0.49913,-1.19457 1.87579,-2.40939 3.24102,-2.85994 0.97463,-0.32166 0.99853,-0.36792 0.96168,-1.86029 -0.0293,-1.18696 0.12098,-1.75305 0.66965,-2.52236 0.98965,-1.38757 3.34286,-2.41282 5.56246,-2.42345 1.49049,-0.006 1.84738,-0.11815 2.43597,-0.75762 1.10813,-1.20399 3.39697,-2.13348 5.26168,-2.13674 1.79918,-0.004 3.88484,0.60972 4.8738,1.43216 0.9476,0.78807 1.85576,2.41956 1.857,3.33612 8.9e-4,0.68325 0.12528,0.80842 0.80853,0.81387 1.28238,0.011 3.15477,1.0127 4.02667,2.15583 0.67405,0.88371 0.78587,1.28346 0.69994,2.50215 l -0.1022,1.45041 1.12798,0.18007 c 1.5137,0.24162 3.23099,1.14907 3.98242,2.10437 1.2558,1.59648 0.55431,3.9285 -1.5015,4.9916 l -0.89018,0.46033 0.84273,0.51248 c 1.02088,0.62084 2.57217,2.34871 3.20177,3.56622 1.37047,2.65022 0.49297,6.14746 -1.96718,7.84008 -2.41077,1.65865 -5.35397,2.175692 -8.51991,1.49672 l -1.5507,-0.33256 -1.43729,1.580402 c -0.79052,0.86923 -2.48266,2.83156 -3.76033,4.36074 l -2.32303,2.78033 0.085,9.11085 0.0326,9.74001 c 0,0 -1.59325,-0.0231 -2.68859,-0.0231 z m 6.4353,-25.68067 c 1.35117,-1.289152 2.39396,-2.393162 2.31729,-2.453382 -0.0767,-0.0602 -0.57653,-0.37685 -1.1108,-0.70361 -0.89655,-0.54832 -1.0882,-0.56382 -2.48626,-0.20118 -0.83317,0.21612 -1.82764,0.39294 -2.20994,0.39294 -0.68729,0 -0.69301,0.0255 -0.50853,2.275482 0.27766,3.3868 0.36171,3.66504 1.00336,3.32163 0.296,-0.15842 1.64369,-1.34276 2.99488,-2.63188 z m -6.34541,-0.68975 c 0.40429,-2.341482 0.39341,-2.373922 -0.87218,-2.602102 -0.64594,-0.11644 -1.53912,-0.35207 -1.9848,-0.52362 -0.63511,-0.24445 -1.03315,-0.20564 -1.84054,0.17937 -0.56658,0.27019 -0.99214,0.60533 -0.94566,0.74476 0.13843,0.41526 4.43534,3.127742 4.97791,3.142352 0.33943,0.01 0.55353,-0.29364 0.66527,-0.94076 z"
             style="fill:#000000" />
          <path
             sodipodi:nodetypes="csc"
             inkscape:connector-curvature="0"
             id="path19816"
             d="m 514.42567,81.32874 c 0,0 -0.099,-11.635745 10.9608,-11.575735 11.27766,0.0612 10.9608,11.575735 10.9608,11.575735"
             style="fill:none;fill-rule:evenodd;stroke:#000000;stroke-width:1.26011217px;stroke-linecap:butt;stroke-linejoin:miter;stroke-opacity:1" />
          <path
             sodipodi:nodetypes="csc"
             inkscape:connector-curvature="0"
             id="path19816-8"
             d="m 519.80929,81.386785 c 0,0 0.0629,-7.143581 5.90641,-7.10358 5.65759,0.03873 5.90641,7.10358 5.90641,7.10358"
             style="fill:none;fill-rule:evenodd;stroke:#000000;stroke-width:0.68911612px;stroke-linecap:butt;stroke-linejoin:miter;stroke-opacity:1" />
        </g>
        <path
           style="display:inline;fill:#000000"
           d="m 506.1626,80.041634 c 0.41206,-1.703794 1.97926,-3.267743 4.22749,-4.218753 l 0.85001,-0.359528 -0.47101,0.007 c -1.07446,0.01604 -2.98982,0.659883 -3.91255,1.315177 -0.25294,0.179548 -0.46048,0.281066 -0.46129,0.225563 -10e-4,-0.05552 0.22442,-0.449804 0.50055,-0.876233 0.79118,-1.221757 1.70202,-2.046239 3.58541,-3.245455 0.46777,-0.297855 -0.79043,0.107236 -1.57485,0.507013 -1.40512,0.716142 -3.02489,2.214877 -4.12179,3.813768 -0.1719,0.250439 -0.32762,0.412084 -0.34613,0.359202 -0.0595,-0.16781 0.67376,-2.335345 1.13998,-3.372769 0.63828,-1.420505 1.68083,-2.987308 2.66309,-4.002177 0.76658,-0.79206 0.8099,-0.857982 0.46548,-0.709098 -2.01945,0.872995 -3.62639,2.984663 -4.63558,6.091418 -0.33216,1.022753 -0.36032,0.947969 -0.16058,-0.426857 0.40029,-2.752606 1.16902,-4.640211 2.46012,-6.040583 l 0.47486,-0.515111 -0.56652,0.293513 c -1.07808,0.55846 -2.06525,1.875472 -2.64106,3.523478 l -0.24623,0.70503 0.0431,-0.960291 c 0.0825,-1.827648 0.76571,-4.534469 1.64661,-6.523619 0.21166,-0.478175 0.35271,-0.867512 0.31319,-0.865267 -0.0391,0.0022 -0.31492,0.324347 -0.6122,0.715708 -1.01224,1.332684 -1.69605,2.993443 -2.05077,4.980697 -0.2132,1.193575 -0.45995,3.800554 -0.44845,4.733793 0.006,0.361403 -0.0366,0.728465 -0.091,0.815617 -0.0699,0.112095 -0.1023,-0.02569 -0.11017,-0.469441 -0.0366,-1.903503 -0.61314,-4.948348 -1.60768,-8.445335 -0.58407,-2.05334 -0.68805,-2.544041 -0.70659,-3.332321 l -0.0221,-0.924406 -0.20106,0.456634 c -0.16203,0.367714 -0.19661,0.670571 -0.17773,1.555479 0.0221,0.925092 0.11445,1.478157 0.59844,3.49809 0.66486,2.774063 0.88931,3.980642 1.00512,5.402551 0.14555,1.78693 -0.0946,1.111937 -0.50922,-1.431881 -0.12176,-0.746691 -0.31824,-1.709505 -0.43655,-2.139582 -0.23004,-0.835545 -0.64129,-1.83199 -0.72183,-1.748973 -0.0269,0.02768 0.0338,0.539864 0.13515,1.138189 0.1821,1.076476 0.46763,7.85918 0.32526,7.725857 -0.0346,-0.03236 -0.19355,-0.877943 -0.3533,-1.879085 -0.33866,-2.121732 -0.55557,-3.188359 -0.86882,-4.271801 -0.22666,-0.78392 -0.71133,-1.833337 -0.80301,-1.738854 -0.0271,0.0278 0.006,0.349916 0.0714,0.715971 0.1785,0.985217 0.30978,3.836232 0.24182,5.250449 -0.0331,0.680706 -0.0776,1.220098 -0.0997,1.198648 -0.0218,-0.02152 -0.14588,-0.693911 -0.27509,-1.494378 -0.51654,-3.198738 -1.25769,-6.265026 -2.02187,-8.364352 -0.51652,-1.420209 -1.39522,-3.219308 -2.04208,-4.183217 -0.48621,-0.724653 -1.81007,-2.310762 -1.87376,-2.245099 -0.0213,0.02201 0.17892,0.409047 0.44501,0.860197 2.13521,3.620752 4.1103,11.247482 4.15736,16.052714 l 0.011,0.732626 -0.38673,-1.198121 c -0.82898,-2.568323 -2.13362,-4.977887 -3.42047,-6.317465 -0.65026,-0.676949 -0.64914,-0.501581 0.003,0.757164 0.81387,1.566246 1.47491,3.461948 1.90647,5.467761 0.27325,1.270277 0.57359,3.376909 0.58589,4.110495 0.003,0.172083 0.33354,0.178239 5.4747,0.101921 l 5.47156,-0.08121 0.17659,-0.730466 z"
           id="path19875"
           inkscape:connector-curvature="0" />
      </g>
    </g>
  </g>
</svg>
