<?xml version="1.0" encoding="UTF-8" standalone="no"?>
<!-- Created with Inkscape (http://www.inkscape.org/) -->

<svg
   xmlns:dc="http://purl.org/dc/elements/1.1/"
   xmlns:cc="http://creativecommons.org/ns#"
   xmlns:rdf="http://www.w3.org/1999/02/22-rdf-syntax-ns#"
   xmlns:svg="http://www.w3.org/2000/svg"
   xmlns="http://www.w3.org/2000/svg"
   xmlns:sodipodi="http://sodipodi.sourceforge.net/DTD/sodipodi-0.dtd"
   xmlns:inkscape="http://www.inkscape.org/namespaces/inkscape"
   width="29.087881mm"
   height="24.953125mm"
   viewBox="0 0 103.0673 88.416584"
   id="svg5594"
   version="1.1"
   inkscape:version="0.91 r13725"
   inkscape:export-filename="C:\Users\lamw\Google Drive\Work\Figures\APSIS figures\NETs\icons\CCU.png"
   inkscape:export-xdpi="600.005"
   inkscape:export-ydpi="600.005"
   sodipodi:docname="CCU.svg">
  <defs
     id="defs5596">
    <marker
       inkscape:stockid="Arrow2Mend"
       orient="auto"
       refY="0"
       refX="0"
       id="marker6517"
       style="overflow:visible"
       inkscape:isstock="true">
      <path
         id="path6519"
         style="fill:#000000;fill-opacity:1;fill-rule:evenodd;stroke:#000000;stroke-width:0.625;stroke-linejoin:round;stroke-opacity:1"
         d="M 8.7185878,4.0337352 -2.2072895,0.01601326 8.7185884,-4.0017078 c -1.7454984,2.3720609 -1.7354408,5.6174519 -6e-7,8.035443 z"
         transform="scale(-0.6,-0.6)"
         inkscape:connector-curvature="0" />
    </marker>
    <inkscape:path-effect
       effect="spiro"
       id="path-effect6509"
       is_visible="true" />
  </defs>
  <sodipodi:namedview
     id="base"
     pagecolor="#ffffff"
     bordercolor="#666666"
     borderopacity="1.0"
     inkscape:pageopacity="0.0"
     inkscape:pageshadow="2"
     inkscape:zoom="0.7"
     inkscape:cx="-216.39737"
     inkscape:cy="-19.044483"
     inkscape:document-units="px"
     inkscape:current-layer="layer1"
     showgrid="false"
     fit-margin-top="0"
     fit-margin-left="0"
     fit-margin-right="0"
     fit-margin-bottom="0"
     inkscape:window-width="1920"
     inkscape:window-height="1027"
     inkscape:window-x="-8"
     inkscape:window-y="-8"
     inkscape:window-maximized="1" />
  <metadata
     id="metadata5599">
    <rdf:RDF>
      <cc:Work
         rdf:about="">
        <dc:format>image/svg+xml</dc:format>
        <dc:type
           rdf:resource="http://purl.org/dc/dcmitype/StillImage" />
        <dc:title></dc:title>
      </cc:Work>
    </rdf:RDF>
  </metadata>
  <g
     inkscape:label="Layer 1"
     inkscape:groupmode="layer"
     id="layer1"
     transform="translate(-277.03778,-339.58248)">
    <g
       transform="translate(-799.6924,52.160233)"
       id="g6701"
       inkscape:export-filename="C:\Users\lamw\Google Drive\Work\Figures\APSIS figures\NETs\icons\CCU.png"
       inkscape:export-xdpi="600.005"
       inkscape:export-ydpi="600.005">
      <g
         transform="matrix(0.71932437,0,0,0.72137624,801.13238,-17.922893)"
         id="g7418">
        <g
           id="g7401">
          <rect
             y="535.11316"
             x="457.59915"
             height="10.101525"
             width="20.203051"
             id="rect7357"
             style="opacity:1;fill:#000000;fill-opacity:1;fill-rule:nonzero;stroke:#000000;stroke-width:1.26649618;stroke-linecap:round;stroke-linejoin:miter;stroke-miterlimit:4;stroke-dasharray:none;stroke-dashoffset:0;stroke-opacity:1" />
          <rect
             y="535.11316"
             x="481.59027"
             height="10.101525"
             width="20.203051"
             id="rect7357-5"
             style="opacity:1;fill:#000000;fill-opacity:1;fill-rule:nonzero;stroke:#000000;stroke-width:1.26649618;stroke-linecap:round;stroke-linejoin:miter;stroke-miterlimit:4;stroke-dasharray:none;stroke-dashoffset:0;stroke-opacity:1" />
          <rect
             y="535.11316"
             x="505.58142"
             height="10.101525"
             width="20.203051"
             id="rect7357-6"
             style="opacity:1;fill:#000000;fill-opacity:1;fill-rule:nonzero;stroke:#000000;stroke-width:1.26649618;stroke-linecap:round;stroke-linejoin:miter;stroke-miterlimit:4;stroke-dasharray:none;stroke-dashoffset:0;stroke-opacity:1" />
        </g>
        <g
           id="g7414"
           transform="translate(0.63136292,0.08511353)">
          <rect
             y="521.72864"
             x="468.96338"
             height="10.101525"
             width="20.203051"
             id="rect7357-3"
             style="opacity:1;fill:#000000;fill-opacity:1;fill-rule:nonzero;stroke:#000000;stroke-width:1.26649618;stroke-linecap:round;stroke-linejoin:miter;stroke-miterlimit:4;stroke-dasharray:none;stroke-dashoffset:0;stroke-opacity:1" />
          <rect
             y="521.72864"
             x="492.95447"
             height="10.101525"
             width="20.203051"
             id="rect7357-5-2"
             style="opacity:1;fill:#000000;fill-opacity:1;fill-rule:nonzero;stroke:#000000;stroke-width:1.26649618;stroke-linecap:round;stroke-linejoin:miter;stroke-miterlimit:4;stroke-dasharray:none;stroke-dashoffset:0;stroke-opacity:1" />
        </g>
        <rect
           style="opacity:1;fill:#000000;fill-opacity:1;fill-rule:nonzero;stroke:#000000;stroke-width:1.26649618;stroke-linecap:round;stroke-linejoin:miter;stroke-miterlimit:4;stroke-dasharray:none;stroke-dashoffset:0;stroke-opacity:1"
           id="rect7357-6-4"
           width="20.203051"
           height="10.101525"
           x="481.59027"
           y="508.51434" />
      </g>
      <path
         sodipodi:nodetypes="csscssssssssssssssscssscssscsssscssccccscssssssssssccs"
         inkscape:connector-curvature="0"
         id="path11150-2"
         d="m 1102.7809,375.5974 -0.1256,-16.2031 c -0.1466,-18.90045 0.5232,-16.30479 -5.5636,-21.58805 l -3.9354,-3.41587 -1.9299,0.32983 c -9.1042,1.55583 -15.9359,-2.99211 -14.2355,-9.47676 0.4686,-1.78732 3.0713,-5.22449 4.737,-6.25593 0.7258,-0.44948 0.7169,-0.49868 -0.2836,-1.55576 -1.3676,-1.44503 -1.3652,-3.22501 0.012,-4.88952 0.5718,-0.69387 1.3586,-1.46296 1.7484,-1.70912 0.6274,-0.39629 0.6577,-0.62304 0.2649,-1.97999 -0.3555,-1.22786 -0.3374,-1.82224 0.091,-2.99047 0.6427,-1.7538 2.4155,-3.53731 4.1736,-4.19878 1.2551,-0.47224 1.2859,-0.54016 1.2384,-2.73116 -0.037,-1.74262 0.1558,-2.57372 0.8624,-3.70316 1.2744,-2.03715 4.3048,-3.54235 7.163,-3.55795 1.9193,-0.01 2.379,-0.17344 3.1369,-1.1123 1.4271,-1.76762 4.3744,-3.13225 6.7757,-3.13703 2.3169,-0.006 5.0027,0.89515 6.2762,2.1026 1.2204,1.157 2.3898,3.55226 2.3915,4.89789 0,1.00311 0.1612,1.18686 1.0411,1.19487 1.6514,0.0154 4.0626,1.48677 5.1853,3.16504 0.868,1.29742 1.0121,1.88431 0.9014,3.6735 l -0.1317,2.1294 1.4525,0.26438 c 1.9493,0.35473 4.1607,1.687 5.1284,3.0895 1.6172,2.34385 0.7138,5.76758 -1.9335,7.32835 l -1.1463,0.67584 1.0851,0.75239 c 1.3147,0.91147 3.3124,3.44821 4.1231,5.2357 1.7649,3.89087 0.6349,9.02529 -2.5333,11.51029 -3.1043,2.43513 -6.8944,3.19422 -10.9714,2.1974 l -1.9969,-0.48825 -1.8509,2.32024 c -1.018,1.27614 -3.197,4.15712 -4.8423,6.40217 l -2.9915,4.08189 0.1089,13.37598 0.042,14.29966 c 0,0 -2.0517,-0.0338 -3.4623,-0.0338 z m 8.287,-37.70274 c 1.74,-1.89263 3.0829,-3.51347 2.9842,-3.60189 -0.099,-0.0884 -0.7425,-0.55326 -1.4305,-1.03299 -1.1545,-0.80501 -1.4013,-0.82778 -3.2016,-0.29536 -1.0729,0.3173 -2.3536,0.5769 -2.8459,0.5769 -0.885,0 -0.8924,0.0374 -0.6548,3.34071 0.3575,4.97228 0.4658,5.38078 1.292,4.87661 0.3812,-0.23259 2.1167,-1.97137 3.8566,-3.86398 z m -8.1712,-1.01263 c 0.5207,-3.43761 0.5066,-3.48525 -1.1231,-3.82025 -0.8319,-0.1709 -1.9821,-0.51688 -2.556,-0.76874 -0.8178,-0.35888 -1.3304,-0.30191 -2.3702,0.26335 -0.7296,0.39667 -1.2775,0.8887 -1.2176,1.0934 0.1781,0.60965 5.7116,4.59195 6.4102,4.61339 0.4371,0.0138 0.7128,-0.43109 0.8567,-1.38115 z"
         style="fill:#000000" />
      <path
         sodipodi:nodetypes="cc"
         inkscape:connector-curvature="0"
         inkscape:original-d="m 1115.1119,343.14344 15.6574,11.23794"
         inkscape:path-effect="#path-effect6509"
         id="path6507"
         d="m 1115.1119,343.14344 15.6574,11.23794"
         style="fill:none;fill-rule:evenodd;stroke:#000000;stroke-width:2;stroke-linecap:butt;stroke-linejoin:miter;stroke-miterlimit:4;stroke-dasharray:none;stroke-opacity:1;marker-end:url(#marker6517)" />
    </g>
  </g>
</svg>
